G04 ---------------------------- Layer name :TOP PASTER LAYER*
G04 EasyEDA v5.8.22, Wed, 26 Dec 2018 05:37:28 GMT*
G04 8ad1f06e4ff34cadb9936333048842b5*
G04 Gerber Generator version 0.2*
G04 Scale: 100 percent, Rotated: No, Reflected: No *
G04 Dimensions in inches *
G04 leading zeros omitted , absolute positions ,2 integer and 4 decimal *
%FSLAX24Y24*%
%MOIN*%
G90*
G70D02*

%ADD19C,0.009843*%
%ADD20C,0.011810*%
%ADD21C,0.027559*%
%ADD24R,0.068900X0.068900*%
%ADD25R,0.010000X0.027560*%
%ADD26R,0.027560X0.010000*%
%ADD27R,0.043307X0.039370*%
%ADD28R,0.063000X0.071000*%
%ADD29R,0.039370X0.043307*%
%ADD30R,0.052000X0.059900*%
%ADD31R,0.015748X0.023622*%
%ADD32R,0.031496X0.039370*%

%LPD*%
G54D19*
G01X3553Y2501D02*
G01X3553Y2205D01*
G01X3750Y2501D02*
G01X3750Y2205D01*
G01X3948Y2501D02*
G01X3948Y2205D01*
G01X4144Y2501D02*
G01X4144Y2205D01*
G54D20*
G01X2759Y2492D02*
G01X2759Y2215D01*
G54D19*
G01X2963Y2501D02*
G01X2963Y2205D01*
G01X3159Y2501D02*
G01X3159Y2205D01*
G01X3357Y2501D02*
G01X3357Y2205D01*
G01X4340Y2501D02*
G01X4340Y2205D01*
G01X4538Y2501D02*
G01X4538Y2205D01*
G01X4735Y2501D02*
G01X4735Y2205D01*
G54D20*
G01X4939Y2492D02*
G01X4939Y2215D01*
G54D19*
G01X3651Y3132D02*
G01X3651Y2836D01*
G01X3848Y3132D02*
G01X3848Y2836D01*
G01X4046Y3132D02*
G01X4046Y2836D01*
G01X4243Y3132D02*
G01X4243Y2836D01*
G54D20*
G01X2857Y3121D02*
G01X2857Y2846D01*
G54D19*
G01X3061Y3132D02*
G01X3061Y2836D01*
G01X3259Y3132D02*
G01X3259Y2836D01*
G01X4439Y3132D02*
G01X4439Y2836D01*
G01X4636Y3132D02*
G01X4636Y2836D01*
G01X4832Y3132D02*
G01X4832Y2836D01*
G54D20*
G01X5038Y3121D02*
G01X5038Y2846D01*
G54D19*
G01X3457Y3132D02*
G01X3457Y2836D01*
G54D21*
G01X5150Y5696D02*
G01X5150Y5263D01*
G01X5650Y5696D02*
G01X5650Y5263D01*
G01X6150Y5696D02*
G01X6150Y5263D01*
G01X6650Y5696D02*
G01X6650Y5263D01*
G01X5150Y8136D02*
G01X5150Y7703D01*
G01X5650Y8136D02*
G01X5650Y7703D01*
G01X6150Y8136D02*
G01X6150Y7703D01*
G01X6650Y8136D02*
G01X6650Y7703D01*
G01X7150Y11503D02*
G01X7150Y11936D01*
G01X6650Y11503D02*
G01X6650Y11936D01*
G01X6150Y11503D02*
G01X6150Y11936D01*
G01X5650Y11503D02*
G01X5650Y11936D01*
G01X7150Y9063D02*
G01X7150Y9496D01*
G01X6650Y9063D02*
G01X6650Y9496D01*
G01X6150Y9063D02*
G01X6150Y9496D01*
G01X5650Y9063D02*
G01X5650Y9496D01*
G54D24*
G01X1880Y7800D03*
G54D25*
G01X1486Y7169D03*
G01X1644Y7170D03*
G01X1801Y7169D03*
G01X1959Y7169D03*
G01X2117Y7169D03*
G01X2274Y7169D03*
G54D26*
G01X2550Y7406D03*
G01X2550Y7563D03*
G01X2550Y7721D03*
G01X2550Y7879D03*
G01X2549Y8036D03*
G01X2549Y8194D03*
G54D25*
G01X2274Y8430D03*
G01X2117Y8430D03*
G01X1958Y8429D03*
G01X1801Y8430D03*
G01X1643Y8430D03*
G01X1487Y8429D03*
G54D26*
G01X1249Y8194D03*
G01X1249Y8037D03*
G01X1249Y7879D03*
G01X1249Y7721D03*
G01X1249Y7563D03*
G01X1249Y7406D03*
G54D27*
G01X600Y7260D03*
G01X600Y6709D03*
G01X600Y8139D03*
G01X600Y8690D03*
G01X7300Y7960D03*
G01X7300Y7409D03*
G01X4200Y8539D03*
G01X4200Y9090D03*
G01X4900Y8839D03*
G01X4900Y9390D03*
G01X4200Y10360D03*
G01X4200Y9809D03*
G01X4200Y11139D03*
G01X4200Y11690D03*
G54D28*
G01X5160Y4500D03*
G01X4040Y4500D03*
G54D29*
G01X2639Y4500D03*
G01X3190Y4500D03*
G01X7360Y3600D03*
G01X6809Y3600D03*
G54D30*
G01X6718Y4500D03*
G01X7481Y4500D03*
G54D27*
G01X2800Y5839D03*
G01X2800Y6390D03*
G01X3500Y5839D03*
G01X3500Y6390D03*
G01X4200Y5839D03*
G01X4200Y6390D03*
G01X4300Y7660D03*
G01X4300Y7109D03*
G01X3500Y7660D03*
G01X3500Y7109D03*
G54D31*
G01X2055Y4913D03*
G01X1544Y4913D03*
G01X1800Y4086D03*
G54D32*
G01X1500Y10200D03*
G01X500Y10200D03*
G54D29*
G01X2560Y10200D03*
G01X2009Y10200D03*
G01X2560Y9400D03*
G01X2009Y9400D03*
G01X624Y9400D03*
G01X1175Y9400D03*
M00*
M02*
