G04 ---------------------------- Layer name :TOP LAYER*
G04 EasyEDA v5.8.22, Wed, 26 Dec 2018 05:37:28 GMT*
G04 8ad1f06e4ff34cadb9936333048842b5*
G04 Gerber Generator version 0.2*
G04 Scale: 100 percent, Rotated: No, Reflected: No *
G04 Dimensions in inches *
G04 leading zeros omitted , absolute positions ,2 integer and 4 decimal *
%FSLAX24Y24*%
%MOIN*%
G90*
G70D02*

%ADD11C,0.019000*%
%ADD12C,0.013000*%
%ADD13C,0.020000*%
%ADD14C,0.021000*%
%ADD15C,0.006000*%
%ADD16C,0.054000*%
%ADD17C,0.008000*%
%ADD18C,0.050000*%
%ADD19C,0.009843*%
%ADD20C,0.011810*%
%ADD21C,0.027559*%
%ADD22C,0.017716*%
%ADD23C,0.024400*%
%ADD24R,0.068900X0.068900*%
%ADD25R,0.010000X0.027560*%
%ADD26R,0.027560X0.010000*%
%ADD27R,0.043307X0.039370*%
%ADD28R,0.063000X0.071000*%
%ADD29R,0.039370X0.043307*%
%ADD30R,0.052000X0.059900*%
%ADD31R,0.015748X0.023622*%
%ADD32R,0.031496X0.039370*%
%ADD33C,0.062000*%
%ADD34R,0.062000X0.062000*%
%ADD35R,0.066929X0.062000*%
%ADD36C,0.066929*%
%ADD37C,0.047240*%
%ADD38C,0.043307*%

%LPD*%
G36*
G01X1881Y7402D02*
G01X1880Y7402D01*
G01X1880Y7402D01*
G01X1876Y7403D01*
G01X1872Y7404D01*
G01X1868Y7405D01*
G01X1864Y7406D01*
G01X1860Y7406D01*
G01X1856Y7406D01*
G01X1851Y7407D01*
G01X1751Y7407D01*
G01X1747Y7406D01*
G01X1743Y7406D01*
G01X1739Y7406D01*
G01X1735Y7405D01*
G01X1731Y7404D01*
G01X1727Y7403D01*
G01X1725Y7403D01*
G01X1723Y7403D01*
G01X1719Y7404D01*
G01X1715Y7405D01*
G01X1711Y7406D01*
G01X1708Y7407D01*
G01X1708Y7628D01*
G01X1485Y7628D01*
G01X1485Y7629D01*
G01X1484Y7633D01*
G01X1483Y7637D01*
G01X1482Y7641D01*
G01X1482Y7642D01*
G01X1482Y7642D01*
G01X1483Y7646D01*
G01X1484Y7650D01*
G01X1485Y7654D01*
G01X1486Y7658D01*
G01X1486Y7662D01*
G01X1486Y7666D01*
G01X1486Y7671D01*
G01X1486Y7771D01*
G01X1486Y7775D01*
G01X1486Y7779D01*
G01X1486Y7783D01*
G01X1485Y7787D01*
G01X1484Y7791D01*
G01X1483Y7795D01*
G01X1482Y7799D01*
G01X1482Y7800D01*
G01X1482Y7800D01*
G01X1483Y7804D01*
G01X1484Y7808D01*
G01X1485Y7812D01*
G01X1486Y7816D01*
G01X1486Y7820D01*
G01X1486Y7824D01*
G01X1486Y7828D01*
G01X1486Y7928D01*
G01X1486Y7933D01*
G01X1486Y7937D01*
G01X1486Y7941D01*
G01X1485Y7945D01*
G01X1484Y7949D01*
G01X1483Y7953D01*
G01X1482Y7957D01*
G01X1482Y7957D01*
G01X1482Y7958D01*
G01X1483Y7962D01*
G01X1484Y7966D01*
G01X1485Y7970D01*
G01X1485Y7972D01*
G01X1708Y7972D01*
G01X1708Y8194D01*
G01X1710Y8194D01*
G01X1714Y8195D01*
G01X1718Y8196D01*
G01X1722Y8197D01*
G01X1723Y8197D01*
G01X1723Y8197D01*
G01X1727Y8196D01*
G01X1731Y8195D01*
G01X1735Y8194D01*
G01X1739Y8193D01*
G01X1743Y8193D01*
G01X1747Y8193D01*
G01X1751Y8192D01*
G01X1851Y8192D01*
G01X1856Y8193D01*
G01X1860Y8193D01*
G01X1864Y8193D01*
G01X1868Y8194D01*
G01X1872Y8195D01*
G01X1876Y8196D01*
G01X1878Y8196D01*
G01X1880Y8196D01*
G01X1884Y8195D01*
G01X1888Y8194D01*
G01X1892Y8193D01*
G01X1896Y8192D01*
G01X1900Y8192D01*
G01X1904Y8192D01*
G01X1909Y8192D01*
G01X2009Y8192D01*
G01X2013Y8192D01*
G01X2017Y8192D01*
G01X2021Y8192D01*
G01X2025Y8193D01*
G01X2029Y8194D01*
G01X2033Y8195D01*
G01X2037Y8196D01*
G01X2040Y8196D01*
G01X2043Y8196D01*
G01X2047Y8195D01*
G01X2051Y8194D01*
G01X2052Y8194D01*
G01X2052Y7972D01*
G01X2312Y7972D01*
G01X2313Y7969D01*
G01X2314Y7965D01*
G01X2315Y7961D01*
G01X2316Y7957D01*
G01X2316Y7955D01*
G01X2316Y7953D01*
G01X2315Y7949D01*
G01X2314Y7945D01*
G01X2313Y7941D01*
G01X2313Y7937D01*
G01X2313Y7933D01*
G01X2313Y7928D01*
G01X2313Y7904D01*
G01X2354Y7904D01*
G01X2357Y7902D01*
G01X2360Y7900D01*
G01X2364Y7898D01*
G01X2368Y7896D01*
G01X2371Y7894D01*
G01X2375Y7892D01*
G01X2379Y7891D01*
G01X2383Y7890D01*
G01X2387Y7889D01*
G01X2391Y7888D01*
G01X2395Y7887D01*
G01X2399Y7886D01*
G01X2403Y7886D01*
G01X2407Y7886D01*
G01X2411Y7886D01*
G01X2686Y7886D01*
G01X2691Y7886D01*
G01X2695Y7886D01*
G01X2699Y7886D01*
G01X2703Y7887D01*
G01X2707Y7888D01*
G01X2711Y7889D01*
G01X2715Y7890D01*
G01X2719Y7891D01*
G01X2723Y7892D01*
G01X2727Y7894D01*
G01X2730Y7896D01*
G01X2734Y7898D01*
G01X2738Y7900D01*
G01X2741Y7902D01*
G01X2744Y7904D01*
G01X2788Y7904D01*
G01X2788Y7928D01*
G01X2787Y7933D01*
G01X2787Y7937D01*
G01X2787Y7941D01*
G01X2786Y7945D01*
G01X2785Y7949D01*
G01X2784Y7953D01*
G01X2783Y7957D01*
G01X2783Y7959D01*
G01X2783Y7961D01*
G01X2784Y7965D01*
G01X2785Y7969D01*
G01X2786Y7973D01*
G01X2786Y7977D01*
G01X2786Y7981D01*
G01X2786Y7986D01*
G01X2786Y8015D01*
G01X2959Y7842D01*
G01X2959Y7679D01*
G01X2951Y7682D01*
G01X2932Y7686D01*
G01X2914Y7689D01*
G01X2897Y7689D01*
G01X2894Y7690D01*
G01X2890Y7692D01*
G01X2885Y7694D01*
G01X2880Y7696D01*
G01X2875Y7697D01*
G01X2871Y7699D01*
G01X2866Y7700D01*
G01X2861Y7701D01*
G01X2856Y7702D01*
G01X2851Y7702D01*
G01X2846Y7703D01*
G01X2841Y7703D01*
G01X2836Y7703D01*
G01X2788Y7703D01*
G01X2788Y7771D01*
G01X2787Y7775D01*
G01X2787Y7779D01*
G01X2787Y7783D01*
G01X2786Y7787D01*
G01X2785Y7791D01*
G01X2784Y7795D01*
G01X2783Y7799D01*
G01X2783Y7800D01*
G01X2783Y7800D01*
G01X2784Y7804D01*
G01X2785Y7808D01*
G01X2786Y7812D01*
G01X2787Y7816D01*
G01X2787Y7820D01*
G01X2787Y7824D01*
G01X2788Y7828D01*
G01X2788Y7854D01*
G01X2743Y7854D01*
G01X2742Y7854D01*
G01X2739Y7856D01*
G01X2735Y7858D01*
G01X2731Y7860D01*
G01X2728Y7862D01*
G01X2724Y7864D01*
G01X2720Y7865D01*
G01X2716Y7866D01*
G01X2712Y7867D01*
G01X2708Y7868D01*
G01X2704Y7869D01*
G01X2700Y7870D01*
G01X2696Y7870D01*
G01X2692Y7870D01*
G01X2688Y7871D01*
G01X2413Y7871D01*
G01X2408Y7870D01*
G01X2404Y7870D01*
G01X2400Y7870D01*
G01X2396Y7869D01*
G01X2392Y7868D01*
G01X2388Y7867D01*
G01X2384Y7866D01*
G01X2380Y7865D01*
G01X2376Y7864D01*
G01X2372Y7862D01*
G01X2369Y7860D01*
G01X2365Y7858D01*
G01X2361Y7856D01*
G01X2358Y7854D01*
G01X2357Y7854D01*
G01X2313Y7854D01*
G01X2313Y7828D01*
G01X2313Y7824D01*
G01X2313Y7820D01*
G01X2313Y7816D01*
G01X2314Y7812D01*
G01X2315Y7808D01*
G01X2316Y7804D01*
G01X2317Y7800D01*
G01X2317Y7800D01*
G01X2317Y7799D01*
G01X2316Y7795D01*
G01X2315Y7791D01*
G01X2314Y7787D01*
G01X2313Y7783D01*
G01X2313Y7779D01*
G01X2313Y7775D01*
G01X2313Y7771D01*
G01X2313Y7671D01*
G01X2313Y7666D01*
G01X2313Y7662D01*
G01X2313Y7658D01*
G01X2314Y7654D01*
G01X2315Y7650D01*
G01X2316Y7646D01*
G01X2317Y7642D01*
G01X2317Y7642D01*
G01X2317Y7641D01*
G01X2316Y7637D01*
G01X2315Y7633D01*
G01X2314Y7629D01*
G01X2314Y7628D01*
G01X2052Y7628D01*
G01X2052Y7405D01*
G01X2051Y7405D01*
G01X2047Y7404D01*
G01X2043Y7403D01*
G01X2039Y7402D01*
G01X2038Y7402D01*
G01X2038Y7402D01*
G01X2034Y7403D01*
G01X2030Y7404D01*
G01X2026Y7405D01*
G01X2022Y7406D01*
G01X2018Y7406D01*
G01X2014Y7406D01*
G01X2009Y7407D01*
G01X1909Y7407D01*
G01X1905Y7406D01*
G01X1901Y7406D01*
G01X1897Y7406D01*
G01X1893Y7405D01*
G01X1889Y7404D01*
G01X1885Y7403D01*
G01X1881Y7402D01*
G37*

%LPC*%

%LPD*%
G36*
G01X1900Y0D02*
G01X0Y0D01*
G01X0Y13200D01*
G01X3800Y13200D01*
G01X3800Y11400D01*
G01X3800Y11395D01*
G01X3800Y11391D01*
G01X3800Y11387D01*
G01X3801Y11383D01*
G01X3802Y11379D01*
G01X3803Y11375D01*
G01X3804Y11371D01*
G01X3805Y11367D01*
G01X3806Y11363D01*
G01X3808Y11359D01*
G01X3810Y11356D01*
G01X3812Y11352D01*
G01X3814Y11348D01*
G01X3816Y11345D01*
G01X3818Y11341D01*
G01X3821Y11338D01*
G01X3823Y11335D01*
G01X3826Y11332D01*
G01X3829Y11329D01*
G01X3832Y11326D01*
G01X3835Y11323D01*
G01X3838Y11321D01*
G01X3841Y11318D01*
G01X3845Y11316D01*
G01X3848Y11314D01*
G01X3852Y11312D01*
G01X3856Y11310D01*
G01X3859Y11308D01*
G01X3863Y11306D01*
G01X3867Y11305D01*
G01X3871Y11304D01*
G01X3875Y11303D01*
G01X3879Y11302D01*
G01X3882Y11301D01*
G01X3882Y10942D01*
G01X3883Y10938D01*
G01X3883Y10934D01*
G01X3883Y10930D01*
G01X3884Y10926D01*
G01X3885Y10922D01*
G01X3886Y10918D01*
G01X3887Y10914D01*
G01X3888Y10910D01*
G01X3889Y10906D01*
G01X3891Y10902D01*
G01X3893Y10899D01*
G01X3895Y10895D01*
G01X3897Y10891D01*
G01X3899Y10888D01*
G01X3901Y10884D01*
G01X3904Y10881D01*
G01X3906Y10878D01*
G01X3909Y10875D01*
G01X3912Y10872D01*
G01X3915Y10869D01*
G01X3918Y10866D01*
G01X3921Y10864D01*
G01X3924Y10861D01*
G01X3928Y10859D01*
G01X3931Y10857D01*
G01X3935Y10855D01*
G01X3939Y10853D01*
G01X3942Y10851D01*
G01X3946Y10849D01*
G01X3950Y10848D01*
G01X3954Y10847D01*
G01X3958Y10846D01*
G01X3962Y10845D01*
G01X3966Y10844D01*
G01X3970Y10843D01*
G01X3974Y10843D01*
G01X3978Y10843D01*
G01X3982Y10842D01*
G01X4059Y10842D01*
G01X4059Y10657D01*
G01X3982Y10657D01*
G01X3978Y10656D01*
G01X3974Y10656D01*
G01X3970Y10656D01*
G01X3966Y10655D01*
G01X3962Y10654D01*
G01X3958Y10653D01*
G01X3954Y10652D01*
G01X3950Y10651D01*
G01X3946Y10650D01*
G01X3942Y10648D01*
G01X3939Y10646D01*
G01X3935Y10644D01*
G01X3931Y10642D01*
G01X3928Y10640D01*
G01X3924Y10638D01*
G01X3921Y10635D01*
G01X3918Y10633D01*
G01X3915Y10630D01*
G01X3912Y10627D01*
G01X3909Y10624D01*
G01X3906Y10621D01*
G01X3904Y10618D01*
G01X3901Y10615D01*
G01X3899Y10611D01*
G01X3897Y10608D01*
G01X3895Y10604D01*
G01X3893Y10600D01*
G01X3891Y10597D01*
G01X3889Y10593D01*
G01X3888Y10589D01*
G01X3887Y10585D01*
G01X3886Y10581D01*
G01X3885Y10577D01*
G01X3884Y10573D01*
G01X3883Y10569D01*
G01X3883Y10565D01*
G01X3883Y10561D01*
G01X3882Y10557D01*
G01X3882Y10163D01*
G01X3883Y10159D01*
G01X3883Y10155D01*
G01X3883Y10151D01*
G01X3884Y10147D01*
G01X3885Y10143D01*
G01X3886Y10139D01*
G01X3887Y10135D01*
G01X3888Y10131D01*
G01X3889Y10127D01*
G01X3891Y10123D01*
G01X3893Y10120D01*
G01X3895Y10116D01*
G01X3897Y10112D01*
G01X3899Y10109D01*
G01X3901Y10105D01*
G01X3904Y10102D01*
G01X3906Y10099D01*
G01X3909Y10096D01*
G01X3912Y10093D01*
G01X3915Y10090D01*
G01X3918Y10087D01*
G01X3921Y10085D01*
G01X3921Y10084D01*
G01X3921Y10084D01*
G01X3918Y10082D01*
G01X3915Y10079D01*
G01X3912Y10076D01*
G01X3909Y10073D01*
G01X3906Y10070D01*
G01X3904Y10067D01*
G01X3901Y10064D01*
G01X3899Y10060D01*
G01X3897Y10057D01*
G01X3895Y10053D01*
G01X3893Y10049D01*
G01X3891Y10046D01*
G01X3889Y10042D01*
G01X3888Y10038D01*
G01X3887Y10034D01*
G01X3886Y10030D01*
G01X3885Y10026D01*
G01X3884Y10022D01*
G01X3883Y10018D01*
G01X3883Y10014D01*
G01X3883Y10010D01*
G01X3882Y10005D01*
G01X3882Y9613D01*
G01X3883Y9608D01*
G01X3883Y9604D01*
G01X3883Y9600D01*
G01X3884Y9596D01*
G01X3885Y9592D01*
G01X3886Y9588D01*
G01X3887Y9584D01*
G01X3888Y9580D01*
G01X3889Y9576D01*
G01X3891Y9572D01*
G01X3893Y9569D01*
G01X3895Y9565D01*
G01X3897Y9561D01*
G01X3899Y9558D01*
G01X3901Y9554D01*
G01X3904Y9551D01*
G01X3906Y9548D01*
G01X3909Y9545D01*
G01X3912Y9542D01*
G01X3915Y9539D01*
G01X3918Y9536D01*
G01X3921Y9534D01*
G01X3924Y9531D01*
G01X3928Y9529D01*
G01X3931Y9527D01*
G01X3935Y9525D01*
G01X3939Y9523D01*
G01X3942Y9521D01*
G01X3946Y9519D01*
G01X3950Y9518D01*
G01X3954Y9517D01*
G01X3958Y9516D01*
G01X3962Y9515D01*
G01X3966Y9514D01*
G01X3970Y9513D01*
G01X3974Y9513D01*
G01X3978Y9513D01*
G01X3982Y9513D01*
G01X4059Y9513D01*
G01X4059Y9386D01*
G01X3982Y9386D01*
G01X3978Y9386D01*
G01X3974Y9386D01*
G01X3970Y9386D01*
G01X3966Y9385D01*
G01X3962Y9384D01*
G01X3958Y9383D01*
G01X3954Y9382D01*
G01X3950Y9381D01*
G01X3946Y9380D01*
G01X3942Y9378D01*
G01X3939Y9376D01*
G01X3935Y9374D01*
G01X3931Y9372D01*
G01X3928Y9370D01*
G01X3924Y9368D01*
G01X3921Y9365D01*
G01X3918Y9363D01*
G01X3915Y9360D01*
G01X3912Y9357D01*
G01X3909Y9354D01*
G01X3906Y9351D01*
G01X3904Y9348D01*
G01X3901Y9345D01*
G01X3899Y9341D01*
G01X3897Y9338D01*
G01X3895Y9334D01*
G01X3893Y9330D01*
G01X3891Y9327D01*
G01X3889Y9323D01*
G01X3888Y9319D01*
G01X3887Y9315D01*
G01X3886Y9311D01*
G01X3885Y9307D01*
G01X3884Y9303D01*
G01X3883Y9299D01*
G01X3883Y9295D01*
G01X3883Y9291D01*
G01X3882Y9286D01*
G01X3882Y8894D01*
G01X3883Y8889D01*
G01X3883Y8885D01*
G01X3883Y8881D01*
G01X3884Y8877D01*
G01X3885Y8873D01*
G01X3886Y8869D01*
G01X3887Y8865D01*
G01X3888Y8861D01*
G01X3889Y8857D01*
G01X3891Y8853D01*
G01X3893Y8850D01*
G01X3895Y8846D01*
G01X3897Y8842D01*
G01X3899Y8839D01*
G01X3901Y8835D01*
G01X3904Y8832D01*
G01X3906Y8829D01*
G01X3909Y8826D01*
G01X3912Y8823D01*
G01X3915Y8820D01*
G01X3918Y8817D01*
G01X3921Y8815D01*
G01X3921Y8815D01*
G01X3921Y8814D01*
G01X3918Y8812D01*
G01X3915Y8809D01*
G01X3912Y8806D01*
G01X3909Y8803D01*
G01X3906Y8800D01*
G01X3904Y8797D01*
G01X3901Y8794D01*
G01X3899Y8790D01*
G01X3897Y8787D01*
G01X3895Y8783D01*
G01X3893Y8779D01*
G01X3891Y8776D01*
G01X3889Y8772D01*
G01X3888Y8768D01*
G01X3887Y8764D01*
G01X3886Y8760D01*
G01X3885Y8756D01*
G01X3884Y8752D01*
G01X3883Y8748D01*
G01X3883Y8744D01*
G01X3883Y8740D01*
G01X3883Y8740D01*
G01X3857Y8740D01*
G01X3840Y8757D01*
G01X3840Y8800D01*
G01X3839Y8804D01*
G01X3839Y8809D01*
G01X3839Y8814D01*
G01X3838Y8819D01*
G01X3837Y8824D01*
G01X3836Y8829D01*
G01X3835Y8833D01*
G01X3834Y8838D01*
G01X3833Y8843D01*
G01X3831Y8847D01*
G01X3829Y8852D01*
G01X3827Y8856D01*
G01X3825Y8861D01*
G01X3823Y8865D01*
G01X3821Y8869D01*
G01X3818Y8874D01*
G01X3816Y8878D01*
G01X3813Y8882D01*
G01X3810Y8886D01*
G01X3807Y8889D01*
G01X3804Y8893D01*
G01X3800Y8897D01*
G01X3797Y8900D01*
G01X3793Y8904D01*
G01X3789Y8907D01*
G01X3786Y8910D01*
G01X3782Y8913D01*
G01X3778Y8916D01*
G01X3774Y8918D01*
G01X3769Y8921D01*
G01X3765Y8923D01*
G01X3761Y8925D01*
G01X3756Y8927D01*
G01X3752Y8929D01*
G01X3747Y8931D01*
G01X3743Y8933D01*
G01X3738Y8934D01*
G01X3733Y8935D01*
G01X3729Y8936D01*
G01X3724Y8937D01*
G01X3719Y8938D01*
G01X3714Y8939D01*
G01X3709Y8939D01*
G01X3704Y8939D01*
G01X3700Y8940D01*
G01X2437Y8940D01*
G01X2581Y9083D01*
G01X2757Y9083D01*
G01X2761Y9083D01*
G01X2765Y9083D01*
G01X2769Y9084D01*
G01X2773Y9084D01*
G01X2778Y9085D01*
G01X2782Y9086D01*
G01X2786Y9087D01*
G01X2789Y9088D01*
G01X2793Y9090D01*
G01X2797Y9091D01*
G01X2801Y9093D01*
G01X2805Y9095D01*
G01X2808Y9097D01*
G01X2812Y9099D01*
G01X2815Y9102D01*
G01X2818Y9104D01*
G01X2822Y9107D01*
G01X2825Y9109D01*
G01X2828Y9112D01*
G01X2831Y9115D01*
G01X2833Y9118D01*
G01X2836Y9122D01*
G01X2838Y9125D01*
G01X2841Y9128D01*
G01X2843Y9132D01*
G01X2845Y9135D01*
G01X2847Y9139D01*
G01X2849Y9143D01*
G01X2850Y9147D01*
G01X2852Y9151D01*
G01X2853Y9154D01*
G01X2854Y9158D01*
G01X2855Y9162D01*
G01X2856Y9167D01*
G01X2856Y9171D01*
G01X2857Y9175D01*
G01X2857Y9179D01*
G01X2857Y9183D01*
G01X2857Y9616D01*
G01X2857Y9620D01*
G01X2857Y9624D01*
G01X2856Y9628D01*
G01X2856Y9632D01*
G01X2855Y9637D01*
G01X2854Y9641D01*
G01X2853Y9645D01*
G01X2852Y9649D01*
G01X2850Y9652D01*
G01X2849Y9656D01*
G01X2847Y9660D01*
G01X2845Y9664D01*
G01X2843Y9667D01*
G01X2841Y9671D01*
G01X2838Y9674D01*
G01X2836Y9677D01*
G01X2833Y9681D01*
G01X2831Y9684D01*
G01X2828Y9687D01*
G01X2825Y9690D01*
G01X2822Y9692D01*
G01X2818Y9695D01*
G01X2815Y9697D01*
G01X2812Y9700D01*
G01X2808Y9702D01*
G01X2805Y9704D01*
G01X2801Y9706D01*
G01X2797Y9708D01*
G01X2793Y9709D01*
G01X2789Y9711D01*
G01X2786Y9712D01*
G01X2782Y9713D01*
G01X2778Y9714D01*
G01X2773Y9715D01*
G01X2769Y9715D01*
G01X2765Y9716D01*
G01X2761Y9716D01*
G01X2757Y9716D01*
G01X2523Y9716D01*
G01X2659Y9852D01*
G01X2663Y9855D01*
G01X2666Y9859D01*
G01X2669Y9863D01*
G01X2672Y9867D01*
G01X2675Y9871D01*
G01X2678Y9875D01*
G01X2680Y9879D01*
G01X2683Y9883D01*
G01X2757Y9883D01*
G01X2761Y9883D01*
G01X2765Y9883D01*
G01X2769Y9884D01*
G01X2773Y9884D01*
G01X2778Y9885D01*
G01X2782Y9886D01*
G01X2786Y9887D01*
G01X2789Y9888D01*
G01X2793Y9890D01*
G01X2797Y9891D01*
G01X2801Y9893D01*
G01X2805Y9895D01*
G01X2808Y9897D01*
G01X2812Y9899D01*
G01X2815Y9902D01*
G01X2818Y9904D01*
G01X2822Y9907D01*
G01X2825Y9909D01*
G01X2828Y9912D01*
G01X2831Y9915D01*
G01X2833Y9918D01*
G01X2836Y9922D01*
G01X2838Y9925D01*
G01X2841Y9928D01*
G01X2843Y9932D01*
G01X2845Y9935D01*
G01X2847Y9939D01*
G01X2849Y9943D01*
G01X2850Y9947D01*
G01X2852Y9951D01*
G01X2853Y9954D01*
G01X2854Y9958D01*
G01X2855Y9962D01*
G01X2856Y9967D01*
G01X2856Y9971D01*
G01X2857Y9975D01*
G01X2857Y9979D01*
G01X2857Y9983D01*
G01X2857Y10416D01*
G01X2857Y10420D01*
G01X2857Y10424D01*
G01X2856Y10428D01*
G01X2856Y10432D01*
G01X2855Y10437D01*
G01X2854Y10441D01*
G01X2853Y10445D01*
G01X2852Y10449D01*
G01X2850Y10452D01*
G01X2849Y10456D01*
G01X2847Y10460D01*
G01X2845Y10464D01*
G01X2843Y10467D01*
G01X2841Y10471D01*
G01X2838Y10474D01*
G01X2836Y10477D01*
G01X2833Y10481D01*
G01X2831Y10484D01*
G01X2828Y10487D01*
G01X2825Y10490D01*
G01X2822Y10492D01*
G01X2818Y10495D01*
G01X2815Y10497D01*
G01X2812Y10500D01*
G01X2808Y10502D01*
G01X2805Y10504D01*
G01X2801Y10506D01*
G01X2797Y10508D01*
G01X2793Y10509D01*
G01X2789Y10511D01*
G01X2786Y10512D01*
G01X2782Y10513D01*
G01X2778Y10514D01*
G01X2773Y10515D01*
G01X2769Y10515D01*
G01X2765Y10516D01*
G01X2761Y10516D01*
G01X2757Y10516D01*
G01X2363Y10516D01*
G01X2359Y10516D01*
G01X2355Y10516D01*
G01X2351Y10515D01*
G01X2347Y10515D01*
G01X2343Y10514D01*
G01X2339Y10513D01*
G01X2335Y10512D01*
G01X2331Y10511D01*
G01X2327Y10509D01*
G01X2323Y10508D01*
G01X2319Y10506D01*
G01X2316Y10504D01*
G01X2312Y10502D01*
G01X2309Y10500D01*
G01X2305Y10497D01*
G01X2302Y10495D01*
G01X2299Y10492D01*
G01X2296Y10490D01*
G01X2293Y10487D01*
G01X2290Y10484D01*
G01X2287Y10481D01*
G01X2285Y10478D01*
G01X2282Y10481D01*
G01X2279Y10484D01*
G01X2277Y10487D01*
G01X2274Y10490D01*
G01X2270Y10492D01*
G01X2267Y10495D01*
G01X2264Y10497D01*
G01X2260Y10500D01*
G01X2257Y10502D01*
G01X2253Y10504D01*
G01X2250Y10506D01*
G01X2246Y10508D01*
G01X2242Y10509D01*
G01X2238Y10511D01*
G01X2234Y10512D01*
G01X2230Y10513D01*
G01X2226Y10514D01*
G01X2222Y10515D01*
G01X2218Y10515D01*
G01X2214Y10516D01*
G01X2210Y10516D01*
G01X2206Y10516D01*
G01X2149Y10516D01*
G01X2149Y10534D01*
G01X2155Y10540D01*
G01X2170Y10556D01*
G01X2184Y10574D01*
G01X2195Y10593D01*
G01X2205Y10613D01*
G01X2213Y10634D01*
G01X2218Y10655D01*
G01X2221Y10677D01*
G01X2223Y10700D01*
G01X2221Y10722D01*
G01X2218Y10744D01*
G01X2213Y10765D01*
G01X2205Y10786D01*
G01X2195Y10806D01*
G01X2184Y10825D01*
G01X2170Y10843D01*
G01X2155Y10859D01*
G01X2139Y10874D01*
G01X2120Y10887D01*
G01X2101Y10898D01*
G01X2081Y10907D01*
G01X2060Y10914D01*
G01X2038Y10919D01*
G01X2016Y10922D01*
G01X1994Y10922D01*
G01X1972Y10921D01*
G01X1950Y10917D01*
G01X1928Y10911D01*
G01X1908Y10903D01*
G01X1888Y10893D01*
G01X1869Y10881D01*
G01X1852Y10867D01*
G01X1836Y10851D01*
G01X1822Y10834D01*
G01X1809Y10816D01*
G01X1799Y10796D01*
G01X1790Y10776D01*
G01X1783Y10755D01*
G01X1779Y10733D01*
G01X1777Y10711D01*
G01X1777Y10688D01*
G01X1779Y10666D01*
G01X1783Y10644D01*
G01X1790Y10623D01*
G01X1799Y10603D01*
G01X1809Y10583D01*
G01X1822Y10565D01*
G01X1836Y10548D01*
G01X1852Y10532D01*
G01X1869Y10519D01*
G01X1869Y10516D01*
G01X1812Y10516D01*
G01X1808Y10516D01*
G01X1804Y10516D01*
G01X1800Y10515D01*
G01X1796Y10515D01*
G01X1792Y10514D01*
G01X1788Y10513D01*
G01X1784Y10512D01*
G01X1780Y10511D01*
G01X1776Y10509D01*
G01X1772Y10508D01*
G01X1768Y10506D01*
G01X1765Y10504D01*
G01X1761Y10502D01*
G01X1757Y10500D01*
G01X1754Y10497D01*
G01X1751Y10495D01*
G01X1747Y10492D01*
G01X1744Y10490D01*
G01X1741Y10487D01*
G01X1739Y10484D01*
G01X1736Y10481D01*
G01X1733Y10477D01*
G01X1731Y10474D01*
G01X1728Y10471D01*
G01X1727Y10468D01*
G01X1725Y10470D01*
G01X1722Y10473D01*
G01X1718Y10475D01*
G01X1715Y10478D01*
G01X1712Y10480D01*
G01X1708Y10482D01*
G01X1705Y10484D01*
G01X1701Y10486D01*
G01X1697Y10488D01*
G01X1693Y10489D01*
G01X1689Y10491D01*
G01X1686Y10492D01*
G01X1682Y10493D01*
G01X1678Y10494D01*
G01X1673Y10495D01*
G01X1669Y10496D01*
G01X1665Y10496D01*
G01X1661Y10496D01*
G01X1657Y10496D01*
G01X1342Y10496D01*
G01X1338Y10496D01*
G01X1334Y10496D01*
G01X1330Y10496D01*
G01X1326Y10495D01*
G01X1321Y10494D01*
G01X1317Y10493D01*
G01X1313Y10492D01*
G01X1310Y10491D01*
G01X1306Y10489D01*
G01X1302Y10488D01*
G01X1298Y10486D01*
G01X1294Y10484D01*
G01X1291Y10482D01*
G01X1287Y10480D01*
G01X1284Y10478D01*
G01X1281Y10475D01*
G01X1277Y10473D01*
G01X1274Y10470D01*
G01X1271Y10467D01*
G01X1268Y10464D01*
G01X1266Y10461D01*
G01X1263Y10458D01*
G01X1261Y10454D01*
G01X1258Y10451D01*
G01X1256Y10447D01*
G01X1254Y10444D01*
G01X1252Y10440D01*
G01X1250Y10436D01*
G01X1249Y10433D01*
G01X1247Y10429D01*
G01X1246Y10425D01*
G01X1245Y10421D01*
G01X1244Y10417D01*
G01X1243Y10413D01*
G01X1243Y10409D01*
G01X1242Y10405D01*
G01X1242Y10400D01*
G01X1242Y10396D01*
G01X1242Y10003D01*
G01X1242Y9998D01*
G01X1242Y9994D01*
G01X1243Y9990D01*
G01X1243Y9986D01*
G01X1244Y9982D01*
G01X1245Y9978D01*
G01X1246Y9974D01*
G01X1247Y9970D01*
G01X1249Y9966D01*
G01X1250Y9962D01*
G01X1252Y9959D01*
G01X1254Y9955D01*
G01X1256Y9951D01*
G01X1258Y9948D01*
G01X1261Y9944D01*
G01X1263Y9941D01*
G01X1266Y9938D01*
G01X1268Y9935D01*
G01X1271Y9932D01*
G01X1274Y9929D01*
G01X1277Y9926D01*
G01X1281Y9924D01*
G01X1284Y9921D01*
G01X1287Y9919D01*
G01X1291Y9917D01*
G01X1294Y9915D01*
G01X1298Y9913D01*
G01X1302Y9911D01*
G01X1306Y9909D01*
G01X1310Y9908D01*
G01X1313Y9907D01*
G01X1317Y9906D01*
G01X1321Y9905D01*
G01X1326Y9904D01*
G01X1330Y9903D01*
G01X1334Y9903D01*
G01X1338Y9903D01*
G01X1342Y9903D01*
G01X1657Y9903D01*
G01X1661Y9903D01*
G01X1665Y9903D01*
G01X1669Y9903D01*
G01X1673Y9904D01*
G01X1678Y9905D01*
G01X1682Y9906D01*
G01X1686Y9907D01*
G01X1689Y9908D01*
G01X1693Y9909D01*
G01X1697Y9911D01*
G01X1701Y9913D01*
G01X1705Y9915D01*
G01X1708Y9917D01*
G01X1712Y9919D01*
G01X1715Y9921D01*
G01X1718Y9924D01*
G01X1722Y9926D01*
G01X1725Y9929D01*
G01X1727Y9931D01*
G01X1728Y9928D01*
G01X1731Y9925D01*
G01X1733Y9922D01*
G01X1736Y9918D01*
G01X1739Y9915D01*
G01X1741Y9912D01*
G01X1744Y9909D01*
G01X1747Y9907D01*
G01X1751Y9904D01*
G01X1754Y9902D01*
G01X1757Y9899D01*
G01X1761Y9897D01*
G01X1765Y9895D01*
G01X1768Y9893D01*
G01X1772Y9891D01*
G01X1776Y9890D01*
G01X1780Y9888D01*
G01X1784Y9887D01*
G01X1788Y9886D01*
G01X1792Y9885D01*
G01X1796Y9884D01*
G01X1800Y9884D01*
G01X1804Y9883D01*
G01X1808Y9883D01*
G01X1812Y9883D01*
G01X2206Y9883D01*
G01X2210Y9883D01*
G01X2214Y9883D01*
G01X2218Y9884D01*
G01X2222Y9884D01*
G01X2226Y9885D01*
G01X2230Y9886D01*
G01X2234Y9887D01*
G01X2238Y9888D01*
G01X2242Y9890D01*
G01X2246Y9891D01*
G01X2250Y9893D01*
G01X2253Y9895D01*
G01X2257Y9897D01*
G01X2260Y9899D01*
G01X2264Y9902D01*
G01X2267Y9904D01*
G01X2270Y9907D01*
G01X2274Y9909D01*
G01X2277Y9912D01*
G01X2279Y9915D01*
G01X2282Y9918D01*
G01X2285Y9921D01*
G01X2287Y9918D01*
G01X2290Y9915D01*
G01X2293Y9912D01*
G01X2296Y9909D01*
G01X2299Y9907D01*
G01X2302Y9904D01*
G01X2305Y9902D01*
G01X2309Y9899D01*
G01X2310Y9898D01*
G01X2127Y9716D01*
G01X1812Y9716D01*
G01X1808Y9716D01*
G01X1804Y9716D01*
G01X1800Y9715D01*
G01X1796Y9715D01*
G01X1792Y9714D01*
G01X1788Y9713D01*
G01X1784Y9712D01*
G01X1780Y9711D01*
G01X1776Y9709D01*
G01X1772Y9708D01*
G01X1768Y9706D01*
G01X1765Y9704D01*
G01X1761Y9702D01*
G01X1757Y9700D01*
G01X1754Y9697D01*
G01X1751Y9695D01*
G01X1747Y9692D01*
G01X1744Y9690D01*
G01X1741Y9687D01*
G01X1739Y9684D01*
G01X1736Y9681D01*
G01X1733Y9677D01*
G01X1731Y9674D01*
G01X1728Y9671D01*
G01X1726Y9667D01*
G01X1724Y9664D01*
G01X1722Y9660D01*
G01X1721Y9656D01*
G01X1719Y9652D01*
G01X1718Y9649D01*
G01X1716Y9645D01*
G01X1715Y9641D01*
G01X1714Y9637D01*
G01X1713Y9632D01*
G01X1713Y9628D01*
G01X1712Y9624D01*
G01X1712Y9620D01*
G01X1712Y9616D01*
G01X1712Y9540D01*
G01X1472Y9540D01*
G01X1472Y9616D01*
G01X1472Y9620D01*
G01X1472Y9624D01*
G01X1471Y9628D01*
G01X1471Y9632D01*
G01X1470Y9637D01*
G01X1469Y9641D01*
G01X1468Y9645D01*
G01X1466Y9648D01*
G01X1465Y9652D01*
G01X1463Y9656D01*
G01X1462Y9660D01*
G01X1460Y9664D01*
G01X1458Y9667D01*
G01X1456Y9671D01*
G01X1453Y9674D01*
G01X1451Y9677D01*
G01X1448Y9681D01*
G01X1445Y9684D01*
G01X1443Y9687D01*
G01X1440Y9690D01*
G01X1437Y9692D01*
G01X1433Y9695D01*
G01X1430Y9697D01*
G01X1427Y9700D01*
G01X1423Y9702D01*
G01X1419Y9704D01*
G01X1416Y9706D01*
G01X1412Y9708D01*
G01X1408Y9709D01*
G01X1404Y9711D01*
G01X1400Y9712D01*
G01X1396Y9713D01*
G01X1392Y9714D01*
G01X1388Y9715D01*
G01X1384Y9715D01*
G01X1380Y9716D01*
G01X1376Y9716D01*
G01X1372Y9716D01*
G01X1057Y9716D01*
G01X757Y10016D01*
G01X757Y10396D01*
G01X757Y10400D01*
G01X757Y10405D01*
G01X756Y10409D01*
G01X756Y10413D01*
G01X755Y10417D01*
G01X754Y10421D01*
G01X753Y10425D01*
G01X752Y10429D01*
G01X750Y10433D01*
G01X749Y10436D01*
G01X747Y10440D01*
G01X745Y10444D01*
G01X743Y10447D01*
G01X741Y10451D01*
G01X738Y10454D01*
G01X736Y10458D01*
G01X733Y10461D01*
G01X731Y10464D01*
G01X728Y10467D01*
G01X725Y10470D01*
G01X722Y10473D01*
G01X718Y10475D01*
G01X715Y10478D01*
G01X712Y10480D01*
G01X708Y10482D01*
G01X705Y10484D01*
G01X701Y10486D01*
G01X697Y10488D01*
G01X693Y10489D01*
G01X689Y10491D01*
G01X686Y10492D01*
G01X682Y10493D01*
G01X678Y10494D01*
G01X673Y10495D01*
G01X669Y10496D01*
G01X665Y10496D01*
G01X661Y10496D01*
G01X657Y10496D01*
G01X342Y10496D01*
G01X338Y10496D01*
G01X334Y10496D01*
G01X330Y10496D01*
G01X326Y10495D01*
G01X321Y10494D01*
G01X317Y10493D01*
G01X313Y10492D01*
G01X310Y10491D01*
G01X306Y10489D01*
G01X302Y10488D01*
G01X298Y10486D01*
G01X294Y10484D01*
G01X291Y10482D01*
G01X287Y10480D01*
G01X284Y10478D01*
G01X281Y10475D01*
G01X277Y10473D01*
G01X274Y10470D01*
G01X271Y10467D01*
G01X268Y10464D01*
G01X266Y10461D01*
G01X263Y10458D01*
G01X261Y10454D01*
G01X258Y10451D01*
G01X256Y10447D01*
G01X254Y10444D01*
G01X252Y10440D01*
G01X250Y10436D01*
G01X249Y10433D01*
G01X247Y10429D01*
G01X246Y10425D01*
G01X245Y10421D01*
G01X244Y10417D01*
G01X243Y10413D01*
G01X243Y10409D01*
G01X242Y10405D01*
G01X242Y10400D01*
G01X242Y10396D01*
G01X242Y10003D01*
G01X242Y9998D01*
G01X242Y9994D01*
G01X243Y9990D01*
G01X243Y9986D01*
G01X244Y9982D01*
G01X245Y9978D01*
G01X246Y9974D01*
G01X247Y9970D01*
G01X249Y9966D01*
G01X250Y9962D01*
G01X252Y9959D01*
G01X254Y9955D01*
G01X256Y9951D01*
G01X258Y9948D01*
G01X261Y9944D01*
G01X263Y9941D01*
G01X266Y9938D01*
G01X268Y9935D01*
G01X271Y9932D01*
G01X274Y9929D01*
G01X277Y9926D01*
G01X281Y9924D01*
G01X284Y9921D01*
G01X287Y9919D01*
G01X291Y9917D01*
G01X294Y9915D01*
G01X298Y9913D01*
G01X302Y9911D01*
G01X306Y9909D01*
G01X310Y9908D01*
G01X313Y9907D01*
G01X317Y9906D01*
G01X321Y9905D01*
G01X326Y9904D01*
G01X330Y9903D01*
G01X334Y9903D01*
G01X338Y9903D01*
G01X342Y9903D01*
G01X474Y9903D01*
G01X722Y9654D01*
G01X722Y9508D01*
G01X869Y9508D01*
G01X878Y9498D01*
G01X878Y9291D01*
G01X722Y9291D01*
G01X722Y9083D01*
G01X821Y9083D01*
G01X825Y9083D01*
G01X829Y9083D01*
G01X833Y9084D01*
G01X837Y9084D01*
G01X841Y9085D01*
G01X845Y9086D01*
G01X849Y9087D01*
G01X853Y9088D01*
G01X857Y9090D01*
G01X861Y9091D01*
G01X865Y9093D01*
G01X868Y9095D01*
G01X872Y9097D01*
G01X875Y9099D01*
G01X879Y9102D01*
G01X882Y9104D01*
G01X885Y9107D01*
G01X888Y9109D01*
G01X891Y9112D01*
G01X894Y9115D01*
G01X897Y9118D01*
G01X899Y9121D01*
G01X902Y9118D01*
G01X905Y9115D01*
G01X907Y9112D01*
G01X910Y9109D01*
G01X914Y9107D01*
G01X917Y9104D01*
G01X920Y9102D01*
G01X924Y9099D01*
G01X927Y9097D01*
G01X931Y9095D01*
G01X934Y9093D01*
G01X938Y9091D01*
G01X942Y9090D01*
G01X946Y9088D01*
G01X950Y9087D01*
G01X954Y9086D01*
G01X958Y9085D01*
G01X962Y9084D01*
G01X966Y9084D01*
G01X970Y9083D01*
G01X974Y9083D01*
G01X978Y9083D01*
G01X1372Y9083D01*
G01X1376Y9083D01*
G01X1380Y9083D01*
G01X1384Y9084D01*
G01X1388Y9084D01*
G01X1392Y9085D01*
G01X1396Y9086D01*
G01X1400Y9087D01*
G01X1404Y9088D01*
G01X1408Y9090D01*
G01X1412Y9091D01*
G01X1416Y9093D01*
G01X1419Y9095D01*
G01X1423Y9097D01*
G01X1427Y9099D01*
G01X1430Y9102D01*
G01X1433Y9104D01*
G01X1437Y9107D01*
G01X1440Y9109D01*
G01X1443Y9112D01*
G01X1445Y9115D01*
G01X1448Y9118D01*
G01X1451Y9122D01*
G01X1453Y9125D01*
G01X1456Y9128D01*
G01X1458Y9132D01*
G01X1460Y9135D01*
G01X1462Y9139D01*
G01X1463Y9143D01*
G01X1465Y9147D01*
G01X1466Y9150D01*
G01X1468Y9154D01*
G01X1469Y9158D01*
G01X1470Y9162D01*
G01X1471Y9167D01*
G01X1471Y9171D01*
G01X1472Y9175D01*
G01X1472Y9179D01*
G01X1472Y9183D01*
G01X1472Y9259D01*
G01X1712Y9259D01*
G01X1712Y9183D01*
G01X1712Y9179D01*
G01X1712Y9175D01*
G01X1713Y9171D01*
G01X1713Y9167D01*
G01X1714Y9162D01*
G01X1715Y9158D01*
G01X1716Y9154D01*
G01X1718Y9151D01*
G01X1719Y9147D01*
G01X1721Y9143D01*
G01X1722Y9140D01*
G01X1600Y9140D01*
G01X1594Y9139D01*
G01X1590Y9139D01*
G01X1585Y9139D01*
G01X1580Y9138D01*
G01X1575Y9137D01*
G01X1570Y9136D01*
G01X1565Y9135D01*
G01X1560Y9134D01*
G01X1555Y9132D01*
G01X1551Y9131D01*
G01X1546Y9129D01*
G01X1541Y9127D01*
G01X1537Y9125D01*
G01X1532Y9122D01*
G01X1528Y9120D01*
G01X1524Y9117D01*
G01X1520Y9115D01*
G01X1516Y9112D01*
G01X1512Y9109D01*
G01X1508Y9105D01*
G01X1504Y9102D01*
G01X1501Y9098D01*
G01X1401Y8998D01*
G01X1397Y8995D01*
G01X1394Y8991D01*
G01X1390Y8987D01*
G01X1387Y8983D01*
G01X1384Y8979D01*
G01X1382Y8975D01*
G01X1379Y8971D01*
G01X1377Y8967D01*
G01X1374Y8962D01*
G01X1372Y8958D01*
G01X1370Y8953D01*
G01X1368Y8948D01*
G01X1367Y8944D01*
G01X1365Y8939D01*
G01X1364Y8934D01*
G01X1363Y8929D01*
G01X1362Y8924D01*
G01X1361Y8919D01*
G01X1360Y8914D01*
G01X1360Y8909D01*
G01X1360Y8905D01*
G01X1359Y8900D01*
G01X1359Y8629D01*
G01X1359Y8628D01*
G01X1356Y8625D01*
G01X1354Y8621D01*
G01X1352Y8618D01*
G01X1350Y8614D01*
G01X1348Y8610D01*
G01X1346Y8607D01*
G01X1344Y8603D01*
G01X1343Y8599D01*
G01X1342Y8595D01*
G01X1341Y8591D01*
G01X1340Y8587D01*
G01X1339Y8583D01*
G01X1338Y8579D01*
G01X1338Y8575D01*
G01X1338Y8571D01*
G01X1338Y8567D01*
G01X1338Y8344D01*
G01X1111Y8344D01*
G01X1107Y8343D01*
G01X1103Y8343D01*
G01X1099Y8343D01*
G01X1095Y8342D01*
G01X1091Y8341D01*
G01X1087Y8340D01*
G01X1083Y8339D01*
G01X1079Y8338D01*
G01X1075Y8337D01*
G01X1071Y8335D01*
G01X1068Y8333D01*
G01X1064Y8331D01*
G01X1060Y8329D01*
G01X1057Y8327D01*
G01X1053Y8325D01*
G01X1050Y8322D01*
G01X1047Y8320D01*
G01X1044Y8317D01*
G01X1041Y8314D01*
G01X1038Y8311D01*
G01X1035Y8308D01*
G01X1033Y8305D01*
G01X1030Y8302D01*
G01X1028Y8298D01*
G01X1026Y8295D01*
G01X1024Y8291D01*
G01X1022Y8287D01*
G01X1020Y8284D01*
G01X1018Y8280D01*
G01X1017Y8276D01*
G01X1016Y8272D01*
G01X1015Y8268D01*
G01X1014Y8264D01*
G01X1013Y8260D01*
G01X1012Y8256D01*
G01X1012Y8252D01*
G01X1012Y8248D01*
G01X1011Y8244D01*
G01X1011Y8144D01*
G01X1012Y8139D01*
G01X1012Y8135D01*
G01X1012Y8131D01*
G01X1013Y8127D01*
G01X1014Y8123D01*
G01X1015Y8119D01*
G01X1016Y8115D01*
G01X1015Y8111D01*
G01X1014Y8107D01*
G01X1013Y8103D01*
G01X1012Y8099D01*
G01X1012Y8095D01*
G01X1012Y8091D01*
G01X1011Y8086D01*
G01X1011Y8019D01*
G01X917Y8019D01*
G01X917Y8019D01*
G01X917Y8336D01*
G01X916Y8340D01*
G01X916Y8344D01*
G01X916Y8348D01*
G01X915Y8352D01*
G01X914Y8356D01*
G01X913Y8360D01*
G01X912Y8364D01*
G01X911Y8368D01*
G01X910Y8372D01*
G01X908Y8376D01*
G01X906Y8379D01*
G01X904Y8383D01*
G01X902Y8387D01*
G01X900Y8390D01*
G01X898Y8394D01*
G01X895Y8397D01*
G01X893Y8400D01*
G01X890Y8403D01*
G01X887Y8406D01*
G01X884Y8409D01*
G01X881Y8412D01*
G01X878Y8414D01*
G01X878Y8415D01*
G01X878Y8415D01*
G01X881Y8417D01*
G01X884Y8420D01*
G01X887Y8423D01*
G01X890Y8426D01*
G01X893Y8429D01*
G01X895Y8432D01*
G01X898Y8435D01*
G01X900Y8439D01*
G01X902Y8442D01*
G01X904Y8446D01*
G01X906Y8450D01*
G01X908Y8453D01*
G01X910Y8457D01*
G01X911Y8461D01*
G01X912Y8465D01*
G01X913Y8469D01*
G01X914Y8473D01*
G01X915Y8477D01*
G01X916Y8481D01*
G01X916Y8485D01*
G01X916Y8489D01*
G01X917Y8494D01*
G01X917Y8592D01*
G01X916Y8592D01*
G01X708Y8592D01*
G01X708Y8436D01*
G01X491Y8436D01*
G01X491Y8592D01*
G01X283Y8592D01*
G01X282Y8592D01*
G01X282Y8494D01*
G01X283Y8489D01*
G01X283Y8485D01*
G01X283Y8481D01*
G01X284Y8477D01*
G01X285Y8473D01*
G01X286Y8469D01*
G01X287Y8465D01*
G01X288Y8461D01*
G01X289Y8457D01*
G01X291Y8453D01*
G01X293Y8450D01*
G01X295Y8446D01*
G01X297Y8442D01*
G01X299Y8439D01*
G01X301Y8435D01*
G01X304Y8432D01*
G01X306Y8429D01*
G01X309Y8426D01*
G01X312Y8423D01*
G01X315Y8420D01*
G01X318Y8417D01*
G01X321Y8415D01*
G01X321Y8415D01*
G01X321Y8414D01*
G01X318Y8412D01*
G01X315Y8409D01*
G01X312Y8406D01*
G01X309Y8403D01*
G01X306Y8400D01*
G01X304Y8397D01*
G01X301Y8394D01*
G01X299Y8390D01*
G01X297Y8387D01*
G01X295Y8383D01*
G01X293Y8379D01*
G01X291Y8376D01*
G01X289Y8372D01*
G01X288Y8368D01*
G01X287Y8364D01*
G01X286Y8360D01*
G01X285Y8356D01*
G01X284Y8352D01*
G01X283Y8348D01*
G01X283Y8344D01*
G01X283Y8340D01*
G01X282Y8336D01*
G01X282Y7942D01*
G01X283Y7938D01*
G01X283Y7934D01*
G01X283Y7930D01*
G01X284Y7926D01*
G01X285Y7922D01*
G01X286Y7918D01*
G01X287Y7914D01*
G01X288Y7910D01*
G01X289Y7906D01*
G01X291Y7902D01*
G01X293Y7899D01*
G01X295Y7895D01*
G01X297Y7891D01*
G01X299Y7888D01*
G01X301Y7884D01*
G01X304Y7881D01*
G01X306Y7878D01*
G01X309Y7875D01*
G01X312Y7872D01*
G01X315Y7869D01*
G01X318Y7866D01*
G01X321Y7864D01*
G01X324Y7861D01*
G01X328Y7859D01*
G01X331Y7857D01*
G01X335Y7855D01*
G01X339Y7853D01*
G01X342Y7851D01*
G01X346Y7849D01*
G01X350Y7848D01*
G01X354Y7847D01*
G01X358Y7846D01*
G01X362Y7845D01*
G01X366Y7844D01*
G01X370Y7843D01*
G01X374Y7843D01*
G01X378Y7843D01*
G01X382Y7842D01*
G01X698Y7842D01*
G01X761Y7780D01*
G01X764Y7776D01*
G01X768Y7773D01*
G01X772Y7769D01*
G01X776Y7766D01*
G01X780Y7763D01*
G01X784Y7761D01*
G01X788Y7758D01*
G01X792Y7756D01*
G01X797Y7753D01*
G01X801Y7751D01*
G01X806Y7749D01*
G01X811Y7747D01*
G01X815Y7746D01*
G01X820Y7744D01*
G01X825Y7743D01*
G01X830Y7742D01*
G01X835Y7741D01*
G01X840Y7740D01*
G01X845Y7739D01*
G01X850Y7739D01*
G01X855Y7739D01*
G01X859Y7738D01*
G01X1011Y7738D01*
G01X1011Y7703D01*
G01X903Y7703D01*
G01X898Y7702D01*
G01X893Y7702D01*
G01X888Y7702D01*
G01X883Y7701D01*
G01X878Y7700D01*
G01X873Y7699D01*
G01X868Y7698D01*
G01X863Y7697D01*
G01X858Y7695D01*
G01X854Y7694D01*
G01X849Y7692D01*
G01X844Y7690D01*
G01X840Y7688D01*
G01X836Y7685D01*
G01X831Y7683D01*
G01X827Y7680D01*
G01X823Y7678D01*
G01X819Y7675D01*
G01X815Y7672D01*
G01X811Y7668D01*
G01X807Y7665D01*
G01X804Y7662D01*
G01X698Y7557D01*
G01X382Y7557D01*
G01X378Y7556D01*
G01X374Y7556D01*
G01X370Y7556D01*
G01X366Y7555D01*
G01X362Y7554D01*
G01X358Y7553D01*
G01X354Y7552D01*
G01X350Y7551D01*
G01X346Y7550D01*
G01X342Y7548D01*
G01X339Y7546D01*
G01X335Y7544D01*
G01X331Y7542D01*
G01X328Y7540D01*
G01X324Y7538D01*
G01X321Y7535D01*
G01X318Y7533D01*
G01X315Y7530D01*
G01X312Y7527D01*
G01X309Y7524D01*
G01X306Y7521D01*
G01X304Y7518D01*
G01X301Y7515D01*
G01X299Y7511D01*
G01X297Y7508D01*
G01X295Y7504D01*
G01X293Y7500D01*
G01X291Y7497D01*
G01X289Y7493D01*
G01X288Y7489D01*
G01X287Y7485D01*
G01X286Y7481D01*
G01X285Y7477D01*
G01X284Y7473D01*
G01X283Y7469D01*
G01X283Y7465D01*
G01X283Y7461D01*
G01X282Y7457D01*
G01X282Y7063D01*
G01X283Y7059D01*
G01X283Y7055D01*
G01X283Y7051D01*
G01X284Y7047D01*
G01X285Y7043D01*
G01X286Y7039D01*
G01X287Y7035D01*
G01X288Y7031D01*
G01X289Y7027D01*
G01X291Y7023D01*
G01X293Y7020D01*
G01X295Y7016D01*
G01X297Y7012D01*
G01X299Y7009D01*
G01X301Y7005D01*
G01X304Y7002D01*
G01X306Y6999D01*
G01X309Y6996D01*
G01X312Y6993D01*
G01X315Y6990D01*
G01X318Y6987D01*
G01X321Y6985D01*
G01X321Y6984D01*
G01X321Y6984D01*
G01X318Y6982D01*
G01X315Y6979D01*
G01X312Y6976D01*
G01X309Y6973D01*
G01X306Y6970D01*
G01X304Y6967D01*
G01X301Y6964D01*
G01X299Y6960D01*
G01X297Y6957D01*
G01X295Y6953D01*
G01X293Y6949D01*
G01X291Y6946D01*
G01X289Y6942D01*
G01X288Y6938D01*
G01X287Y6934D01*
G01X286Y6930D01*
G01X285Y6926D01*
G01X284Y6922D01*
G01X283Y6918D01*
G01X283Y6914D01*
G01X283Y6910D01*
G01X282Y6905D01*
G01X282Y6807D01*
G01X283Y6807D01*
G01X491Y6807D01*
G01X491Y6963D01*
G01X698Y6963D01*
G01X708Y6954D01*
G01X708Y6807D01*
G01X916Y6807D01*
G01X917Y6807D01*
G01X917Y6859D01*
G01X1072Y6859D01*
G01X1074Y6857D01*
G01X1089Y6846D01*
G01X1105Y6835D01*
G01X1122Y6827D01*
G01X1139Y6820D01*
G01X1157Y6815D01*
G01X1176Y6811D01*
G01X1195Y6810D01*
G01X1214Y6810D01*
G01X1232Y6813D01*
G01X1251Y6817D01*
G01X1269Y6823D01*
G01X1286Y6831D01*
G01X1302Y6840D01*
G01X1318Y6851D01*
G01X1332Y6864D01*
G01X1345Y6878D01*
G01X1356Y6893D01*
G01X1366Y6909D01*
G01X1374Y6926D01*
G01X1381Y6944D01*
G01X1382Y6948D01*
G01X1382Y6948D01*
G01X1385Y6946D01*
G01X1389Y6944D01*
G01X1393Y6942D01*
G01X1396Y6940D01*
G01X1400Y6938D01*
G01X1404Y6937D01*
G01X1408Y6936D01*
G01X1412Y6935D01*
G01X1416Y6934D01*
G01X1420Y6933D01*
G01X1424Y6932D01*
G01X1428Y6932D01*
G01X1432Y6932D01*
G01X1436Y6932D01*
G01X1504Y6932D01*
G01X1504Y5363D01*
G01X1489Y5353D01*
G01X1474Y5342D01*
G01X1461Y5328D01*
G01X1448Y5314D01*
G01X1438Y5298D01*
G01X1429Y5282D01*
G01X1421Y5264D01*
G01X1416Y5246D01*
G01X1412Y5228D01*
G01X1410Y5209D01*
G01X1410Y5190D01*
G01X1410Y5187D01*
G01X1409Y5183D01*
G01X1408Y5178D01*
G01X1407Y5173D01*
G01X1406Y5168D01*
G01X1405Y5164D01*
G01X1404Y5159D01*
G01X1404Y5154D01*
G01X1404Y5149D01*
G01X1404Y5144D01*
G01X1404Y5110D01*
G01X1403Y5109D01*
G01X1400Y5107D01*
G01X1397Y5104D01*
G01X1394Y5101D01*
G01X1391Y5098D01*
G01X1388Y5095D01*
G01X1386Y5092D01*
G01X1383Y5089D01*
G01X1381Y5085D01*
G01X1379Y5082D01*
G01X1377Y5078D01*
G01X1375Y5074D01*
G01X1373Y5071D01*
G01X1371Y5067D01*
G01X1370Y5063D01*
G01X1369Y5059D01*
G01X1368Y5055D01*
G01X1367Y5051D01*
G01X1366Y5047D01*
G01X1365Y5043D01*
G01X1365Y5039D01*
G01X1365Y5035D01*
G01X1365Y5030D01*
G01X1365Y4794D01*
G01X1365Y4790D01*
G01X1365Y4786D01*
G01X1365Y4782D01*
G01X1366Y4778D01*
G01X1367Y4774D01*
G01X1368Y4770D01*
G01X1369Y4766D01*
G01X1370Y4762D01*
G01X1371Y4758D01*
G01X1373Y4754D01*
G01X1375Y4751D01*
G01X1377Y4747D01*
G01X1379Y4743D01*
G01X1381Y4740D01*
G01X1383Y4736D01*
G01X1386Y4733D01*
G01X1388Y4730D01*
G01X1391Y4727D01*
G01X1394Y4724D01*
G01X1397Y4721D01*
G01X1400Y4718D01*
G01X1403Y4716D01*
G01X1406Y4713D01*
G01X1410Y4711D01*
G01X1413Y4709D01*
G01X1417Y4707D01*
G01X1421Y4705D01*
G01X1424Y4703D01*
G01X1428Y4701D01*
G01X1432Y4700D01*
G01X1436Y4699D01*
G01X1440Y4698D01*
G01X1444Y4697D01*
G01X1448Y4696D01*
G01X1452Y4695D01*
G01X1456Y4695D01*
G01X1460Y4695D01*
G01X1465Y4694D01*
G01X1623Y4694D01*
G01X1627Y4695D01*
G01X1631Y4695D01*
G01X1635Y4695D01*
G01X1639Y4696D01*
G01X1643Y4697D01*
G01X1647Y4698D01*
G01X1651Y4699D01*
G01X1655Y4700D01*
G01X1659Y4701D01*
G01X1663Y4703D01*
G01X1666Y4705D01*
G01X1670Y4707D01*
G01X1674Y4709D01*
G01X1677Y4711D01*
G01X1681Y4713D01*
G01X1684Y4716D01*
G01X1687Y4718D01*
G01X1690Y4721D01*
G01X1693Y4724D01*
G01X1696Y4727D01*
G01X1699Y4730D01*
G01X1701Y4733D01*
G01X1704Y4736D01*
G01X1706Y4740D01*
G01X1708Y4743D01*
G01X1710Y4747D01*
G01X1712Y4751D01*
G01X1714Y4754D01*
G01X1716Y4758D01*
G01X1717Y4762D01*
G01X1718Y4766D01*
G01X1719Y4770D01*
G01X1720Y4774D01*
G01X1721Y4778D01*
G01X1722Y4782D01*
G01X1722Y4786D01*
G01X1722Y4790D01*
G01X1723Y4794D01*
G01X1723Y5030D01*
G01X1722Y5035D01*
G01X1722Y5039D01*
G01X1722Y5043D01*
G01X1721Y5047D01*
G01X1720Y5051D01*
G01X1720Y5053D01*
G01X1732Y5064D01*
G01X1745Y5078D01*
G01X1756Y5093D01*
G01X1766Y5109D01*
G01X1774Y5126D01*
G01X1781Y5144D01*
G01X1785Y5162D01*
G01X1788Y5181D01*
G01X1789Y5200D01*
G01X1788Y5218D01*
G01X1785Y5237D01*
G01X1784Y5242D01*
G01X1784Y6932D01*
G01X1819Y6932D01*
G01X1819Y5400D01*
G01X1819Y5395D01*
G01X1819Y5390D01*
G01X1820Y5385D01*
G01X1820Y5380D01*
G01X1821Y5375D01*
G01X1822Y5370D01*
G01X1823Y5366D01*
G01X1824Y5361D01*
G01X1826Y5356D01*
G01X1827Y5352D01*
G01X1829Y5347D01*
G01X1831Y5343D01*
G01X1833Y5338D01*
G01X1835Y5334D01*
G01X1838Y5330D01*
G01X1840Y5325D01*
G01X1843Y5321D01*
G01X1846Y5317D01*
G01X1849Y5313D01*
G01X1852Y5310D01*
G01X1855Y5306D01*
G01X1858Y5302D01*
G01X1862Y5299D01*
G01X1865Y5295D01*
G01X1869Y5292D01*
G01X1873Y5289D01*
G01X1877Y5286D01*
G01X1881Y5283D01*
G01X1885Y5281D01*
G01X1889Y5278D01*
G01X1893Y5276D01*
G01X1898Y5274D01*
G01X1902Y5272D01*
G01X1907Y5270D01*
G01X1911Y5268D01*
G01X1915Y5266D01*
G01X1915Y5110D01*
G01X1915Y5109D01*
G01X1912Y5107D01*
G01X1909Y5104D01*
G01X1906Y5101D01*
G01X1903Y5098D01*
G01X1900Y5095D01*
G01X1898Y5092D01*
G01X1895Y5089D01*
G01X1893Y5085D01*
G01X1891Y5082D01*
G01X1889Y5078D01*
G01X1887Y5074D01*
G01X1885Y5071D01*
G01X1883Y5067D01*
G01X1882Y5063D01*
G01X1881Y5059D01*
G01X1880Y5055D01*
G01X1879Y5051D01*
G01X1878Y5047D01*
G01X1877Y5043D01*
G01X1877Y5039D01*
G01X1877Y5035D01*
G01X1876Y5030D01*
G01X1876Y4794D01*
G01X1877Y4790D01*
G01X1877Y4786D01*
G01X1877Y4782D01*
G01X1878Y4778D01*
G01X1879Y4774D01*
G01X1880Y4770D01*
G01X1881Y4766D01*
G01X1882Y4762D01*
G01X1883Y4758D01*
G01X1885Y4754D01*
G01X1887Y4751D01*
G01X1889Y4747D01*
G01X1891Y4743D01*
G01X1893Y4740D01*
G01X1895Y4736D01*
G01X1898Y4733D01*
G01X1900Y4730D01*
G01X1903Y4727D01*
G01X1906Y4724D01*
G01X1909Y4721D01*
G01X1912Y4718D01*
G01X1915Y4716D01*
G01X1918Y4713D01*
G01X1922Y4711D01*
G01X1925Y4709D01*
G01X1929Y4707D01*
G01X1933Y4705D01*
G01X1936Y4703D01*
G01X1940Y4701D01*
G01X1944Y4700D01*
G01X1948Y4699D01*
G01X1952Y4698D01*
G01X1956Y4697D01*
G01X1960Y4696D01*
G01X1964Y4695D01*
G01X1968Y4695D01*
G01X1972Y4695D01*
G01X1976Y4694D01*
G01X2134Y4694D01*
G01X2139Y4695D01*
G01X2143Y4695D01*
G01X2147Y4695D01*
G01X2151Y4696D01*
G01X2155Y4697D01*
G01X2159Y4698D01*
G01X2163Y4699D01*
G01X2167Y4700D01*
G01X2171Y4701D01*
G01X2175Y4703D01*
G01X2178Y4705D01*
G01X2182Y4707D01*
G01X2186Y4709D01*
G01X2189Y4711D01*
G01X2193Y4713D01*
G01X2196Y4716D01*
G01X2199Y4718D01*
G01X2202Y4721D01*
G01X2205Y4724D01*
G01X2208Y4727D01*
G01X2211Y4730D01*
G01X2213Y4733D01*
G01X2216Y4736D01*
G01X2218Y4740D01*
G01X2220Y4743D01*
G01X2222Y4747D01*
G01X2224Y4751D01*
G01X2226Y4754D01*
G01X2228Y4758D01*
G01X2229Y4762D01*
G01X2230Y4766D01*
G01X2231Y4770D01*
G01X2232Y4774D01*
G01X2233Y4778D01*
G01X2234Y4782D01*
G01X2234Y4786D01*
G01X2234Y4790D01*
G01X2234Y4794D01*
G01X2234Y5030D01*
G01X2234Y5035D01*
G01X2234Y5039D01*
G01X2234Y5043D01*
G01X2233Y5047D01*
G01X2232Y5051D01*
G01X2231Y5055D01*
G01X2230Y5059D01*
G01X2229Y5063D01*
G01X2228Y5067D01*
G01X2226Y5071D01*
G01X2224Y5074D01*
G01X2222Y5078D01*
G01X2220Y5082D01*
G01X2218Y5085D01*
G01X2216Y5089D01*
G01X2213Y5092D01*
G01X2211Y5095D01*
G01X2208Y5098D01*
G01X2205Y5101D01*
G01X2202Y5104D01*
G01X2199Y5107D01*
G01X2196Y5109D01*
G01X2195Y5110D01*
G01X2195Y5236D01*
G01X2202Y5240D01*
G01X2218Y5251D01*
G01X2232Y5264D01*
G01X2245Y5278D01*
G01X2256Y5293D01*
G01X2266Y5309D01*
G01X2274Y5326D01*
G01X2281Y5344D01*
G01X2285Y5362D01*
G01X2288Y5381D01*
G01X2289Y5400D01*
G01X2288Y5418D01*
G01X2285Y5437D01*
G01X2281Y5455D01*
G01X2274Y5473D01*
G01X2266Y5490D01*
G01X2256Y5506D01*
G01X2245Y5521D01*
G01X2232Y5535D01*
G01X2218Y5548D01*
G01X2202Y5559D01*
G01X2186Y5568D01*
G01X2169Y5576D01*
G01X2151Y5582D01*
G01X2132Y5586D01*
G01X2114Y5589D01*
G01X2099Y5589D01*
G01X2099Y6932D01*
G01X2167Y6932D01*
G01X2172Y6932D01*
G01X2176Y6932D01*
G01X2180Y6932D01*
G01X2184Y6933D01*
G01X2188Y6934D01*
G01X2192Y6935D01*
G01X2196Y6936D01*
G01X2200Y6935D01*
G01X2204Y6934D01*
G01X2208Y6933D01*
G01X2212Y6932D01*
G01X2216Y6932D01*
G01X2220Y6932D01*
G01X2225Y6932D01*
G01X2325Y6932D01*
G01X2329Y6932D01*
G01X2333Y6932D01*
G01X2337Y6932D01*
G01X2341Y6933D01*
G01X2345Y6934D01*
G01X2349Y6935D01*
G01X2353Y6936D01*
G01X2357Y6937D01*
G01X2359Y6938D01*
G01X2359Y6690D01*
G01X2360Y6685D01*
G01X2360Y6680D01*
G01X2360Y6675D01*
G01X2361Y6670D01*
G01X2362Y6665D01*
G01X2363Y6660D01*
G01X2364Y6655D01*
G01X2365Y6651D01*
G01X2367Y6646D01*
G01X2368Y6641D01*
G01X2370Y6636D01*
G01X2372Y6632D01*
G01X2374Y6627D01*
G01X2377Y6623D01*
G01X2379Y6619D01*
G01X2382Y6614D01*
G01X2384Y6610D01*
G01X2387Y6606D01*
G01X2390Y6602D01*
G01X2394Y6598D01*
G01X2397Y6595D01*
G01X2401Y6591D01*
G01X2482Y6509D01*
G01X2482Y6194D01*
G01X2483Y6189D01*
G01X2483Y6185D01*
G01X2483Y6181D01*
G01X2484Y6177D01*
G01X2485Y6173D01*
G01X2486Y6169D01*
G01X2487Y6165D01*
G01X2488Y6161D01*
G01X2489Y6157D01*
G01X2491Y6153D01*
G01X2493Y6150D01*
G01X2495Y6146D01*
G01X2497Y6142D01*
G01X2499Y6139D01*
G01X2501Y6135D01*
G01X2504Y6132D01*
G01X2506Y6129D01*
G01X2509Y6126D01*
G01X2512Y6123D01*
G01X2515Y6120D01*
G01X2518Y6117D01*
G01X2521Y6115D01*
G01X2521Y6115D01*
G01X2521Y6114D01*
G01X2518Y6112D01*
G01X2515Y6109D01*
G01X2512Y6106D01*
G01X2509Y6103D01*
G01X2506Y6100D01*
G01X2504Y6097D01*
G01X2501Y6094D01*
G01X2499Y6090D01*
G01X2497Y6087D01*
G01X2495Y6083D01*
G01X2493Y6079D01*
G01X2491Y6076D01*
G01X2489Y6072D01*
G01X2488Y6068D01*
G01X2487Y6064D01*
G01X2486Y6060D01*
G01X2485Y6056D01*
G01X2484Y6052D01*
G01X2483Y6048D01*
G01X2483Y6044D01*
G01X2483Y6040D01*
G01X2482Y6036D01*
G01X2482Y5937D01*
G01X2483Y5937D01*
G01X2691Y5937D01*
G01X2691Y6094D01*
G01X2908Y6094D01*
G01X2908Y5937D01*
G01X3116Y5937D01*
G01X3117Y5937D01*
G01X3117Y6036D01*
G01X3116Y6040D01*
G01X3116Y6044D01*
G01X3116Y6048D01*
G01X3115Y6052D01*
G01X3114Y6056D01*
G01X3113Y6060D01*
G01X3112Y6064D01*
G01X3111Y6068D01*
G01X3110Y6072D01*
G01X3108Y6076D01*
G01X3106Y6079D01*
G01X3104Y6083D01*
G01X3102Y6087D01*
G01X3100Y6090D01*
G01X3098Y6094D01*
G01X3095Y6097D01*
G01X3093Y6100D01*
G01X3090Y6103D01*
G01X3087Y6106D01*
G01X3084Y6109D01*
G01X3081Y6112D01*
G01X3078Y6114D01*
G01X3078Y6115D01*
G01X3078Y6115D01*
G01X3081Y6117D01*
G01X3084Y6120D01*
G01X3087Y6123D01*
G01X3090Y6126D01*
G01X3093Y6129D01*
G01X3095Y6132D01*
G01X3098Y6135D01*
G01X3100Y6139D01*
G01X3102Y6142D01*
G01X3104Y6146D01*
G01X3106Y6150D01*
G01X3108Y6153D01*
G01X3110Y6157D01*
G01X3111Y6161D01*
G01X3112Y6165D01*
G01X3113Y6169D01*
G01X3114Y6173D01*
G01X3115Y6177D01*
G01X3116Y6181D01*
G01X3116Y6185D01*
G01X3116Y6189D01*
G01X3117Y6194D01*
G01X3117Y6586D01*
G01X3116Y6591D01*
G01X3116Y6595D01*
G01X3116Y6599D01*
G01X3115Y6603D01*
G01X3114Y6607D01*
G01X3113Y6611D01*
G01X3112Y6615D01*
G01X3111Y6619D01*
G01X3110Y6623D01*
G01X3108Y6627D01*
G01X3106Y6630D01*
G01X3104Y6634D01*
G01X3102Y6638D01*
G01X3100Y6641D01*
G01X3098Y6645D01*
G01X3095Y6648D01*
G01X3093Y6651D01*
G01X3090Y6654D01*
G01X3087Y6657D01*
G01X3084Y6660D01*
G01X3081Y6663D01*
G01X3078Y6665D01*
G01X3075Y6668D01*
G01X3071Y6670D01*
G01X3068Y6672D01*
G01X3064Y6674D01*
G01X3060Y6676D01*
G01X3057Y6678D01*
G01X3053Y6680D01*
G01X3049Y6681D01*
G01X3045Y6682D01*
G01X3041Y6683D01*
G01X3037Y6684D01*
G01X3033Y6685D01*
G01X3029Y6686D01*
G01X3025Y6686D01*
G01X3021Y6686D01*
G01X3017Y6686D01*
G01X2701Y6686D01*
G01X2640Y6748D01*
G01X2640Y7000D01*
G01X2639Y7005D01*
G01X2639Y7009D01*
G01X2639Y7014D01*
G01X2638Y7019D01*
G01X2638Y7020D01*
G01X2639Y7020D01*
G01X2657Y7015D01*
G01X2676Y7011D01*
G01X2695Y7010D01*
G01X2714Y7010D01*
G01X2732Y7013D01*
G01X2751Y7017D01*
G01X2769Y7023D01*
G01X2786Y7031D01*
G01X2802Y7040D01*
G01X2818Y7051D01*
G01X2832Y7064D01*
G01X2845Y7078D01*
G01X2856Y7093D01*
G01X2866Y7109D01*
G01X2874Y7126D01*
G01X2881Y7144D01*
G01X2885Y7162D01*
G01X2888Y7181D01*
G01X2889Y7200D01*
G01X2888Y7218D01*
G01X2885Y7237D01*
G01X2881Y7255D01*
G01X2874Y7273D01*
G01X2866Y7290D01*
G01X2856Y7306D01*
G01X2848Y7317D01*
G01X2857Y7315D01*
G01X2876Y7311D01*
G01X2895Y7310D01*
G01X2914Y7310D01*
G01X2932Y7313D01*
G01X2951Y7317D01*
G01X2969Y7323D01*
G01X2979Y7328D01*
G01X2982Y7324D01*
G01X2984Y7320D01*
G01X2987Y7316D01*
G01X2990Y7312D01*
G01X2994Y7308D01*
G01X2997Y7304D01*
G01X3001Y7301D01*
G01X3101Y7201D01*
G01X3104Y7197D01*
G01X3108Y7194D01*
G01X3112Y7190D01*
G01X3116Y7187D01*
G01X3120Y7184D01*
G01X3124Y7182D01*
G01X3128Y7179D01*
G01X3132Y7177D01*
G01X3137Y7174D01*
G01X3141Y7172D01*
G01X3146Y7170D01*
G01X3151Y7168D01*
G01X3155Y7167D01*
G01X3160Y7165D01*
G01X3165Y7164D01*
G01X3170Y7163D01*
G01X3175Y7162D01*
G01X3180Y7161D01*
G01X3182Y7161D01*
G01X3182Y6913D01*
G01X3183Y6908D01*
G01X3183Y6904D01*
G01X3183Y6900D01*
G01X3184Y6896D01*
G01X3185Y6892D01*
G01X3186Y6888D01*
G01X3187Y6884D01*
G01X3188Y6880D01*
G01X3189Y6876D01*
G01X3191Y6872D01*
G01X3193Y6869D01*
G01X3195Y6865D01*
G01X3197Y6861D01*
G01X3199Y6858D01*
G01X3201Y6854D01*
G01X3204Y6851D01*
G01X3206Y6848D01*
G01X3209Y6845D01*
G01X3212Y6842D01*
G01X3215Y6839D01*
G01X3218Y6836D01*
G01X3221Y6834D01*
G01X3224Y6831D01*
G01X3228Y6829D01*
G01X3231Y6827D01*
G01X3235Y6825D01*
G01X3239Y6823D01*
G01X3242Y6821D01*
G01X3246Y6819D01*
G01X3250Y6818D01*
G01X3254Y6817D01*
G01X3258Y6816D01*
G01X3262Y6815D01*
G01X3266Y6814D01*
G01X3270Y6813D01*
G01X3274Y6813D01*
G01X3278Y6813D01*
G01X3282Y6813D01*
G01X3359Y6813D01*
G01X3359Y6686D01*
G01X3282Y6686D01*
G01X3278Y6686D01*
G01X3274Y6686D01*
G01X3270Y6686D01*
G01X3266Y6685D01*
G01X3262Y6684D01*
G01X3258Y6683D01*
G01X3254Y6682D01*
G01X3250Y6681D01*
G01X3246Y6680D01*
G01X3242Y6678D01*
G01X3239Y6676D01*
G01X3235Y6674D01*
G01X3231Y6672D01*
G01X3228Y6670D01*
G01X3224Y6668D01*
G01X3221Y6665D01*
G01X3218Y6663D01*
G01X3215Y6660D01*
G01X3212Y6657D01*
G01X3209Y6654D01*
G01X3206Y6651D01*
G01X3204Y6648D01*
G01X3201Y6645D01*
G01X3199Y6641D01*
G01X3197Y6638D01*
G01X3195Y6634D01*
G01X3193Y6630D01*
G01X3191Y6627D01*
G01X3189Y6623D01*
G01X3188Y6619D01*
G01X3187Y6615D01*
G01X3186Y6611D01*
G01X3185Y6607D01*
G01X3184Y6603D01*
G01X3183Y6599D01*
G01X3183Y6595D01*
G01X3183Y6591D01*
G01X3182Y6586D01*
G01X3182Y6194D01*
G01X3183Y6189D01*
G01X3183Y6185D01*
G01X3183Y6181D01*
G01X3184Y6177D01*
G01X3185Y6173D01*
G01X3186Y6169D01*
G01X3187Y6165D01*
G01X3188Y6161D01*
G01X3189Y6157D01*
G01X3191Y6153D01*
G01X3193Y6150D01*
G01X3195Y6146D01*
G01X3197Y6142D01*
G01X3199Y6139D01*
G01X3201Y6135D01*
G01X3204Y6132D01*
G01X3206Y6129D01*
G01X3209Y6126D01*
G01X3212Y6123D01*
G01X3215Y6120D01*
G01X3218Y6117D01*
G01X3221Y6115D01*
G01X3221Y6115D01*
G01X3221Y6114D01*
G01X3218Y6112D01*
G01X3215Y6109D01*
G01X3212Y6106D01*
G01X3209Y6103D01*
G01X3206Y6100D01*
G01X3204Y6097D01*
G01X3201Y6094D01*
G01X3199Y6090D01*
G01X3197Y6087D01*
G01X3195Y6083D01*
G01X3193Y6079D01*
G01X3191Y6076D01*
G01X3189Y6072D01*
G01X3188Y6068D01*
G01X3187Y6064D01*
G01X3186Y6060D01*
G01X3185Y6056D01*
G01X3184Y6052D01*
G01X3183Y6048D01*
G01X3183Y6044D01*
G01X3183Y6040D01*
G01X3182Y6036D01*
G01X3182Y5937D01*
G01X3183Y5937D01*
G01X3391Y5937D01*
G01X3391Y6094D01*
G01X3608Y6094D01*
G01X3608Y5937D01*
G01X3816Y5937D01*
G01X3817Y5937D01*
G01X3817Y6036D01*
G01X3816Y6040D01*
G01X3816Y6044D01*
G01X3816Y6048D01*
G01X3815Y6052D01*
G01X3814Y6056D01*
G01X3813Y6060D01*
G01X3812Y6064D01*
G01X3811Y6068D01*
G01X3810Y6072D01*
G01X3808Y6076D01*
G01X3806Y6079D01*
G01X3804Y6083D01*
G01X3802Y6087D01*
G01X3800Y6090D01*
G01X3798Y6094D01*
G01X3795Y6097D01*
G01X3793Y6100D01*
G01X3790Y6103D01*
G01X3787Y6106D01*
G01X3784Y6109D01*
G01X3781Y6112D01*
G01X3778Y6114D01*
G01X3778Y6115D01*
G01X3778Y6115D01*
G01X3781Y6117D01*
G01X3784Y6120D01*
G01X3787Y6123D01*
G01X3790Y6126D01*
G01X3793Y6129D01*
G01X3795Y6132D01*
G01X3798Y6135D01*
G01X3800Y6139D01*
G01X3802Y6142D01*
G01X3804Y6146D01*
G01X3806Y6150D01*
G01X3808Y6153D01*
G01X3810Y6157D01*
G01X3811Y6161D01*
G01X3812Y6165D01*
G01X3813Y6169D01*
G01X3814Y6173D01*
G01X3815Y6177D01*
G01X3816Y6181D01*
G01X3816Y6185D01*
G01X3816Y6189D01*
G01X3817Y6194D01*
G01X3817Y6586D01*
G01X3816Y6591D01*
G01X3816Y6595D01*
G01X3816Y6599D01*
G01X3815Y6603D01*
G01X3814Y6607D01*
G01X3813Y6611D01*
G01X3812Y6615D01*
G01X3811Y6619D01*
G01X3810Y6623D01*
G01X3808Y6627D01*
G01X3806Y6630D01*
G01X3804Y6634D01*
G01X3802Y6638D01*
G01X3800Y6641D01*
G01X3798Y6645D01*
G01X3795Y6648D01*
G01X3793Y6651D01*
G01X3790Y6654D01*
G01X3787Y6657D01*
G01X3784Y6660D01*
G01X3781Y6663D01*
G01X3778Y6665D01*
G01X3775Y6668D01*
G01X3771Y6670D01*
G01X3768Y6672D01*
G01X3764Y6674D01*
G01X3760Y6676D01*
G01X3757Y6678D01*
G01X3753Y6680D01*
G01X3749Y6681D01*
G01X3745Y6682D01*
G01X3741Y6683D01*
G01X3737Y6684D01*
G01X3733Y6685D01*
G01X3729Y6686D01*
G01X3725Y6686D01*
G01X3721Y6686D01*
G01X3717Y6686D01*
G01X3640Y6686D01*
G01X3640Y6813D01*
G01X3717Y6813D01*
G01X3721Y6813D01*
G01X3725Y6813D01*
G01X3729Y6813D01*
G01X3733Y6814D01*
G01X3737Y6815D01*
G01X3741Y6816D01*
G01X3745Y6817D01*
G01X3749Y6818D01*
G01X3753Y6819D01*
G01X3757Y6821D01*
G01X3760Y6823D01*
G01X3764Y6825D01*
G01X3768Y6827D01*
G01X3771Y6829D01*
G01X3775Y6831D01*
G01X3778Y6834D01*
G01X3781Y6836D01*
G01X3784Y6839D01*
G01X3787Y6842D01*
G01X3790Y6845D01*
G01X3793Y6848D01*
G01X3795Y6851D01*
G01X3798Y6854D01*
G01X3800Y6858D01*
G01X3802Y6861D01*
G01X3804Y6865D01*
G01X3806Y6869D01*
G01X3808Y6872D01*
G01X3810Y6876D01*
G01X3811Y6880D01*
G01X3812Y6884D01*
G01X3813Y6888D01*
G01X3814Y6892D01*
G01X3815Y6896D01*
G01X3816Y6900D01*
G01X3816Y6904D01*
G01X3816Y6908D01*
G01X3817Y6913D01*
G01X3817Y7305D01*
G01X3816Y7310D01*
G01X3816Y7314D01*
G01X3816Y7318D01*
G01X3815Y7322D01*
G01X3814Y7326D01*
G01X3813Y7330D01*
G01X3812Y7334D01*
G01X3811Y7338D01*
G01X3810Y7342D01*
G01X3808Y7346D01*
G01X3806Y7349D01*
G01X3804Y7353D01*
G01X3802Y7357D01*
G01X3800Y7360D01*
G01X3798Y7364D01*
G01X3795Y7367D01*
G01X3793Y7370D01*
G01X3790Y7373D01*
G01X3787Y7376D01*
G01X3784Y7379D01*
G01X3781Y7382D01*
G01X3778Y7384D01*
G01X3778Y7384D01*
G01X3778Y7385D01*
G01X3781Y7387D01*
G01X3784Y7390D01*
G01X3787Y7393D01*
G01X3790Y7396D01*
G01X3793Y7399D01*
G01X3795Y7402D01*
G01X3798Y7405D01*
G01X3800Y7409D01*
G01X3802Y7412D01*
G01X3804Y7416D01*
G01X3806Y7420D01*
G01X3808Y7423D01*
G01X3810Y7427D01*
G01X3811Y7431D01*
G01X3812Y7435D01*
G01X3813Y7439D01*
G01X3814Y7443D01*
G01X3815Y7447D01*
G01X3816Y7451D01*
G01X3816Y7455D01*
G01X3816Y7459D01*
G01X3817Y7463D01*
G01X3817Y7629D01*
G01X3822Y7627D01*
G01X3839Y7620D01*
G01X3857Y7615D01*
G01X3876Y7611D01*
G01X3895Y7610D01*
G01X3914Y7610D01*
G01X3932Y7613D01*
G01X3951Y7617D01*
G01X3969Y7623D01*
G01X3982Y7629D01*
G01X3982Y7463D01*
G01X3983Y7459D01*
G01X3983Y7455D01*
G01X3983Y7451D01*
G01X3984Y7447D01*
G01X3985Y7443D01*
G01X3986Y7439D01*
G01X3987Y7435D01*
G01X3988Y7431D01*
G01X3989Y7427D01*
G01X3991Y7423D01*
G01X3993Y7420D01*
G01X3995Y7416D01*
G01X3997Y7412D01*
G01X3999Y7409D01*
G01X4001Y7405D01*
G01X4004Y7402D01*
G01X4006Y7399D01*
G01X4009Y7396D01*
G01X4012Y7393D01*
G01X4015Y7390D01*
G01X4018Y7387D01*
G01X4021Y7385D01*
G01X4021Y7384D01*
G01X4021Y7384D01*
G01X4018Y7382D01*
G01X4015Y7379D01*
G01X4012Y7376D01*
G01X4009Y7373D01*
G01X4006Y7370D01*
G01X4004Y7367D01*
G01X4001Y7364D01*
G01X3999Y7360D01*
G01X3997Y7357D01*
G01X3995Y7353D01*
G01X3993Y7349D01*
G01X3991Y7346D01*
G01X3989Y7342D01*
G01X3988Y7338D01*
G01X3987Y7334D01*
G01X3986Y7330D01*
G01X3985Y7326D01*
G01X3984Y7322D01*
G01X3983Y7318D01*
G01X3983Y7314D01*
G01X3983Y7310D01*
G01X3982Y7305D01*
G01X3982Y6913D01*
G01X3983Y6908D01*
G01X3983Y6904D01*
G01X3983Y6900D01*
G01X3984Y6896D01*
G01X3985Y6892D01*
G01X3986Y6888D01*
G01X3987Y6884D01*
G01X3988Y6880D01*
G01X3989Y6876D01*
G01X3991Y6872D01*
G01X3993Y6869D01*
G01X3995Y6865D01*
G01X3997Y6861D01*
G01X3999Y6858D01*
G01X4001Y6854D01*
G01X4004Y6851D01*
G01X4006Y6848D01*
G01X4009Y6845D01*
G01X4012Y6842D01*
G01X4015Y6839D01*
G01X4018Y6836D01*
G01X4021Y6834D01*
G01X4024Y6831D01*
G01X4028Y6829D01*
G01X4031Y6827D01*
G01X4035Y6825D01*
G01X4039Y6823D01*
G01X4042Y6821D01*
G01X4046Y6819D01*
G01X4050Y6818D01*
G01X4054Y6817D01*
G01X4058Y6816D01*
G01X4059Y6815D01*
G01X4059Y6686D01*
G01X3982Y6686D01*
G01X3978Y6686D01*
G01X3974Y6686D01*
G01X3970Y6686D01*
G01X3966Y6685D01*
G01X3962Y6684D01*
G01X3958Y6683D01*
G01X3954Y6682D01*
G01X3950Y6681D01*
G01X3946Y6680D01*
G01X3942Y6678D01*
G01X3939Y6676D01*
G01X3935Y6674D01*
G01X3931Y6672D01*
G01X3928Y6670D01*
G01X3924Y6668D01*
G01X3921Y6665D01*
G01X3918Y6663D01*
G01X3915Y6660D01*
G01X3912Y6657D01*
G01X3909Y6654D01*
G01X3906Y6651D01*
G01X3904Y6648D01*
G01X3901Y6645D01*
G01X3899Y6641D01*
G01X3897Y6638D01*
G01X3895Y6634D01*
G01X3893Y6630D01*
G01X3891Y6627D01*
G01X3889Y6623D01*
G01X3888Y6619D01*
G01X3887Y6615D01*
G01X3886Y6611D01*
G01X3885Y6607D01*
G01X3884Y6603D01*
G01X3883Y6599D01*
G01X3883Y6595D01*
G01X3883Y6591D01*
G01X3882Y6586D01*
G01X3882Y6194D01*
G01X3883Y6189D01*
G01X3883Y6185D01*
G01X3883Y6181D01*
G01X3884Y6177D01*
G01X3885Y6173D01*
G01X3886Y6169D01*
G01X3887Y6165D01*
G01X3888Y6161D01*
G01X3889Y6157D01*
G01X3891Y6153D01*
G01X3893Y6150D01*
G01X3895Y6146D01*
G01X3897Y6142D01*
G01X3899Y6139D01*
G01X3901Y6135D01*
G01X3904Y6132D01*
G01X3906Y6129D01*
G01X3909Y6126D01*
G01X3912Y6123D01*
G01X3915Y6120D01*
G01X3918Y6117D01*
G01X3921Y6115D01*
G01X3921Y6115D01*
G01X3921Y6114D01*
G01X3918Y6112D01*
G01X3915Y6109D01*
G01X3912Y6106D01*
G01X3909Y6103D01*
G01X3906Y6100D01*
G01X3904Y6097D01*
G01X3901Y6094D01*
G01X3899Y6090D01*
G01X3897Y6087D01*
G01X3895Y6083D01*
G01X3893Y6079D01*
G01X3891Y6076D01*
G01X3889Y6072D01*
G01X3888Y6068D01*
G01X3887Y6064D01*
G01X3886Y6060D01*
G01X3885Y6056D01*
G01X3884Y6052D01*
G01X3883Y6048D01*
G01X3883Y6044D01*
G01X3883Y6040D01*
G01X3882Y6036D01*
G01X3882Y5937D01*
G01X3883Y5937D01*
G01X4091Y5937D01*
G01X4091Y6094D01*
G01X4308Y6094D01*
G01X4308Y5937D01*
G01X4516Y5937D01*
G01X4517Y5937D01*
G01X4517Y6036D01*
G01X4516Y6040D01*
G01X4516Y6044D01*
G01X4516Y6048D01*
G01X4515Y6052D01*
G01X4514Y6056D01*
G01X4513Y6060D01*
G01X4512Y6064D01*
G01X4511Y6068D01*
G01X4510Y6072D01*
G01X4508Y6076D01*
G01X4506Y6079D01*
G01X4504Y6083D01*
G01X4502Y6087D01*
G01X4500Y6090D01*
G01X4498Y6094D01*
G01X4495Y6097D01*
G01X4493Y6100D01*
G01X4490Y6103D01*
G01X4487Y6106D01*
G01X4484Y6109D01*
G01X4481Y6112D01*
G01X4478Y6114D01*
G01X4478Y6115D01*
G01X4478Y6115D01*
G01X4481Y6117D01*
G01X4484Y6120D01*
G01X4487Y6123D01*
G01X4490Y6126D01*
G01X4493Y6129D01*
G01X4495Y6132D01*
G01X4498Y6135D01*
G01X4500Y6139D01*
G01X4502Y6142D01*
G01X4504Y6146D01*
G01X4506Y6150D01*
G01X4508Y6153D01*
G01X4510Y6157D01*
G01X4511Y6161D01*
G01X4512Y6165D01*
G01X4513Y6169D01*
G01X4514Y6173D01*
G01X4515Y6177D01*
G01X4516Y6181D01*
G01X4516Y6185D01*
G01X4516Y6189D01*
G01X4517Y6194D01*
G01X4517Y6586D01*
G01X4516Y6591D01*
G01X4516Y6595D01*
G01X4516Y6599D01*
G01X4515Y6603D01*
G01X4514Y6607D01*
G01X4513Y6611D01*
G01X4512Y6615D01*
G01X4511Y6619D01*
G01X4510Y6623D01*
G01X4508Y6627D01*
G01X4506Y6630D01*
G01X4504Y6634D01*
G01X4502Y6638D01*
G01X4500Y6641D01*
G01X4498Y6645D01*
G01X4495Y6648D01*
G01X4493Y6651D01*
G01X4490Y6654D01*
G01X4487Y6657D01*
G01X4484Y6660D01*
G01X4481Y6663D01*
G01X4478Y6665D01*
G01X4475Y6668D01*
G01X4471Y6670D01*
G01X4468Y6672D01*
G01X4464Y6674D01*
G01X4460Y6676D01*
G01X4457Y6678D01*
G01X4453Y6680D01*
G01X4449Y6681D01*
G01X4445Y6682D01*
G01X4441Y6683D01*
G01X4437Y6684D01*
G01X4433Y6685D01*
G01X4429Y6686D01*
G01X4425Y6686D01*
G01X4421Y6686D01*
G01X4417Y6686D01*
G01X4339Y6686D01*
G01X4339Y6813D01*
G01X4517Y6813D01*
G01X4521Y6813D01*
G01X4525Y6813D01*
G01X4529Y6813D01*
G01X4533Y6814D01*
G01X4537Y6815D01*
G01X4541Y6816D01*
G01X4545Y6817D01*
G01X4549Y6818D01*
G01X4553Y6819D01*
G01X4557Y6821D01*
G01X4560Y6823D01*
G01X4564Y6825D01*
G01X4568Y6827D01*
G01X4571Y6829D01*
G01X4575Y6831D01*
G01X4578Y6834D01*
G01X4581Y6836D01*
G01X4584Y6839D01*
G01X4587Y6842D01*
G01X4590Y6845D01*
G01X4593Y6848D01*
G01X4595Y6851D01*
G01X4598Y6854D01*
G01X4600Y6858D01*
G01X4602Y6861D01*
G01X4604Y6865D01*
G01X4606Y6869D01*
G01X4608Y6872D01*
G01X4610Y6876D01*
G01X4611Y6880D01*
G01X4612Y6884D01*
G01X4613Y6888D01*
G01X4614Y6892D01*
G01X4615Y6896D01*
G01X4616Y6900D01*
G01X4616Y6904D01*
G01X4616Y6908D01*
G01X4617Y6913D01*
G01X4617Y7227D01*
G01X4796Y7398D01*
G01X4800Y7402D01*
G01X4803Y7406D01*
G01X4807Y7410D01*
G01X4810Y7414D01*
G01X4813Y7418D01*
G01X4816Y7422D01*
G01X4819Y7426D01*
G01X4821Y7431D01*
G01X4824Y7435D01*
G01X4826Y7440D01*
G01X4828Y7444D01*
G01X4830Y7449D01*
G01X4832Y7454D01*
G01X4834Y7459D01*
G01X4835Y7464D01*
G01X4836Y7469D01*
G01X4837Y7474D01*
G01X4838Y7479D01*
G01X4839Y7484D01*
G01X4839Y7489D01*
G01X4839Y7494D01*
G01X4839Y7500D01*
G01X4839Y8000D01*
G01X4839Y8005D01*
G01X4839Y8009D01*
G01X4839Y8014D01*
G01X4838Y8019D01*
G01X4837Y8024D01*
G01X4836Y8029D01*
G01X4835Y8034D01*
G01X4834Y8039D01*
G01X4832Y8044D01*
G01X4831Y8048D01*
G01X4829Y8053D01*
G01X4827Y8058D01*
G01X4825Y8062D01*
G01X4822Y8067D01*
G01X4820Y8071D01*
G01X4817Y8075D01*
G01X4814Y8079D01*
G01X4812Y8083D01*
G01X4809Y8087D01*
G01X4805Y8091D01*
G01X4802Y8095D01*
G01X4798Y8098D01*
G01X4698Y8198D01*
G01X4695Y8202D01*
G01X4691Y8205D01*
G01X4687Y8209D01*
G01X4683Y8212D01*
G01X4679Y8215D01*
G01X4675Y8217D01*
G01X4671Y8220D01*
G01X4667Y8222D01*
G01X4662Y8225D01*
G01X4658Y8227D01*
G01X4653Y8229D01*
G01X4648Y8231D01*
G01X4644Y8232D01*
G01X4639Y8234D01*
G01X4634Y8235D01*
G01X4629Y8236D01*
G01X4624Y8237D01*
G01X4619Y8238D01*
G01X4614Y8239D01*
G01X4609Y8239D01*
G01X4605Y8239D01*
G01X4600Y8240D01*
G01X3157Y8240D01*
G01X2868Y8529D01*
G01X2864Y8532D01*
G01X2861Y8536D01*
G01X2857Y8539D01*
G01X2853Y8542D01*
G01X2849Y8545D01*
G01X2845Y8548D01*
G01X2840Y8550D01*
G01X2836Y8553D01*
G01X2832Y8555D01*
G01X2827Y8557D01*
G01X2823Y8559D01*
G01X2818Y8561D01*
G01X2813Y8563D01*
G01X2808Y8564D01*
G01X2804Y8566D01*
G01X2799Y8567D01*
G01X2794Y8568D01*
G01X2789Y8569D01*
G01X2784Y8569D01*
G01X2779Y8570D01*
G01X2774Y8570D01*
G01X2769Y8570D01*
G01X2424Y8570D01*
G01X2424Y8572D01*
G01X2424Y8576D01*
G01X2424Y8580D01*
G01X2423Y8584D01*
G01X2422Y8588D01*
G01X2421Y8592D01*
G01X2420Y8596D01*
G01X2419Y8600D01*
G01X2418Y8604D01*
G01X2416Y8608D01*
G01X2414Y8611D01*
G01X2412Y8615D01*
G01X2410Y8619D01*
G01X2408Y8622D01*
G01X2406Y8626D01*
G01X2403Y8629D01*
G01X2401Y8632D01*
G01X2398Y8635D01*
G01X2395Y8638D01*
G01X2392Y8641D01*
G01X2389Y8644D01*
G01X2386Y8646D01*
G01X2383Y8649D01*
G01X2379Y8651D01*
G01X2376Y8653D01*
G01X2372Y8655D01*
G01X2368Y8657D01*
G01X2365Y8659D01*
G01X2364Y8659D01*
G01X3565Y8659D01*
G01X3567Y8655D01*
G01X3568Y8651D01*
G01X3570Y8646D01*
G01X3572Y8641D01*
G01X3574Y8637D01*
G01X3577Y8632D01*
G01X3579Y8628D01*
G01X3582Y8624D01*
G01X3584Y8620D01*
G01X3587Y8616D01*
G01X3590Y8612D01*
G01X3594Y8608D01*
G01X3597Y8604D01*
G01X3601Y8601D01*
G01X3701Y8501D01*
G01X3704Y8497D01*
G01X3708Y8494D01*
G01X3712Y8490D01*
G01X3716Y8487D01*
G01X3720Y8484D01*
G01X3724Y8482D01*
G01X3728Y8479D01*
G01X3732Y8477D01*
G01X3737Y8474D01*
G01X3741Y8472D01*
G01X3746Y8470D01*
G01X3751Y8468D01*
G01X3755Y8467D01*
G01X3760Y8465D01*
G01X3765Y8464D01*
G01X3770Y8463D01*
G01X3775Y8462D01*
G01X3780Y8461D01*
G01X3785Y8460D01*
G01X3790Y8460D01*
G01X3794Y8460D01*
G01X3800Y8459D01*
G01X3882Y8459D01*
G01X3882Y8342D01*
G01X3883Y8338D01*
G01X3883Y8334D01*
G01X3883Y8330D01*
G01X3884Y8326D01*
G01X3885Y8322D01*
G01X3886Y8318D01*
G01X3887Y8314D01*
G01X3888Y8310D01*
G01X3889Y8306D01*
G01X3891Y8302D01*
G01X3893Y8299D01*
G01X3895Y8295D01*
G01X3897Y8291D01*
G01X3899Y8288D01*
G01X3901Y8284D01*
G01X3904Y8281D01*
G01X3906Y8278D01*
G01X3909Y8275D01*
G01X3912Y8272D01*
G01X3915Y8269D01*
G01X3918Y8266D01*
G01X3921Y8264D01*
G01X3924Y8261D01*
G01X3928Y8259D01*
G01X3931Y8257D01*
G01X3935Y8255D01*
G01X3939Y8253D01*
G01X3942Y8251D01*
G01X3946Y8249D01*
G01X3950Y8248D01*
G01X3954Y8247D01*
G01X3958Y8246D01*
G01X3962Y8245D01*
G01X3966Y8244D01*
G01X3970Y8243D01*
G01X3974Y8243D01*
G01X3978Y8243D01*
G01X3982Y8242D01*
G01X4417Y8242D01*
G01X4421Y8243D01*
G01X4425Y8243D01*
G01X4429Y8243D01*
G01X4433Y8244D01*
G01X4437Y8245D01*
G01X4441Y8246D01*
G01X4445Y8247D01*
G01X4449Y8248D01*
G01X4453Y8249D01*
G01X4457Y8251D01*
G01X4460Y8253D01*
G01X4464Y8255D01*
G01X4468Y8257D01*
G01X4471Y8259D01*
G01X4475Y8261D01*
G01X4478Y8264D01*
G01X4481Y8266D01*
G01X4484Y8269D01*
G01X4487Y8272D01*
G01X4490Y8275D01*
G01X4493Y8278D01*
G01X4495Y8281D01*
G01X4498Y8284D01*
G01X4500Y8288D01*
G01X4502Y8291D01*
G01X4504Y8295D01*
G01X4506Y8299D01*
G01X4508Y8302D01*
G01X4510Y8306D01*
G01X4511Y8310D01*
G01X4512Y8314D01*
G01X4513Y8318D01*
G01X4514Y8322D01*
G01X4515Y8326D01*
G01X4516Y8330D01*
G01X4516Y8334D01*
G01X4516Y8338D01*
G01X4517Y8342D01*
G01X4517Y8736D01*
G01X4516Y8740D01*
G01X4516Y8744D01*
G01X4516Y8748D01*
G01X4515Y8752D01*
G01X4514Y8756D01*
G01X4514Y8757D01*
G01X4582Y8748D01*
G01X4582Y8642D01*
G01X4583Y8638D01*
G01X4583Y8634D01*
G01X4583Y8630D01*
G01X4584Y8626D01*
G01X4585Y8622D01*
G01X4586Y8618D01*
G01X4587Y8614D01*
G01X4588Y8610D01*
G01X4589Y8606D01*
G01X4591Y8602D01*
G01X4593Y8599D01*
G01X4595Y8595D01*
G01X4597Y8591D01*
G01X4599Y8588D01*
G01X4601Y8584D01*
G01X4604Y8581D01*
G01X4606Y8578D01*
G01X4609Y8575D01*
G01X4612Y8572D01*
G01X4615Y8569D01*
G01X4618Y8566D01*
G01X4621Y8564D01*
G01X4624Y8561D01*
G01X4628Y8559D01*
G01X4631Y8557D01*
G01X4635Y8555D01*
G01X4639Y8553D01*
G01X4642Y8551D01*
G01X4646Y8549D01*
G01X4650Y8548D01*
G01X4654Y8547D01*
G01X4658Y8546D01*
G01X4662Y8545D01*
G01X4666Y8544D01*
G01X4670Y8543D01*
G01X4674Y8543D01*
G01X4678Y8543D01*
G01X4682Y8542D01*
G01X4915Y8542D01*
G01X4912Y8528D01*
G01X4910Y8509D01*
G01X4910Y8490D01*
G01X4912Y8471D01*
G01X4916Y8453D01*
G01X4921Y8435D01*
G01X4929Y8417D01*
G01X4938Y8401D01*
G01X4948Y8385D01*
G01X4961Y8371D01*
G01X4974Y8357D01*
G01X4989Y8346D01*
G01X5005Y8335D01*
G01X5010Y8333D01*
G01X5010Y8329D01*
G01X5009Y8328D01*
G01X5003Y8324D01*
G01X4999Y8321D01*
G01X4994Y8316D01*
G01X4990Y8313D01*
G01X4985Y8309D01*
G01X4982Y8305D01*
G01X4977Y8300D01*
G01X4974Y8296D01*
G01X4969Y8291D01*
G01X4966Y8287D01*
G01X4961Y8282D01*
G01X4959Y8278D01*
G01X4955Y8273D01*
G01X4952Y8268D01*
G01X4948Y8262D01*
G01X4945Y8258D01*
G01X4942Y8252D01*
G01X4939Y8248D01*
G01X4936Y8242D01*
G01X4934Y8237D01*
G01X4931Y8231D01*
G01X4929Y8227D01*
G01X4927Y8220D01*
G01X4925Y8216D01*
G01X4923Y8209D01*
G01X4922Y8204D01*
G01X4920Y8198D01*
G01X4918Y8193D01*
G01X4917Y8186D01*
G01X4916Y8181D01*
G01X4915Y8174D01*
G01X4914Y8170D01*
G01X4913Y8163D01*
G01X4913Y8158D01*
G01X4912Y8151D01*
G01X4912Y8146D01*
G01X4912Y8139D01*
G01X4912Y8136D01*
G01X4912Y7703D01*
G01X4912Y7700D01*
G01X4912Y7693D01*
G01X4912Y7688D01*
G01X4913Y7681D01*
G01X4913Y7676D01*
G01X4914Y7669D01*
G01X4915Y7665D01*
G01X4916Y7658D01*
G01X4917Y7653D01*
G01X4918Y7646D01*
G01X4920Y7641D01*
G01X4922Y7635D01*
G01X4923Y7630D01*
G01X4925Y7623D01*
G01X4927Y7619D01*
G01X4929Y7612D01*
G01X4931Y7608D01*
G01X4934Y7602D01*
G01X4936Y7597D01*
G01X4939Y7591D01*
G01X4942Y7587D01*
G01X4945Y7581D01*
G01X4948Y7577D01*
G01X4952Y7571D01*
G01X4955Y7566D01*
G01X4959Y7561D01*
G01X4961Y7557D01*
G01X4966Y7552D01*
G01X4969Y7548D01*
G01X4974Y7543D01*
G01X4977Y7539D01*
G01X4982Y7534D01*
G01X4985Y7530D01*
G01X4990Y7526D01*
G01X4994Y7523D01*
G01X4999Y7518D01*
G01X5003Y7515D01*
G01X5009Y7511D01*
G01X5013Y7508D01*
G01X5018Y7504D01*
G01X5023Y7501D01*
G01X5028Y7498D01*
G01X5033Y7495D01*
G01X5039Y7492D01*
G01X5043Y7490D01*
G01X5049Y7487D01*
G01X5054Y7485D01*
G01X5060Y7482D01*
G01X5065Y7480D01*
G01X5071Y7478D01*
G01X5076Y7476D01*
G01X5083Y7474D01*
G01X5087Y7473D01*
G01X5094Y7471D01*
G01X5099Y7470D01*
G01X5106Y7469D01*
G01X5111Y7468D01*
G01X5118Y7467D01*
G01X5122Y7466D01*
G01X5129Y7466D01*
G01X5134Y7465D01*
G01X5141Y7465D01*
G01X5146Y7465D01*
G01X5153Y7465D01*
G01X5158Y7465D01*
G01X5165Y7465D01*
G01X5170Y7466D01*
G01X5177Y7466D01*
G01X5181Y7467D01*
G01X5188Y7468D01*
G01X5193Y7469D01*
G01X5200Y7470D01*
G01X5205Y7471D01*
G01X5212Y7473D01*
G01X5216Y7474D01*
G01X5223Y7476D01*
G01X5228Y7478D01*
G01X5234Y7480D01*
G01X5239Y7482D01*
G01X5245Y7485D01*
G01X5250Y7487D01*
G01X5256Y7490D01*
G01X5260Y7492D01*
G01X5266Y7495D01*
G01X5271Y7498D01*
G01X5276Y7501D01*
G01X5281Y7504D01*
G01X5286Y7508D01*
G01X5290Y7511D01*
G01X5296Y7515D01*
G01X5300Y7518D01*
G01X5300Y7500D01*
G01X5300Y7495D01*
G01X5300Y7491D01*
G01X5300Y7487D01*
G01X5301Y7483D01*
G01X5302Y7479D01*
G01X5303Y7475D01*
G01X5304Y7471D01*
G01X5305Y7467D01*
G01X5306Y7463D01*
G01X5308Y7459D01*
G01X5310Y7456D01*
G01X5312Y7452D01*
G01X5314Y7448D01*
G01X5316Y7445D01*
G01X5318Y7441D01*
G01X5321Y7438D01*
G01X5323Y7435D01*
G01X5326Y7432D01*
G01X5329Y7429D01*
G01X5332Y7426D01*
G01X5335Y7423D01*
G01X5338Y7421D01*
G01X5341Y7418D01*
G01X5345Y7416D01*
G01X5348Y7414D01*
G01X5352Y7412D01*
G01X5356Y7410D01*
G01X5359Y7408D01*
G01X5363Y7406D01*
G01X5367Y7405D01*
G01X5371Y7404D01*
G01X5375Y7403D01*
G01X5379Y7402D01*
G01X5383Y7401D01*
G01X5387Y7400D01*
G01X5391Y7400D01*
G01X5395Y7400D01*
G01X5400Y7400D01*
G01X6900Y7400D01*
G01X6904Y7400D01*
G01X6908Y7400D01*
G01X6912Y7400D01*
G01X6916Y7401D01*
G01X6920Y7402D01*
G01X6924Y7403D01*
G01X6928Y7404D01*
G01X6932Y7405D01*
G01X6936Y7406D01*
G01X6940Y7408D01*
G01X6943Y7410D01*
G01X6947Y7412D01*
G01X6951Y7414D01*
G01X6954Y7416D01*
G01X6958Y7418D01*
G01X6961Y7421D01*
G01X6964Y7423D01*
G01X6967Y7426D01*
G01X6970Y7429D01*
G01X6973Y7432D01*
G01X6976Y7435D01*
G01X6978Y7438D01*
G01X6981Y7441D01*
G01X6983Y7445D01*
G01X6985Y7448D01*
G01X6987Y7452D01*
G01X6989Y7456D01*
G01X6991Y7459D01*
G01X6993Y7463D01*
G01X6994Y7467D01*
G01X6995Y7471D01*
G01X6996Y7475D01*
G01X6997Y7479D01*
G01X6998Y7483D01*
G01X6999Y7487D01*
G01X6999Y7491D01*
G01X6999Y7495D01*
G01X7000Y7500D01*
G01X7000Y7507D01*
G01X7191Y7507D01*
G01X7191Y7619D01*
G01X7266Y7612D01*
G01X7283Y7611D01*
G01X7300Y7611D01*
G01X7318Y7611D01*
G01X7335Y7612D01*
G01X7353Y7615D01*
G01X7370Y7618D01*
G01X7387Y7622D01*
G01X7404Y7626D01*
G01X7408Y7628D01*
G01X7408Y7507D01*
G01X7616Y7507D01*
G01X7617Y7507D01*
G01X7617Y7605D01*
G01X7616Y7610D01*
G01X7616Y7614D01*
G01X7616Y7618D01*
G01X7615Y7622D01*
G01X7614Y7626D01*
G01X7613Y7630D01*
G01X7612Y7634D01*
G01X7611Y7638D01*
G01X7610Y7642D01*
G01X7608Y7646D01*
G01X7606Y7649D01*
G01X7604Y7653D01*
G01X7602Y7657D01*
G01X7600Y7660D01*
G01X7598Y7664D01*
G01X7595Y7667D01*
G01X7593Y7670D01*
G01X7590Y7673D01*
G01X7587Y7676D01*
G01X7584Y7679D01*
G01X7581Y7682D01*
G01X7578Y7684D01*
G01X7578Y7684D01*
G01X7578Y7685D01*
G01X7581Y7687D01*
G01X7584Y7690D01*
G01X7587Y7693D01*
G01X7590Y7696D01*
G01X7593Y7699D01*
G01X7595Y7702D01*
G01X7598Y7705D01*
G01X7600Y7709D01*
G01X7602Y7712D01*
G01X7604Y7716D01*
G01X7606Y7720D01*
G01X7608Y7723D01*
G01X7610Y7727D01*
G01X7611Y7731D01*
G01X7612Y7735D01*
G01X7613Y7739D01*
G01X7614Y7743D01*
G01X7615Y7747D01*
G01X7616Y7751D01*
G01X7616Y7755D01*
G01X7616Y7759D01*
G01X7617Y7763D01*
G01X7617Y7812D01*
G01X7619Y7817D01*
G01X7626Y7833D01*
G01X7632Y7850D01*
G01X7637Y7867D01*
G01X7641Y7883D01*
G01X7644Y7901D01*
G01X7647Y7918D01*
G01X7649Y7935D01*
G01X7649Y7953D01*
G01X7649Y7970D01*
G01X7648Y7988D01*
G01X7647Y8005D01*
G01X7644Y8022D01*
G01X7641Y8039D01*
G01X7636Y8056D01*
G01X7631Y8073D01*
G01X7625Y8089D01*
G01X7618Y8105D01*
G01X7617Y8109D01*
G01X7617Y8157D01*
G01X7616Y8161D01*
G01X7616Y8165D01*
G01X7616Y8169D01*
G01X7615Y8173D01*
G01X7614Y8177D01*
G01X7613Y8181D01*
G01X7612Y8185D01*
G01X7611Y8189D01*
G01X7610Y8193D01*
G01X7608Y8197D01*
G01X7606Y8200D01*
G01X7604Y8204D01*
G01X7602Y8208D01*
G01X7600Y8211D01*
G01X7598Y8215D01*
G01X7595Y8218D01*
G01X7593Y8221D01*
G01X7590Y8224D01*
G01X7587Y8227D01*
G01X7584Y8230D01*
G01X7581Y8233D01*
G01X7578Y8235D01*
G01X7575Y8238D01*
G01X7571Y8240D01*
G01X7568Y8242D01*
G01X7564Y8244D01*
G01X7560Y8246D01*
G01X7557Y8248D01*
G01X7553Y8250D01*
G01X7549Y8251D01*
G01X7545Y8252D01*
G01X7541Y8253D01*
G01X7537Y8254D01*
G01X7533Y8255D01*
G01X7529Y8256D01*
G01X7525Y8256D01*
G01X7521Y8256D01*
G01X7517Y8257D01*
G01X7486Y8257D01*
G01X7481Y8260D01*
G01X7466Y8268D01*
G01X7451Y8276D01*
G01X7435Y8283D01*
G01X7418Y8290D01*
G01X7402Y8295D01*
G01X7385Y8300D01*
G01X7368Y8304D01*
G01X7351Y8307D01*
G01X7333Y8309D01*
G01X7000Y8341D01*
G01X7000Y8878D01*
G01X7003Y8875D01*
G01X7009Y8871D01*
G01X7013Y8868D01*
G01X7018Y8864D01*
G01X7023Y8861D01*
G01X7028Y8858D01*
G01X7033Y8855D01*
G01X7039Y8852D01*
G01X7043Y8850D01*
G01X7049Y8847D01*
G01X7054Y8845D01*
G01X7060Y8842D01*
G01X7065Y8840D01*
G01X7071Y8838D01*
G01X7076Y8836D01*
G01X7083Y8834D01*
G01X7087Y8833D01*
G01X7094Y8831D01*
G01X7099Y8830D01*
G01X7106Y8829D01*
G01X7111Y8828D01*
G01X7118Y8827D01*
G01X7122Y8826D01*
G01X7129Y8826D01*
G01X7134Y8825D01*
G01X7141Y8825D01*
G01X7146Y8825D01*
G01X7153Y8825D01*
G01X7158Y8825D01*
G01X7165Y8825D01*
G01X7170Y8826D01*
G01X7177Y8826D01*
G01X7181Y8827D01*
G01X7188Y8828D01*
G01X7193Y8829D01*
G01X7200Y8830D01*
G01X7205Y8831D01*
G01X7212Y8833D01*
G01X7216Y8834D01*
G01X7223Y8836D01*
G01X7228Y8838D01*
G01X7234Y8840D01*
G01X7239Y8842D01*
G01X7245Y8845D01*
G01X7250Y8847D01*
G01X7256Y8850D01*
G01X7260Y8852D01*
G01X7266Y8855D01*
G01X7271Y8858D01*
G01X7276Y8861D01*
G01X7281Y8864D01*
G01X7286Y8868D01*
G01X7290Y8871D01*
G01X7296Y8875D01*
G01X7300Y8878D01*
G01X7305Y8883D01*
G01X7309Y8886D01*
G01X7314Y8890D01*
G01X7317Y8894D01*
G01X7322Y8899D01*
G01X7325Y8903D01*
G01X7330Y8908D01*
G01X7333Y8912D01*
G01X7338Y8917D01*
G01X7340Y8921D01*
G01X7344Y8926D01*
G01X7347Y8931D01*
G01X7351Y8937D01*
G01X7354Y8941D01*
G01X7357Y8947D01*
G01X7360Y8951D01*
G01X7363Y8957D01*
G01X7365Y8962D01*
G01X7368Y8968D01*
G01X7370Y8972D01*
G01X7372Y8979D01*
G01X7374Y8983D01*
G01X7376Y8990D01*
G01X7377Y8995D01*
G01X7379Y9001D01*
G01X7381Y9006D01*
G01X7382Y9013D01*
G01X7383Y9018D01*
G01X7384Y9025D01*
G01X7385Y9029D01*
G01X7386Y9036D01*
G01X7386Y9041D01*
G01X7387Y9048D01*
G01X7387Y9053D01*
G01X7387Y9060D01*
G01X7387Y9063D01*
G01X7387Y9496D01*
G01X7387Y9499D01*
G01X7387Y9506D01*
G01X7387Y9511D01*
G01X7386Y9518D01*
G01X7386Y9523D01*
G01X7385Y9530D01*
G01X7384Y9534D01*
G01X7383Y9541D01*
G01X7382Y9546D01*
G01X7381Y9553D01*
G01X7379Y9558D01*
G01X7377Y9564D01*
G01X7376Y9569D01*
G01X7374Y9576D01*
G01X7372Y9580D01*
G01X7370Y9587D01*
G01X7368Y9591D01*
G01X7365Y9597D01*
G01X7363Y9602D01*
G01X7360Y9608D01*
G01X7357Y9612D01*
G01X7354Y9618D01*
G01X7351Y9622D01*
G01X7347Y9628D01*
G01X7344Y9633D01*
G01X7340Y9638D01*
G01X7338Y9642D01*
G01X7333Y9647D01*
G01X7330Y9651D01*
G01X7325Y9656D01*
G01X7322Y9660D01*
G01X7317Y9665D01*
G01X7314Y9669D01*
G01X7309Y9673D01*
G01X7305Y9676D01*
G01X7300Y9681D01*
G01X7296Y9684D01*
G01X7290Y9688D01*
G01X7289Y9689D01*
G01X7289Y9750D01*
G01X7289Y9755D01*
G01X7289Y9759D01*
G01X7289Y9764D01*
G01X7288Y9769D01*
G01X7287Y9774D01*
G01X7286Y9779D01*
G01X7285Y9784D01*
G01X7284Y9789D01*
G01X7282Y9794D01*
G01X7281Y9798D01*
G01X7279Y9803D01*
G01X7277Y9808D01*
G01X7275Y9812D01*
G01X7272Y9817D01*
G01X7270Y9821D01*
G01X7267Y9825D01*
G01X7264Y9829D01*
G01X7262Y9833D01*
G01X7259Y9837D01*
G01X7255Y9841D01*
G01X7252Y9845D01*
G01X7248Y9848D01*
G01X7189Y9908D01*
G01X7188Y9918D01*
G01X7185Y9937D01*
G01X7181Y9955D01*
G01X7174Y9973D01*
G01X7166Y9990D01*
G01X7156Y10006D01*
G01X7145Y10021D01*
G01X7132Y10035D01*
G01X7118Y10048D01*
G01X7102Y10059D01*
G01X7086Y10068D01*
G01X7069Y10076D01*
G01X7051Y10082D01*
G01X7032Y10086D01*
G01X7014Y10089D01*
G01X6995Y10089D01*
G01X6976Y10088D01*
G01X6957Y10084D01*
G01X6939Y10079D01*
G01X6922Y10072D01*
G01X6905Y10064D01*
G01X6889Y10053D01*
G01X6874Y10042D01*
G01X6861Y10028D01*
G01X6848Y10014D01*
G01X6838Y9998D01*
G01X6829Y9982D01*
G01X6821Y9964D01*
G01X6816Y9946D01*
G01X6812Y9928D01*
G01X6810Y9909D01*
G01X6810Y9890D01*
G01X6812Y9871D01*
G01X6816Y9853D01*
G01X6821Y9835D01*
G01X6829Y9817D01*
G01X6838Y9801D01*
G01X6839Y9800D01*
G01X5400Y9800D01*
G01X5395Y9799D01*
G01X5391Y9799D01*
G01X5387Y9799D01*
G01X5383Y9798D01*
G01X5379Y9797D01*
G01X5375Y9796D01*
G01X5371Y9795D01*
G01X5367Y9794D01*
G01X5363Y9793D01*
G01X5359Y9791D01*
G01X5356Y9789D01*
G01X5352Y9787D01*
G01X5348Y9785D01*
G01X5345Y9783D01*
G01X5341Y9781D01*
G01X5338Y9778D01*
G01X5335Y9776D01*
G01X5332Y9773D01*
G01X5329Y9770D01*
G01X5326Y9767D01*
G01X5323Y9764D01*
G01X5321Y9761D01*
G01X5318Y9758D01*
G01X5316Y9754D01*
G01X5314Y9751D01*
G01X5312Y9747D01*
G01X5310Y9743D01*
G01X5308Y9740D01*
G01X5039Y9740D01*
G01X5039Y9826D01*
G01X5055Y9840D01*
G01X5070Y9856D01*
G01X5084Y9874D01*
G01X5095Y9893D01*
G01X5105Y9913D01*
G01X5113Y9934D01*
G01X5118Y9955D01*
G01X5121Y9977D01*
G01X5122Y10000D01*
G01X5121Y10022D01*
G01X5118Y10044D01*
G01X5113Y10065D01*
G01X5105Y10086D01*
G01X5095Y10106D01*
G01X5084Y10125D01*
G01X5070Y10143D01*
G01X5055Y10159D01*
G01X5039Y10174D01*
G01X5020Y10187D01*
G01X5001Y10198D01*
G01X4981Y10207D01*
G01X4960Y10214D01*
G01X4938Y10219D01*
G01X4916Y10222D01*
G01X4894Y10222D01*
G01X4872Y10221D01*
G01X4850Y10217D01*
G01X4828Y10211D01*
G01X4808Y10203D01*
G01X4788Y10193D01*
G01X4769Y10181D01*
G01X4752Y10167D01*
G01X4736Y10151D01*
G01X4722Y10134D01*
G01X4709Y10116D01*
G01X4699Y10096D01*
G01X4690Y10076D01*
G01X4683Y10055D01*
G01X4679Y10033D01*
G01X4677Y10011D01*
G01X4677Y9988D01*
G01X4679Y9966D01*
G01X4683Y9944D01*
G01X4690Y9923D01*
G01X4699Y9903D01*
G01X4709Y9883D01*
G01X4722Y9865D01*
G01X4736Y9848D01*
G01X4752Y9832D01*
G01X4760Y9826D01*
G01X4760Y9686D01*
G01X4682Y9686D01*
G01X4678Y9686D01*
G01X4674Y9686D01*
G01X4670Y9686D01*
G01X4666Y9685D01*
G01X4662Y9684D01*
G01X4658Y9683D01*
G01X4654Y9682D01*
G01X4650Y9681D01*
G01X4646Y9680D01*
G01X4642Y9678D01*
G01X4639Y9676D01*
G01X4635Y9674D01*
G01X4631Y9672D01*
G01X4628Y9670D01*
G01X4624Y9668D01*
G01X4621Y9665D01*
G01X4618Y9663D01*
G01X4615Y9660D01*
G01X4612Y9657D01*
G01X4609Y9654D01*
G01X4606Y9651D01*
G01X4604Y9648D01*
G01X4601Y9645D01*
G01X4599Y9641D01*
G01X4597Y9638D01*
G01X4595Y9634D01*
G01X4593Y9630D01*
G01X4591Y9627D01*
G01X4589Y9623D01*
G01X4588Y9619D01*
G01X4587Y9615D01*
G01X4586Y9611D01*
G01X4585Y9607D01*
G01X4584Y9603D01*
G01X4583Y9599D01*
G01X4583Y9595D01*
G01X4583Y9591D01*
G01X4582Y9586D01*
G01X4582Y9194D01*
G01X4583Y9189D01*
G01X4583Y9185D01*
G01X4583Y9181D01*
G01X4584Y9177D01*
G01X4585Y9173D01*
G01X4586Y9169D01*
G01X4587Y9165D01*
G01X4588Y9161D01*
G01X4589Y9157D01*
G01X4591Y9153D01*
G01X4593Y9150D01*
G01X4595Y9146D01*
G01X4597Y9142D01*
G01X4599Y9139D01*
G01X4601Y9135D01*
G01X4604Y9132D01*
G01X4606Y9129D01*
G01X4609Y9126D01*
G01X4612Y9123D01*
G01X4615Y9120D01*
G01X4618Y9117D01*
G01X4621Y9115D01*
G01X4621Y9115D01*
G01X4621Y9114D01*
G01X4618Y9112D01*
G01X4615Y9109D01*
G01X4612Y9106D01*
G01X4609Y9103D01*
G01X4606Y9100D01*
G01X4604Y9097D01*
G01X4601Y9094D01*
G01X4599Y9090D01*
G01X4597Y9087D01*
G01X4595Y9083D01*
G01X4593Y9079D01*
G01X4591Y9076D01*
G01X4589Y9072D01*
G01X4588Y9068D01*
G01X4587Y9064D01*
G01X4586Y9060D01*
G01X4585Y9056D01*
G01X4584Y9052D01*
G01X4583Y9048D01*
G01X4583Y9044D01*
G01X4583Y9040D01*
G01X4582Y9036D01*
G01X4582Y9030D01*
G01X4548Y9035D01*
G01X4517Y9055D01*
G01X4517Y9286D01*
G01X4516Y9291D01*
G01X4516Y9295D01*
G01X4516Y9299D01*
G01X4515Y9303D01*
G01X4514Y9307D01*
G01X4513Y9311D01*
G01X4512Y9315D01*
G01X4511Y9319D01*
G01X4510Y9323D01*
G01X4508Y9327D01*
G01X4506Y9330D01*
G01X4504Y9334D01*
G01X4502Y9338D01*
G01X4500Y9341D01*
G01X4498Y9345D01*
G01X4495Y9348D01*
G01X4493Y9351D01*
G01X4490Y9354D01*
G01X4487Y9357D01*
G01X4484Y9360D01*
G01X4481Y9363D01*
G01X4478Y9365D01*
G01X4475Y9368D01*
G01X4471Y9370D01*
G01X4468Y9372D01*
G01X4464Y9374D01*
G01X4460Y9376D01*
G01X4457Y9378D01*
G01X4453Y9380D01*
G01X4449Y9381D01*
G01X4445Y9382D01*
G01X4441Y9383D01*
G01X4437Y9384D01*
G01X4433Y9385D01*
G01X4429Y9386D01*
G01X4425Y9386D01*
G01X4421Y9386D01*
G01X4417Y9386D01*
G01X4339Y9386D01*
G01X4339Y9513D01*
G01X4417Y9513D01*
G01X4421Y9513D01*
G01X4425Y9513D01*
G01X4429Y9513D01*
G01X4433Y9514D01*
G01X4437Y9515D01*
G01X4441Y9516D01*
G01X4445Y9517D01*
G01X4449Y9518D01*
G01X4453Y9519D01*
G01X4457Y9521D01*
G01X4460Y9523D01*
G01X4464Y9525D01*
G01X4468Y9527D01*
G01X4471Y9529D01*
G01X4475Y9531D01*
G01X4478Y9534D01*
G01X4481Y9536D01*
G01X4484Y9539D01*
G01X4487Y9542D01*
G01X4490Y9545D01*
G01X4493Y9548D01*
G01X4495Y9551D01*
G01X4498Y9554D01*
G01X4500Y9558D01*
G01X4502Y9561D01*
G01X4504Y9565D01*
G01X4506Y9569D01*
G01X4508Y9572D01*
G01X4510Y9576D01*
G01X4511Y9580D01*
G01X4512Y9584D01*
G01X4513Y9588D01*
G01X4514Y9592D01*
G01X4515Y9596D01*
G01X4516Y9600D01*
G01X4516Y9604D01*
G01X4516Y9608D01*
G01X4517Y9613D01*
G01X4517Y10005D01*
G01X4516Y10010D01*
G01X4516Y10014D01*
G01X4516Y10018D01*
G01X4515Y10022D01*
G01X4514Y10026D01*
G01X4513Y10030D01*
G01X4512Y10034D01*
G01X4511Y10038D01*
G01X4510Y10042D01*
G01X4508Y10046D01*
G01X4506Y10049D01*
G01X4504Y10053D01*
G01X4502Y10057D01*
G01X4500Y10060D01*
G01X4498Y10064D01*
G01X4495Y10067D01*
G01X4493Y10070D01*
G01X4490Y10073D01*
G01X4487Y10076D01*
G01X4484Y10079D01*
G01X4481Y10082D01*
G01X4478Y10084D01*
G01X4478Y10084D01*
G01X4478Y10085D01*
G01X4481Y10087D01*
G01X4484Y10090D01*
G01X4487Y10093D01*
G01X4490Y10096D01*
G01X4493Y10099D01*
G01X4495Y10102D01*
G01X4498Y10105D01*
G01X4500Y10109D01*
G01X4502Y10112D01*
G01X4504Y10116D01*
G01X4506Y10120D01*
G01X4508Y10123D01*
G01X4510Y10127D01*
G01X4511Y10131D01*
G01X4512Y10135D01*
G01X4513Y10139D01*
G01X4514Y10143D01*
G01X4515Y10147D01*
G01X4516Y10151D01*
G01X4516Y10155D01*
G01X4516Y10159D01*
G01X4517Y10163D01*
G01X4517Y10557D01*
G01X4516Y10561D01*
G01X4516Y10565D01*
G01X4516Y10569D01*
G01X4515Y10573D01*
G01X4514Y10577D01*
G01X4513Y10581D01*
G01X4512Y10585D01*
G01X4511Y10589D01*
G01X4510Y10593D01*
G01X4508Y10597D01*
G01X4506Y10600D01*
G01X4504Y10604D01*
G01X4502Y10608D01*
G01X4500Y10611D01*
G01X4498Y10615D01*
G01X4495Y10618D01*
G01X4493Y10621D01*
G01X4490Y10624D01*
G01X4487Y10627D01*
G01X4484Y10630D01*
G01X4481Y10633D01*
G01X4478Y10635D01*
G01X4475Y10638D01*
G01X4471Y10640D01*
G01X4468Y10642D01*
G01X4464Y10644D01*
G01X4460Y10646D01*
G01X4457Y10648D01*
G01X4453Y10650D01*
G01X4449Y10651D01*
G01X4445Y10652D01*
G01X4441Y10653D01*
G01X4437Y10654D01*
G01X4433Y10655D01*
G01X4429Y10656D01*
G01X4425Y10656D01*
G01X4421Y10656D01*
G01X4417Y10657D01*
G01X4339Y10657D01*
G01X4339Y10842D01*
G01X4417Y10842D01*
G01X4421Y10843D01*
G01X4425Y10843D01*
G01X4429Y10843D01*
G01X4433Y10844D01*
G01X4437Y10845D01*
G01X4441Y10846D01*
G01X4445Y10847D01*
G01X4449Y10848D01*
G01X4453Y10849D01*
G01X4457Y10851D01*
G01X4460Y10853D01*
G01X4464Y10855D01*
G01X4468Y10857D01*
G01X4471Y10859D01*
G01X4475Y10861D01*
G01X4478Y10864D01*
G01X4481Y10866D01*
G01X4484Y10869D01*
G01X4487Y10872D01*
G01X4490Y10875D01*
G01X4493Y10878D01*
G01X4495Y10881D01*
G01X4498Y10884D01*
G01X4500Y10888D01*
G01X4502Y10891D01*
G01X4504Y10895D01*
G01X4506Y10899D01*
G01X4508Y10902D01*
G01X4510Y10906D01*
G01X4511Y10910D01*
G01X4512Y10914D01*
G01X4513Y10918D01*
G01X4514Y10922D01*
G01X4515Y10926D01*
G01X4516Y10930D01*
G01X4516Y10934D01*
G01X4516Y10938D01*
G01X4517Y10942D01*
G01X4517Y11300D01*
G01X5526Y11300D01*
G01X5528Y11298D01*
G01X5533Y11295D01*
G01X5539Y11292D01*
G01X5543Y11290D01*
G01X5549Y11287D01*
G01X5554Y11285D01*
G01X5560Y11282D01*
G01X5565Y11280D01*
G01X5571Y11278D01*
G01X5576Y11276D01*
G01X5583Y11274D01*
G01X5587Y11273D01*
G01X5594Y11271D01*
G01X5599Y11270D01*
G01X5606Y11269D01*
G01X5611Y11268D01*
G01X5618Y11267D01*
G01X5622Y11266D01*
G01X5629Y11266D01*
G01X5634Y11265D01*
G01X5641Y11265D01*
G01X5646Y11265D01*
G01X5653Y11265D01*
G01X5658Y11265D01*
G01X5665Y11265D01*
G01X5670Y11266D01*
G01X5677Y11266D01*
G01X5681Y11267D01*
G01X5688Y11268D01*
G01X5693Y11269D01*
G01X5700Y11270D01*
G01X5705Y11271D01*
G01X5712Y11273D01*
G01X5716Y11274D01*
G01X5723Y11276D01*
G01X5728Y11278D01*
G01X5734Y11280D01*
G01X5739Y11282D01*
G01X5745Y11285D01*
G01X5750Y11287D01*
G01X5756Y11290D01*
G01X5760Y11292D01*
G01X5766Y11295D01*
G01X5771Y11298D01*
G01X5773Y11300D01*
G01X6026Y11300D01*
G01X6028Y11298D01*
G01X6033Y11295D01*
G01X6039Y11292D01*
G01X6043Y11290D01*
G01X6049Y11287D01*
G01X6054Y11285D01*
G01X6060Y11282D01*
G01X6065Y11280D01*
G01X6071Y11278D01*
G01X6076Y11276D01*
G01X6083Y11274D01*
G01X6087Y11273D01*
G01X6094Y11271D01*
G01X6099Y11270D01*
G01X6106Y11269D01*
G01X6111Y11268D01*
G01X6118Y11267D01*
G01X6122Y11266D01*
G01X6129Y11266D01*
G01X6134Y11265D01*
G01X6141Y11265D01*
G01X6146Y11265D01*
G01X6153Y11265D01*
G01X6158Y11265D01*
G01X6165Y11265D01*
G01X6170Y11266D01*
G01X6177Y11266D01*
G01X6181Y11267D01*
G01X6188Y11268D01*
G01X6193Y11269D01*
G01X6200Y11270D01*
G01X6205Y11271D01*
G01X6212Y11273D01*
G01X6216Y11274D01*
G01X6223Y11276D01*
G01X6228Y11278D01*
G01X6234Y11280D01*
G01X6239Y11282D01*
G01X6245Y11285D01*
G01X6250Y11287D01*
G01X6256Y11290D01*
G01X6260Y11292D01*
G01X6266Y11295D01*
G01X6271Y11298D01*
G01X6273Y11300D01*
G01X6526Y11300D01*
G01X6528Y11298D01*
G01X6533Y11295D01*
G01X6539Y11292D01*
G01X6543Y11290D01*
G01X6549Y11287D01*
G01X6554Y11285D01*
G01X6560Y11282D01*
G01X6565Y11280D01*
G01X6571Y11278D01*
G01X6576Y11276D01*
G01X6583Y11274D01*
G01X6587Y11273D01*
G01X6594Y11271D01*
G01X6599Y11270D01*
G01X6606Y11269D01*
G01X6611Y11268D01*
G01X6618Y11267D01*
G01X6622Y11266D01*
G01X6629Y11266D01*
G01X6634Y11265D01*
G01X6641Y11265D01*
G01X6646Y11265D01*
G01X6653Y11265D01*
G01X6658Y11265D01*
G01X6665Y11265D01*
G01X6670Y11266D01*
G01X6677Y11266D01*
G01X6681Y11267D01*
G01X6688Y11268D01*
G01X6693Y11269D01*
G01X6700Y11270D01*
G01X6705Y11271D01*
G01X6712Y11273D01*
G01X6716Y11274D01*
G01X6723Y11276D01*
G01X6728Y11278D01*
G01X6734Y11280D01*
G01X6739Y11282D01*
G01X6745Y11285D01*
G01X6750Y11287D01*
G01X6756Y11290D01*
G01X6760Y11292D01*
G01X6766Y11295D01*
G01X6771Y11298D01*
G01X6773Y11300D01*
G01X7026Y11300D01*
G01X7028Y11298D01*
G01X7033Y11295D01*
G01X7039Y11292D01*
G01X7043Y11290D01*
G01X7049Y11287D01*
G01X7054Y11285D01*
G01X7060Y11282D01*
G01X7065Y11280D01*
G01X7071Y11278D01*
G01X7076Y11276D01*
G01X7083Y11274D01*
G01X7087Y11273D01*
G01X7094Y11271D01*
G01X7099Y11270D01*
G01X7106Y11269D01*
G01X7111Y11268D01*
G01X7118Y11267D01*
G01X7122Y11266D01*
G01X7129Y11266D01*
G01X7134Y11265D01*
G01X7141Y11265D01*
G01X7146Y11265D01*
G01X7153Y11265D01*
G01X7158Y11265D01*
G01X7165Y11265D01*
G01X7170Y11266D01*
G01X7177Y11266D01*
G01X7181Y11267D01*
G01X7188Y11268D01*
G01X7193Y11269D01*
G01X7200Y11270D01*
G01X7205Y11271D01*
G01X7212Y11273D01*
G01X7216Y11274D01*
G01X7223Y11276D01*
G01X7228Y11278D01*
G01X7234Y11280D01*
G01X7239Y11282D01*
G01X7245Y11285D01*
G01X7250Y11287D01*
G01X7256Y11290D01*
G01X7260Y11292D01*
G01X7266Y11295D01*
G01X7271Y11298D01*
G01X7273Y11300D01*
G01X7500Y11300D01*
G01X7504Y11300D01*
G01X7508Y11300D01*
G01X7512Y11300D01*
G01X7516Y11301D01*
G01X7520Y11302D01*
G01X7524Y11303D01*
G01X7528Y11304D01*
G01X7532Y11305D01*
G01X7536Y11306D01*
G01X7540Y11308D01*
G01X7543Y11310D01*
G01X7547Y11312D01*
G01X7551Y11314D01*
G01X7554Y11316D01*
G01X7558Y11318D01*
G01X7561Y11321D01*
G01X7564Y11323D01*
G01X7567Y11326D01*
G01X7570Y11329D01*
G01X7573Y11332D01*
G01X7576Y11335D01*
G01X7578Y11338D01*
G01X7581Y11341D01*
G01X7583Y11345D01*
G01X7585Y11348D01*
G01X7587Y11352D01*
G01X7589Y11356D01*
G01X7591Y11359D01*
G01X7593Y11363D01*
G01X7594Y11367D01*
G01X7595Y11371D01*
G01X7596Y11375D01*
G01X7597Y11379D01*
G01X7598Y11383D01*
G01X7599Y11387D01*
G01X7599Y11391D01*
G01X7599Y11395D01*
G01X7600Y11400D01*
G01X7600Y13200D01*
G01X8200Y13200D01*
G01X8200Y0D01*
G01X5896Y0D01*
G01X5757Y150D01*
G01X5757Y1650D01*
G01X5777Y1651D01*
G01X5802Y1654D01*
G01X5828Y1660D01*
G01X5852Y1668D01*
G01X5875Y1678D01*
G01X5898Y1691D01*
G01X5919Y1706D01*
G01X5938Y1723D01*
G01X5956Y1742D01*
G01X5971Y1763D01*
G01X5985Y1785D01*
G01X5996Y1808D01*
G01X6005Y1832D01*
G01X6011Y1857D01*
G01X6015Y1883D01*
G01X6016Y1909D01*
G01X6015Y1934D01*
G01X6011Y1960D01*
G01X6005Y1985D01*
G01X5996Y2009D01*
G01X5985Y2032D01*
G01X5971Y2054D01*
G01X5956Y2075D01*
G01X5938Y2094D01*
G01X5919Y2111D01*
G01X5898Y2126D01*
G01X5875Y2139D01*
G01X5852Y2149D01*
G01X5828Y2157D01*
G01X5802Y2163D01*
G01X5777Y2166D01*
G01X5751Y2167D01*
G01X5725Y2165D01*
G01X5700Y2161D01*
G01X5675Y2154D01*
G01X5651Y2144D01*
G01X5628Y2132D01*
G01X5607Y2118D01*
G01X5586Y2102D01*
G01X5568Y2084D01*
G01X5551Y2065D01*
G01X5537Y2043D01*
G01X5534Y2039D01*
G01X2263Y2039D01*
G01X2254Y2054D01*
G01X2239Y2075D01*
G01X2221Y2094D01*
G01X2202Y2111D01*
G01X2181Y2126D01*
G01X2158Y2139D01*
G01X2135Y2149D01*
G01X2111Y2157D01*
G01X2085Y2163D01*
G01X2060Y2166D01*
G01X2034Y2167D01*
G01X2008Y2165D01*
G01X1983Y2161D01*
G01X1958Y2154D01*
G01X1934Y2144D01*
G01X1911Y2132D01*
G01X1890Y2118D01*
G01X1869Y2102D01*
G01X1851Y2084D01*
G01X1834Y2065D01*
G01X1820Y2043D01*
G01X1808Y2021D01*
G01X1798Y1997D01*
G01X1790Y1972D01*
G01X1785Y1947D01*
G01X1782Y1921D01*
G01X1782Y1896D01*
G01X1785Y1870D01*
G01X1790Y1845D01*
G01X1798Y1820D01*
G01X1808Y1796D01*
G01X1820Y1774D01*
G01X1834Y1752D01*
G01X1851Y1733D01*
G01X1869Y1715D01*
G01X1890Y1699D01*
G01X1911Y1685D01*
G01X1934Y1673D01*
G01X1958Y1663D01*
G01X1983Y1657D01*
G01X2008Y1652D01*
G01X2034Y1650D01*
G01X2039Y1650D01*
G01X2045Y149D01*
G01X1900Y0D01*
G37*

%LPC*%
G36*
G01X2907Y12889D02*
G01X2898Y12867D01*
G01X3132Y12867D01*
G01X3132Y13101D01*
G01X3120Y13097D01*
G01X3082Y13077D01*
G01X3045Y13053D01*
G01X3011Y13026D01*
G01X2980Y12996D01*
G01X2952Y12963D01*
G01X2928Y12927D01*
G01X2907Y12889D01*
G37*
G36*
G01X1697Y176D02*
G01X1697Y135D01*
G01X1702Y137D01*
G01X1706Y139D01*
G01X1716Y143D01*
G01X1721Y145D01*
G01X1731Y150D01*
G01X1735Y152D01*
G01X1745Y157D01*
G01X1749Y160D01*
G01X1758Y165D01*
G01X1762Y168D01*
G01X1771Y174D01*
G01X1775Y177D01*
G01X1784Y183D01*
G01X1788Y187D01*
G01X1796Y194D01*
G01X1800Y197D01*
G01X1808Y204D01*
G01X1811Y208D01*
G01X1819Y215D01*
G01X1822Y219D01*
G01X1829Y227D01*
G01X1833Y231D01*
G01X1839Y239D01*
G01X1842Y243D01*
G01X1849Y252D01*
G01X1851Y256D01*
G01X1857Y265D01*
G01X1860Y270D01*
G01X1865Y279D01*
G01X1868Y283D01*
G01X1873Y293D01*
G01X1875Y297D01*
G01X1879Y307D01*
G01X1881Y312D01*
G01X1885Y322D01*
G01X1887Y327D01*
G01X1890Y337D01*
G01X1892Y342D01*
G01X1895Y352D01*
G01X1896Y357D01*
G01X1898Y367D01*
G01X1899Y372D01*
G01X1901Y383D01*
G01X1902Y388D01*
G01X1903Y393D01*
G01X1890Y393D01*
G01X1891Y396D01*
G01X1893Y406D01*
G01X1894Y411D01*
G01X1896Y422D01*
G01X1897Y427D01*
G01X1898Y438D01*
G01X1899Y442D01*
G01X1899Y453D01*
G01X1900Y458D01*
G01X1900Y462D01*
G01X1692Y462D01*
G01X1692Y174D01*
G01X1697Y176D01*
G37*
G36*
G01X1475Y137D02*
G01X1480Y135D01*
G01X1480Y393D01*
G01X1475Y393D01*
G01X1475Y462D01*
G01X1267Y462D01*
G01X1267Y458D01*
G01X1268Y453D01*
G01X1268Y442D01*
G01X1269Y438D01*
G01X1270Y427D01*
G01X1271Y422D01*
G01X1273Y411D01*
G01X1274Y406D01*
G01X1276Y396D01*
G01X1277Y393D01*
G01X1274Y393D01*
G01X1275Y388D01*
G01X1276Y383D01*
G01X1278Y372D01*
G01X1279Y367D01*
G01X1281Y357D01*
G01X1282Y352D01*
G01X1285Y342D01*
G01X1287Y337D01*
G01X1290Y327D01*
G01X1292Y322D01*
G01X1296Y312D01*
G01X1298Y307D01*
G01X1302Y297D01*
G01X1304Y293D01*
G01X1309Y283D01*
G01X1312Y279D01*
G01X1317Y270D01*
G01X1320Y265D01*
G01X1326Y256D01*
G01X1328Y252D01*
G01X1335Y243D01*
G01X1338Y239D01*
G01X1344Y231D01*
G01X1348Y227D01*
G01X1355Y219D01*
G01X1358Y215D01*
G01X1366Y208D01*
G01X1369Y204D01*
G01X1377Y197D01*
G01X1381Y194D01*
G01X1389Y187D01*
G01X1393Y183D01*
G01X1402Y177D01*
G01X1406Y174D01*
G01X1415Y168D01*
G01X1419Y165D01*
G01X1428Y160D01*
G01X1432Y157D01*
G01X1442Y152D01*
G01X1446Y150D01*
G01X1456Y145D01*
G01X1461Y143D01*
G01X1471Y139D01*
G01X1475Y137D01*
G37*
G36*
G01X6323Y462D02*
G01X6323Y135D01*
G01X6328Y137D01*
G01X6332Y139D01*
G01X6342Y143D01*
G01X6347Y145D01*
G01X6357Y150D01*
G01X6361Y152D01*
G01X6371Y157D01*
G01X6375Y160D01*
G01X6384Y165D01*
G01X6388Y168D01*
G01X6397Y174D01*
G01X6401Y177D01*
G01X6410Y183D01*
G01X6414Y187D01*
G01X6422Y194D01*
G01X6426Y197D01*
G01X6434Y204D01*
G01X6437Y208D01*
G01X6445Y215D01*
G01X6448Y219D01*
G01X6455Y227D01*
G01X6459Y231D01*
G01X6465Y239D01*
G01X6468Y243D01*
G01X6475Y252D01*
G01X6477Y256D01*
G01X6483Y265D01*
G01X6486Y270D01*
G01X6491Y279D01*
G01X6494Y283D01*
G01X6499Y293D01*
G01X6501Y297D01*
G01X6505Y307D01*
G01X6507Y312D01*
G01X6511Y322D01*
G01X6513Y327D01*
G01X6516Y337D01*
G01X6518Y342D01*
G01X6521Y352D01*
G01X6522Y357D01*
G01X6524Y367D01*
G01X6525Y372D01*
G01X6527Y383D01*
G01X6528Y388D01*
G01X6529Y393D01*
G01X6521Y393D01*
G01X6522Y396D01*
G01X6524Y406D01*
G01X6525Y411D01*
G01X6527Y422D01*
G01X6528Y427D01*
G01X6529Y438D01*
G01X6530Y442D01*
G01X6530Y453D01*
G01X6531Y458D01*
G01X6531Y462D01*
G01X6323Y462D01*
G37*
G36*
G01X6101Y137D02*
G01X6106Y135D01*
G01X6106Y462D01*
G01X5898Y462D01*
G01X5898Y458D01*
G01X5899Y453D01*
G01X5899Y442D01*
G01X5900Y438D01*
G01X5901Y427D01*
G01X5902Y422D01*
G01X5904Y411D01*
G01X5905Y406D01*
G01X5907Y396D01*
G01X5908Y393D01*
G01X5900Y393D01*
G01X5901Y388D01*
G01X5902Y383D01*
G01X5904Y372D01*
G01X5905Y367D01*
G01X5907Y357D01*
G01X5908Y352D01*
G01X5911Y342D01*
G01X5913Y337D01*
G01X5916Y327D01*
G01X5918Y322D01*
G01X5922Y312D01*
G01X5924Y307D01*
G01X5928Y297D01*
G01X5930Y293D01*
G01X5935Y283D01*
G01X5938Y279D01*
G01X5943Y270D01*
G01X5946Y265D01*
G01X5952Y256D01*
G01X5954Y252D01*
G01X5961Y243D01*
G01X5964Y239D01*
G01X5970Y231D01*
G01X5974Y227D01*
G01X5981Y219D01*
G01X5984Y215D01*
G01X5992Y208D01*
G01X5995Y204D01*
G01X6003Y197D01*
G01X6007Y194D01*
G01X6015Y187D01*
G01X6019Y183D01*
G01X6028Y177D01*
G01X6032Y174D01*
G01X6041Y168D01*
G01X6045Y165D01*
G01X6054Y160D01*
G01X6058Y157D01*
G01X6068Y152D01*
G01X6072Y150D01*
G01X6082Y145D01*
G01X6087Y143D01*
G01X6097Y139D01*
G01X6101Y137D01*
G37*
G36*
G01X3467Y13101D02*
G01X3467Y12867D01*
G01X3702Y12867D01*
G01X3701Y12869D01*
G01X3682Y12908D01*
G01X3659Y12945D01*
G01X3633Y12980D01*
G01X3604Y13011D01*
G01X3571Y13040D01*
G01X3536Y13065D01*
G01X3498Y13087D01*
G01X3467Y13101D01*
G37*
G36*
G01X3120Y12302D02*
G01X3132Y12298D01*
G01X3132Y12532D01*
G01X2898Y12532D01*
G01X2907Y12510D01*
G01X2928Y12472D01*
G01X2952Y12436D01*
G01X2980Y12403D01*
G01X3011Y12373D01*
G01X3045Y12346D01*
G01X3082Y12322D01*
G01X3120Y12302D01*
G37*
G36*
G01X3467Y12532D02*
G01X3467Y12298D01*
G01X3498Y12312D01*
G01X3536Y12334D01*
G01X3571Y12359D01*
G01X3604Y12388D01*
G01X3633Y12419D01*
G01X3659Y12454D01*
G01X3682Y12491D01*
G01X3701Y12530D01*
G01X3702Y12532D01*
G01X3467Y12532D01*
G37*
G36*
G01X327Y9616D02*
G01X327Y9508D01*
G01X525Y9508D01*
G01X525Y9716D01*
G01X427Y9716D01*
G01X423Y9716D01*
G01X419Y9716D01*
G01X415Y9715D01*
G01X411Y9715D01*
G01X407Y9714D01*
G01X402Y9713D01*
G01X398Y9712D01*
G01X395Y9711D01*
G01X391Y9709D01*
G01X387Y9708D01*
G01X383Y9706D01*
G01X379Y9704D01*
G01X376Y9702D01*
G01X372Y9700D01*
G01X369Y9697D01*
G01X366Y9695D01*
G01X362Y9692D01*
G01X359Y9690D01*
G01X356Y9687D01*
G01X353Y9684D01*
G01X351Y9681D01*
G01X348Y9677D01*
G01X346Y9674D01*
G01X343Y9671D01*
G01X341Y9667D01*
G01X339Y9664D01*
G01X337Y9660D01*
G01X335Y9656D01*
G01X334Y9652D01*
G01X332Y9648D01*
G01X331Y9645D01*
G01X330Y9641D01*
G01X329Y9637D01*
G01X328Y9632D01*
G01X328Y9628D01*
G01X327Y9624D01*
G01X327Y9620D01*
G01X327Y9616D01*
G37*
G36*
G01X1697Y875D02*
G01X1697Y748D01*
G01X1903Y748D01*
G01X1902Y753D01*
G01X1901Y758D01*
G01X1899Y769D01*
G01X1898Y774D01*
G01X1896Y784D01*
G01X1895Y789D01*
G01X1892Y799D01*
G01X1890Y804D01*
G01X1887Y814D01*
G01X1885Y819D01*
G01X1881Y829D01*
G01X1879Y834D01*
G01X1875Y844D01*
G01X1873Y848D01*
G01X1868Y858D01*
G01X1865Y862D01*
G01X1860Y871D01*
G01X1858Y875D01*
G01X1900Y875D01*
G01X1900Y879D01*
G01X1899Y884D01*
G01X1899Y895D01*
G01X1898Y899D01*
G01X1897Y910D01*
G01X1896Y915D01*
G01X1894Y926D01*
G01X1893Y931D01*
G01X1891Y941D01*
G01X1890Y946D01*
G01X1887Y956D01*
G01X1885Y961D01*
G01X1882Y971D01*
G01X1880Y976D01*
G01X1876Y986D01*
G01X1874Y991D01*
G01X1870Y1001D01*
G01X1868Y1005D01*
G01X1863Y1015D01*
G01X1860Y1019D01*
G01X1855Y1028D01*
G01X1852Y1033D01*
G01X1846Y1042D01*
G01X1844Y1046D01*
G01X1837Y1055D01*
G01X1834Y1059D01*
G01X1828Y1067D01*
G01X1824Y1071D01*
G01X1817Y1079D01*
G01X1814Y1083D01*
G01X1806Y1090D01*
G01X1803Y1094D01*
G01X1795Y1101D01*
G01X1791Y1104D01*
G01X1783Y1111D01*
G01X1779Y1115D01*
G01X1770Y1121D01*
G01X1766Y1124D01*
G01X1757Y1130D01*
G01X1753Y1133D01*
G01X1744Y1138D01*
G01X1740Y1141D01*
G01X1730Y1146D01*
G01X1726Y1148D01*
G01X1716Y1153D01*
G01X1711Y1155D01*
G01X1701Y1159D01*
G01X1697Y1161D01*
G01X1692Y1163D01*
G01X1692Y875D01*
G01X1697Y875D01*
G37*
G36*
G01X1275Y753D02*
G01X1274Y748D01*
G01X1480Y748D01*
G01X1480Y1006D01*
G01X1475Y1004D01*
G01X1475Y1163D01*
G01X1470Y1161D01*
G01X1466Y1159D01*
G01X1456Y1155D01*
G01X1451Y1153D01*
G01X1441Y1148D01*
G01X1437Y1146D01*
G01X1427Y1141D01*
G01X1423Y1138D01*
G01X1414Y1133D01*
G01X1410Y1130D01*
G01X1401Y1124D01*
G01X1397Y1121D01*
G01X1388Y1115D01*
G01X1384Y1111D01*
G01X1376Y1104D01*
G01X1372Y1101D01*
G01X1364Y1094D01*
G01X1361Y1090D01*
G01X1353Y1083D01*
G01X1350Y1079D01*
G01X1343Y1071D01*
G01X1339Y1067D01*
G01X1333Y1059D01*
G01X1330Y1055D01*
G01X1323Y1046D01*
G01X1321Y1042D01*
G01X1315Y1033D01*
G01X1312Y1028D01*
G01X1307Y1019D01*
G01X1304Y1015D01*
G01X1299Y1005D01*
G01X1297Y1001D01*
G01X1293Y991D01*
G01X1291Y986D01*
G01X1287Y976D01*
G01X1285Y971D01*
G01X1282Y961D01*
G01X1280Y956D01*
G01X1277Y946D01*
G01X1276Y941D01*
G01X1274Y931D01*
G01X1273Y926D01*
G01X1271Y915D01*
G01X1270Y910D01*
G01X1269Y899D01*
G01X1268Y895D01*
G01X1268Y884D01*
G01X1267Y879D01*
G01X1267Y875D01*
G01X1319Y875D01*
G01X1317Y871D01*
G01X1312Y862D01*
G01X1309Y858D01*
G01X1304Y848D01*
G01X1302Y844D01*
G01X1298Y834D01*
G01X1296Y829D01*
G01X1292Y819D01*
G01X1290Y814D01*
G01X1287Y804D01*
G01X1285Y799D01*
G01X1282Y789D01*
G01X1281Y784D01*
G01X1279Y774D01*
G01X1278Y769D01*
G01X1276Y758D01*
G01X1275Y753D01*
G37*
G36*
G01X6323Y1163D02*
G01X6323Y748D01*
G01X6529Y748D01*
G01X6528Y753D01*
G01X6527Y758D01*
G01X6525Y769D01*
G01X6524Y774D01*
G01X6522Y784D01*
G01X6521Y789D01*
G01X6518Y799D01*
G01X6516Y804D01*
G01X6513Y814D01*
G01X6511Y819D01*
G01X6507Y829D01*
G01X6505Y834D01*
G01X6501Y844D01*
G01X6499Y848D01*
G01X6494Y858D01*
G01X6491Y862D01*
G01X6486Y871D01*
G01X6484Y875D01*
G01X6531Y875D01*
G01X6531Y879D01*
G01X6530Y884D01*
G01X6530Y895D01*
G01X6529Y899D01*
G01X6528Y910D01*
G01X6527Y915D01*
G01X6525Y926D01*
G01X6524Y931D01*
G01X6522Y941D01*
G01X6521Y946D01*
G01X6518Y956D01*
G01X6516Y961D01*
G01X6513Y971D01*
G01X6511Y976D01*
G01X6507Y986D01*
G01X6505Y991D01*
G01X6501Y1001D01*
G01X6499Y1005D01*
G01X6494Y1015D01*
G01X6491Y1019D01*
G01X6486Y1028D01*
G01X6483Y1033D01*
G01X6477Y1042D01*
G01X6475Y1046D01*
G01X6468Y1055D01*
G01X6465Y1059D01*
G01X6459Y1067D01*
G01X6455Y1071D01*
G01X6448Y1079D01*
G01X6445Y1083D01*
G01X6437Y1090D01*
G01X6434Y1094D01*
G01X6426Y1101D01*
G01X6422Y1104D01*
G01X6414Y1111D01*
G01X6410Y1115D01*
G01X6401Y1121D01*
G01X6397Y1124D01*
G01X6388Y1130D01*
G01X6384Y1133D01*
G01X6375Y1138D01*
G01X6371Y1141D01*
G01X6361Y1146D01*
G01X6357Y1148D01*
G01X6347Y1153D01*
G01X6342Y1155D01*
G01X6332Y1159D01*
G01X6328Y1161D01*
G01X6323Y1163D01*
G37*
G36*
G01X5901Y753D02*
G01X5900Y748D01*
G01X6106Y748D01*
G01X6106Y1163D01*
G01X6101Y1161D01*
G01X6097Y1159D01*
G01X6087Y1155D01*
G01X6082Y1153D01*
G01X6072Y1148D01*
G01X6068Y1146D01*
G01X6058Y1141D01*
G01X6054Y1138D01*
G01X6045Y1133D01*
G01X6041Y1130D01*
G01X6032Y1124D01*
G01X6028Y1121D01*
G01X6019Y1115D01*
G01X6015Y1111D01*
G01X6007Y1104D01*
G01X6003Y1101D01*
G01X5995Y1094D01*
G01X5992Y1090D01*
G01X5984Y1083D01*
G01X5981Y1079D01*
G01X5974Y1071D01*
G01X5970Y1067D01*
G01X5964Y1059D01*
G01X5961Y1055D01*
G01X5954Y1046D01*
G01X5952Y1042D01*
G01X5946Y1033D01*
G01X5943Y1028D01*
G01X5938Y1019D01*
G01X5935Y1015D01*
G01X5930Y1005D01*
G01X5928Y1001D01*
G01X5924Y991D01*
G01X5922Y986D01*
G01X5918Y976D01*
G01X5916Y971D01*
G01X5913Y961D01*
G01X5911Y956D01*
G01X5908Y946D01*
G01X5907Y941D01*
G01X5905Y931D01*
G01X5904Y926D01*
G01X5902Y915D01*
G01X5901Y910D01*
G01X5900Y899D01*
G01X5899Y895D01*
G01X5899Y884D01*
G01X5898Y879D01*
G01X5898Y875D01*
G01X5945Y875D01*
G01X5943Y871D01*
G01X5938Y862D01*
G01X5935Y858D01*
G01X5930Y848D01*
G01X5928Y844D01*
G01X5924Y834D01*
G01X5922Y829D01*
G01X5918Y819D01*
G01X5916Y814D01*
G01X5913Y804D01*
G01X5911Y799D01*
G01X5908Y789D01*
G01X5907Y784D01*
G01X5905Y774D01*
G01X5904Y769D01*
G01X5902Y758D01*
G01X5901Y753D01*
G37*
G36*
G01X423Y9083D02*
G01X427Y9083D01*
G01X525Y9083D01*
G01X525Y9291D01*
G01X327Y9291D01*
G01X327Y9183D01*
G01X327Y9179D01*
G01X327Y9175D01*
G01X328Y9171D01*
G01X328Y9167D01*
G01X329Y9162D01*
G01X330Y9158D01*
G01X331Y9154D01*
G01X332Y9150D01*
G01X334Y9147D01*
G01X335Y9143D01*
G01X337Y9139D01*
G01X339Y9135D01*
G01X341Y9132D01*
G01X343Y9128D01*
G01X346Y9125D01*
G01X348Y9122D01*
G01X351Y9118D01*
G01X353Y9115D01*
G01X356Y9112D01*
G01X359Y9109D01*
G01X362Y9107D01*
G01X366Y9104D01*
G01X369Y9102D01*
G01X372Y9099D01*
G01X376Y9097D01*
G01X379Y9095D01*
G01X383Y9093D01*
G01X387Y9091D01*
G01X391Y9090D01*
G01X395Y9088D01*
G01X398Y9087D01*
G01X402Y9086D01*
G01X407Y9085D01*
G01X411Y9084D01*
G01X415Y9084D01*
G01X419Y9083D01*
G01X423Y9083D01*
G37*
G36*
G01X282Y8886D02*
G01X282Y8788D01*
G01X283Y8788D01*
G01X491Y8788D01*
G01X491Y8986D01*
G01X382Y8986D01*
G01X378Y8986D01*
G01X374Y8986D01*
G01X370Y8986D01*
G01X366Y8985D01*
G01X362Y8984D01*
G01X358Y8983D01*
G01X354Y8982D01*
G01X350Y8981D01*
G01X346Y8980D01*
G01X342Y8978D01*
G01X339Y8976D01*
G01X335Y8974D01*
G01X331Y8972D01*
G01X328Y8970D01*
G01X324Y8968D01*
G01X321Y8965D01*
G01X318Y8963D01*
G01X315Y8960D01*
G01X312Y8957D01*
G01X309Y8954D01*
G01X306Y8951D01*
G01X304Y8948D01*
G01X301Y8945D01*
G01X299Y8941D01*
G01X297Y8938D01*
G01X295Y8934D01*
G01X293Y8930D01*
G01X291Y8927D01*
G01X289Y8923D01*
G01X288Y8919D01*
G01X287Y8915D01*
G01X286Y8911D01*
G01X285Y8907D01*
G01X284Y8903D01*
G01X283Y8899D01*
G01X283Y8895D01*
G01X283Y8891D01*
G01X282Y8886D01*
G37*
G36*
G01X916Y8788D02*
G01X917Y8788D01*
G01X917Y8886D01*
G01X916Y8891D01*
G01X916Y8895D01*
G01X916Y8899D01*
G01X915Y8903D01*
G01X914Y8907D01*
G01X913Y8911D01*
G01X912Y8915D01*
G01X911Y8919D01*
G01X910Y8923D01*
G01X908Y8927D01*
G01X906Y8930D01*
G01X904Y8934D01*
G01X902Y8938D01*
G01X900Y8941D01*
G01X898Y8945D01*
G01X895Y8948D01*
G01X893Y8951D01*
G01X890Y8954D01*
G01X887Y8957D01*
G01X884Y8960D01*
G01X881Y8963D01*
G01X878Y8965D01*
G01X875Y8968D01*
G01X871Y8970D01*
G01X868Y8972D01*
G01X864Y8974D01*
G01X860Y8976D01*
G01X857Y8978D01*
G01X853Y8980D01*
G01X849Y8981D01*
G01X845Y8982D01*
G01X841Y8983D01*
G01X837Y8984D01*
G01X833Y8985D01*
G01X829Y8986D01*
G01X825Y8986D01*
G01X821Y8986D01*
G01X817Y8986D01*
G01X708Y8986D01*
G01X708Y8788D01*
G01X916Y8788D01*
G37*
G36*
G01X7078Y7113D02*
G01X7082Y7113D01*
G01X7191Y7113D01*
G01X7191Y7310D01*
G01X6983Y7310D01*
G01X6982Y7310D01*
G01X6982Y7213D01*
G01X6983Y7208D01*
G01X6983Y7204D01*
G01X6983Y7200D01*
G01X6984Y7196D01*
G01X6985Y7192D01*
G01X6986Y7188D01*
G01X6987Y7184D01*
G01X6988Y7180D01*
G01X6989Y7176D01*
G01X6991Y7172D01*
G01X6993Y7169D01*
G01X6995Y7165D01*
G01X6997Y7161D01*
G01X6999Y7158D01*
G01X7001Y7154D01*
G01X7004Y7151D01*
G01X7006Y7148D01*
G01X7009Y7145D01*
G01X7012Y7142D01*
G01X7015Y7139D01*
G01X7018Y7136D01*
G01X7021Y7134D01*
G01X7024Y7131D01*
G01X7028Y7129D01*
G01X7031Y7127D01*
G01X7035Y7125D01*
G01X7039Y7123D01*
G01X7042Y7121D01*
G01X7046Y7119D01*
G01X7050Y7118D01*
G01X7054Y7117D01*
G01X7058Y7116D01*
G01X7062Y7115D01*
G01X7066Y7114D01*
G01X7070Y7113D01*
G01X7074Y7113D01*
G01X7078Y7113D01*
G37*
G36*
G01X7408Y7310D02*
G01X7408Y7113D01*
G01X7517Y7113D01*
G01X7521Y7113D01*
G01X7525Y7113D01*
G01X7529Y7113D01*
G01X7533Y7114D01*
G01X7537Y7115D01*
G01X7541Y7116D01*
G01X7545Y7117D01*
G01X7549Y7118D01*
G01X7553Y7119D01*
G01X7557Y7121D01*
G01X7560Y7123D01*
G01X7564Y7125D01*
G01X7568Y7127D01*
G01X7571Y7129D01*
G01X7575Y7131D01*
G01X7578Y7134D01*
G01X7581Y7136D01*
G01X7584Y7139D01*
G01X7587Y7142D01*
G01X7590Y7145D01*
G01X7593Y7148D01*
G01X7595Y7151D01*
G01X7598Y7154D01*
G01X7600Y7158D01*
G01X7602Y7161D01*
G01X7604Y7165D01*
G01X7606Y7169D01*
G01X7608Y7172D01*
G01X7610Y7176D01*
G01X7611Y7180D01*
G01X7612Y7184D01*
G01X7613Y7188D01*
G01X7614Y7192D01*
G01X7615Y7196D01*
G01X7616Y7200D01*
G01X7616Y7204D01*
G01X7616Y7208D01*
G01X7617Y7213D01*
G01X7617Y7310D01*
G01X7616Y7310D01*
G01X7408Y7310D01*
G37*
G36*
G01X6937Y1402D02*
G01X6987Y1399D01*
G01X7037Y1400D01*
G01X7086Y1406D01*
G01X7135Y1417D01*
G01X7183Y1433D01*
G01X7228Y1454D01*
G01X7271Y1479D01*
G01X7312Y1508D01*
G01X7349Y1541D01*
G01X7383Y1577D01*
G01X7413Y1617D01*
G01X7439Y1660D01*
G01X7461Y1705D01*
G01X7478Y1752D01*
G01X7491Y1800D01*
G01X7498Y1850D01*
G01X7501Y1900D01*
G01X7498Y1949D01*
G01X7491Y1999D01*
G01X7478Y2047D01*
G01X7461Y2094D01*
G01X7439Y2139D01*
G01X7413Y2182D01*
G01X7383Y2222D01*
G01X7349Y2258D01*
G01X7312Y2291D01*
G01X7271Y2320D01*
G01X7228Y2345D01*
G01X7183Y2366D01*
G01X7135Y2382D01*
G01X7086Y2393D01*
G01X7037Y2399D01*
G01X6987Y2400D01*
G01X6937Y2397D01*
G01X6888Y2388D01*
G01X6840Y2374D01*
G01X6793Y2356D01*
G01X6749Y2333D01*
G01X6707Y2306D01*
G01X6668Y2275D01*
G01X6632Y2240D01*
G01X6600Y2202D01*
G01X6572Y2161D01*
G01X6548Y2117D01*
G01X6529Y2071D01*
G01X6514Y2023D01*
G01X6504Y1974D01*
G01X6499Y1924D01*
G01X6499Y1875D01*
G01X6504Y1825D01*
G01X6514Y1776D01*
G01X6529Y1728D01*
G01X6548Y1682D01*
G01X6572Y1638D01*
G01X6600Y1597D01*
G01X6632Y1559D01*
G01X6668Y1524D01*
G01X6707Y1493D01*
G01X6749Y1466D01*
G01X6793Y1443D01*
G01X6840Y1425D01*
G01X6888Y1411D01*
G01X6937Y1402D01*
G37*
G36*
G01X637Y1402D02*
G01X687Y1399D01*
G01X737Y1400D01*
G01X786Y1406D01*
G01X835Y1417D01*
G01X883Y1433D01*
G01X928Y1454D01*
G01X971Y1479D01*
G01X1012Y1508D01*
G01X1049Y1541D01*
G01X1083Y1577D01*
G01X1113Y1617D01*
G01X1139Y1660D01*
G01X1161Y1705D01*
G01X1178Y1752D01*
G01X1191Y1800D01*
G01X1198Y1850D01*
G01X1201Y1900D01*
G01X1198Y1949D01*
G01X1191Y1999D01*
G01X1178Y2047D01*
G01X1161Y2094D01*
G01X1139Y2139D01*
G01X1113Y2182D01*
G01X1083Y2222D01*
G01X1049Y2258D01*
G01X1012Y2291D01*
G01X971Y2320D01*
G01X928Y2345D01*
G01X883Y2366D01*
G01X835Y2382D01*
G01X786Y2393D01*
G01X737Y2399D01*
G01X687Y2400D01*
G01X637Y2397D01*
G01X588Y2388D01*
G01X540Y2374D01*
G01X493Y2356D01*
G01X449Y2333D01*
G01X407Y2306D01*
G01X368Y2275D01*
G01X332Y2240D01*
G01X300Y2202D01*
G01X272Y2161D01*
G01X248Y2117D01*
G01X229Y2071D01*
G01X214Y2023D01*
G01X204Y1974D01*
G01X199Y1924D01*
G01X199Y1875D01*
G01X204Y1825D01*
G01X214Y1776D01*
G01X229Y1728D01*
G01X248Y1682D01*
G01X272Y1638D01*
G01X300Y1597D01*
G01X332Y1559D01*
G01X368Y1524D01*
G01X407Y1493D01*
G01X449Y1466D01*
G01X493Y1443D01*
G01X540Y1425D01*
G01X588Y1411D01*
G01X637Y1402D01*
G37*
G36*
G01X378Y6413D02*
G01X382Y6413D01*
G01X491Y6413D01*
G01X491Y6610D01*
G01X283Y6610D01*
G01X282Y6610D01*
G01X282Y6513D01*
G01X283Y6508D01*
G01X283Y6504D01*
G01X283Y6500D01*
G01X284Y6496D01*
G01X285Y6492D01*
G01X286Y6488D01*
G01X287Y6484D01*
G01X288Y6480D01*
G01X289Y6476D01*
G01X291Y6472D01*
G01X293Y6469D01*
G01X295Y6465D01*
G01X297Y6461D01*
G01X299Y6458D01*
G01X301Y6454D01*
G01X304Y6451D01*
G01X306Y6448D01*
G01X309Y6445D01*
G01X312Y6442D01*
G01X315Y6439D01*
G01X318Y6436D01*
G01X321Y6434D01*
G01X324Y6431D01*
G01X328Y6429D01*
G01X331Y6427D01*
G01X335Y6425D01*
G01X339Y6423D01*
G01X342Y6421D01*
G01X346Y6419D01*
G01X350Y6418D01*
G01X354Y6417D01*
G01X358Y6416D01*
G01X362Y6415D01*
G01X366Y6414D01*
G01X370Y6413D01*
G01X374Y6413D01*
G01X378Y6413D01*
G37*
G36*
G01X708Y6610D02*
G01X708Y6413D01*
G01X817Y6413D01*
G01X821Y6413D01*
G01X825Y6413D01*
G01X829Y6413D01*
G01X833Y6414D01*
G01X837Y6415D01*
G01X841Y6416D01*
G01X845Y6417D01*
G01X849Y6418D01*
G01X853Y6419D01*
G01X857Y6421D01*
G01X860Y6423D01*
G01X864Y6425D01*
G01X868Y6427D01*
G01X871Y6429D01*
G01X875Y6431D01*
G01X878Y6434D01*
G01X881Y6436D01*
G01X884Y6439D01*
G01X887Y6442D01*
G01X890Y6445D01*
G01X893Y6448D01*
G01X895Y6451D01*
G01X898Y6454D01*
G01X900Y6458D01*
G01X902Y6461D01*
G01X904Y6465D01*
G01X906Y6469D01*
G01X908Y6472D01*
G01X910Y6476D01*
G01X911Y6480D01*
G01X912Y6484D01*
G01X913Y6488D01*
G01X914Y6492D01*
G01X915Y6496D01*
G01X916Y6500D01*
G01X916Y6504D01*
G01X916Y6508D01*
G01X917Y6513D01*
G01X917Y6610D01*
G01X916Y6610D01*
G01X708Y6610D01*
G37*
G36*
G01X2957Y2056D02*
G01X2960Y2056D01*
G01X2965Y2056D01*
G01X2968Y2056D01*
G01X2974Y2057D01*
G01X2977Y2057D01*
G01X2983Y2058D01*
G01X2986Y2058D01*
G01X2991Y2059D01*
G01X2994Y2060D01*
G01X3000Y2061D01*
G01X3002Y2062D01*
G01X3008Y2063D01*
G01X3011Y2064D01*
G01X3016Y2066D01*
G01X3019Y2067D01*
G01X3024Y2070D01*
G01X3027Y2071D01*
G01X3032Y2073D01*
G01X3034Y2075D01*
G01X3040Y2078D01*
G01X3042Y2079D01*
G01X3047Y2082D01*
G01X3049Y2084D01*
G01X3054Y2088D01*
G01X3056Y2089D01*
G01X3061Y2093D01*
G01X3061Y2093D01*
G01X3061Y2093D01*
G01X3066Y2089D01*
G01X3068Y2088D01*
G01X3073Y2084D01*
G01X3075Y2082D01*
G01X3080Y2079D01*
G01X3082Y2078D01*
G01X3088Y2075D01*
G01X3090Y2073D01*
G01X3095Y2071D01*
G01X3098Y2070D01*
G01X3103Y2067D01*
G01X3106Y2066D01*
G01X3111Y2064D01*
G01X3114Y2063D01*
G01X3120Y2062D01*
G01X3122Y2061D01*
G01X3128Y2060D01*
G01X3131Y2059D01*
G01X3136Y2058D01*
G01X3139Y2058D01*
G01X3145Y2057D01*
G01X3148Y2057D01*
G01X3154Y2056D01*
G01X3157Y2056D01*
G01X3162Y2056D01*
G01X3165Y2056D01*
G01X3171Y2057D01*
G01X3174Y2057D01*
G01X3180Y2058D01*
G01X3183Y2058D01*
G01X3188Y2059D01*
G01X3191Y2060D01*
G01X3197Y2061D01*
G01X3199Y2062D01*
G01X3205Y2063D01*
G01X3208Y2064D01*
G01X3213Y2066D01*
G01X3216Y2067D01*
G01X3221Y2070D01*
G01X3224Y2071D01*
G01X3229Y2073D01*
G01X3231Y2075D01*
G01X3237Y2078D01*
G01X3239Y2079D01*
G01X3244Y2082D01*
G01X3246Y2084D01*
G01X3251Y2088D01*
G01X3253Y2089D01*
G01X3258Y2093D01*
G01X3258Y2093D01*
G01X3258Y2093D01*
G01X3263Y2089D01*
G01X3265Y2088D01*
G01X3270Y2084D01*
G01X3272Y2082D01*
G01X3277Y2079D01*
G01X3279Y2078D01*
G01X3285Y2075D01*
G01X3287Y2073D01*
G01X3292Y2071D01*
G01X3295Y2070D01*
G01X3300Y2067D01*
G01X3303Y2066D01*
G01X3308Y2064D01*
G01X3311Y2063D01*
G01X3317Y2062D01*
G01X3319Y2061D01*
G01X3325Y2060D01*
G01X3328Y2059D01*
G01X3333Y2058D01*
G01X3336Y2058D01*
G01X3342Y2057D01*
G01X3345Y2057D01*
G01X3351Y2056D01*
G01X3354Y2056D01*
G01X3359Y2056D01*
G01X3362Y2056D01*
G01X3368Y2057D01*
G01X3371Y2057D01*
G01X3377Y2058D01*
G01X3380Y2058D01*
G01X3385Y2059D01*
G01X3388Y2060D01*
G01X3394Y2061D01*
G01X3396Y2062D01*
G01X3402Y2063D01*
G01X3405Y2064D01*
G01X3410Y2066D01*
G01X3413Y2067D01*
G01X3418Y2070D01*
G01X3421Y2071D01*
G01X3426Y2073D01*
G01X3428Y2075D01*
G01X3434Y2078D01*
G01X3436Y2079D01*
G01X3441Y2082D01*
G01X3443Y2084D01*
G01X3448Y2088D01*
G01X3450Y2089D01*
G01X3455Y2093D01*
G01X3455Y2093D01*
G01X3455Y2093D01*
G01X3460Y2089D01*
G01X3462Y2088D01*
G01X3467Y2084D01*
G01X3469Y2082D01*
G01X3474Y2079D01*
G01X3476Y2078D01*
G01X3482Y2075D01*
G01X3484Y2073D01*
G01X3489Y2071D01*
G01X3492Y2070D01*
G01X3497Y2067D01*
G01X3500Y2066D01*
G01X3505Y2064D01*
G01X3508Y2063D01*
G01X3514Y2062D01*
G01X3516Y2061D01*
G01X3522Y2060D01*
G01X3525Y2059D01*
G01X3530Y2058D01*
G01X3533Y2058D01*
G01X3539Y2057D01*
G01X3542Y2057D01*
G01X3548Y2056D01*
G01X3551Y2056D01*
G01X3556Y2056D01*
G01X3559Y2056D01*
G01X3565Y2057D01*
G01X3568Y2057D01*
G01X3574Y2058D01*
G01X3577Y2058D01*
G01X3582Y2059D01*
G01X3585Y2060D01*
G01X3591Y2061D01*
G01X3593Y2062D01*
G01X3599Y2063D01*
G01X3602Y2064D01*
G01X3607Y2066D01*
G01X3610Y2067D01*
G01X3615Y2070D01*
G01X3618Y2071D01*
G01X3623Y2073D01*
G01X3625Y2075D01*
G01X3631Y2078D01*
G01X3633Y2079D01*
G01X3638Y2082D01*
G01X3640Y2084D01*
G01X3645Y2088D01*
G01X3647Y2089D01*
G01X3651Y2093D01*
G01X3656Y2089D01*
G01X3658Y2088D01*
G01X3663Y2084D01*
G01X3665Y2082D01*
G01X3670Y2079D01*
G01X3672Y2078D01*
G01X3678Y2075D01*
G01X3680Y2073D01*
G01X3685Y2071D01*
G01X3688Y2070D01*
G01X3693Y2067D01*
G01X3696Y2066D01*
G01X3701Y2064D01*
G01X3704Y2063D01*
G01X3710Y2062D01*
G01X3712Y2061D01*
G01X3718Y2060D01*
G01X3721Y2059D01*
G01X3726Y2058D01*
G01X3729Y2058D01*
G01X3735Y2057D01*
G01X3738Y2057D01*
G01X3744Y2056D01*
G01X3747Y2056D01*
G01X3752Y2056D01*
G01X3755Y2056D01*
G01X3761Y2057D01*
G01X3764Y2057D01*
G01X3770Y2058D01*
G01X3773Y2058D01*
G01X3778Y2059D01*
G01X3781Y2060D01*
G01X3787Y2061D01*
G01X3789Y2062D01*
G01X3795Y2063D01*
G01X3798Y2064D01*
G01X3803Y2066D01*
G01X3806Y2067D01*
G01X3811Y2070D01*
G01X3814Y2071D01*
G01X3819Y2073D01*
G01X3821Y2075D01*
G01X3827Y2078D01*
G01X3829Y2079D01*
G01X3834Y2082D01*
G01X3836Y2084D01*
G01X3841Y2088D01*
G01X3843Y2089D01*
G01X3848Y2093D01*
G01X3848Y2094D01*
G01X3849Y2093D01*
G01X3854Y2089D01*
G01X3856Y2088D01*
G01X3861Y2084D01*
G01X3863Y2082D01*
G01X3868Y2079D01*
G01X3870Y2078D01*
G01X3876Y2075D01*
G01X3878Y2073D01*
G01X3883Y2071D01*
G01X3886Y2070D01*
G01X3891Y2067D01*
G01X3894Y2066D01*
G01X3899Y2064D01*
G01X3902Y2063D01*
G01X3908Y2062D01*
G01X3910Y2061D01*
G01X3916Y2060D01*
G01X3919Y2059D01*
G01X3924Y2058D01*
G01X3927Y2058D01*
G01X3933Y2057D01*
G01X3936Y2057D01*
G01X3942Y2056D01*
G01X3945Y2056D01*
G01X3950Y2056D01*
G01X3953Y2056D01*
G01X3959Y2057D01*
G01X3962Y2057D01*
G01X3968Y2058D01*
G01X3971Y2058D01*
G01X3976Y2059D01*
G01X3979Y2060D01*
G01X3985Y2061D01*
G01X3987Y2062D01*
G01X3993Y2063D01*
G01X3996Y2064D01*
G01X4001Y2066D01*
G01X4004Y2067D01*
G01X4009Y2070D01*
G01X4012Y2071D01*
G01X4017Y2073D01*
G01X4019Y2075D01*
G01X4025Y2078D01*
G01X4027Y2079D01*
G01X4032Y2082D01*
G01X4034Y2084D01*
G01X4039Y2088D01*
G01X4041Y2089D01*
G01X4046Y2093D01*
G01X4050Y2089D01*
G01X4052Y2088D01*
G01X4057Y2084D01*
G01X4059Y2082D01*
G01X4064Y2079D01*
G01X4066Y2078D01*
G01X4072Y2075D01*
G01X4074Y2073D01*
G01X4079Y2071D01*
G01X4082Y2070D01*
G01X4087Y2067D01*
G01X4090Y2066D01*
G01X4095Y2064D01*
G01X4098Y2063D01*
G01X4104Y2062D01*
G01X4106Y2061D01*
G01X4112Y2060D01*
G01X4115Y2059D01*
G01X4120Y2058D01*
G01X4123Y2058D01*
G01X4129Y2057D01*
G01X4132Y2057D01*
G01X4138Y2056D01*
G01X4141Y2056D01*
G01X4146Y2056D01*
G01X4149Y2056D01*
G01X4155Y2057D01*
G01X4158Y2057D01*
G01X4164Y2058D01*
G01X4167Y2058D01*
G01X4172Y2059D01*
G01X4175Y2060D01*
G01X4181Y2061D01*
G01X4183Y2062D01*
G01X4189Y2063D01*
G01X4192Y2064D01*
G01X4197Y2066D01*
G01X4200Y2067D01*
G01X4205Y2070D01*
G01X4208Y2071D01*
G01X4213Y2073D01*
G01X4215Y2075D01*
G01X4221Y2078D01*
G01X4223Y2079D01*
G01X4228Y2082D01*
G01X4230Y2084D01*
G01X4235Y2088D01*
G01X4237Y2089D01*
G01X4242Y2093D01*
G01X4242Y2093D01*
G01X4242Y2093D01*
G01X4247Y2089D01*
G01X4249Y2088D01*
G01X4254Y2084D01*
G01X4256Y2082D01*
G01X4261Y2079D01*
G01X4263Y2078D01*
G01X4269Y2075D01*
G01X4271Y2073D01*
G01X4276Y2071D01*
G01X4279Y2070D01*
G01X4284Y2067D01*
G01X4287Y2066D01*
G01X4292Y2064D01*
G01X4295Y2063D01*
G01X4301Y2062D01*
G01X4303Y2061D01*
G01X4309Y2060D01*
G01X4312Y2059D01*
G01X4317Y2058D01*
G01X4320Y2058D01*
G01X4326Y2057D01*
G01X4329Y2057D01*
G01X4335Y2056D01*
G01X4338Y2056D01*
G01X4343Y2056D01*
G01X4346Y2056D01*
G01X4352Y2057D01*
G01X4355Y2057D01*
G01X4361Y2058D01*
G01X4364Y2058D01*
G01X4369Y2059D01*
G01X4372Y2060D01*
G01X4378Y2061D01*
G01X4380Y2062D01*
G01X4386Y2063D01*
G01X4389Y2064D01*
G01X4394Y2066D01*
G01X4397Y2067D01*
G01X4402Y2070D01*
G01X4405Y2071D01*
G01X4410Y2073D01*
G01X4412Y2075D01*
G01X4418Y2078D01*
G01X4420Y2079D01*
G01X4425Y2082D01*
G01X4427Y2084D01*
G01X4432Y2088D01*
G01X4434Y2089D01*
G01X4439Y2093D01*
G01X4439Y2093D01*
G01X4439Y2093D01*
G01X4444Y2089D01*
G01X4446Y2088D01*
G01X4451Y2084D01*
G01X4453Y2082D01*
G01X4458Y2079D01*
G01X4460Y2078D01*
G01X4466Y2075D01*
G01X4468Y2073D01*
G01X4473Y2071D01*
G01X4476Y2070D01*
G01X4481Y2067D01*
G01X4484Y2066D01*
G01X4489Y2064D01*
G01X4492Y2063D01*
G01X4498Y2062D01*
G01X4500Y2061D01*
G01X4506Y2060D01*
G01X4509Y2059D01*
G01X4514Y2058D01*
G01X4517Y2058D01*
G01X4523Y2057D01*
G01X4526Y2057D01*
G01X4532Y2056D01*
G01X4535Y2056D01*
G01X4540Y2056D01*
G01X4543Y2056D01*
G01X4549Y2057D01*
G01X4552Y2057D01*
G01X4558Y2058D01*
G01X4561Y2058D01*
G01X4566Y2059D01*
G01X4569Y2060D01*
G01X4575Y2061D01*
G01X4577Y2062D01*
G01X4583Y2063D01*
G01X4586Y2064D01*
G01X4591Y2066D01*
G01X4594Y2067D01*
G01X4599Y2070D01*
G01X4602Y2071D01*
G01X4607Y2073D01*
G01X4609Y2075D01*
G01X4615Y2078D01*
G01X4617Y2079D01*
G01X4622Y2082D01*
G01X4624Y2084D01*
G01X4629Y2088D01*
G01X4631Y2089D01*
G01X4636Y2093D01*
G01X4636Y2093D01*
G01X4636Y2093D01*
G01X4641Y2089D01*
G01X4643Y2088D01*
G01X4648Y2084D01*
G01X4650Y2082D01*
G01X4655Y2079D01*
G01X4657Y2078D01*
G01X4663Y2075D01*
G01X4665Y2073D01*
G01X4670Y2071D01*
G01X4673Y2070D01*
G01X4678Y2067D01*
G01X4681Y2066D01*
G01X4686Y2064D01*
G01X4689Y2063D01*
G01X4695Y2062D01*
G01X4697Y2061D01*
G01X4703Y2060D01*
G01X4706Y2059D01*
G01X4711Y2058D01*
G01X4714Y2058D01*
G01X4720Y2057D01*
G01X4723Y2057D01*
G01X4729Y2056D01*
G01X4732Y2056D01*
G01X4737Y2056D01*
G01X4740Y2056D01*
G01X4746Y2057D01*
G01X4749Y2057D01*
G01X4755Y2058D01*
G01X4758Y2058D01*
G01X4763Y2059D01*
G01X4766Y2060D01*
G01X4772Y2061D01*
G01X4774Y2062D01*
G01X4780Y2063D01*
G01X4783Y2064D01*
G01X4788Y2066D01*
G01X4791Y2067D01*
G01X4796Y2070D01*
G01X4799Y2071D01*
G01X4804Y2073D01*
G01X4806Y2075D01*
G01X4812Y2078D01*
G01X4814Y2079D01*
G01X4819Y2082D01*
G01X4821Y2084D01*
G01X4826Y2088D01*
G01X4828Y2089D01*
G01X4833Y2093D01*
G01X4835Y2095D01*
G01X4835Y2095D01*
G01X4837Y2094D01*
G01X4839Y2092D01*
G01X4843Y2089D01*
G01X4846Y2087D01*
G01X4850Y2084D01*
G01X4853Y2082D01*
G01X4858Y2079D01*
G01X4860Y2078D01*
G01X4865Y2075D01*
G01X4868Y2074D01*
G01X4872Y2071D01*
G01X4875Y2070D01*
G01X4880Y2068D01*
G01X4883Y2067D01*
G01X4888Y2065D01*
G01X4891Y2064D01*
G01X4896Y2062D01*
G01X4899Y2062D01*
G01X4904Y2060D01*
G01X4907Y2060D01*
G01X4910Y2059D01*
G01X4910Y2255D01*
G01X4884Y2255D01*
G01X4884Y2452D01*
G01X4910Y2452D01*
G01X4910Y2648D01*
G01X4907Y2647D01*
G01X4904Y2647D01*
G01X4899Y2645D01*
G01X4896Y2645D01*
G01X4891Y2643D01*
G01X4888Y2642D01*
G01X4883Y2640D01*
G01X4880Y2639D01*
G01X4875Y2637D01*
G01X4872Y2636D01*
G01X4868Y2633D01*
G01X4865Y2632D01*
G01X4860Y2629D01*
G01X4858Y2628D01*
G01X4853Y2625D01*
G01X4850Y2623D01*
G01X4846Y2620D01*
G01X4843Y2618D01*
G01X4839Y2615D01*
G01X4837Y2613D01*
G01X4835Y2612D01*
G01X4835Y2612D01*
G01X4833Y2614D01*
G01X4828Y2618D01*
G01X4826Y2619D01*
G01X4821Y2623D01*
G01X4819Y2625D01*
G01X4814Y2628D01*
G01X4812Y2629D01*
G01X4806Y2632D01*
G01X4804Y2634D01*
G01X4799Y2636D01*
G01X4796Y2637D01*
G01X4791Y2640D01*
G01X4788Y2641D01*
G01X4783Y2643D01*
G01X4780Y2644D01*
G01X4774Y2645D01*
G01X4772Y2646D01*
G01X4766Y2647D01*
G01X4763Y2648D01*
G01X4758Y2649D01*
G01X4755Y2649D01*
G01X4749Y2650D01*
G01X4746Y2650D01*
G01X4740Y2651D01*
G01X4737Y2651D01*
G01X4732Y2651D01*
G01X4729Y2651D01*
G01X4723Y2650D01*
G01X4720Y2650D01*
G01X4714Y2649D01*
G01X4711Y2649D01*
G01X4706Y2648D01*
G01X4703Y2647D01*
G01X4697Y2646D01*
G01X4695Y2645D01*
G01X4689Y2644D01*
G01X4686Y2643D01*
G01X4681Y2641D01*
G01X4678Y2640D01*
G01X4673Y2637D01*
G01X4670Y2636D01*
G01X4665Y2634D01*
G01X4663Y2632D01*
G01X4657Y2629D01*
G01X4655Y2628D01*
G01X4650Y2625D01*
G01X4648Y2623D01*
G01X4643Y2619D01*
G01X4641Y2618D01*
G01X4636Y2614D01*
G01X4636Y2614D01*
G01X4636Y2614D01*
G01X4631Y2618D01*
G01X4629Y2619D01*
G01X4624Y2623D01*
G01X4622Y2625D01*
G01X4617Y2628D01*
G01X4615Y2629D01*
G01X4613Y2630D01*
G01X4614Y2632D01*
G01X4617Y2637D01*
G01X4620Y2642D01*
G01X4623Y2647D01*
G01X4625Y2653D01*
G01X4628Y2658D01*
G01X4630Y2664D01*
G01X4632Y2669D01*
G01X4634Y2675D01*
G01X4636Y2681D01*
G01X4637Y2686D01*
G01X4639Y2686D01*
G01X4642Y2686D01*
G01X4648Y2687D01*
G01X4651Y2687D01*
G01X4657Y2688D01*
G01X4660Y2688D01*
G01X4665Y2689D01*
G01X4668Y2690D01*
G01X4674Y2691D01*
G01X4676Y2692D01*
G01X4682Y2693D01*
G01X4685Y2694D01*
G01X4690Y2696D01*
G01X4693Y2697D01*
G01X4698Y2700D01*
G01X4701Y2701D01*
G01X4706Y2703D01*
G01X4708Y2705D01*
G01X4714Y2708D01*
G01X4716Y2709D01*
G01X4721Y2712D01*
G01X4723Y2714D01*
G01X4728Y2718D01*
G01X4730Y2719D01*
G01X4735Y2723D01*
G01X4739Y2719D01*
G01X4741Y2718D01*
G01X4746Y2714D01*
G01X4748Y2712D01*
G01X4753Y2709D01*
G01X4755Y2708D01*
G01X4761Y2705D01*
G01X4763Y2703D01*
G01X4768Y2701D01*
G01X4771Y2700D01*
G01X4776Y2697D01*
G01X4779Y2696D01*
G01X4784Y2694D01*
G01X4787Y2693D01*
G01X4793Y2692D01*
G01X4795Y2691D01*
G01X4801Y2690D01*
G01X4804Y2689D01*
G01X4809Y2688D01*
G01X4812Y2688D01*
G01X4818Y2687D01*
G01X4821Y2687D01*
G01X4827Y2686D01*
G01X4830Y2686D01*
G01X4835Y2686D01*
G01X4838Y2686D01*
G01X4844Y2687D01*
G01X4847Y2687D01*
G01X4853Y2688D01*
G01X4856Y2688D01*
G01X4861Y2689D01*
G01X4864Y2690D01*
G01X4870Y2691D01*
G01X4872Y2692D01*
G01X4878Y2693D01*
G01X4881Y2694D01*
G01X4886Y2696D01*
G01X4889Y2697D01*
G01X4894Y2700D01*
G01X4897Y2701D01*
G01X4902Y2703D01*
G01X4904Y2705D01*
G01X4910Y2708D01*
G01X4912Y2709D01*
G01X4917Y2712D01*
G01X4919Y2714D01*
G01X4924Y2718D01*
G01X4926Y2719D01*
G01X4931Y2723D01*
G01X4933Y2725D01*
G01X4933Y2725D01*
G01X4935Y2724D01*
G01X4937Y2722D01*
G01X4941Y2719D01*
G01X4944Y2717D01*
G01X4948Y2714D01*
G01X4951Y2712D01*
G01X4956Y2709D01*
G01X4958Y2708D01*
G01X4963Y2705D01*
G01X4966Y2704D01*
G01X4970Y2701D01*
G01X4973Y2700D01*
G01X4978Y2698D01*
G01X4981Y2697D01*
G01X4986Y2695D01*
G01X4989Y2694D01*
G01X4994Y2692D01*
G01X4997Y2692D01*
G01X5002Y2690D01*
G01X5005Y2690D01*
G01X5008Y2689D01*
G01X5008Y2885D01*
G01X4982Y2885D01*
G01X4982Y3082D01*
G01X5008Y3082D01*
G01X5008Y3278D01*
G01X5005Y3277D01*
G01X5002Y3277D01*
G01X4997Y3275D01*
G01X4994Y3275D01*
G01X4989Y3273D01*
G01X4986Y3272D01*
G01X4981Y3270D01*
G01X4978Y3269D01*
G01X4973Y3267D01*
G01X4970Y3266D01*
G01X4966Y3263D01*
G01X4963Y3262D01*
G01X4958Y3259D01*
G01X4956Y3258D01*
G01X4951Y3255D01*
G01X4948Y3253D01*
G01X4944Y3250D01*
G01X4941Y3248D01*
G01X4937Y3245D01*
G01X4935Y3243D01*
G01X4933Y3242D01*
G01X4933Y3242D01*
G01X4931Y3244D01*
G01X4926Y3248D01*
G01X4924Y3249D01*
G01X4919Y3253D01*
G01X4917Y3255D01*
G01X4912Y3258D01*
G01X4910Y3259D01*
G01X4904Y3262D01*
G01X4902Y3264D01*
G01X4897Y3266D01*
G01X4894Y3267D01*
G01X4889Y3270D01*
G01X4886Y3271D01*
G01X4881Y3273D01*
G01X4878Y3274D01*
G01X4872Y3275D01*
G01X4870Y3276D01*
G01X4864Y3277D01*
G01X4861Y3278D01*
G01X4856Y3279D01*
G01X4853Y3279D01*
G01X4847Y3280D01*
G01X4844Y3280D01*
G01X4838Y3281D01*
G01X4835Y3281D01*
G01X4830Y3281D01*
G01X4827Y3281D01*
G01X4821Y3280D01*
G01X4818Y3280D01*
G01X4812Y3279D01*
G01X4809Y3279D01*
G01X4804Y3278D01*
G01X4801Y3277D01*
G01X4795Y3276D01*
G01X4793Y3275D01*
G01X4787Y3274D01*
G01X4784Y3273D01*
G01X4779Y3271D01*
G01X4776Y3270D01*
G01X4771Y3267D01*
G01X4768Y3266D01*
G01X4763Y3264D01*
G01X4761Y3262D01*
G01X4755Y3259D01*
G01X4753Y3258D01*
G01X4748Y3255D01*
G01X4746Y3253D01*
G01X4741Y3249D01*
G01X4739Y3248D01*
G01X4735Y3244D01*
G01X4730Y3248D01*
G01X4728Y3249D01*
G01X4723Y3253D01*
G01X4721Y3255D01*
G01X4716Y3258D01*
G01X4714Y3259D01*
G01X4708Y3262D01*
G01X4706Y3264D01*
G01X4701Y3266D01*
G01X4698Y3267D01*
G01X4695Y3269D01*
G01X4695Y3271D01*
G01X4696Y3275D01*
G01X4697Y3279D01*
G01X4698Y3281D01*
G01X4700Y3284D01*
G01X4710Y3299D01*
G01X4720Y3315D01*
G01X4729Y3331D01*
G01X4737Y3347D01*
G01X4744Y3364D01*
G01X4750Y3382D01*
G01X4756Y3399D01*
G01X4760Y3417D01*
G01X4764Y3435D01*
G01X4767Y3453D01*
G01X4768Y3472D01*
G01X4769Y3490D01*
G01X4769Y3509D01*
G01X4768Y3527D01*
G01X4767Y3546D01*
G01X4764Y3564D01*
G01X4760Y3582D01*
G01X4756Y3600D01*
G01X4750Y3617D01*
G01X4744Y3635D01*
G01X4737Y3652D01*
G01X4729Y3668D01*
G01X4720Y3684D01*
G01X4710Y3700D01*
G01X4700Y3715D01*
G01X4700Y3716D01*
G01X4700Y3800D01*
G01X4699Y3804D01*
G01X4699Y3809D01*
G01X4699Y3813D01*
G01X4698Y3818D01*
G01X4697Y3822D01*
G01X4696Y3827D01*
G01X4694Y3831D01*
G01X4693Y3836D01*
G01X4691Y3840D01*
G01X4689Y3844D01*
G01X4500Y4223D01*
G01X4500Y5200D01*
G01X4499Y5204D01*
G01X4499Y5208D01*
G01X4499Y5212D01*
G01X4498Y5216D01*
G01X4497Y5220D01*
G01X4496Y5224D01*
G01X4495Y5228D01*
G01X4494Y5232D01*
G01X4493Y5236D01*
G01X4491Y5240D01*
G01X4489Y5243D01*
G01X4487Y5247D01*
G01X4485Y5251D01*
G01X4483Y5254D01*
G01X4481Y5258D01*
G01X4478Y5261D01*
G01X4476Y5264D01*
G01X4473Y5267D01*
G01X4470Y5270D01*
G01X4467Y5273D01*
G01X4464Y5276D01*
G01X4461Y5278D01*
G01X4458Y5281D01*
G01X4454Y5283D01*
G01X4451Y5285D01*
G01X4447Y5287D01*
G01X4443Y5289D01*
G01X4440Y5291D01*
G01X4436Y5293D01*
G01X4432Y5294D01*
G01X4428Y5295D01*
G01X4424Y5296D01*
G01X4420Y5297D01*
G01X4416Y5298D01*
G01X4412Y5299D01*
G01X4408Y5299D01*
G01X4404Y5299D01*
G01X4400Y5300D01*
G01X3000Y5300D01*
G01X2995Y5299D01*
G01X2991Y5299D01*
G01X2987Y5299D01*
G01X2983Y5298D01*
G01X2979Y5297D01*
G01X2975Y5296D01*
G01X2971Y5295D01*
G01X2967Y5294D01*
G01X2963Y5293D01*
G01X2959Y5291D01*
G01X2956Y5289D01*
G01X2952Y5287D01*
G01X2948Y5285D01*
G01X2945Y5283D01*
G01X2941Y5281D01*
G01X2938Y5278D01*
G01X2935Y5276D01*
G01X2932Y5273D01*
G01X2929Y5270D01*
G01X2926Y5267D01*
G01X2923Y5264D01*
G01X2921Y5261D01*
G01X2918Y5258D01*
G01X2916Y5254D01*
G01X2914Y5251D01*
G01X2912Y5247D01*
G01X2910Y5243D01*
G01X2908Y5240D01*
G01X2906Y5236D01*
G01X2905Y5232D01*
G01X2904Y5228D01*
G01X2903Y5224D01*
G01X2902Y5220D01*
G01X2901Y5216D01*
G01X2900Y5212D01*
G01X2900Y5208D01*
G01X2900Y5204D01*
G01X2900Y5200D01*
G01X2900Y4793D01*
G01X2897Y4795D01*
G01X2894Y4798D01*
G01X2890Y4800D01*
G01X2887Y4802D01*
G01X2883Y4804D01*
G01X2879Y4806D01*
G01X2876Y4808D01*
G01X2872Y4810D01*
G01X2868Y4811D01*
G01X2864Y4812D01*
G01X2860Y4813D01*
G01X2856Y4814D01*
G01X2852Y4815D01*
G01X2848Y4816D01*
G01X2844Y4816D01*
G01X2840Y4816D01*
G01X2836Y4817D01*
G01X2737Y4817D01*
G01X2737Y4816D01*
G01X2737Y4608D01*
G01X2894Y4608D01*
G01X2894Y4391D01*
G01X2737Y4391D01*
G01X2737Y4183D01*
G01X2737Y4182D01*
G01X2836Y4182D01*
G01X2840Y4183D01*
G01X2844Y4183D01*
G01X2848Y4183D01*
G01X2852Y4184D01*
G01X2856Y4185D01*
G01X2860Y4186D01*
G01X2864Y4187D01*
G01X2868Y4188D01*
G01X2872Y4189D01*
G01X2876Y4191D01*
G01X2879Y4193D01*
G01X2883Y4195D01*
G01X2887Y4197D01*
G01X2890Y4199D01*
G01X2894Y4201D01*
G01X2897Y4204D01*
G01X2900Y4206D01*
G01X2900Y4200D01*
G01X2900Y4188D01*
G01X2910Y4098D01*
G01X2910Y4090D01*
G01X2912Y4071D01*
G01X2914Y4059D01*
G01X2933Y3890D01*
G01X2929Y3882D01*
G01X2921Y3864D01*
G01X2916Y3846D01*
G01X2912Y3828D01*
G01X2910Y3809D01*
G01X2910Y3790D01*
G01X2912Y3771D01*
G01X2916Y3753D01*
G01X2921Y3735D01*
G01X2929Y3717D01*
G01X2938Y3701D01*
G01X2948Y3685D01*
G01X2957Y3675D01*
G01X3000Y3288D01*
G01X3001Y3284D01*
G01X3001Y3280D01*
G01X3002Y3276D01*
G01X3003Y3272D01*
G01X3004Y3269D01*
G01X3000Y3267D01*
G01X2997Y3266D01*
G01X2992Y3264D01*
G01X2990Y3262D01*
G01X2984Y3259D01*
G01X2982Y3258D01*
G01X2977Y3255D01*
G01X2975Y3253D01*
G01X2970Y3249D01*
G01X2968Y3248D01*
G01X2963Y3244D01*
G01X2961Y3242D01*
G01X2961Y3242D01*
G01X2959Y3243D01*
G01X2957Y3245D01*
G01X2953Y3248D01*
G01X2950Y3250D01*
G01X2946Y3253D01*
G01X2943Y3255D01*
G01X2938Y3258D01*
G01X2936Y3259D01*
G01X2931Y3262D01*
G01X2928Y3263D01*
G01X2924Y3266D01*
G01X2921Y3267D01*
G01X2916Y3269D01*
G01X2913Y3270D01*
G01X2908Y3272D01*
G01X2905Y3273D01*
G01X2900Y3275D01*
G01X2897Y3275D01*
G01X2892Y3277D01*
G01X2889Y3277D01*
G01X2886Y3278D01*
G01X2886Y3082D01*
G01X2912Y3082D01*
G01X2912Y2885D01*
G01X2886Y2885D01*
G01X2886Y2689D01*
G01X2889Y2690D01*
G01X2892Y2690D01*
G01X2897Y2692D01*
G01X2900Y2692D01*
G01X2905Y2694D01*
G01X2908Y2695D01*
G01X2913Y2697D01*
G01X2916Y2698D01*
G01X2921Y2700D01*
G01X2924Y2701D01*
G01X2928Y2704D01*
G01X2931Y2705D01*
G01X2936Y2708D01*
G01X2938Y2709D01*
G01X2943Y2712D01*
G01X2946Y2714D01*
G01X2950Y2717D01*
G01X2953Y2719D01*
G01X2957Y2722D01*
G01X2959Y2724D01*
G01X2961Y2725D01*
G01X2961Y2725D01*
G01X2963Y2723D01*
G01X2968Y2719D01*
G01X2970Y2718D01*
G01X2975Y2714D01*
G01X2977Y2712D01*
G01X2982Y2709D01*
G01X2984Y2708D01*
G01X2990Y2705D01*
G01X2992Y2703D01*
G01X2997Y2701D01*
G01X3000Y2700D01*
G01X3005Y2697D01*
G01X3008Y2696D01*
G01X3013Y2694D01*
G01X3016Y2693D01*
G01X3022Y2692D01*
G01X3024Y2691D01*
G01X3030Y2690D01*
G01X3033Y2689D01*
G01X3038Y2688D01*
G01X3041Y2688D01*
G01X3047Y2687D01*
G01X3050Y2687D01*
G01X3056Y2686D01*
G01X3059Y2686D01*
G01X3064Y2686D01*
G01X3067Y2686D01*
G01X3073Y2687D01*
G01X3076Y2687D01*
G01X3082Y2688D01*
G01X3085Y2688D01*
G01X3090Y2689D01*
G01X3093Y2690D01*
G01X3099Y2691D01*
G01X3101Y2692D01*
G01X3107Y2693D01*
G01X3110Y2694D01*
G01X3115Y2696D01*
G01X3118Y2697D01*
G01X3123Y2700D01*
G01X3126Y2701D01*
G01X3131Y2703D01*
G01X3133Y2705D01*
G01X3139Y2708D01*
G01X3141Y2709D01*
G01X3146Y2712D01*
G01X3148Y2714D01*
G01X3153Y2718D01*
G01X3155Y2719D01*
G01X3160Y2723D01*
G01X3160Y2723D01*
G01X3160Y2723D01*
G01X3165Y2719D01*
G01X3167Y2718D01*
G01X3172Y2714D01*
G01X3174Y2712D01*
G01X3179Y2709D01*
G01X3181Y2708D01*
G01X3184Y2706D01*
G01X3182Y2703D01*
G01X3179Y2697D01*
G01X3177Y2692D01*
G01X3174Y2687D01*
G01X3172Y2681D01*
G01X3169Y2675D01*
G01X3167Y2670D01*
G01X3166Y2664D01*
G01X3164Y2658D01*
G01X3162Y2652D01*
G01X3162Y2651D01*
G01X3157Y2651D01*
G01X3154Y2651D01*
G01X3148Y2650D01*
G01X3145Y2650D01*
G01X3139Y2649D01*
G01X3136Y2649D01*
G01X3131Y2648D01*
G01X3128Y2647D01*
G01X3122Y2646D01*
G01X3120Y2645D01*
G01X3114Y2644D01*
G01X3111Y2643D01*
G01X3106Y2641D01*
G01X3103Y2640D01*
G01X3098Y2637D01*
G01X3095Y2636D01*
G01X3090Y2634D01*
G01X3088Y2632D01*
G01X3082Y2629D01*
G01X3080Y2628D01*
G01X3075Y2625D01*
G01X3073Y2623D01*
G01X3068Y2619D01*
G01X3066Y2618D01*
G01X3061Y2614D01*
G01X3061Y2614D01*
G01X3061Y2614D01*
G01X3056Y2618D01*
G01X3054Y2619D01*
G01X3049Y2623D01*
G01X3047Y2625D01*
G01X3042Y2628D01*
G01X3040Y2629D01*
G01X3034Y2632D01*
G01X3032Y2634D01*
G01X3027Y2636D01*
G01X3024Y2637D01*
G01X3019Y2640D01*
G01X3016Y2641D01*
G01X3011Y2643D01*
G01X3008Y2644D01*
G01X3002Y2645D01*
G01X3000Y2646D01*
G01X2994Y2647D01*
G01X2991Y2648D01*
G01X2986Y2649D01*
G01X2983Y2649D01*
G01X2977Y2650D01*
G01X2974Y2650D01*
G01X2968Y2651D01*
G01X2965Y2651D01*
G01X2960Y2651D01*
G01X2957Y2651D01*
G01X2951Y2650D01*
G01X2948Y2650D01*
G01X2942Y2649D01*
G01X2939Y2649D01*
G01X2934Y2648D01*
G01X2931Y2647D01*
G01X2925Y2646D01*
G01X2923Y2645D01*
G01X2917Y2644D01*
G01X2914Y2643D01*
G01X2909Y2641D01*
G01X2906Y2640D01*
G01X2901Y2637D01*
G01X2898Y2636D01*
G01X2893Y2634D01*
G01X2891Y2632D01*
G01X2885Y2629D01*
G01X2883Y2628D01*
G01X2878Y2625D01*
G01X2876Y2623D01*
G01X2871Y2619D01*
G01X2869Y2618D01*
G01X2864Y2614D01*
G01X2862Y2612D01*
G01X2862Y2612D01*
G01X2861Y2613D01*
G01X2859Y2615D01*
G01X2855Y2618D01*
G01X2852Y2620D01*
G01X2848Y2623D01*
G01X2845Y2625D01*
G01X2840Y2628D01*
G01X2838Y2629D01*
G01X2833Y2632D01*
G01X2830Y2633D01*
G01X2826Y2636D01*
G01X2823Y2637D01*
G01X2818Y2639D01*
G01X2815Y2640D01*
G01X2810Y2642D01*
G01X2807Y2643D01*
G01X2802Y2645D01*
G01X2799Y2645D01*
G01X2794Y2647D01*
G01X2791Y2647D01*
G01X2788Y2648D01*
G01X2788Y2452D01*
G01X2813Y2452D01*
G01X2813Y2255D01*
G01X2788Y2255D01*
G01X2788Y2059D01*
G01X2791Y2060D01*
G01X2794Y2060D01*
G01X2799Y2062D01*
G01X2802Y2062D01*
G01X2807Y2064D01*
G01X2810Y2065D01*
G01X2815Y2067D01*
G01X2818Y2068D01*
G01X2823Y2070D01*
G01X2826Y2071D01*
G01X2830Y2074D01*
G01X2833Y2075D01*
G01X2838Y2078D01*
G01X2840Y2079D01*
G01X2845Y2082D01*
G01X2848Y2084D01*
G01X2852Y2087D01*
G01X2855Y2089D01*
G01X2859Y2092D01*
G01X2861Y2094D01*
G01X2862Y2095D01*
G01X2862Y2095D01*
G01X2864Y2093D01*
G01X2869Y2089D01*
G01X2871Y2088D01*
G01X2876Y2084D01*
G01X2878Y2082D01*
G01X2883Y2079D01*
G01X2885Y2078D01*
G01X2891Y2075D01*
G01X2893Y2073D01*
G01X2898Y2071D01*
G01X2901Y2070D01*
G01X2906Y2067D01*
G01X2909Y2066D01*
G01X2914Y2064D01*
G01X2917Y2063D01*
G01X2923Y2062D01*
G01X2925Y2061D01*
G01X2931Y2060D01*
G01X2934Y2059D01*
G01X2939Y2058D01*
G01X2942Y2058D01*
G01X2948Y2057D01*
G01X2951Y2057D01*
G01X2957Y2056D01*
G37*
G36*
G01X2578Y5543D02*
G01X2582Y5542D01*
G01X2691Y5542D01*
G01X2691Y5740D01*
G01X2483Y5740D01*
G01X2482Y5740D01*
G01X2482Y5642D01*
G01X2483Y5638D01*
G01X2483Y5634D01*
G01X2483Y5630D01*
G01X2484Y5626D01*
G01X2485Y5622D01*
G01X2486Y5618D01*
G01X2487Y5614D01*
G01X2488Y5610D01*
G01X2489Y5606D01*
G01X2491Y5602D01*
G01X2493Y5599D01*
G01X2495Y5595D01*
G01X2497Y5591D01*
G01X2499Y5588D01*
G01X2501Y5584D01*
G01X2504Y5581D01*
G01X2506Y5578D01*
G01X2509Y5575D01*
G01X2512Y5572D01*
G01X2515Y5569D01*
G01X2518Y5566D01*
G01X2521Y5564D01*
G01X2524Y5561D01*
G01X2528Y5559D01*
G01X2531Y5557D01*
G01X2535Y5555D01*
G01X2539Y5553D01*
G01X2542Y5551D01*
G01X2546Y5549D01*
G01X2550Y5548D01*
G01X2554Y5547D01*
G01X2558Y5546D01*
G01X2562Y5545D01*
G01X2566Y5544D01*
G01X2570Y5543D01*
G01X2574Y5543D01*
G01X2578Y5543D01*
G37*
G36*
G01X2908Y5740D02*
G01X2908Y5542D01*
G01X3017Y5542D01*
G01X3021Y5543D01*
G01X3025Y5543D01*
G01X3029Y5543D01*
G01X3033Y5544D01*
G01X3037Y5545D01*
G01X3041Y5546D01*
G01X3045Y5547D01*
G01X3049Y5548D01*
G01X3053Y5549D01*
G01X3057Y5551D01*
G01X3060Y5553D01*
G01X3064Y5555D01*
G01X3068Y5557D01*
G01X3071Y5559D01*
G01X3075Y5561D01*
G01X3078Y5564D01*
G01X3081Y5566D01*
G01X3084Y5569D01*
G01X3087Y5572D01*
G01X3090Y5575D01*
G01X3093Y5578D01*
G01X3095Y5581D01*
G01X3098Y5584D01*
G01X3100Y5588D01*
G01X3102Y5591D01*
G01X3104Y5595D01*
G01X3106Y5599D01*
G01X3108Y5602D01*
G01X3110Y5606D01*
G01X3111Y5610D01*
G01X3112Y5614D01*
G01X3113Y5618D01*
G01X3114Y5622D01*
G01X3115Y5626D01*
G01X3116Y5630D01*
G01X3116Y5634D01*
G01X3116Y5638D01*
G01X3117Y5642D01*
G01X3117Y5740D01*
G01X3116Y5740D01*
G01X2908Y5740D01*
G37*
G36*
G01X3278Y5543D02*
G01X3282Y5542D01*
G01X3391Y5542D01*
G01X3391Y5740D01*
G01X3183Y5740D01*
G01X3182Y5740D01*
G01X3182Y5642D01*
G01X3183Y5638D01*
G01X3183Y5634D01*
G01X3183Y5630D01*
G01X3184Y5626D01*
G01X3185Y5622D01*
G01X3186Y5618D01*
G01X3187Y5614D01*
G01X3188Y5610D01*
G01X3189Y5606D01*
G01X3191Y5602D01*
G01X3193Y5599D01*
G01X3195Y5595D01*
G01X3197Y5591D01*
G01X3199Y5588D01*
G01X3201Y5584D01*
G01X3204Y5581D01*
G01X3206Y5578D01*
G01X3209Y5575D01*
G01X3212Y5572D01*
G01X3215Y5569D01*
G01X3218Y5566D01*
G01X3221Y5564D01*
G01X3224Y5561D01*
G01X3228Y5559D01*
G01X3231Y5557D01*
G01X3235Y5555D01*
G01X3239Y5553D01*
G01X3242Y5551D01*
G01X3246Y5549D01*
G01X3250Y5548D01*
G01X3254Y5547D01*
G01X3258Y5546D01*
G01X3262Y5545D01*
G01X3266Y5544D01*
G01X3270Y5543D01*
G01X3274Y5543D01*
G01X3278Y5543D01*
G37*
G36*
G01X3608Y5740D02*
G01X3608Y5542D01*
G01X3717Y5542D01*
G01X3721Y5543D01*
G01X3725Y5543D01*
G01X3729Y5543D01*
G01X3733Y5544D01*
G01X3737Y5545D01*
G01X3741Y5546D01*
G01X3745Y5547D01*
G01X3749Y5548D01*
G01X3753Y5549D01*
G01X3757Y5551D01*
G01X3760Y5553D01*
G01X3764Y5555D01*
G01X3768Y5557D01*
G01X3771Y5559D01*
G01X3775Y5561D01*
G01X3778Y5564D01*
G01X3781Y5566D01*
G01X3784Y5569D01*
G01X3787Y5572D01*
G01X3790Y5575D01*
G01X3793Y5578D01*
G01X3795Y5581D01*
G01X3798Y5584D01*
G01X3800Y5588D01*
G01X3802Y5591D01*
G01X3804Y5595D01*
G01X3806Y5599D01*
G01X3808Y5602D01*
G01X3810Y5606D01*
G01X3811Y5610D01*
G01X3812Y5614D01*
G01X3813Y5618D01*
G01X3814Y5622D01*
G01X3815Y5626D01*
G01X3816Y5630D01*
G01X3816Y5634D01*
G01X3816Y5638D01*
G01X3817Y5642D01*
G01X3817Y5740D01*
G01X3816Y5740D01*
G01X3608Y5740D01*
G37*
G36*
G01X3978Y5543D02*
G01X3982Y5542D01*
G01X4091Y5542D01*
G01X4091Y5740D01*
G01X3883Y5740D01*
G01X3882Y5740D01*
G01X3882Y5642D01*
G01X3883Y5638D01*
G01X3883Y5634D01*
G01X3883Y5630D01*
G01X3884Y5626D01*
G01X3885Y5622D01*
G01X3886Y5618D01*
G01X3887Y5614D01*
G01X3888Y5610D01*
G01X3889Y5606D01*
G01X3891Y5602D01*
G01X3893Y5599D01*
G01X3895Y5595D01*
G01X3897Y5591D01*
G01X3899Y5588D01*
G01X3901Y5584D01*
G01X3904Y5581D01*
G01X3906Y5578D01*
G01X3909Y5575D01*
G01X3912Y5572D01*
G01X3915Y5569D01*
G01X3918Y5566D01*
G01X3921Y5564D01*
G01X3924Y5561D01*
G01X3928Y5559D01*
G01X3931Y5557D01*
G01X3935Y5555D01*
G01X3939Y5553D01*
G01X3942Y5551D01*
G01X3946Y5549D01*
G01X3950Y5548D01*
G01X3954Y5547D01*
G01X3958Y5546D01*
G01X3962Y5545D01*
G01X3966Y5544D01*
G01X3970Y5543D01*
G01X3974Y5543D01*
G01X3978Y5543D01*
G37*
G36*
G01X4308Y5740D02*
G01X4308Y5542D01*
G01X4417Y5542D01*
G01X4421Y5543D01*
G01X4425Y5543D01*
G01X4429Y5543D01*
G01X4433Y5544D01*
G01X4437Y5545D01*
G01X4441Y5546D01*
G01X4445Y5547D01*
G01X4449Y5548D01*
G01X4453Y5549D01*
G01X4457Y5551D01*
G01X4460Y5553D01*
G01X4464Y5555D01*
G01X4468Y5557D01*
G01X4471Y5559D01*
G01X4475Y5561D01*
G01X4478Y5564D01*
G01X4481Y5566D01*
G01X4484Y5569D01*
G01X4487Y5572D01*
G01X4490Y5575D01*
G01X4493Y5578D01*
G01X4495Y5581D01*
G01X4498Y5584D01*
G01X4500Y5588D01*
G01X4502Y5591D01*
G01X4504Y5595D01*
G01X4506Y5599D01*
G01X4508Y5602D01*
G01X4510Y5606D01*
G01X4511Y5610D01*
G01X4512Y5614D01*
G01X4513Y5618D01*
G01X4514Y5622D01*
G01X4515Y5626D01*
G01X4516Y5630D01*
G01X4516Y5634D01*
G01X4516Y5638D01*
G01X4517Y5642D01*
G01X4517Y5740D01*
G01X4516Y5740D01*
G01X4308Y5740D01*
G37*
G36*
G01X385Y4790D02*
G01X390Y4790D01*
G01X1009Y4790D01*
G01X1014Y4790D01*
G01X1018Y4790D01*
G01X1022Y4790D01*
G01X1026Y4791D01*
G01X1030Y4792D01*
G01X1034Y4793D01*
G01X1038Y4794D01*
G01X1042Y4795D01*
G01X1046Y4796D01*
G01X1050Y4798D01*
G01X1053Y4800D01*
G01X1057Y4802D01*
G01X1061Y4804D01*
G01X1064Y4806D01*
G01X1068Y4808D01*
G01X1071Y4811D01*
G01X1074Y4813D01*
G01X1077Y4816D01*
G01X1080Y4819D01*
G01X1083Y4822D01*
G01X1086Y4825D01*
G01X1088Y4828D01*
G01X1091Y4831D01*
G01X1093Y4835D01*
G01X1095Y4838D01*
G01X1097Y4842D01*
G01X1099Y4846D01*
G01X1101Y4849D01*
G01X1103Y4853D01*
G01X1104Y4857D01*
G01X1105Y4861D01*
G01X1106Y4865D01*
G01X1107Y4869D01*
G01X1108Y4873D01*
G01X1109Y4877D01*
G01X1109Y4881D01*
G01X1109Y4885D01*
G01X1109Y4890D01*
G01X1109Y5509D01*
G01X1109Y5514D01*
G01X1109Y5518D01*
G01X1109Y5522D01*
G01X1108Y5526D01*
G01X1107Y5530D01*
G01X1106Y5534D01*
G01X1105Y5538D01*
G01X1104Y5542D01*
G01X1103Y5546D01*
G01X1101Y5550D01*
G01X1099Y5553D01*
G01X1097Y5557D01*
G01X1095Y5561D01*
G01X1093Y5564D01*
G01X1091Y5568D01*
G01X1088Y5571D01*
G01X1086Y5574D01*
G01X1083Y5577D01*
G01X1080Y5580D01*
G01X1077Y5583D01*
G01X1074Y5586D01*
G01X1071Y5588D01*
G01X1068Y5591D01*
G01X1064Y5593D01*
G01X1061Y5595D01*
G01X1057Y5597D01*
G01X1053Y5599D01*
G01X1050Y5601D01*
G01X1046Y5603D01*
G01X1042Y5604D01*
G01X1038Y5605D01*
G01X1034Y5606D01*
G01X1030Y5607D01*
G01X1026Y5608D01*
G01X1022Y5609D01*
G01X1018Y5609D01*
G01X1014Y5609D01*
G01X1009Y5609D01*
G01X390Y5609D01*
G01X385Y5609D01*
G01X381Y5609D01*
G01X377Y5609D01*
G01X373Y5608D01*
G01X369Y5607D01*
G01X365Y5606D01*
G01X361Y5605D01*
G01X357Y5604D01*
G01X353Y5603D01*
G01X349Y5601D01*
G01X346Y5599D01*
G01X342Y5597D01*
G01X338Y5595D01*
G01X335Y5593D01*
G01X331Y5591D01*
G01X328Y5588D01*
G01X325Y5586D01*
G01X322Y5583D01*
G01X319Y5580D01*
G01X316Y5577D01*
G01X313Y5574D01*
G01X311Y5571D01*
G01X308Y5568D01*
G01X306Y5564D01*
G01X304Y5561D01*
G01X302Y5557D01*
G01X300Y5553D01*
G01X298Y5550D01*
G01X296Y5546D01*
G01X295Y5542D01*
G01X294Y5538D01*
G01X293Y5534D01*
G01X292Y5530D01*
G01X291Y5526D01*
G01X290Y5522D01*
G01X290Y5518D01*
G01X290Y5514D01*
G01X290Y5509D01*
G01X290Y4890D01*
G01X290Y4885D01*
G01X290Y4881D01*
G01X290Y4877D01*
G01X291Y4873D01*
G01X292Y4869D01*
G01X293Y4865D01*
G01X294Y4861D01*
G01X295Y4857D01*
G01X296Y4853D01*
G01X298Y4849D01*
G01X300Y4846D01*
G01X302Y4842D01*
G01X304Y4838D01*
G01X306Y4835D01*
G01X308Y4831D01*
G01X311Y4828D01*
G01X313Y4825D01*
G01X316Y4822D01*
G01X319Y4819D01*
G01X322Y4816D01*
G01X325Y4813D01*
G01X328Y4811D01*
G01X331Y4808D01*
G01X335Y4806D01*
G01X338Y4804D01*
G01X342Y4802D01*
G01X346Y4800D01*
G01X349Y4798D01*
G01X353Y4796D01*
G01X357Y4795D01*
G01X361Y4794D01*
G01X365Y4793D01*
G01X369Y4792D01*
G01X373Y4791D01*
G01X377Y4790D01*
G01X381Y4790D01*
G01X385Y4790D01*
G37*
G36*
G01X7121Y4798D02*
G01X7121Y4649D01*
G01X7351Y4649D01*
G01X7351Y4898D01*
G01X7221Y4898D01*
G01X7216Y4898D01*
G01X7212Y4898D01*
G01X7208Y4898D01*
G01X7204Y4897D01*
G01X7200Y4896D01*
G01X7196Y4895D01*
G01X7192Y4894D01*
G01X7188Y4893D01*
G01X7184Y4892D01*
G01X7180Y4890D01*
G01X7177Y4888D01*
G01X7173Y4886D01*
G01X7169Y4884D01*
G01X7166Y4882D01*
G01X7162Y4880D01*
G01X7159Y4877D01*
G01X7156Y4875D01*
G01X7153Y4872D01*
G01X7150Y4869D01*
G01X7147Y4866D01*
G01X7144Y4863D01*
G01X7142Y4860D01*
G01X7139Y4857D01*
G01X7137Y4853D01*
G01X7135Y4850D01*
G01X7133Y4846D01*
G01X7131Y4842D01*
G01X7129Y4839D01*
G01X7127Y4835D01*
G01X7126Y4831D01*
G01X7125Y4827D01*
G01X7124Y4823D01*
G01X7123Y4819D01*
G01X7122Y4815D01*
G01X7121Y4811D01*
G01X7121Y4807D01*
G01X7121Y4803D01*
G01X7121Y4798D01*
G37*
G36*
G01X7610Y4898D02*
G01X7610Y4649D01*
G01X7840Y4649D01*
G01X7840Y4798D01*
G01X7840Y4803D01*
G01X7840Y4807D01*
G01X7840Y4811D01*
G01X7839Y4815D01*
G01X7838Y4819D01*
G01X7837Y4823D01*
G01X7836Y4827D01*
G01X7835Y4831D01*
G01X7834Y4835D01*
G01X7832Y4839D01*
G01X7830Y4842D01*
G01X7828Y4846D01*
G01X7826Y4850D01*
G01X7824Y4853D01*
G01X7822Y4857D01*
G01X7819Y4860D01*
G01X7817Y4863D01*
G01X7814Y4866D01*
G01X7811Y4869D01*
G01X7808Y4872D01*
G01X7805Y4875D01*
G01X7802Y4877D01*
G01X7799Y4880D01*
G01X7795Y4882D01*
G01X7792Y4884D01*
G01X7788Y4886D01*
G01X7784Y4888D01*
G01X7781Y4890D01*
G01X7777Y4892D01*
G01X7773Y4893D01*
G01X7769Y4894D01*
G01X7765Y4895D01*
G01X7761Y4896D01*
G01X7757Y4897D01*
G01X7753Y4898D01*
G01X7749Y4898D01*
G01X7745Y4898D01*
G01X7740Y4898D01*
G01X7610Y4898D01*
G37*
G36*
G01X4969Y2255D02*
G01X4969Y2059D01*
G01X4972Y2060D01*
G01X4975Y2060D01*
G01X4980Y2062D01*
G01X4983Y2062D01*
G01X4988Y2064D01*
G01X4991Y2065D01*
G01X4996Y2067D01*
G01X4999Y2068D01*
G01X5004Y2070D01*
G01X5007Y2071D01*
G01X5011Y2074D01*
G01X5014Y2075D01*
G01X5019Y2078D01*
G01X5021Y2079D01*
G01X5026Y2082D01*
G01X5029Y2084D01*
G01X5033Y2087D01*
G01X5036Y2089D01*
G01X5040Y2092D01*
G01X5042Y2094D01*
G01X5046Y2098D01*
G01X5048Y2100D01*
G01X5053Y2104D01*
G01X5055Y2106D01*
G01X5058Y2110D01*
G01X5060Y2112D01*
G01X5064Y2116D01*
G01X5066Y2119D01*
G01X5069Y2123D01*
G01X5071Y2125D01*
G01X5074Y2130D01*
G01X5075Y2133D01*
G01X5078Y2137D01*
G01X5079Y2140D01*
G01X5082Y2145D01*
G01X5083Y2148D01*
G01X5085Y2152D01*
G01X5087Y2155D01*
G01X5089Y2160D01*
G01X5090Y2163D01*
G01X5091Y2168D01*
G01X5092Y2171D01*
G01X5094Y2176D01*
G01X5094Y2179D01*
G01X5096Y2185D01*
G01X5096Y2188D01*
G01X5097Y2193D01*
G01X5097Y2196D01*
G01X5098Y2201D01*
G01X5098Y2204D01*
G01X5098Y2210D01*
G01X5099Y2213D01*
G01X5099Y2215D01*
G01X5099Y2255D01*
G01X4969Y2255D01*
G37*
G36*
G01X2342Y4717D02*
G01X2342Y4608D01*
G01X2540Y4608D01*
G01X2540Y4816D01*
G01X2540Y4817D01*
G01X2442Y4817D01*
G01X2438Y4816D01*
G01X2434Y4816D01*
G01X2430Y4816D01*
G01X2426Y4815D01*
G01X2422Y4814D01*
G01X2418Y4813D01*
G01X2414Y4812D01*
G01X2410Y4811D01*
G01X2406Y4810D01*
G01X2402Y4808D01*
G01X2399Y4806D01*
G01X2395Y4804D01*
G01X2391Y4802D01*
G01X2388Y4800D01*
G01X2384Y4798D01*
G01X2381Y4795D01*
G01X2378Y4793D01*
G01X2375Y4790D01*
G01X2372Y4787D01*
G01X2369Y4784D01*
G01X2366Y4781D01*
G01X2364Y4778D01*
G01X2361Y4775D01*
G01X2359Y4771D01*
G01X2357Y4768D01*
G01X2355Y4764D01*
G01X2353Y4760D01*
G01X2351Y4757D01*
G01X2349Y4753D01*
G01X2348Y4749D01*
G01X2347Y4745D01*
G01X2346Y4741D01*
G01X2345Y4737D01*
G01X2344Y4733D01*
G01X2343Y4729D01*
G01X2343Y4725D01*
G01X2343Y4721D01*
G01X2342Y4717D01*
G37*
G36*
G01X2438Y4183D02*
G01X2442Y4182D01*
G01X2540Y4182D01*
G01X2540Y4183D01*
G01X2540Y4391D01*
G01X2342Y4391D01*
G01X2342Y4282D01*
G01X2343Y4278D01*
G01X2343Y4274D01*
G01X2343Y4270D01*
G01X2344Y4266D01*
G01X2345Y4262D01*
G01X2346Y4258D01*
G01X2347Y4254D01*
G01X2348Y4250D01*
G01X2349Y4246D01*
G01X2351Y4242D01*
G01X2353Y4239D01*
G01X2355Y4235D01*
G01X2357Y4231D01*
G01X2359Y4228D01*
G01X2361Y4224D01*
G01X2364Y4221D01*
G01X2366Y4218D01*
G01X2369Y4215D01*
G01X2372Y4212D01*
G01X2375Y4209D01*
G01X2378Y4206D01*
G01X2381Y4204D01*
G01X2384Y4201D01*
G01X2388Y4199D01*
G01X2391Y4197D01*
G01X2395Y4195D01*
G01X2399Y4193D01*
G01X2402Y4191D01*
G01X2406Y4189D01*
G01X2410Y4188D01*
G01X2414Y4187D01*
G01X2418Y4186D01*
G01X2422Y4185D01*
G01X2426Y4184D01*
G01X2430Y4183D01*
G01X2434Y4183D01*
G01X2438Y4183D01*
G37*
G36*
G01X2726Y2060D02*
G01X2729Y2059D01*
G01X2729Y2255D01*
G01X2599Y2255D01*
G01X2599Y2215D01*
G01X2599Y2213D01*
G01X2600Y2210D01*
G01X2600Y2204D01*
G01X2600Y2201D01*
G01X2601Y2196D01*
G01X2601Y2193D01*
G01X2602Y2188D01*
G01X2603Y2185D01*
G01X2604Y2179D01*
G01X2604Y2176D01*
G01X2606Y2171D01*
G01X2607Y2168D01*
G01X2608Y2163D01*
G01X2609Y2160D01*
G01X2611Y2155D01*
G01X2613Y2152D01*
G01X2615Y2148D01*
G01X2616Y2145D01*
G01X2619Y2140D01*
G01X2620Y2137D01*
G01X2623Y2133D01*
G01X2624Y2130D01*
G01X2627Y2125D01*
G01X2629Y2123D01*
G01X2632Y2119D01*
G01X2634Y2116D01*
G01X2638Y2112D01*
G01X2640Y2110D01*
G01X2643Y2106D01*
G01X2645Y2104D01*
G01X2650Y2100D01*
G01X2652Y2098D01*
G01X2656Y2094D01*
G01X2658Y2092D01*
G01X2662Y2089D01*
G01X2665Y2087D01*
G01X2669Y2084D01*
G01X2672Y2082D01*
G01X2677Y2079D01*
G01X2679Y2078D01*
G01X2684Y2075D01*
G01X2687Y2074D01*
G01X2691Y2071D01*
G01X2694Y2070D01*
G01X2699Y2068D01*
G01X2702Y2067D01*
G01X2707Y2065D01*
G01X2710Y2064D01*
G01X2715Y2062D01*
G01X2718Y2062D01*
G01X2723Y2060D01*
G01X2726Y2060D01*
G37*
G36*
G01X1621Y4205D02*
G01X1621Y4145D01*
G01X1621Y4145D01*
G01X1760Y4145D01*
G01X1760Y4304D01*
G01X1760Y4305D01*
G01X1721Y4305D01*
G01X1716Y4304D01*
G01X1712Y4304D01*
G01X1708Y4304D01*
G01X1704Y4303D01*
G01X1700Y4302D01*
G01X1696Y4301D01*
G01X1692Y4300D01*
G01X1688Y4299D01*
G01X1684Y4298D01*
G01X1680Y4296D01*
G01X1677Y4294D01*
G01X1673Y4292D01*
G01X1669Y4290D01*
G01X1666Y4288D01*
G01X1662Y4286D01*
G01X1659Y4283D01*
G01X1656Y4281D01*
G01X1653Y4278D01*
G01X1650Y4275D01*
G01X1647Y4272D01*
G01X1644Y4269D01*
G01X1642Y4266D01*
G01X1639Y4263D01*
G01X1637Y4259D01*
G01X1635Y4256D01*
G01X1633Y4252D01*
G01X1631Y4248D01*
G01X1629Y4245D01*
G01X1627Y4241D01*
G01X1626Y4237D01*
G01X1625Y4233D01*
G01X1624Y4229D01*
G01X1623Y4225D01*
G01X1622Y4221D01*
G01X1621Y4217D01*
G01X1621Y4213D01*
G01X1621Y4209D01*
G01X1621Y4205D01*
G37*
G36*
G01X5640Y2509D02*
G01X5640Y2307D01*
G01X5641Y2307D01*
G01X5646Y2308D01*
G01X5656Y2310D01*
G01X5661Y2311D01*
G01X5671Y2314D01*
G01X5676Y2316D01*
G01X5686Y2319D01*
G01X5691Y2321D01*
G01X5701Y2325D01*
G01X5706Y2327D01*
G01X5716Y2331D01*
G01X5719Y2333D01*
G01X5719Y2323D01*
G01X5721Y2324D01*
G01X5726Y2325D01*
G01X5736Y2330D01*
G01X5741Y2332D01*
G01X5752Y2337D01*
G01X5756Y2339D01*
G01X5766Y2345D01*
G01X5771Y2348D01*
G01X5781Y2354D01*
G01X5785Y2356D01*
G01X5795Y2363D01*
G01X5799Y2366D01*
G01X5808Y2373D01*
G01X5812Y2376D01*
G01X5821Y2384D01*
G01X5825Y2387D01*
G01X5833Y2395D01*
G01X5837Y2399D01*
G01X5845Y2407D01*
G01X5849Y2411D01*
G01X5856Y2420D01*
G01X5860Y2423D01*
G01X5867Y2433D01*
G01X5870Y2436D01*
G01X5877Y2446D01*
G01X5880Y2450D01*
G01X5886Y2460D01*
G01X5889Y2464D01*
G01X5895Y2475D01*
G01X5897Y2479D01*
G01X5902Y2489D01*
G01X5904Y2494D01*
G01X5909Y2505D01*
G01X5911Y2509D01*
G01X5916Y2520D01*
G01X5917Y2525D01*
G01X5921Y2536D01*
G01X5922Y2541D01*
G01X5926Y2552D01*
G01X5927Y2557D01*
G01X5930Y2568D01*
G01X5931Y2573D01*
G01X5931Y2578D01*
G01X5719Y2578D01*
G01X5719Y2509D01*
G01X5640Y2509D01*
G37*
G36*
G01X5324Y2307D02*
G01X5325Y2307D01*
G01X5325Y2445D01*
G01X5331Y2436D01*
G01X5334Y2433D01*
G01X5341Y2423D01*
G01X5345Y2420D01*
G01X5352Y2411D01*
G01X5356Y2407D01*
G01X5364Y2399D01*
G01X5368Y2395D01*
G01X5376Y2387D01*
G01X5380Y2384D01*
G01X5389Y2376D01*
G01X5393Y2373D01*
G01X5402Y2366D01*
G01X5406Y2363D01*
G01X5416Y2356D01*
G01X5420Y2354D01*
G01X5430Y2348D01*
G01X5435Y2345D01*
G01X5445Y2339D01*
G01X5449Y2337D01*
G01X5460Y2332D01*
G01X5465Y2330D01*
G01X5475Y2325D01*
G01X5480Y2324D01*
G01X5482Y2323D01*
G01X5482Y2578D01*
G01X5270Y2578D01*
G01X5270Y2573D01*
G01X5271Y2568D01*
G01X5274Y2557D01*
G01X5275Y2552D01*
G01X5279Y2541D01*
G01X5280Y2536D01*
G01X5284Y2525D01*
G01X5285Y2520D01*
G01X5290Y2509D01*
G01X5098Y2509D01*
G01X5097Y2511D01*
G01X5097Y2514D01*
G01X5096Y2519D01*
G01X5096Y2522D01*
G01X5094Y2528D01*
G01X5094Y2531D01*
G01X5092Y2536D01*
G01X5091Y2539D01*
G01X5090Y2544D01*
G01X5089Y2547D01*
G01X5087Y2552D01*
G01X5085Y2555D01*
G01X5083Y2559D01*
G01X5082Y2562D01*
G01X5079Y2567D01*
G01X5078Y2570D01*
G01X5075Y2574D01*
G01X5074Y2577D01*
G01X5071Y2582D01*
G01X5069Y2584D01*
G01X5066Y2588D01*
G01X5064Y2591D01*
G01X5060Y2595D01*
G01X5058Y2597D01*
G01X5055Y2601D01*
G01X5053Y2603D01*
G01X5048Y2607D01*
G01X5046Y2609D01*
G01X5042Y2613D01*
G01X5040Y2615D01*
G01X5036Y2618D01*
G01X5033Y2620D01*
G01X5029Y2623D01*
G01X5026Y2625D01*
G01X5021Y2628D01*
G01X5019Y2629D01*
G01X5014Y2632D01*
G01X5011Y2633D01*
G01X5007Y2636D01*
G01X5004Y2637D01*
G01X4999Y2639D01*
G01X4996Y2640D01*
G01X4991Y2642D01*
G01X4988Y2643D01*
G01X4983Y2645D01*
G01X4980Y2645D01*
G01X4975Y2647D01*
G01X4972Y2647D01*
G01X4969Y2648D01*
G01X4969Y2452D01*
G01X5099Y2452D01*
G01X5099Y2482D01*
G01X5102Y2475D01*
G01X5104Y2471D01*
G01X5109Y2461D01*
G01X5112Y2457D01*
G01X5117Y2448D01*
G01X5120Y2444D01*
G01X5126Y2435D01*
G01X5129Y2431D01*
G01X5135Y2422D01*
G01X5139Y2418D01*
G01X5146Y2410D01*
G01X5149Y2406D01*
G01X5156Y2398D01*
G01X5160Y2395D01*
G01X5167Y2387D01*
G01X5171Y2384D01*
G01X5179Y2377D01*
G01X5183Y2373D01*
G01X5191Y2367D01*
G01X5195Y2364D01*
G01X5204Y2357D01*
G01X5208Y2355D01*
G01X5217Y2349D01*
G01X5222Y2346D01*
G01X5231Y2341D01*
G01X5235Y2338D01*
G01X5245Y2333D01*
G01X5249Y2331D01*
G01X5259Y2327D01*
G01X5264Y2325D01*
G01X5274Y2321D01*
G01X5279Y2319D01*
G01X5289Y2316D01*
G01X5294Y2314D01*
G01X5304Y2311D01*
G01X5309Y2310D01*
G01X5319Y2308D01*
G01X5324Y2307D01*
G37*
G36*
G01X2474Y2445D02*
G01X2474Y2309D01*
G01X2475Y2309D01*
G01X2480Y2310D01*
G01X2490Y2312D01*
G01X2495Y2313D01*
G01X2505Y2316D01*
G01X2510Y2318D01*
G01X2520Y2321D01*
G01X2525Y2323D01*
G01X2535Y2327D01*
G01X2540Y2329D01*
G01X2550Y2333D01*
G01X2554Y2335D01*
G01X2564Y2340D01*
G01X2568Y2343D01*
G01X2577Y2348D01*
G01X2582Y2351D01*
G01X2591Y2357D01*
G01X2595Y2359D01*
G01X2604Y2366D01*
G01X2608Y2369D01*
G01X2616Y2375D01*
G01X2620Y2379D01*
G01X2628Y2386D01*
G01X2632Y2389D01*
G01X2639Y2397D01*
G01X2643Y2400D01*
G01X2650Y2408D01*
G01X2653Y2412D01*
G01X2660Y2420D01*
G01X2664Y2424D01*
G01X2670Y2433D01*
G01X2673Y2437D01*
G01X2679Y2446D01*
G01X2682Y2450D01*
G01X2683Y2452D01*
G01X2729Y2452D01*
G01X2729Y2648D01*
G01X2726Y2647D01*
G01X2723Y2647D01*
G01X2718Y2645D01*
G01X2715Y2645D01*
G01X2710Y2643D01*
G01X2707Y2642D01*
G01X2702Y2640D01*
G01X2699Y2639D01*
G01X2694Y2637D01*
G01X2691Y2636D01*
G01X2687Y2633D01*
G01X2684Y2632D01*
G01X2679Y2629D01*
G01X2677Y2628D01*
G01X2672Y2625D01*
G01X2669Y2623D01*
G01X2665Y2620D01*
G01X2662Y2618D01*
G01X2658Y2615D01*
G01X2656Y2613D01*
G01X2652Y2609D01*
G01X2650Y2607D01*
G01X2645Y2603D01*
G01X2643Y2601D01*
G01X2640Y2597D01*
G01X2638Y2595D01*
G01X2634Y2591D01*
G01X2632Y2588D01*
G01X2629Y2584D01*
G01X2627Y2582D01*
G01X2624Y2577D01*
G01X2623Y2574D01*
G01X2620Y2570D01*
G01X2619Y2567D01*
G01X2616Y2562D01*
G01X2615Y2559D01*
G01X2613Y2555D01*
G01X2611Y2552D01*
G01X2609Y2547D01*
G01X2608Y2544D01*
G01X2607Y2539D01*
G01X2606Y2536D01*
G01X2604Y2531D01*
G01X2604Y2528D01*
G01X2603Y2522D01*
G01X2602Y2519D01*
G01X2601Y2514D01*
G01X2601Y2511D01*
G01X2510Y2511D01*
G01X2514Y2520D01*
G01X2515Y2525D01*
G01X2519Y2536D01*
G01X2520Y2541D01*
G01X2524Y2552D01*
G01X2525Y2557D01*
G01X2528Y2568D01*
G01X2529Y2573D01*
G01X2529Y2578D01*
G01X2317Y2578D01*
G01X2317Y2323D01*
G01X2319Y2324D01*
G01X2324Y2325D01*
G01X2334Y2330D01*
G01X2339Y2332D01*
G01X2350Y2337D01*
G01X2354Y2339D01*
G01X2364Y2345D01*
G01X2369Y2348D01*
G01X2379Y2354D01*
G01X2383Y2356D01*
G01X2393Y2363D01*
G01X2397Y2366D01*
G01X2406Y2373D01*
G01X2410Y2376D01*
G01X2419Y2384D01*
G01X2423Y2387D01*
G01X2431Y2395D01*
G01X2435Y2399D01*
G01X2443Y2407D01*
G01X2447Y2411D01*
G01X2454Y2420D01*
G01X2458Y2423D01*
G01X2465Y2433D01*
G01X2468Y2436D01*
G01X2474Y2445D01*
G37*
G36*
G01X2158Y2309D02*
G01X2159Y2309D01*
G01X2159Y2511D01*
G01X2080Y2511D01*
G01X2080Y2578D01*
G01X1868Y2578D01*
G01X1868Y2573D01*
G01X1869Y2568D01*
G01X1872Y2557D01*
G01X1873Y2552D01*
G01X1877Y2541D01*
G01X1878Y2536D01*
G01X1882Y2525D01*
G01X1883Y2520D01*
G01X1888Y2509D01*
G01X1890Y2505D01*
G01X1895Y2494D01*
G01X1897Y2489D01*
G01X1902Y2479D01*
G01X1904Y2475D01*
G01X1910Y2464D01*
G01X1913Y2460D01*
G01X1919Y2450D01*
G01X1922Y2446D01*
G01X1929Y2436D01*
G01X1932Y2433D01*
G01X1939Y2423D01*
G01X1943Y2420D01*
G01X1950Y2411D01*
G01X1954Y2407D01*
G01X1962Y2399D01*
G01X1966Y2395D01*
G01X1974Y2387D01*
G01X1978Y2384D01*
G01X1987Y2376D01*
G01X1991Y2373D01*
G01X2000Y2366D01*
G01X2004Y2363D01*
G01X2014Y2356D01*
G01X2018Y2354D01*
G01X2028Y2348D01*
G01X2033Y2345D01*
G01X2043Y2339D01*
G01X2047Y2337D01*
G01X2058Y2332D01*
G01X2063Y2330D01*
G01X2073Y2325D01*
G01X2078Y2324D01*
G01X2080Y2323D01*
G01X2080Y2335D01*
G01X2083Y2333D01*
G01X2093Y2329D01*
G01X2098Y2327D01*
G01X2108Y2323D01*
G01X2113Y2321D01*
G01X2123Y2318D01*
G01X2128Y2316D01*
G01X2138Y2313D01*
G01X2143Y2312D01*
G01X2153Y2310D01*
G01X2158Y2309D01*
G37*
G36*
G01X1978Y4145D02*
G01X1978Y4145D01*
G01X1978Y4205D01*
G01X1978Y4209D01*
G01X1978Y4213D01*
G01X1978Y4217D01*
G01X1977Y4221D01*
G01X1976Y4225D01*
G01X1975Y4229D01*
G01X1974Y4233D01*
G01X1973Y4237D01*
G01X1972Y4241D01*
G01X1970Y4245D01*
G01X1968Y4248D01*
G01X1966Y4252D01*
G01X1964Y4256D01*
G01X1962Y4259D01*
G01X1960Y4263D01*
G01X1957Y4266D01*
G01X1955Y4269D01*
G01X1952Y4272D01*
G01X1949Y4275D01*
G01X1946Y4278D01*
G01X1943Y4281D01*
G01X1940Y4283D01*
G01X1937Y4286D01*
G01X1933Y4288D01*
G01X1930Y4290D01*
G01X1926Y4292D01*
G01X1922Y4294D01*
G01X1919Y4296D01*
G01X1915Y4298D01*
G01X1911Y4299D01*
G01X1907Y4300D01*
G01X1903Y4301D01*
G01X1899Y4302D01*
G01X1895Y4303D01*
G01X1891Y4304D01*
G01X1887Y4304D01*
G01X1883Y4304D01*
G01X1878Y4305D01*
G01X1839Y4305D01*
G01X1839Y4304D01*
G01X1839Y4145D01*
G01X1978Y4145D01*
G37*
G36*
G01X7216Y4100D02*
G01X7221Y4100D01*
G01X7351Y4100D01*
G01X7351Y4100D01*
G01X7351Y4350D01*
G01X7121Y4350D01*
G01X7121Y4200D01*
G01X7121Y4195D01*
G01X7121Y4191D01*
G01X7121Y4187D01*
G01X7122Y4183D01*
G01X7123Y4179D01*
G01X7124Y4175D01*
G01X7125Y4171D01*
G01X7126Y4167D01*
G01X7127Y4163D01*
G01X7129Y4159D01*
G01X7131Y4156D01*
G01X7133Y4152D01*
G01X7135Y4148D01*
G01X7137Y4145D01*
G01X7139Y4141D01*
G01X7142Y4138D01*
G01X7144Y4135D01*
G01X7147Y4132D01*
G01X7150Y4129D01*
G01X7153Y4126D01*
G01X7156Y4123D01*
G01X7159Y4121D01*
G01X7162Y4118D01*
G01X7166Y4116D01*
G01X7169Y4114D01*
G01X7173Y4112D01*
G01X7177Y4110D01*
G01X7180Y4108D01*
G01X7184Y4106D01*
G01X7188Y4105D01*
G01X7192Y4104D01*
G01X7196Y4103D01*
G01X7200Y4102D01*
G01X7204Y4101D01*
G01X7208Y4100D01*
G01X7212Y4100D01*
G01X7216Y4100D01*
G37*
G36*
G01X7610Y4100D02*
G01X7610Y4100D01*
G01X7740Y4100D01*
G01X7745Y4100D01*
G01X7749Y4100D01*
G01X7753Y4100D01*
G01X7757Y4101D01*
G01X7761Y4102D01*
G01X7765Y4103D01*
G01X7769Y4104D01*
G01X7773Y4105D01*
G01X7777Y4106D01*
G01X7781Y4108D01*
G01X7784Y4110D01*
G01X7788Y4112D01*
G01X7792Y4114D01*
G01X7795Y4116D01*
G01X7799Y4118D01*
G01X7802Y4121D01*
G01X7805Y4123D01*
G01X7808Y4126D01*
G01X7811Y4129D01*
G01X7814Y4132D01*
G01X7817Y4135D01*
G01X7819Y4138D01*
G01X7822Y4141D01*
G01X7824Y4145D01*
G01X7826Y4148D01*
G01X7828Y4152D01*
G01X7830Y4156D01*
G01X7832Y4159D01*
G01X7834Y4163D01*
G01X7835Y4167D01*
G01X7836Y4171D01*
G01X7837Y4175D01*
G01X7838Y4179D01*
G01X7839Y4183D01*
G01X7840Y4187D01*
G01X7840Y4191D01*
G01X7840Y4195D01*
G01X7840Y4200D01*
G01X7840Y4350D01*
G01X7610Y4350D01*
G01X7610Y4100D01*
G37*
G36*
G01X1716Y3869D02*
G01X1721Y3869D01*
G01X1760Y3869D01*
G01X1760Y4027D01*
G01X1621Y4027D01*
G01X1621Y4027D01*
G01X1621Y3969D01*
G01X1621Y3964D01*
G01X1621Y3960D01*
G01X1621Y3956D01*
G01X1622Y3952D01*
G01X1623Y3948D01*
G01X1624Y3944D01*
G01X1625Y3940D01*
G01X1626Y3936D01*
G01X1627Y3932D01*
G01X1629Y3928D01*
G01X1631Y3925D01*
G01X1633Y3921D01*
G01X1635Y3917D01*
G01X1637Y3914D01*
G01X1639Y3910D01*
G01X1642Y3907D01*
G01X1644Y3904D01*
G01X1647Y3901D01*
G01X1650Y3898D01*
G01X1653Y3895D01*
G01X1656Y3892D01*
G01X1659Y3890D01*
G01X1662Y3887D01*
G01X1666Y3885D01*
G01X1669Y3883D01*
G01X1673Y3881D01*
G01X1677Y3879D01*
G01X1680Y3877D01*
G01X1684Y3875D01*
G01X1688Y3874D01*
G01X1692Y3873D01*
G01X1696Y3872D01*
G01X1700Y3871D01*
G01X1704Y3870D01*
G01X1708Y3869D01*
G01X1712Y3869D01*
G01X1716Y3869D01*
G37*
G36*
G01X1839Y4027D02*
G01X1839Y3869D01*
G01X1878Y3869D01*
G01X1883Y3869D01*
G01X1887Y3869D01*
G01X1891Y3869D01*
G01X1895Y3870D01*
G01X1899Y3871D01*
G01X1903Y3872D01*
G01X1907Y3873D01*
G01X1911Y3874D01*
G01X1915Y3875D01*
G01X1919Y3877D01*
G01X1922Y3879D01*
G01X1926Y3881D01*
G01X1930Y3883D01*
G01X1933Y3885D01*
G01X1937Y3887D01*
G01X1940Y3890D01*
G01X1943Y3892D01*
G01X1946Y3895D01*
G01X1949Y3898D01*
G01X1952Y3901D01*
G01X1955Y3904D01*
G01X1957Y3907D01*
G01X1960Y3910D01*
G01X1962Y3914D01*
G01X1964Y3917D01*
G01X1966Y3921D01*
G01X1968Y3925D01*
G01X1970Y3928D01*
G01X1972Y3932D01*
G01X1973Y3936D01*
G01X1974Y3940D01*
G01X1975Y3944D01*
G01X1976Y3948D01*
G01X1977Y3952D01*
G01X1978Y3956D01*
G01X1978Y3960D01*
G01X1978Y3964D01*
G01X1978Y3969D01*
G01X1978Y4027D01*
G01X1978Y4027D01*
G01X1839Y4027D01*
G37*
G36*
G01X648Y3792D02*
G01X689Y3789D01*
G01X730Y3790D01*
G01X771Y3795D01*
G01X811Y3804D01*
G01X850Y3817D01*
G01X887Y3834D01*
G01X922Y3854D01*
G01X956Y3878D01*
G01X986Y3905D01*
G01X1014Y3935D01*
G01X1039Y3968D01*
G01X1060Y4003D01*
G01X1078Y4040D01*
G01X1092Y4078D01*
G01X1102Y4118D01*
G01X1108Y4159D01*
G01X1111Y4200D01*
G01X1108Y4240D01*
G01X1102Y4281D01*
G01X1092Y4321D01*
G01X1078Y4359D01*
G01X1060Y4396D01*
G01X1039Y4431D01*
G01X1014Y4464D01*
G01X986Y4494D01*
G01X956Y4521D01*
G01X922Y4545D01*
G01X887Y4565D01*
G01X850Y4582D01*
G01X811Y4595D01*
G01X771Y4604D01*
G01X730Y4609D01*
G01X689Y4610D01*
G01X648Y4607D01*
G01X608Y4600D01*
G01X569Y4589D01*
G01X530Y4574D01*
G01X494Y4555D01*
G01X460Y4533D01*
G01X428Y4508D01*
G01X398Y4479D01*
G01X372Y4448D01*
G01X349Y4414D01*
G01X329Y4378D01*
G01X313Y4340D01*
G01X301Y4301D01*
G01X293Y4261D01*
G01X289Y4220D01*
G01X289Y4179D01*
G01X293Y4138D01*
G01X301Y4098D01*
G01X313Y4059D01*
G01X329Y4021D01*
G01X349Y3985D01*
G01X372Y3951D01*
G01X398Y3920D01*
G01X428Y3891D01*
G01X460Y3866D01*
G01X494Y3844D01*
G01X530Y3825D01*
G01X569Y3810D01*
G01X608Y3799D01*
G01X648Y3792D01*
G37*
G36*
G01X7459Y3916D02*
G01X7459Y3708D01*
G01X7656Y3708D01*
G01X7656Y3817D01*
G01X7656Y3821D01*
G01X7656Y3825D01*
G01X7656Y3829D01*
G01X7655Y3833D01*
G01X7654Y3837D01*
G01X7653Y3841D01*
G01X7652Y3845D01*
G01X7651Y3849D01*
G01X7650Y3853D01*
G01X7648Y3857D01*
G01X7646Y3860D01*
G01X7644Y3864D01*
G01X7642Y3868D01*
G01X7640Y3871D01*
G01X7638Y3875D01*
G01X7635Y3878D01*
G01X7633Y3881D01*
G01X7630Y3884D01*
G01X7627Y3887D01*
G01X7624Y3890D01*
G01X7621Y3893D01*
G01X7618Y3895D01*
G01X7615Y3898D01*
G01X7611Y3900D01*
G01X7608Y3902D01*
G01X7604Y3904D01*
G01X7600Y3906D01*
G01X7597Y3908D01*
G01X7593Y3910D01*
G01X7589Y3911D01*
G01X7585Y3912D01*
G01X7581Y3913D01*
G01X7577Y3914D01*
G01X7573Y3915D01*
G01X7569Y3916D01*
G01X7565Y3916D01*
G01X7561Y3916D01*
G01X7556Y3917D01*
G01X7459Y3917D01*
G01X7459Y3916D01*
G37*
G36*
G01X329Y3378D02*
G01X319Y3355D01*
G01X544Y3355D01*
G01X544Y3580D01*
G01X530Y3574D01*
G01X494Y3555D01*
G01X460Y3533D01*
G01X428Y3508D01*
G01X398Y3479D01*
G01X372Y3448D01*
G01X349Y3414D01*
G01X329Y3378D01*
G37*
G36*
G01X855Y3580D02*
G01X855Y3355D01*
G01X1080Y3355D01*
G01X1078Y3359D01*
G01X1060Y3396D01*
G01X1039Y3431D01*
G01X1014Y3464D01*
G01X986Y3494D01*
G01X956Y3521D01*
G01X922Y3545D01*
G01X887Y3565D01*
G01X855Y3580D01*
G37*
G36*
G01X7459Y3283D02*
G01X7459Y3282D01*
G01X7556Y3282D01*
G01X7561Y3283D01*
G01X7565Y3283D01*
G01X7569Y3283D01*
G01X7573Y3284D01*
G01X7577Y3285D01*
G01X7581Y3286D01*
G01X7585Y3287D01*
G01X7589Y3288D01*
G01X7593Y3289D01*
G01X7597Y3291D01*
G01X7600Y3293D01*
G01X7604Y3295D01*
G01X7608Y3297D01*
G01X7611Y3299D01*
G01X7615Y3301D01*
G01X7618Y3304D01*
G01X7621Y3306D01*
G01X7624Y3309D01*
G01X7627Y3312D01*
G01X7630Y3315D01*
G01X7633Y3318D01*
G01X7635Y3321D01*
G01X7638Y3324D01*
G01X7640Y3328D01*
G01X7642Y3331D01*
G01X7644Y3335D01*
G01X7646Y3339D01*
G01X7648Y3342D01*
G01X7650Y3346D01*
G01X7651Y3350D01*
G01X7652Y3354D01*
G01X7653Y3358D01*
G01X7654Y3362D01*
G01X7655Y3366D01*
G01X7656Y3370D01*
G01X7656Y3374D01*
G01X7656Y3378D01*
G01X7656Y3382D01*
G01X7656Y3491D01*
G01X7459Y3491D01*
G01X7459Y3283D01*
G37*
G36*
G01X6295Y3100D02*
G01X6300Y3100D01*
G01X7000Y3100D01*
G01X7004Y3100D01*
G01X7008Y3100D01*
G01X7012Y3100D01*
G01X7016Y3101D01*
G01X7020Y3102D01*
G01X7024Y3103D01*
G01X7028Y3104D01*
G01X7032Y3105D01*
G01X7036Y3106D01*
G01X7040Y3108D01*
G01X7043Y3110D01*
G01X7047Y3112D01*
G01X7051Y3114D01*
G01X7054Y3116D01*
G01X7058Y3118D01*
G01X7061Y3121D01*
G01X7064Y3123D01*
G01X7067Y3126D01*
G01X7070Y3129D01*
G01X7073Y3132D01*
G01X7076Y3135D01*
G01X7078Y3138D01*
G01X7081Y3141D01*
G01X7083Y3145D01*
G01X7085Y3148D01*
G01X7087Y3152D01*
G01X7089Y3156D01*
G01X7091Y3159D01*
G01X7093Y3163D01*
G01X7094Y3167D01*
G01X7095Y3171D01*
G01X7096Y3175D01*
G01X7097Y3179D01*
G01X7098Y3183D01*
G01X7099Y3187D01*
G01X7099Y3191D01*
G01X7099Y3195D01*
G01X7100Y3200D01*
G01X7100Y3306D01*
G01X7102Y3304D01*
G01X7105Y3301D01*
G01X7109Y3299D01*
G01X7112Y3297D01*
G01X7116Y3295D01*
G01X7120Y3293D01*
G01X7123Y3291D01*
G01X7127Y3289D01*
G01X7131Y3288D01*
G01X7135Y3287D01*
G01X7139Y3286D01*
G01X7143Y3285D01*
G01X7147Y3284D01*
G01X7151Y3283D01*
G01X7155Y3283D01*
G01X7159Y3283D01*
G01X7164Y3282D01*
G01X7262Y3282D01*
G01X7262Y3283D01*
G01X7262Y3491D01*
G01X7106Y3491D01*
G01X7106Y3708D01*
G01X7262Y3708D01*
G01X7262Y3916D01*
G01X7262Y3917D01*
G01X7164Y3917D01*
G01X7159Y3916D01*
G01X7155Y3916D01*
G01X7151Y3916D01*
G01X7147Y3915D01*
G01X7143Y3914D01*
G01X7139Y3913D01*
G01X7135Y3912D01*
G01X7131Y3911D01*
G01X7127Y3910D01*
G01X7123Y3908D01*
G01X7120Y3906D01*
G01X7116Y3904D01*
G01X7112Y3902D01*
G01X7109Y3900D01*
G01X7105Y3898D01*
G01X7102Y3895D01*
G01X7100Y3893D01*
G01X7100Y5339D01*
G01X7102Y5340D01*
G01X7118Y5351D01*
G01X7132Y5364D01*
G01X7145Y5378D01*
G01X7156Y5393D01*
G01X7166Y5409D01*
G01X7174Y5426D01*
G01X7181Y5444D01*
G01X7185Y5462D01*
G01X7188Y5481D01*
G01X7189Y5500D01*
G01X7188Y5518D01*
G01X7185Y5537D01*
G01X7181Y5555D01*
G01X7174Y5573D01*
G01X7166Y5590D01*
G01X7156Y5606D01*
G01X7145Y5621D01*
G01X7132Y5635D01*
G01X7118Y5648D01*
G01X7102Y5659D01*
G01X7100Y5660D01*
G01X7100Y5800D01*
G01X7099Y5804D01*
G01X7099Y5808D01*
G01X7099Y5812D01*
G01X7098Y5816D01*
G01X7097Y5820D01*
G01X7096Y5824D01*
G01X7095Y5828D01*
G01X7094Y5832D01*
G01X7093Y5836D01*
G01X7091Y5840D01*
G01X7089Y5843D01*
G01X7087Y5847D01*
G01X7085Y5851D01*
G01X7083Y5854D01*
G01X7081Y5858D01*
G01X7078Y5861D01*
G01X7076Y5864D01*
G01X7073Y5867D01*
G01X7070Y5870D01*
G01X7067Y5873D01*
G01X7064Y5876D01*
G01X7061Y5878D01*
G01X7058Y5881D01*
G01X7054Y5883D01*
G01X7051Y5885D01*
G01X7047Y5887D01*
G01X7043Y5889D01*
G01X7040Y5891D01*
G01X7036Y5893D01*
G01X7032Y5894D01*
G01X7028Y5895D01*
G01X7024Y5896D01*
G01X7020Y5897D01*
G01X7016Y5898D01*
G01X7012Y5899D01*
G01X7008Y5899D01*
G01X7004Y5899D01*
G01X7000Y5900D01*
G01X6773Y5900D01*
G01X6771Y5901D01*
G01X6766Y5904D01*
G01X6760Y5907D01*
G01X6756Y5909D01*
G01X6750Y5912D01*
G01X6745Y5914D01*
G01X6739Y5917D01*
G01X6734Y5919D01*
G01X6728Y5921D01*
G01X6723Y5923D01*
G01X6716Y5925D01*
G01X6712Y5926D01*
G01X6705Y5928D01*
G01X6700Y5929D01*
G01X6693Y5930D01*
G01X6688Y5931D01*
G01X6681Y5932D01*
G01X6677Y5933D01*
G01X6670Y5933D01*
G01X6665Y5934D01*
G01X6658Y5934D01*
G01X6653Y5934D01*
G01X6646Y5934D01*
G01X6641Y5934D01*
G01X6634Y5934D01*
G01X6629Y5933D01*
G01X6622Y5933D01*
G01X6618Y5932D01*
G01X6611Y5931D01*
G01X6606Y5930D01*
G01X6599Y5929D01*
G01X6594Y5928D01*
G01X6587Y5926D01*
G01X6583Y5925D01*
G01X6576Y5923D01*
G01X6571Y5921D01*
G01X6565Y5919D01*
G01X6560Y5917D01*
G01X6554Y5914D01*
G01X6549Y5912D01*
G01X6543Y5909D01*
G01X6539Y5907D01*
G01X6533Y5904D01*
G01X6528Y5901D01*
G01X6526Y5900D01*
G01X6273Y5900D01*
G01X6271Y5901D01*
G01X6266Y5904D01*
G01X6260Y5907D01*
G01X6256Y5909D01*
G01X6250Y5912D01*
G01X6245Y5914D01*
G01X6239Y5917D01*
G01X6234Y5919D01*
G01X6228Y5921D01*
G01X6223Y5923D01*
G01X6216Y5925D01*
G01X6212Y5926D01*
G01X6205Y5928D01*
G01X6200Y5929D01*
G01X6193Y5930D01*
G01X6188Y5931D01*
G01X6181Y5932D01*
G01X6177Y5933D01*
G01X6170Y5933D01*
G01X6165Y5934D01*
G01X6158Y5934D01*
G01X6153Y5934D01*
G01X6146Y5934D01*
G01X6141Y5934D01*
G01X6134Y5934D01*
G01X6129Y5933D01*
G01X6122Y5933D01*
G01X6118Y5932D01*
G01X6111Y5931D01*
G01X6106Y5930D01*
G01X6099Y5929D01*
G01X6094Y5928D01*
G01X6087Y5926D01*
G01X6083Y5925D01*
G01X6076Y5923D01*
G01X6071Y5921D01*
G01X6065Y5919D01*
G01X6060Y5917D01*
G01X6054Y5914D01*
G01X6049Y5912D01*
G01X6043Y5909D01*
G01X6039Y5907D01*
G01X6033Y5904D01*
G01X6028Y5901D01*
G01X6026Y5900D01*
G01X5773Y5900D01*
G01X5771Y5901D01*
G01X5766Y5904D01*
G01X5760Y5907D01*
G01X5756Y5909D01*
G01X5750Y5912D01*
G01X5745Y5914D01*
G01X5739Y5917D01*
G01X5734Y5919D01*
G01X5728Y5921D01*
G01X5723Y5923D01*
G01X5716Y5925D01*
G01X5712Y5926D01*
G01X5705Y5928D01*
G01X5700Y5929D01*
G01X5693Y5930D01*
G01X5688Y5931D01*
G01X5681Y5932D01*
G01X5677Y5933D01*
G01X5670Y5933D01*
G01X5665Y5934D01*
G01X5658Y5934D01*
G01X5653Y5934D01*
G01X5646Y5934D01*
G01X5641Y5934D01*
G01X5634Y5934D01*
G01X5629Y5933D01*
G01X5622Y5933D01*
G01X5618Y5932D01*
G01X5611Y5931D01*
G01X5606Y5930D01*
G01X5599Y5929D01*
G01X5594Y5928D01*
G01X5587Y5926D01*
G01X5583Y5925D01*
G01X5576Y5923D01*
G01X5571Y5921D01*
G01X5565Y5919D01*
G01X5560Y5917D01*
G01X5554Y5914D01*
G01X5549Y5912D01*
G01X5543Y5909D01*
G01X5539Y5907D01*
G01X5533Y5904D01*
G01X5528Y5901D01*
G01X5526Y5900D01*
G01X5273Y5900D01*
G01X5271Y5901D01*
G01X5266Y5904D01*
G01X5260Y5907D01*
G01X5256Y5909D01*
G01X5250Y5912D01*
G01X5245Y5914D01*
G01X5239Y5917D01*
G01X5234Y5919D01*
G01X5228Y5921D01*
G01X5223Y5923D01*
G01X5216Y5925D01*
G01X5212Y5926D01*
G01X5205Y5928D01*
G01X5200Y5929D01*
G01X5193Y5930D01*
G01X5188Y5931D01*
G01X5181Y5932D01*
G01X5177Y5933D01*
G01X5170Y5933D01*
G01X5165Y5934D01*
G01X5158Y5934D01*
G01X5153Y5934D01*
G01X5146Y5934D01*
G01X5141Y5934D01*
G01X5134Y5934D01*
G01X5129Y5933D01*
G01X5122Y5933D01*
G01X5118Y5932D01*
G01X5111Y5931D01*
G01X5106Y5930D01*
G01X5099Y5929D01*
G01X5094Y5928D01*
G01X5087Y5926D01*
G01X5083Y5925D01*
G01X5076Y5923D01*
G01X5071Y5921D01*
G01X5065Y5919D01*
G01X5060Y5917D01*
G01X5054Y5914D01*
G01X5049Y5912D01*
G01X5043Y5909D01*
G01X5039Y5907D01*
G01X5033Y5904D01*
G01X5028Y5901D01*
G01X5026Y5900D01*
G01X4900Y5900D01*
G01X4895Y5899D01*
G01X4891Y5899D01*
G01X4887Y5899D01*
G01X4883Y5898D01*
G01X4879Y5897D01*
G01X4875Y5896D01*
G01X4871Y5895D01*
G01X4867Y5894D01*
G01X4863Y5893D01*
G01X4859Y5891D01*
G01X4856Y5889D01*
G01X4852Y5887D01*
G01X4848Y5885D01*
G01X4845Y5883D01*
G01X4841Y5881D01*
G01X4838Y5878D01*
G01X4835Y5876D01*
G01X4832Y5873D01*
G01X4829Y5870D01*
G01X4826Y5867D01*
G01X4823Y5864D01*
G01X4821Y5861D01*
G01X4818Y5858D01*
G01X4816Y5854D01*
G01X4814Y5851D01*
G01X4812Y5847D01*
G01X4810Y5843D01*
G01X4808Y5840D01*
G01X4806Y5836D01*
G01X4805Y5832D01*
G01X4804Y5828D01*
G01X4803Y5824D01*
G01X4802Y5820D01*
G01X4801Y5816D01*
G01X4800Y5812D01*
G01X4800Y5808D01*
G01X4800Y5804D01*
G01X4800Y5800D01*
G01X4800Y5599D01*
G01X4799Y5597D01*
G01X4793Y5580D01*
G01X4789Y5562D01*
G01X4785Y5544D01*
G01X4782Y5526D01*
G01X4781Y5507D01*
G01X4780Y5489D01*
G01X4780Y5470D01*
G01X4781Y5452D01*
G01X4782Y5433D01*
G01X4785Y5415D01*
G01X4789Y5397D01*
G01X4793Y5379D01*
G01X4799Y5362D01*
G01X4800Y5360D01*
G01X4800Y4944D01*
G01X4797Y4942D01*
G01X4793Y4940D01*
G01X4790Y4938D01*
G01X4786Y4936D01*
G01X4783Y4933D01*
G01X4780Y4931D01*
G01X4777Y4928D01*
G01X4774Y4925D01*
G01X4771Y4922D01*
G01X4768Y4919D01*
G01X4766Y4916D01*
G01X4763Y4913D01*
G01X4761Y4909D01*
G01X4759Y4906D01*
G01X4757Y4902D01*
G01X4755Y4898D01*
G01X4753Y4895D01*
G01X4751Y4891D01*
G01X4750Y4887D01*
G01X4749Y4883D01*
G01X4748Y4879D01*
G01X4747Y4875D01*
G01X4746Y4871D01*
G01X4745Y4867D01*
G01X4745Y4863D01*
G01X4745Y4859D01*
G01X4744Y4855D01*
G01X4744Y4144D01*
G01X4745Y4140D01*
G01X4745Y4136D01*
G01X4745Y4132D01*
G01X4746Y4128D01*
G01X4747Y4124D01*
G01X4748Y4120D01*
G01X4749Y4116D01*
G01X4750Y4112D01*
G01X4751Y4108D01*
G01X4753Y4104D01*
G01X4755Y4101D01*
G01X4757Y4097D01*
G01X4759Y4093D01*
G01X4761Y4090D01*
G01X4763Y4086D01*
G01X4766Y4083D01*
G01X4768Y4080D01*
G01X4771Y4077D01*
G01X4774Y4074D01*
G01X4777Y4071D01*
G01X4780Y4068D01*
G01X4783Y4066D01*
G01X4786Y4063D01*
G01X4790Y4061D01*
G01X4793Y4059D01*
G01X4797Y4057D01*
G01X4801Y4055D01*
G01X4804Y4053D01*
G01X4808Y4051D01*
G01X4812Y4050D01*
G01X4813Y4050D01*
G01X4814Y4047D01*
G01X4817Y4043D01*
G01X4819Y4040D01*
G01X4822Y4037D01*
G01X4825Y4033D01*
G01X4827Y4030D01*
G01X4830Y4027D01*
G01X4834Y4024D01*
G01X4837Y4022D01*
G01X4840Y4019D01*
G01X4844Y4017D01*
G01X4847Y4014D01*
G01X4851Y4012D01*
G01X4855Y4010D01*
G01X4858Y4008D01*
G01X4862Y4007D01*
G01X5838Y3616D01*
G01X6221Y3137D01*
G01X6224Y3134D01*
G01X6227Y3131D01*
G01X6230Y3128D01*
G01X6233Y3125D01*
G01X6236Y3122D01*
G01X6240Y3119D01*
G01X6243Y3117D01*
G01X6247Y3114D01*
G01X6251Y3112D01*
G01X6254Y3110D01*
G01X6258Y3108D01*
G01X6262Y3107D01*
G01X6266Y3105D01*
G01X6270Y3104D01*
G01X6274Y3103D01*
G01X6278Y3102D01*
G01X6283Y3101D01*
G01X6287Y3100D01*
G01X6291Y3100D01*
G01X6295Y3100D01*
G37*
G36*
G01X2697Y3121D02*
G01X2697Y3082D01*
G01X2827Y3082D01*
G01X2827Y3278D01*
G01X2824Y3277D01*
G01X2821Y3277D01*
G01X2816Y3275D01*
G01X2813Y3275D01*
G01X2808Y3273D01*
G01X2805Y3272D01*
G01X2800Y3270D01*
G01X2797Y3269D01*
G01X2792Y3267D01*
G01X2789Y3266D01*
G01X2785Y3263D01*
G01X2782Y3262D01*
G01X2777Y3259D01*
G01X2775Y3258D01*
G01X2770Y3255D01*
G01X2767Y3253D01*
G01X2763Y3250D01*
G01X2760Y3248D01*
G01X2756Y3245D01*
G01X2754Y3243D01*
G01X2750Y3239D01*
G01X2748Y3237D01*
G01X2743Y3233D01*
G01X2741Y3231D01*
G01X2738Y3227D01*
G01X2736Y3225D01*
G01X2732Y3221D01*
G01X2730Y3218D01*
G01X2727Y3214D01*
G01X2725Y3212D01*
G01X2722Y3207D01*
G01X2721Y3204D01*
G01X2718Y3200D01*
G01X2717Y3197D01*
G01X2714Y3192D01*
G01X2713Y3189D01*
G01X2711Y3185D01*
G01X2709Y3182D01*
G01X2707Y3177D01*
G01X2706Y3174D01*
G01X2705Y3169D01*
G01X2704Y3166D01*
G01X2702Y3161D01*
G01X2702Y3158D01*
G01X2701Y3152D01*
G01X2700Y3149D01*
G01X2699Y3144D01*
G01X2699Y3141D01*
G01X2698Y3136D01*
G01X2698Y3133D01*
G01X2698Y3127D01*
G01X2697Y3124D01*
G01X2697Y3121D01*
G37*
G36*
G01X5067Y3278D02*
G01X5067Y3082D01*
G01X5197Y3082D01*
G01X5197Y3121D01*
G01X5197Y3124D01*
G01X5196Y3127D01*
G01X5196Y3133D01*
G01X5196Y3136D01*
G01X5195Y3141D01*
G01X5195Y3144D01*
G01X5194Y3149D01*
G01X5193Y3152D01*
G01X5192Y3158D01*
G01X5192Y3161D01*
G01X5190Y3166D01*
G01X5189Y3169D01*
G01X5188Y3174D01*
G01X5187Y3177D01*
G01X5185Y3182D01*
G01X5183Y3185D01*
G01X5181Y3189D01*
G01X5180Y3192D01*
G01X5177Y3197D01*
G01X5176Y3200D01*
G01X5173Y3204D01*
G01X5172Y3207D01*
G01X5169Y3212D01*
G01X5167Y3214D01*
G01X5164Y3218D01*
G01X5162Y3221D01*
G01X5158Y3225D01*
G01X5156Y3227D01*
G01X5153Y3231D01*
G01X5151Y3233D01*
G01X5146Y3237D01*
G01X5144Y3239D01*
G01X5140Y3243D01*
G01X5138Y3245D01*
G01X5134Y3248D01*
G01X5131Y3250D01*
G01X5127Y3253D01*
G01X5124Y3255D01*
G01X5119Y3258D01*
G01X5117Y3259D01*
G01X5112Y3262D01*
G01X5109Y3263D01*
G01X5105Y3266D01*
G01X5102Y3267D01*
G01X5097Y3269D01*
G01X5094Y3270D01*
G01X5089Y3272D01*
G01X5086Y3273D01*
G01X5081Y3275D01*
G01X5078Y3275D01*
G01X5073Y3277D01*
G01X5070Y3277D01*
G01X5067Y3278D01*
G37*
G36*
G01X5270Y2938D02*
G01X5270Y2933D01*
G01X5482Y2933D01*
G01X5482Y3188D01*
G01X5480Y3187D01*
G01X5475Y3186D01*
G01X5465Y3181D01*
G01X5460Y3179D01*
G01X5449Y3174D01*
G01X5445Y3172D01*
G01X5435Y3166D01*
G01X5430Y3163D01*
G01X5420Y3157D01*
G01X5416Y3155D01*
G01X5406Y3148D01*
G01X5402Y3145D01*
G01X5393Y3138D01*
G01X5389Y3135D01*
G01X5380Y3127D01*
G01X5376Y3124D01*
G01X5368Y3116D01*
G01X5364Y3112D01*
G01X5356Y3104D01*
G01X5352Y3100D01*
G01X5345Y3091D01*
G01X5341Y3088D01*
G01X5334Y3078D01*
G01X5331Y3075D01*
G01X5324Y3065D01*
G01X5321Y3061D01*
G01X5315Y3051D01*
G01X5312Y3047D01*
G01X5306Y3036D01*
G01X5304Y3032D01*
G01X5299Y3022D01*
G01X5297Y3017D01*
G01X5292Y3006D01*
G01X5290Y3002D01*
G01X5285Y2991D01*
G01X5284Y2986D01*
G01X5280Y2975D01*
G01X5279Y2970D01*
G01X5275Y2959D01*
G01X5274Y2954D01*
G01X5271Y2943D01*
G01X5270Y2938D01*
G37*
G36*
G01X5719Y3188D02*
G01X5719Y2933D01*
G01X5931Y2933D01*
G01X5931Y2938D01*
G01X5930Y2943D01*
G01X5927Y2954D01*
G01X5926Y2959D01*
G01X5922Y2970D01*
G01X5921Y2975D01*
G01X5917Y2986D01*
G01X5916Y2991D01*
G01X5911Y3002D01*
G01X5909Y3006D01*
G01X5904Y3017D01*
G01X5902Y3022D01*
G01X5897Y3032D01*
G01X5895Y3036D01*
G01X5889Y3047D01*
G01X5886Y3051D01*
G01X5880Y3061D01*
G01X5877Y3065D01*
G01X5870Y3075D01*
G01X5867Y3078D01*
G01X5860Y3088D01*
G01X5856Y3091D01*
G01X5849Y3100D01*
G01X5845Y3104D01*
G01X5837Y3112D01*
G01X5833Y3116D01*
G01X5825Y3124D01*
G01X5821Y3127D01*
G01X5812Y3135D01*
G01X5808Y3138D01*
G01X5799Y3145D01*
G01X5795Y3148D01*
G01X5785Y3155D01*
G01X5781Y3157D01*
G01X5771Y3163D01*
G01X5766Y3166D01*
G01X5756Y3172D01*
G01X5752Y3174D01*
G01X5741Y3179D01*
G01X5736Y3181D01*
G01X5726Y3186D01*
G01X5721Y3187D01*
G01X5719Y3188D01*
G37*
G36*
G01X5067Y2885D02*
G01X5067Y2689D01*
G01X5070Y2690D01*
G01X5073Y2690D01*
G01X5078Y2692D01*
G01X5081Y2692D01*
G01X5086Y2694D01*
G01X5089Y2695D01*
G01X5094Y2697D01*
G01X5097Y2698D01*
G01X5102Y2700D01*
G01X5105Y2701D01*
G01X5109Y2704D01*
G01X5112Y2705D01*
G01X5117Y2708D01*
G01X5119Y2709D01*
G01X5124Y2712D01*
G01X5127Y2714D01*
G01X5131Y2717D01*
G01X5134Y2719D01*
G01X5138Y2722D01*
G01X5140Y2724D01*
G01X5142Y2726D01*
G01X5325Y2726D01*
G01X5325Y2928D01*
G01X5324Y2928D01*
G01X5319Y2927D01*
G01X5309Y2925D01*
G01X5304Y2924D01*
G01X5294Y2921D01*
G01X5289Y2919D01*
G01X5279Y2916D01*
G01X5274Y2914D01*
G01X5264Y2910D01*
G01X5259Y2908D01*
G01X5249Y2904D01*
G01X5245Y2902D01*
G01X5235Y2897D01*
G01X5231Y2894D01*
G01X5222Y2889D01*
G01X5217Y2886D01*
G01X5208Y2880D01*
G01X5204Y2878D01*
G01X5197Y2872D01*
G01X5197Y2885D01*
G01X5067Y2885D01*
G37*
G36*
G01X1868Y2938D02*
G01X1868Y2933D01*
G01X2080Y2933D01*
G01X2080Y3188D01*
G01X2078Y3187D01*
G01X2073Y3186D01*
G01X2063Y3181D01*
G01X2058Y3179D01*
G01X2047Y3174D01*
G01X2043Y3172D01*
G01X2033Y3166D01*
G01X2028Y3163D01*
G01X2018Y3157D01*
G01X2014Y3155D01*
G01X2004Y3148D01*
G01X2000Y3145D01*
G01X1991Y3138D01*
G01X1987Y3135D01*
G01X1978Y3127D01*
G01X1974Y3124D01*
G01X1966Y3116D01*
G01X1962Y3112D01*
G01X1954Y3104D01*
G01X1950Y3100D01*
G01X1943Y3091D01*
G01X1939Y3088D01*
G01X1932Y3078D01*
G01X1929Y3075D01*
G01X1922Y3065D01*
G01X1919Y3061D01*
G01X1913Y3051D01*
G01X1910Y3047D01*
G01X1904Y3036D01*
G01X1902Y3032D01*
G01X1897Y3022D01*
G01X1895Y3017D01*
G01X1890Y3006D01*
G01X1888Y3002D01*
G01X1883Y2991D01*
G01X1882Y2986D01*
G01X1878Y2975D01*
G01X1877Y2970D01*
G01X1873Y2959D01*
G01X1872Y2954D01*
G01X1869Y2943D01*
G01X1868Y2938D01*
G37*
G36*
G01X2317Y3188D02*
G01X2317Y2933D01*
G01X2529Y2933D01*
G01X2529Y2938D01*
G01X2528Y2943D01*
G01X2525Y2954D01*
G01X2524Y2959D01*
G01X2520Y2970D01*
G01X2519Y2975D01*
G01X2515Y2986D01*
G01X2514Y2991D01*
G01X2509Y3002D01*
G01X2507Y3006D01*
G01X2502Y3017D01*
G01X2500Y3022D01*
G01X2495Y3032D01*
G01X2493Y3036D01*
G01X2487Y3047D01*
G01X2484Y3051D01*
G01X2478Y3061D01*
G01X2475Y3065D01*
G01X2468Y3075D01*
G01X2465Y3078D01*
G01X2458Y3088D01*
G01X2454Y3091D01*
G01X2447Y3100D01*
G01X2443Y3104D01*
G01X2435Y3112D01*
G01X2431Y3116D01*
G01X2423Y3124D01*
G01X2419Y3127D01*
G01X2410Y3135D01*
G01X2406Y3138D01*
G01X2397Y3145D01*
G01X2393Y3148D01*
G01X2383Y3155D01*
G01X2379Y3157D01*
G01X2369Y3163D01*
G01X2364Y3166D01*
G01X2354Y3172D01*
G01X2350Y3174D01*
G01X2339Y3179D01*
G01X2334Y3181D01*
G01X2324Y3186D01*
G01X2319Y3187D01*
G01X2317Y3188D01*
G37*
G36*
G01X2824Y2690D02*
G01X2827Y2689D01*
G01X2827Y2885D01*
G01X2697Y2885D01*
G01X2697Y2846D01*
G01X2697Y2843D01*
G01X2698Y2840D01*
G01X2698Y2834D01*
G01X2698Y2831D01*
G01X2699Y2826D01*
G01X2699Y2823D01*
G01X2700Y2818D01*
G01X2701Y2815D01*
G01X2702Y2809D01*
G01X2702Y2806D01*
G01X2704Y2801D01*
G01X2705Y2798D01*
G01X2706Y2793D01*
G01X2707Y2790D01*
G01X2709Y2785D01*
G01X2711Y2782D01*
G01X2713Y2778D01*
G01X2714Y2775D01*
G01X2717Y2770D01*
G01X2718Y2767D01*
G01X2721Y2763D01*
G01X2722Y2760D01*
G01X2725Y2755D01*
G01X2727Y2753D01*
G01X2730Y2749D01*
G01X2732Y2746D01*
G01X2736Y2742D01*
G01X2738Y2740D01*
G01X2741Y2736D01*
G01X2743Y2734D01*
G01X2748Y2730D01*
G01X2750Y2728D01*
G01X2754Y2724D01*
G01X2756Y2722D01*
G01X2760Y2719D01*
G01X2763Y2717D01*
G01X2767Y2714D01*
G01X2770Y2712D01*
G01X2775Y2709D01*
G01X2777Y2708D01*
G01X2782Y2705D01*
G01X2785Y2704D01*
G01X2789Y2701D01*
G01X2792Y2700D01*
G01X2797Y2698D01*
G01X2800Y2697D01*
G01X2805Y2695D01*
G01X2808Y2694D01*
G01X2813Y2692D01*
G01X2816Y2692D01*
G01X2821Y2690D01*
G01X2824Y2690D01*
G37*
G36*
G01X5640Y2928D02*
G01X5640Y2726D01*
G01X5878Y2726D01*
G01X5876Y2731D01*
G01X5874Y2735D01*
G01X5870Y2745D01*
G01X5868Y2750D01*
G01X5863Y2760D01*
G01X5861Y2764D01*
G01X5856Y2774D01*
G01X5853Y2778D01*
G01X5848Y2787D01*
G01X5845Y2791D01*
G01X5839Y2800D01*
G01X5836Y2804D01*
G01X5830Y2813D01*
G01X5826Y2817D01*
G01X5819Y2825D01*
G01X5816Y2829D01*
G01X5809Y2837D01*
G01X5805Y2840D01*
G01X5798Y2848D01*
G01X5794Y2851D01*
G01X5786Y2858D01*
G01X5782Y2862D01*
G01X5774Y2868D01*
G01X5770Y2871D01*
G01X5761Y2878D01*
G01X5757Y2880D01*
G01X5748Y2886D01*
G01X5743Y2889D01*
G01X5734Y2894D01*
G01X5730Y2897D01*
G01X5720Y2902D01*
G01X5716Y2904D01*
G01X5706Y2908D01*
G01X5701Y2910D01*
G01X5691Y2914D01*
G01X5686Y2916D01*
G01X5676Y2919D01*
G01X5671Y2921D01*
G01X5661Y2924D01*
G01X5656Y2925D01*
G01X5646Y2927D01*
G01X5641Y2928D01*
G01X5640Y2928D01*
G37*
G36*
G01X2474Y2930D02*
G01X2474Y2728D01*
G01X2712Y2728D01*
G01X2710Y2733D01*
G01X2708Y2737D01*
G01X2704Y2747D01*
G01X2702Y2752D01*
G01X2697Y2762D01*
G01X2695Y2766D01*
G01X2690Y2776D01*
G01X2687Y2780D01*
G01X2682Y2789D01*
G01X2679Y2793D01*
G01X2673Y2802D01*
G01X2670Y2806D01*
G01X2664Y2815D01*
G01X2660Y2819D01*
G01X2653Y2827D01*
G01X2650Y2831D01*
G01X2643Y2839D01*
G01X2639Y2842D01*
G01X2632Y2850D01*
G01X2628Y2853D01*
G01X2620Y2860D01*
G01X2616Y2864D01*
G01X2608Y2870D01*
G01X2604Y2873D01*
G01X2595Y2880D01*
G01X2591Y2882D01*
G01X2582Y2888D01*
G01X2577Y2891D01*
G01X2568Y2896D01*
G01X2564Y2899D01*
G01X2554Y2904D01*
G01X2550Y2906D01*
G01X2540Y2910D01*
G01X2535Y2912D01*
G01X2525Y2916D01*
G01X2520Y2918D01*
G01X2510Y2921D01*
G01X2505Y2923D01*
G01X2495Y2926D01*
G01X2490Y2927D01*
G01X2480Y2929D01*
G01X2475Y2930D01*
G01X2474Y2930D01*
G37*
G36*
G01X1923Y2733D02*
G01X1921Y2728D01*
G01X2159Y2728D01*
G01X2159Y2930D01*
G01X2158Y2930D01*
G01X2153Y2929D01*
G01X2143Y2927D01*
G01X2138Y2926D01*
G01X2128Y2923D01*
G01X2123Y2921D01*
G01X2113Y2918D01*
G01X2108Y2916D01*
G01X2098Y2912D01*
G01X2093Y2910D01*
G01X2083Y2906D01*
G01X2079Y2904D01*
G01X2069Y2899D01*
G01X2065Y2896D01*
G01X2056Y2891D01*
G01X2051Y2888D01*
G01X2042Y2882D01*
G01X2038Y2880D01*
G01X2029Y2873D01*
G01X2025Y2870D01*
G01X2017Y2864D01*
G01X2013Y2860D01*
G01X2005Y2853D01*
G01X2001Y2850D01*
G01X1994Y2842D01*
G01X1990Y2839D01*
G01X1983Y2831D01*
G01X1980Y2827D01*
G01X1973Y2819D01*
G01X1969Y2815D01*
G01X1963Y2806D01*
G01X1960Y2802D01*
G01X1954Y2793D01*
G01X1951Y2789D01*
G01X1946Y2780D01*
G01X1943Y2776D01*
G01X1938Y2766D01*
G01X1936Y2762D01*
G01X1931Y2752D01*
G01X1929Y2747D01*
G01X1925Y2737D01*
G01X1923Y2733D01*
G37*
G36*
G01X855Y3044D02*
G01X855Y2819D01*
G01X887Y2834D01*
G01X922Y2854D01*
G01X956Y2878D01*
G01X986Y2905D01*
G01X1014Y2935D01*
G01X1039Y2968D01*
G01X1060Y3003D01*
G01X1078Y3040D01*
G01X1080Y3044D01*
G01X855Y3044D01*
G37*
G36*
G01X530Y2825D02*
G01X544Y2819D01*
G01X544Y3044D01*
G01X319Y3044D01*
G01X329Y3021D01*
G01X349Y2985D01*
G01X372Y2951D01*
G01X398Y2920D01*
G01X428Y2891D01*
G01X460Y2866D01*
G01X494Y2844D01*
G01X530Y2825D01*
G37*

%LPD*%
G36*
G01X3906Y11400D02*
G01X3900Y11400D01*
G01X3900Y13200D01*
G01X7500Y13200D01*
G01X7500Y11400D01*
G01X4493Y11400D01*
G01X4493Y11400D01*
G01X4490Y11403D01*
G01X4487Y11406D01*
G01X4484Y11409D01*
G01X4481Y11412D01*
G01X4478Y11414D01*
G01X4475Y11417D01*
G01X4471Y11419D01*
G01X4468Y11421D01*
G01X4464Y11423D01*
G01X4460Y11425D01*
G01X4457Y11427D01*
G01X4453Y11429D01*
G01X4449Y11430D01*
G01X4445Y11431D01*
G01X4441Y11432D01*
G01X4437Y11433D01*
G01X4433Y11434D01*
G01X4429Y11435D01*
G01X4425Y11435D01*
G01X4421Y11435D01*
G01X4417Y11436D01*
G01X3982Y11436D01*
G01X3978Y11435D01*
G01X3974Y11435D01*
G01X3970Y11435D01*
G01X3966Y11434D01*
G01X3962Y11433D01*
G01X3958Y11432D01*
G01X3954Y11431D01*
G01X3950Y11430D01*
G01X3946Y11429D01*
G01X3942Y11427D01*
G01X3939Y11425D01*
G01X3935Y11423D01*
G01X3931Y11421D01*
G01X3928Y11419D01*
G01X3924Y11417D01*
G01X3921Y11414D01*
G01X3918Y11412D01*
G01X3915Y11409D01*
G01X3912Y11406D01*
G01X3909Y11403D01*
G01X3906Y11400D01*
G01X3906Y11400D01*
G37*

%LPC*%

%LPD*%
G36*
G01X4600Y3300D02*
G01X3100Y3300D01*
G01X3001Y4182D01*
G01X3092Y4182D01*
G01X3092Y4183D01*
G01X3092Y4391D01*
G01X3000Y4391D01*
G01X3000Y4444D01*
G01X3055Y4444D01*
G01X3055Y4584D01*
G01X3039Y4579D01*
G01X3022Y4572D01*
G01X3005Y4564D01*
G01X3000Y4560D01*
G01X3000Y4608D01*
G01X3092Y4608D01*
G01X3092Y4816D01*
G01X3092Y4817D01*
G01X3000Y4817D01*
G01X3000Y5200D01*
G01X4400Y5200D01*
G01X4400Y4944D01*
G01X4398Y4944D01*
G01X4395Y4946D01*
G01X4391Y4948D01*
G01X4387Y4949D01*
G01X4383Y4950D01*
G01X4379Y4951D01*
G01X4375Y4952D01*
G01X4371Y4953D01*
G01X4367Y4954D01*
G01X4363Y4954D01*
G01X4359Y4954D01*
G01X4355Y4955D01*
G01X4197Y4955D01*
G01X4197Y4700D01*
G01X4181Y4707D01*
G01X4161Y4714D01*
G01X4161Y4561D01*
G01X4314Y4561D01*
G01X4313Y4565D01*
G01X4305Y4586D01*
G01X4295Y4606D01*
G01X4284Y4625D01*
G01X4270Y4643D01*
G01X4255Y4659D01*
G01X4239Y4674D01*
G01X4234Y4677D01*
G01X4400Y4677D01*
G01X4400Y4322D01*
G01X4234Y4322D01*
G01X4239Y4325D01*
G01X4255Y4340D01*
G01X4270Y4356D01*
G01X4284Y4374D01*
G01X4295Y4393D01*
G01X4305Y4413D01*
G01X4313Y4434D01*
G01X4314Y4438D01*
G01X4161Y4438D01*
G01X4161Y4285D01*
G01X4181Y4292D01*
G01X4197Y4299D01*
G01X4197Y4044D01*
G01X4355Y4044D01*
G01X4359Y4045D01*
G01X4363Y4045D01*
G01X4367Y4045D01*
G01X4371Y4046D01*
G01X4375Y4047D01*
G01X4379Y4048D01*
G01X4383Y4049D01*
G01X4387Y4050D01*
G01X4391Y4051D01*
G01X4395Y4053D01*
G01X4398Y4055D01*
G01X4402Y4057D01*
G01X4406Y4059D01*
G01X4409Y4061D01*
G01X4413Y4063D01*
G01X4416Y4066D01*
G01X4419Y4068D01*
G01X4422Y4071D01*
G01X4425Y4074D01*
G01X4428Y4077D01*
G01X4431Y4080D01*
G01X4433Y4083D01*
G01X4436Y4086D01*
G01X4438Y4090D01*
G01X4440Y4093D01*
G01X4442Y4097D01*
G01X4444Y4101D01*
G01X4446Y4104D01*
G01X4447Y4105D01*
G01X4600Y3800D01*
G01X4600Y3300D01*
G37*

%LPC*%
G36*
G01X3144Y4584D02*
G01X3144Y4444D01*
G01X3284Y4444D01*
G01X3281Y4455D01*
G01X3274Y4473D01*
G01X3266Y4490D01*
G01X3256Y4506D01*
G01X3245Y4521D01*
G01X3232Y4535D01*
G01X3218Y4548D01*
G01X3202Y4559D01*
G01X3186Y4568D01*
G01X3169Y4576D01*
G01X3151Y4582D01*
G01X3144Y4584D01*
G37*
G36*
G01X3720Y4045D02*
G01X3725Y4044D01*
G01X3882Y4044D01*
G01X3882Y4322D01*
G01X3625Y4322D01*
G01X3625Y4144D01*
G01X3625Y4140D01*
G01X3625Y4136D01*
G01X3625Y4132D01*
G01X3626Y4128D01*
G01X3627Y4124D01*
G01X3628Y4120D01*
G01X3629Y4116D01*
G01X3630Y4112D01*
G01X3631Y4108D01*
G01X3633Y4104D01*
G01X3635Y4101D01*
G01X3637Y4097D01*
G01X3639Y4093D01*
G01X3641Y4090D01*
G01X3643Y4086D01*
G01X3646Y4083D01*
G01X3648Y4080D01*
G01X3651Y4077D01*
G01X3654Y4074D01*
G01X3657Y4071D01*
G01X3660Y4068D01*
G01X3663Y4066D01*
G01X3666Y4063D01*
G01X3670Y4061D01*
G01X3673Y4059D01*
G01X3677Y4057D01*
G01X3681Y4055D01*
G01X3684Y4053D01*
G01X3688Y4051D01*
G01X3692Y4050D01*
G01X3696Y4049D01*
G01X3700Y4048D01*
G01X3704Y4047D01*
G01X3708Y4046D01*
G01X3712Y4045D01*
G01X3716Y4045D01*
G01X3720Y4045D01*
G37*
G36*
G01X3289Y4183D02*
G01X3289Y4182D01*
G01X3386Y4182D01*
G01X3391Y4183D01*
G01X3395Y4183D01*
G01X3399Y4183D01*
G01X3403Y4184D01*
G01X3407Y4185D01*
G01X3411Y4186D01*
G01X3415Y4187D01*
G01X3419Y4188D01*
G01X3423Y4189D01*
G01X3427Y4191D01*
G01X3430Y4193D01*
G01X3434Y4195D01*
G01X3438Y4197D01*
G01X3441Y4199D01*
G01X3445Y4201D01*
G01X3448Y4204D01*
G01X3451Y4206D01*
G01X3454Y4209D01*
G01X3457Y4212D01*
G01X3460Y4215D01*
G01X3463Y4218D01*
G01X3465Y4221D01*
G01X3468Y4224D01*
G01X3470Y4228D01*
G01X3472Y4231D01*
G01X3474Y4235D01*
G01X3476Y4239D01*
G01X3478Y4242D01*
G01X3480Y4246D01*
G01X3481Y4250D01*
G01X3482Y4254D01*
G01X3483Y4258D01*
G01X3484Y4262D01*
G01X3485Y4266D01*
G01X3486Y4270D01*
G01X3486Y4274D01*
G01X3486Y4278D01*
G01X3486Y4282D01*
G01X3486Y4391D01*
G01X3289Y4391D01*
G01X3289Y4183D01*
G37*
G36*
G01X3144Y4355D02*
G01X3144Y4215D01*
G01X3151Y4217D01*
G01X3169Y4223D01*
G01X3186Y4231D01*
G01X3202Y4240D01*
G01X3218Y4251D01*
G01X3232Y4264D01*
G01X3245Y4278D01*
G01X3256Y4293D01*
G01X3266Y4309D01*
G01X3274Y4326D01*
G01X3281Y4344D01*
G01X3284Y4355D01*
G01X3144Y4355D01*
G37*
G36*
G01X3625Y4855D02*
G01X3625Y4677D01*
G01X3882Y4677D01*
G01X3882Y4955D01*
G01X3725Y4955D01*
G01X3720Y4954D01*
G01X3716Y4954D01*
G01X3712Y4954D01*
G01X3708Y4953D01*
G01X3704Y4952D01*
G01X3700Y4951D01*
G01X3696Y4950D01*
G01X3692Y4949D01*
G01X3688Y4948D01*
G01X3684Y4946D01*
G01X3681Y4944D01*
G01X3677Y4942D01*
G01X3673Y4940D01*
G01X3670Y4938D01*
G01X3666Y4936D01*
G01X3663Y4933D01*
G01X3660Y4931D01*
G01X3657Y4928D01*
G01X3654Y4925D01*
G01X3651Y4922D01*
G01X3648Y4919D01*
G01X3646Y4916D01*
G01X3643Y4913D01*
G01X3641Y4909D01*
G01X3639Y4906D01*
G01X3637Y4902D01*
G01X3635Y4898D01*
G01X3633Y4895D01*
G01X3631Y4891D01*
G01X3630Y4887D01*
G01X3629Y4883D01*
G01X3628Y4879D01*
G01X3627Y4875D01*
G01X3626Y4871D01*
G01X3625Y4867D01*
G01X3625Y4863D01*
G01X3625Y4859D01*
G01X3625Y4855D01*
G37*
G36*
G01X4028Y4288D02*
G01X4038Y4285D01*
G01X4038Y4438D01*
G01X3885Y4438D01*
G01X3890Y4423D01*
G01X3899Y4403D01*
G01X3909Y4383D01*
G01X3922Y4365D01*
G01X3936Y4348D01*
G01X3952Y4332D01*
G01X3969Y4318D01*
G01X3988Y4306D01*
G01X4008Y4296D01*
G01X4028Y4288D01*
G37*
G36*
G01X3289Y4816D02*
G01X3289Y4608D01*
G01X3486Y4608D01*
G01X3486Y4717D01*
G01X3486Y4721D01*
G01X3486Y4725D01*
G01X3486Y4729D01*
G01X3485Y4733D01*
G01X3484Y4737D01*
G01X3483Y4741D01*
G01X3482Y4745D01*
G01X3481Y4749D01*
G01X3480Y4753D01*
G01X3478Y4757D01*
G01X3476Y4760D01*
G01X3474Y4764D01*
G01X3472Y4768D01*
G01X3470Y4771D01*
G01X3468Y4775D01*
G01X3465Y4778D01*
G01X3463Y4781D01*
G01X3460Y4784D01*
G01X3457Y4787D01*
G01X3454Y4790D01*
G01X3451Y4793D01*
G01X3448Y4795D01*
G01X3445Y4798D01*
G01X3441Y4800D01*
G01X3438Y4802D01*
G01X3434Y4804D01*
G01X3430Y4806D01*
G01X3427Y4808D01*
G01X3423Y4810D01*
G01X3419Y4811D01*
G01X3415Y4812D01*
G01X3411Y4813D01*
G01X3407Y4814D01*
G01X3403Y4815D01*
G01X3399Y4816D01*
G01X3395Y4816D01*
G01X3391Y4816D01*
G01X3386Y4817D01*
G01X3289Y4817D01*
G01X3289Y4816D01*
G37*
G36*
G01X3890Y4576D02*
G01X3885Y4561D01*
G01X4038Y4561D01*
G01X4038Y4714D01*
G01X4028Y4711D01*
G01X4008Y4703D01*
G01X3988Y4693D01*
G01X3969Y4681D01*
G01X3952Y4667D01*
G01X3936Y4651D01*
G01X3922Y4634D01*
G01X3909Y4616D01*
G01X3899Y4596D01*
G01X3890Y4576D01*
G37*

%LPD*%
G36*
G01X7000Y3200D02*
G01X6300Y3200D01*
G01X5900Y3700D01*
G01X4900Y4100D01*
G01X4900Y5800D01*
G01X7000Y5800D01*
G01X7000Y3200D01*
G37*

%LPC*%

%LPD*%
G36*
G01X6900Y7500D02*
G01X5400Y7500D01*
G01X5400Y9700D01*
G01X6900Y9700D01*
G01X6900Y7500D01*
G37*

%LPC*%

%LPD*%
G54D11*
G01X3418Y2666D02*
G01X3418Y2666D01*
G01X3418Y2666D01*
G01X3418Y2666D01*
G01X3459Y2980D01*
G54D12*
G01X4410Y2710D02*
G01X4400Y2710D01*
G01X4400Y2700D01*
G54D13*
G01X3419Y3467D02*
G01X3457Y2984D01*
G01X3457Y2984D01*
G54D14*
G01X4418Y3467D02*
G01X4439Y2984D01*
G01X4439Y2984D01*
G54D15*
G01X4130Y2666D02*
G01X4144Y2353D01*
G01X4144Y2453D01*
G01X3651Y3080D02*
G01X3651Y2748D01*
G01X3700Y2700D01*
G54D16*
G01X3400Y3500D02*
G01X4400Y3500D01*
G54D17*
G01X5150Y7919D02*
G01X5150Y8450D01*
G01X5100Y8500D01*
G01X7150Y9280D02*
G01X7150Y9750D01*
G01X7000Y9900D01*
G54D18*
G01X6650Y7919D02*
G01X6900Y8000D01*
G01X7300Y7961D01*
G01X7300Y7961D01*
G54D17*
G01X5100Y8500D02*
G01X5100Y8738D01*
G01X5000Y8838D01*
G54D18*
G01X5000Y9390D02*
G01X5539Y9390D01*
G01X5650Y9280D01*
G54D16*
G01X4200Y11690D02*
G01X5621Y11690D01*
G01X5650Y11719D01*
G01X5650Y11719D02*
G01X6150Y11719D01*
G01X6150Y11719D02*
G01X6650Y11719D01*
G01X6650Y11719D02*
G01X7150Y11719D01*
G01X6650Y5480D02*
G01X6150Y5480D01*
G01X6150Y5480D02*
G01X5650Y5480D01*
G01X5650Y5480D02*
G01X5150Y5480D01*
G54D17*
G01X4200Y9809D02*
G01X4200Y9090D01*
G01X5000Y8838D02*
G01X4500Y8900D01*
G01X4200Y9090D01*
G01X2551Y7878D02*
G01X1959Y7878D01*
G01X1880Y7800D01*
G01X1801Y8430D02*
G01X1800Y8700D01*
G01X1996Y8800D01*
G01X3700Y8800D01*
G01X3700Y8700D01*
G01X3800Y8600D01*
G01X4138Y8600D01*
G01X4200Y8538D01*
G01X1250Y7878D02*
G01X859Y7878D01*
G01X600Y8138D01*
G01X1250Y7563D02*
G01X903Y7563D01*
G01X600Y7261D01*
G01X2549Y8194D02*
G01X2805Y8194D01*
G01X3100Y7900D01*
G01X3100Y7400D01*
G01X3200Y7300D01*
G01X3309Y7300D01*
G01X3500Y7109D01*
G01X3500Y7109D02*
G01X3500Y6390D01*
G01X4200Y7109D02*
G01X4200Y6390D01*
G01X2274Y7169D02*
G01X2330Y7169D01*
G01X2500Y7000D01*
G01X2500Y6690D01*
G01X2800Y6390D01*
G01X2055Y4913D02*
G01X2055Y5355D01*
G01X2100Y5400D01*
G01X1544Y4913D02*
G01X1544Y5144D01*
G01X1600Y5200D01*
G01X1600Y5200D02*
G01X1644Y5200D01*
G01X1644Y7170D01*
G01X2100Y5400D02*
G01X1959Y5400D01*
G01X1959Y7169D01*
G01X2274Y8430D02*
G01X2769Y8430D01*
G01X3100Y8100D01*
G01X4600Y8100D01*
G01X4700Y8000D01*
G01X4700Y7500D01*
G01X4490Y7300D01*
G01X4300Y7109D01*
G01X3900Y7800D02*
G01X3639Y7800D01*
G01X3500Y7660D01*
G01X3900Y7800D02*
G01X4160Y7800D01*
G01X4300Y7660D01*
G01X1200Y7000D02*
G01X860Y7000D01*
G01X600Y7260D01*
G01X4144Y2353D02*
G01X4144Y2644D01*
G01X4063Y2650D01*
G01X1249Y7406D02*
G01X1249Y7349D01*
G01X1100Y7200D01*
G01X4900Y9390D02*
G01X4900Y10000D01*
G01X4200Y11139D02*
G01X4200Y10360D01*
G01X2550Y7563D02*
G01X2836Y7563D01*
G01X2900Y7500D01*
G01X2700Y7200D02*
G01X2700Y7257D01*
G01X2550Y7406D01*
G01X500Y10200D02*
G01X500Y10075D01*
G01X1175Y9400D01*
G01X1500Y10200D02*
G01X2009Y10200D01*
G01X2560Y10200D02*
G01X2560Y9951D01*
G01X2009Y9400D01*
G01X2009Y9400D02*
G01X1175Y9400D01*
G01X2560Y9400D02*
G01X2560Y9260D01*
G01X2300Y9000D01*
G01X1600Y9000D01*
G01X1500Y8900D01*
G01X1500Y8442D01*
G01X1487Y8429D01*
G01X2009Y10200D02*
G01X2009Y10690D01*
G01X2000Y10700D01*
G01X3190Y4500D02*
G01X3190Y3695D01*
G01X3418Y3466D01*
G54D14*
G01X4400Y2700D02*
G01X4400Y2700D01*
G01X4439Y2984D02*
G01X4439Y2739D01*
G01X4400Y2700D01*
G54D11*
G01X4340Y2353D02*
G01X4340Y2592D01*
G54D13*
G01X3357Y2353D02*
G01X3357Y2605D01*
G01X3418Y2666D01*
G54D11*
G01X4400Y2700D02*
G01X4400Y2651D01*
G01X4340Y2592D01*
G54D19*
G01X3553Y2501D02*
G01X3553Y2205D01*
G01X3750Y2501D02*
G01X3750Y2205D01*
G01X3948Y2501D02*
G01X3948Y2205D01*
G01X4144Y2501D02*
G01X4144Y2205D01*
G54D20*
G01X2759Y2492D02*
G01X2759Y2215D01*
G54D19*
G01X2963Y2501D02*
G01X2963Y2205D01*
G01X3159Y2501D02*
G01X3159Y2205D01*
G01X3357Y2501D02*
G01X3357Y2205D01*
G01X4340Y2501D02*
G01X4340Y2205D01*
G01X4538Y2501D02*
G01X4538Y2205D01*
G01X4735Y2501D02*
G01X4735Y2205D01*
G54D20*
G01X4939Y2492D02*
G01X4939Y2215D01*
G54D19*
G01X3651Y3132D02*
G01X3651Y2836D01*
G01X3848Y3132D02*
G01X3848Y2836D01*
G01X4046Y3132D02*
G01X4046Y2836D01*
G01X4243Y3132D02*
G01X4243Y2836D01*
G54D20*
G01X2857Y3121D02*
G01X2857Y2846D01*
G54D19*
G01X3061Y3132D02*
G01X3061Y2836D01*
G01X3259Y3132D02*
G01X3259Y2836D01*
G01X4439Y3132D02*
G01X4439Y2836D01*
G01X4636Y3132D02*
G01X4636Y2836D01*
G01X4832Y3132D02*
G01X4832Y2836D01*
G54D20*
G01X5038Y3121D02*
G01X5038Y2846D01*
G54D19*
G01X3457Y3132D02*
G01X3457Y2836D01*
G54D21*
G01X5150Y5696D02*
G01X5150Y5263D01*
G01X5650Y5696D02*
G01X5650Y5263D01*
G01X6150Y5696D02*
G01X6150Y5263D01*
G01X6650Y5696D02*
G01X6650Y5263D01*
G01X5150Y8136D02*
G01X5150Y7703D01*
G01X5650Y8136D02*
G01X5650Y7703D01*
G01X6150Y8136D02*
G01X6150Y7703D01*
G01X6650Y8136D02*
G01X6650Y7703D01*
G01X7150Y11503D02*
G01X7150Y11936D01*
G01X6650Y11503D02*
G01X6650Y11936D01*
G01X6150Y11503D02*
G01X6150Y11936D01*
G01X5650Y11503D02*
G01X5650Y11936D01*
G01X7150Y9063D02*
G01X7150Y9496D01*
G01X6650Y9063D02*
G01X6650Y9496D01*
G01X6150Y9063D02*
G01X6150Y9496D01*
G01X5650Y9063D02*
G01X5650Y9496D01*
G54D24*
G01X1880Y7800D03*
G54D25*
G01X1486Y7169D03*
G01X1644Y7170D03*
G01X1801Y7169D03*
G01X1959Y7169D03*
G01X2117Y7169D03*
G01X2274Y7169D03*
G54D26*
G01X2550Y7406D03*
G01X2550Y7563D03*
G01X2550Y7721D03*
G01X2550Y7879D03*
G01X2549Y8036D03*
G01X2549Y8194D03*
G54D25*
G01X2274Y8430D03*
G01X2117Y8430D03*
G01X1958Y8429D03*
G01X1801Y8430D03*
G01X1643Y8430D03*
G01X1487Y8429D03*
G54D26*
G01X1249Y8194D03*
G01X1249Y8037D03*
G01X1249Y7879D03*
G01X1249Y7721D03*
G01X1249Y7563D03*
G01X1249Y7406D03*
G54D27*
G01X600Y7260D03*
G01X600Y6709D03*
G01X600Y8139D03*
G01X600Y8690D03*
G01X7300Y7960D03*
G01X7300Y7409D03*
G01X4200Y8539D03*
G01X4200Y9090D03*
G01X4900Y8839D03*
G01X4900Y9390D03*
G01X4200Y10360D03*
G01X4200Y9809D03*
G01X4200Y11139D03*
G01X4200Y11690D03*
G54D28*
G01X5160Y4500D03*
G01X4040Y4500D03*
G54D29*
G01X2639Y4500D03*
G01X3190Y4500D03*
G01X7360Y3600D03*
G01X6809Y3600D03*
G54D30*
G01X6718Y4500D03*
G01X7481Y4500D03*
G54D27*
G01X2800Y5839D03*
G01X2800Y6390D03*
G01X3500Y5839D03*
G01X3500Y6390D03*
G01X4200Y5839D03*
G01X4200Y6390D03*
G01X4300Y7660D03*
G01X4300Y7109D03*
G01X3500Y7660D03*
G01X3500Y7109D03*
G54D31*
G01X2055Y4913D03*
G01X1544Y4913D03*
G01X1800Y4086D03*
G54D32*
G01X1500Y10200D03*
G01X500Y10200D03*
G54D29*
G01X2560Y10200D03*
G01X2009Y10200D03*
G01X2560Y9400D03*
G01X2009Y9400D03*
G01X624Y9400D03*
G01X1175Y9400D03*
G54D33*
G01X700Y3200D03*
G01X700Y4200D03*
G54D34*
G01X700Y5200D03*
G54D35*
G01X4300Y12700D03*
G54D36*
G01X3300Y12700D03*
G54D22*
G01X3100Y4400D03*
G54D23*
G01X4100Y4500D03*
G54D13*
G01X3418Y2666D03*
G01X4400Y2700D03*
G54D22*
G01X4418Y3466D03*
G01X3418Y3466D03*
G01X4063Y2650D03*
G01X3700Y2700D03*
G01X1600Y5200D03*
G01X2100Y5400D03*
G01X5100Y8500D03*
G01X7000Y9900D03*
G01X1200Y7000D03*
G01X2900Y7500D03*
G01X2700Y7200D03*
G01X3900Y7800D03*
G01X1100Y7200D03*
G54D23*
G01X4900Y10000D03*
G54D22*
G01X4100Y5000D03*
G01X3500Y5000D03*
G01X4400Y3700D03*
G01X3200Y3500D03*
G01X3500Y4000D03*
G01X3100Y4100D03*
G01X4400Y3900D03*
G54D23*
G01X2000Y10700D03*
G54D22*
G01X7000Y5500D03*
G54D23*
G01X1800Y7600D03*
G01X2100Y8000D03*
G01X2100Y7600D03*
G01X1100Y8700D03*
G01X2900Y7800D03*
G01X500Y6200D03*
G01X7900Y11600D03*
G01X7900Y12100D03*
G01X7900Y11100D03*
G01X5000Y11100D03*
G01X5000Y10400D03*
G01X6600Y12800D03*
G01X3500Y12800D03*
G01X3500Y12400D03*
G01X3500Y12000D03*
G01X3500Y11600D03*
G01X3500Y11200D03*
G01X3100Y11200D03*
G01X2700Y11200D03*
G01X2300Y11200D03*
G01X1900Y11200D03*
G01X1600Y11000D03*
G01X1500Y10700D03*
G01X1100Y10700D03*
G01X500Y10700D03*
G01X200Y12800D03*
G01X600Y12800D03*
G01X1000Y12800D03*
G01X1400Y12800D03*
G01X1800Y12800D03*
G01X2200Y12800D03*
G01X2600Y12800D03*
G01X3000Y12800D03*
G01X200Y12400D03*
G01X200Y12000D03*
G01X200Y11600D03*
G01X200Y11200D03*
G01X200Y10800D03*
G01X3100Y10400D03*
G01X3600Y10400D03*
G01X3600Y9900D03*
G01X3100Y9900D03*
G01X3100Y9500D03*
G01X3600Y9500D03*
G01X3600Y9100D03*
G01X3100Y9100D03*
G01X2300Y6400D03*
G01X2300Y6000D03*
G01X2300Y5700D03*
G01X4700Y6400D03*
G01X4700Y6000D03*
G54D22*
G01X5700Y4900D03*
G01X6000Y4900D03*
G01X6300Y4900D03*
G01X6600Y4900D03*
G01X5700Y4600D03*
G01X5700Y4300D03*
G01X5700Y4000D03*
G01X6000Y3800D03*
G01X6200Y3500D03*
G01X6300Y3700D03*
G01X6300Y4000D03*
G01X6300Y4300D03*
G01X6300Y4600D03*
G54D23*
G01X5600Y8800D03*
G01X6700Y8800D03*
G01X5600Y8400D03*
G01X6700Y8400D03*
G01X7100Y12800D03*
G01X5000Y12800D03*
G01X5400Y12800D03*
G01X5800Y12800D03*
G01X6200Y12800D03*
G01X6600Y12400D03*
G01X7100Y12400D03*
G01X5000Y12400D03*
G01X5400Y12400D03*
G01X5800Y12400D03*
G01X6200Y12400D03*
G01X4100Y12000D03*
G01X4600Y12000D03*
G01X5000Y12000D03*
G01X5400Y12000D03*
G01X4600Y11600D03*
G01X5000Y11600D03*
G01X5400Y11600D03*
G01X7200Y8600D03*
G01X7200Y6100D03*
G01X7200Y6700D03*
G01X7900Y10600D03*
G01X7900Y10100D03*
G01X7900Y9600D03*
G01X7900Y9100D03*
G01X7900Y8600D03*
G01X7900Y8100D03*
G01X7900Y7600D03*
G01X7900Y7000D03*
G01X7900Y6400D03*
G01X7900Y5900D03*
G01X7900Y5300D03*
G01X7900Y4700D03*
G01X7900Y4200D03*
G01X7900Y3600D03*
G01X7900Y3000D03*
G01X7900Y2500D03*
G01X7900Y1900D03*
G01X7900Y1300D03*
G01X7900Y700D03*
G01X7900Y200D03*
G01X7900Y200D03*
G01X7400Y200D03*
G01X6900Y200D03*
G01X6200Y2800D03*
G01X6600Y2800D03*
G01X7000Y2800D03*
G01X7500Y2800D03*
G01X2600Y3800D03*
G01X2100Y3800D03*
G01X1500Y3800D03*
G01X1500Y3300D03*
G01X1500Y2800D03*
G01X1500Y2400D03*
G01X1500Y1900D03*
G01X1500Y1400D03*
G01X1100Y1100D03*
G01X600Y1100D03*
G01X200Y700D03*
G01X200Y200D03*
G01X600Y200D03*
G01X1000Y200D03*
G54D22*
G01X3600Y3500D03*
G01X3600Y3800D03*
G01X3100Y3800D03*
G54D23*
G01X6300Y8400D03*
G01X6000Y8400D03*
G01X6000Y8800D03*
G01X6300Y8800D03*
G54D37*
G01X5601Y2873D02*
G01X5601Y2638D01*
G01X2198Y2873D02*
G01X2198Y2638D01*
G54D38*
G01X6214Y471D02*
G01X6214Y865D01*
G01X6214Y709D02*
G01X6214Y432D01*
G01X1584Y471D02*
G01X1584Y865D01*
G01X1588Y709D02*
G01X1588Y432D01*
G01X5385Y2617D02*
G01X5581Y2617D01*
G01X2219Y2619D02*
G01X2415Y2619D01*
M00*
M02*
