G04 ---------------------------- Layer name :BOTTOM LAYER*
G04 EasyEDA v5.8.22, Wed, 26 Dec 2018 05:37:28 GMT*
G04 8ad1f06e4ff34cadb9936333048842b5*
G04 Gerber Generator version 0.2*
G04 Scale: 100 percent, Rotated: No, Reflected: No *
G04 Dimensions in inches *
G04 leading zeros omitted , absolute positions ,2 integer and 4 decimal *
%FSLAX24Y24*%
%MOIN*%
G90*
G70D02*

%ADD13C,0.020000*%
%ADD17C,0.008000*%
%ADD22C,0.017716*%
%ADD23C,0.024400*%
%ADD33C,0.062000*%
%ADD34R,0.062000X0.062000*%
%ADD35R,0.066929X0.062000*%
%ADD36C,0.066929*%
%ADD37C,0.047240*%
%ADD38C,0.043307*%
%ADD39C,0.030000*%

%LPD*%
G36*
G01X1900Y0D02*
G01X0Y0D01*
G01X0Y13200D01*
G01X3800Y13200D01*
G01X3800Y11450D01*
G01X3800Y11445D01*
G01X3800Y11441D01*
G01X3800Y11437D01*
G01X3801Y11433D01*
G01X3802Y11429D01*
G01X3803Y11425D01*
G01X3804Y11421D01*
G01X3805Y11417D01*
G01X3806Y11413D01*
G01X3808Y11409D01*
G01X3810Y11406D01*
G01X3812Y11402D01*
G01X3814Y11398D01*
G01X3816Y11395D01*
G01X3818Y11391D01*
G01X3821Y11388D01*
G01X3823Y11385D01*
G01X3826Y11382D01*
G01X3829Y11379D01*
G01X3832Y11376D01*
G01X3835Y11373D01*
G01X3838Y11371D01*
G01X3841Y11368D01*
G01X3845Y11366D01*
G01X3848Y11364D01*
G01X3852Y11362D01*
G01X3856Y11360D01*
G01X3859Y11358D01*
G01X3863Y11356D01*
G01X3867Y11355D01*
G01X3871Y11354D01*
G01X3875Y11353D01*
G01X3879Y11352D01*
G01X3883Y11351D01*
G01X3887Y11350D01*
G01X3891Y11350D01*
G01X3895Y11350D01*
G01X3900Y11350D01*
G01X7500Y11350D01*
G01X7504Y11350D01*
G01X7508Y11350D01*
G01X7512Y11350D01*
G01X7516Y11351D01*
G01X7520Y11352D01*
G01X7524Y11353D01*
G01X7528Y11354D01*
G01X7532Y11355D01*
G01X7536Y11356D01*
G01X7540Y11358D01*
G01X7543Y11360D01*
G01X7547Y11362D01*
G01X7551Y11364D01*
G01X7554Y11366D01*
G01X7558Y11368D01*
G01X7561Y11371D01*
G01X7564Y11373D01*
G01X7567Y11376D01*
G01X7570Y11379D01*
G01X7573Y11382D01*
G01X7576Y11385D01*
G01X7578Y11388D01*
G01X7581Y11391D01*
G01X7583Y11395D01*
G01X7585Y11398D01*
G01X7587Y11402D01*
G01X7589Y11406D01*
G01X7591Y11409D01*
G01X7593Y11413D01*
G01X7594Y11417D01*
G01X7595Y11421D01*
G01X7596Y11425D01*
G01X7597Y11429D01*
G01X7598Y11433D01*
G01X7599Y11437D01*
G01X7599Y11441D01*
G01X7599Y11445D01*
G01X7600Y11450D01*
G01X7600Y13200D01*
G01X8200Y13200D01*
G01X8200Y0D01*
G01X5896Y0D01*
G01X5757Y150D01*
G01X5757Y1650D01*
G01X5777Y1651D01*
G01X5802Y1654D01*
G01X5828Y1660D01*
G01X5852Y1668D01*
G01X5875Y1678D01*
G01X5898Y1691D01*
G01X5919Y1706D01*
G01X5938Y1723D01*
G01X5956Y1742D01*
G01X5971Y1763D01*
G01X5985Y1785D01*
G01X5996Y1808D01*
G01X6005Y1832D01*
G01X6011Y1857D01*
G01X6015Y1883D01*
G01X6016Y1909D01*
G01X6015Y1934D01*
G01X6011Y1960D01*
G01X6005Y1985D01*
G01X5996Y2009D01*
G01X5985Y2032D01*
G01X5971Y2054D01*
G01X5956Y2075D01*
G01X5938Y2094D01*
G01X5919Y2111D01*
G01X5898Y2126D01*
G01X5875Y2139D01*
G01X5852Y2149D01*
G01X5828Y2157D01*
G01X5802Y2163D01*
G01X5777Y2166D01*
G01X5751Y2167D01*
G01X5725Y2165D01*
G01X5700Y2161D01*
G01X5675Y2154D01*
G01X5651Y2144D01*
G01X5628Y2132D01*
G01X5607Y2118D01*
G01X5586Y2102D01*
G01X5568Y2084D01*
G01X5551Y2065D01*
G01X5537Y2043D01*
G01X5534Y2039D01*
G01X2263Y2039D01*
G01X2254Y2054D01*
G01X2239Y2075D01*
G01X2221Y2094D01*
G01X2202Y2111D01*
G01X2181Y2126D01*
G01X2158Y2139D01*
G01X2135Y2149D01*
G01X2111Y2157D01*
G01X2085Y2163D01*
G01X2060Y2166D01*
G01X2034Y2167D01*
G01X2008Y2165D01*
G01X1983Y2161D01*
G01X1958Y2154D01*
G01X1934Y2144D01*
G01X1911Y2132D01*
G01X1890Y2118D01*
G01X1869Y2102D01*
G01X1851Y2084D01*
G01X1834Y2065D01*
G01X1820Y2043D01*
G01X1808Y2021D01*
G01X1798Y1997D01*
G01X1790Y1972D01*
G01X1785Y1947D01*
G01X1782Y1921D01*
G01X1782Y1896D01*
G01X1785Y1870D01*
G01X1790Y1845D01*
G01X1798Y1820D01*
G01X1808Y1796D01*
G01X1820Y1774D01*
G01X1834Y1752D01*
G01X1851Y1733D01*
G01X1869Y1715D01*
G01X1890Y1699D01*
G01X1911Y1685D01*
G01X1934Y1673D01*
G01X1958Y1663D01*
G01X1983Y1657D01*
G01X2008Y1652D01*
G01X2034Y1650D01*
G01X2039Y1650D01*
G01X2045Y149D01*
G01X1900Y0D01*
G37*

%LPC*%
G36*
G01X2907Y12889D02*
G01X2898Y12867D01*
G01X3132Y12867D01*
G01X3132Y13101D01*
G01X3120Y13097D01*
G01X3082Y13077D01*
G01X3045Y13053D01*
G01X3011Y13026D01*
G01X2980Y12996D01*
G01X2952Y12963D01*
G01X2928Y12927D01*
G01X2907Y12889D01*
G37*
G36*
G01X1697Y176D02*
G01X1697Y135D01*
G01X1702Y137D01*
G01X1706Y139D01*
G01X1716Y143D01*
G01X1721Y145D01*
G01X1731Y150D01*
G01X1735Y152D01*
G01X1745Y157D01*
G01X1749Y160D01*
G01X1758Y165D01*
G01X1762Y168D01*
G01X1771Y174D01*
G01X1775Y177D01*
G01X1784Y183D01*
G01X1788Y187D01*
G01X1796Y194D01*
G01X1800Y197D01*
G01X1808Y204D01*
G01X1811Y208D01*
G01X1819Y215D01*
G01X1822Y219D01*
G01X1829Y227D01*
G01X1833Y231D01*
G01X1839Y239D01*
G01X1842Y243D01*
G01X1849Y252D01*
G01X1851Y256D01*
G01X1857Y265D01*
G01X1860Y270D01*
G01X1865Y279D01*
G01X1868Y283D01*
G01X1873Y293D01*
G01X1875Y297D01*
G01X1879Y307D01*
G01X1881Y312D01*
G01X1885Y322D01*
G01X1887Y327D01*
G01X1890Y337D01*
G01X1892Y342D01*
G01X1895Y352D01*
G01X1896Y357D01*
G01X1898Y367D01*
G01X1899Y372D01*
G01X1901Y383D01*
G01X1902Y388D01*
G01X1903Y393D01*
G01X1890Y393D01*
G01X1891Y396D01*
G01X1893Y406D01*
G01X1894Y411D01*
G01X1896Y422D01*
G01X1897Y427D01*
G01X1898Y438D01*
G01X1899Y442D01*
G01X1899Y453D01*
G01X1900Y458D01*
G01X1900Y462D01*
G01X1692Y462D01*
G01X1692Y174D01*
G01X1697Y176D01*
G37*
G36*
G01X1475Y137D02*
G01X1480Y135D01*
G01X1480Y393D01*
G01X1475Y393D01*
G01X1475Y462D01*
G01X1267Y462D01*
G01X1267Y458D01*
G01X1268Y453D01*
G01X1268Y442D01*
G01X1269Y438D01*
G01X1270Y427D01*
G01X1271Y422D01*
G01X1273Y411D01*
G01X1274Y406D01*
G01X1276Y396D01*
G01X1277Y393D01*
G01X1274Y393D01*
G01X1275Y388D01*
G01X1276Y383D01*
G01X1278Y372D01*
G01X1279Y367D01*
G01X1281Y357D01*
G01X1282Y352D01*
G01X1285Y342D01*
G01X1287Y337D01*
G01X1290Y327D01*
G01X1292Y322D01*
G01X1296Y312D01*
G01X1298Y307D01*
G01X1302Y297D01*
G01X1304Y293D01*
G01X1309Y283D01*
G01X1312Y279D01*
G01X1317Y270D01*
G01X1320Y265D01*
G01X1326Y256D01*
G01X1328Y252D01*
G01X1335Y243D01*
G01X1338Y239D01*
G01X1344Y231D01*
G01X1348Y227D01*
G01X1355Y219D01*
G01X1358Y215D01*
G01X1366Y208D01*
G01X1369Y204D01*
G01X1377Y197D01*
G01X1381Y194D01*
G01X1389Y187D01*
G01X1393Y183D01*
G01X1402Y177D01*
G01X1406Y174D01*
G01X1415Y168D01*
G01X1419Y165D01*
G01X1428Y160D01*
G01X1432Y157D01*
G01X1442Y152D01*
G01X1446Y150D01*
G01X1456Y145D01*
G01X1461Y143D01*
G01X1471Y139D01*
G01X1475Y137D01*
G37*
G36*
G01X6323Y462D02*
G01X6323Y135D01*
G01X6328Y137D01*
G01X6332Y139D01*
G01X6342Y143D01*
G01X6347Y145D01*
G01X6357Y150D01*
G01X6361Y152D01*
G01X6371Y157D01*
G01X6375Y160D01*
G01X6384Y165D01*
G01X6388Y168D01*
G01X6397Y174D01*
G01X6401Y177D01*
G01X6410Y183D01*
G01X6414Y187D01*
G01X6422Y194D01*
G01X6426Y197D01*
G01X6434Y204D01*
G01X6437Y208D01*
G01X6445Y215D01*
G01X6448Y219D01*
G01X6455Y227D01*
G01X6459Y231D01*
G01X6465Y239D01*
G01X6468Y243D01*
G01X6475Y252D01*
G01X6477Y256D01*
G01X6483Y265D01*
G01X6486Y270D01*
G01X6491Y279D01*
G01X6494Y283D01*
G01X6499Y293D01*
G01X6501Y297D01*
G01X6505Y307D01*
G01X6507Y312D01*
G01X6511Y322D01*
G01X6513Y327D01*
G01X6516Y337D01*
G01X6518Y342D01*
G01X6521Y352D01*
G01X6522Y357D01*
G01X6524Y367D01*
G01X6525Y372D01*
G01X6527Y383D01*
G01X6528Y388D01*
G01X6529Y393D01*
G01X6521Y393D01*
G01X6522Y396D01*
G01X6524Y406D01*
G01X6525Y411D01*
G01X6527Y422D01*
G01X6528Y427D01*
G01X6529Y438D01*
G01X6530Y442D01*
G01X6530Y453D01*
G01X6531Y458D01*
G01X6531Y462D01*
G01X6323Y462D01*
G37*
G36*
G01X6101Y137D02*
G01X6106Y135D01*
G01X6106Y462D01*
G01X5898Y462D01*
G01X5898Y458D01*
G01X5899Y453D01*
G01X5899Y442D01*
G01X5900Y438D01*
G01X5901Y427D01*
G01X5902Y422D01*
G01X5904Y411D01*
G01X5905Y406D01*
G01X5907Y396D01*
G01X5908Y393D01*
G01X5900Y393D01*
G01X5901Y388D01*
G01X5902Y383D01*
G01X5904Y372D01*
G01X5905Y367D01*
G01X5907Y357D01*
G01X5908Y352D01*
G01X5911Y342D01*
G01X5913Y337D01*
G01X5916Y327D01*
G01X5918Y322D01*
G01X5922Y312D01*
G01X5924Y307D01*
G01X5928Y297D01*
G01X5930Y293D01*
G01X5935Y283D01*
G01X5938Y279D01*
G01X5943Y270D01*
G01X5946Y265D01*
G01X5952Y256D01*
G01X5954Y252D01*
G01X5961Y243D01*
G01X5964Y239D01*
G01X5970Y231D01*
G01X5974Y227D01*
G01X5981Y219D01*
G01X5984Y215D01*
G01X5992Y208D01*
G01X5995Y204D01*
G01X6003Y197D01*
G01X6007Y194D01*
G01X6015Y187D01*
G01X6019Y183D01*
G01X6028Y177D01*
G01X6032Y174D01*
G01X6041Y168D01*
G01X6045Y165D01*
G01X6054Y160D01*
G01X6058Y157D01*
G01X6068Y152D01*
G01X6072Y150D01*
G01X6082Y145D01*
G01X6087Y143D01*
G01X6097Y139D01*
G01X6101Y137D01*
G37*
G36*
G01X3467Y13101D02*
G01X3467Y12867D01*
G01X3702Y12867D01*
G01X3701Y12869D01*
G01X3682Y12908D01*
G01X3659Y12945D01*
G01X3633Y12980D01*
G01X3604Y13011D01*
G01X3571Y13040D01*
G01X3536Y13065D01*
G01X3498Y13087D01*
G01X3467Y13101D01*
G37*
G36*
G01X3120Y12302D02*
G01X3132Y12298D01*
G01X3132Y12532D01*
G01X2898Y12532D01*
G01X2907Y12510D01*
G01X2928Y12472D01*
G01X2952Y12436D01*
G01X2980Y12403D01*
G01X3011Y12373D01*
G01X3045Y12346D01*
G01X3082Y12322D01*
G01X3120Y12302D01*
G37*
G36*
G01X3467Y12532D02*
G01X3467Y12298D01*
G01X3498Y12312D01*
G01X3536Y12334D01*
G01X3571Y12359D01*
G01X3604Y12388D01*
G01X3633Y12419D01*
G01X3659Y12454D01*
G01X3682Y12491D01*
G01X3701Y12530D01*
G01X3702Y12532D01*
G01X3467Y12532D01*
G37*
G36*
G01X5395Y7400D02*
G01X5400Y7400D01*
G01X6900Y7400D01*
G01X6904Y7400D01*
G01X6908Y7400D01*
G01X6912Y7400D01*
G01X6916Y7401D01*
G01X6920Y7402D01*
G01X6924Y7403D01*
G01X6928Y7404D01*
G01X6932Y7405D01*
G01X6936Y7406D01*
G01X6940Y7408D01*
G01X6943Y7410D01*
G01X6947Y7412D01*
G01X6951Y7414D01*
G01X6954Y7416D01*
G01X6958Y7418D01*
G01X6961Y7421D01*
G01X6964Y7423D01*
G01X6967Y7426D01*
G01X6970Y7429D01*
G01X6973Y7432D01*
G01X6976Y7435D01*
G01X6978Y7438D01*
G01X6981Y7441D01*
G01X6983Y7445D01*
G01X6985Y7448D01*
G01X6987Y7452D01*
G01X6989Y7456D01*
G01X6991Y7459D01*
G01X6993Y7463D01*
G01X6994Y7467D01*
G01X6995Y7471D01*
G01X6996Y7475D01*
G01X6997Y7479D01*
G01X6998Y7483D01*
G01X6999Y7487D01*
G01X6999Y7491D01*
G01X6999Y7495D01*
G01X7000Y7500D01*
G01X7000Y9700D01*
G01X6999Y9704D01*
G01X6999Y9708D01*
G01X6999Y9710D01*
G01X7014Y9710D01*
G01X7032Y9713D01*
G01X7051Y9717D01*
G01X7069Y9723D01*
G01X7086Y9731D01*
G01X7102Y9740D01*
G01X7118Y9751D01*
G01X7132Y9764D01*
G01X7145Y9778D01*
G01X7156Y9793D01*
G01X7166Y9809D01*
G01X7174Y9826D01*
G01X7181Y9844D01*
G01X7185Y9862D01*
G01X7188Y9881D01*
G01X7189Y9900D01*
G01X7188Y9918D01*
G01X7185Y9937D01*
G01X7181Y9955D01*
G01X7174Y9973D01*
G01X7166Y9990D01*
G01X7156Y10006D01*
G01X7145Y10021D01*
G01X7132Y10035D01*
G01X7118Y10048D01*
G01X7102Y10059D01*
G01X7086Y10068D01*
G01X7069Y10076D01*
G01X7051Y10082D01*
G01X7032Y10086D01*
G01X7014Y10089D01*
G01X6995Y10089D01*
G01X6976Y10088D01*
G01X6957Y10084D01*
G01X6939Y10079D01*
G01X6922Y10072D01*
G01X6905Y10064D01*
G01X6889Y10053D01*
G01X6874Y10042D01*
G01X6872Y10040D01*
G01X5300Y10040D01*
G01X5295Y10039D01*
G01X5290Y10039D01*
G01X5285Y10039D01*
G01X5280Y10038D01*
G01X5275Y10037D01*
G01X5270Y10036D01*
G01X5266Y10035D01*
G01X5261Y10034D01*
G01X5256Y10033D01*
G01X5252Y10031D01*
G01X5247Y10029D01*
G01X5243Y10027D01*
G01X5238Y10025D01*
G01X5234Y10023D01*
G01X5230Y10021D01*
G01X5225Y10018D01*
G01X5221Y10016D01*
G01X5217Y10013D01*
G01X5213Y10010D01*
G01X5210Y10007D01*
G01X5206Y10004D01*
G01X5202Y10000D01*
G01X5199Y9997D01*
G01X5195Y9993D01*
G01X5192Y9989D01*
G01X5189Y9986D01*
G01X5186Y9982D01*
G01X5183Y9978D01*
G01X5181Y9974D01*
G01X5178Y9969D01*
G01X5176Y9965D01*
G01X5174Y9961D01*
G01X5172Y9956D01*
G01X5170Y9952D01*
G01X5168Y9947D01*
G01X5166Y9943D01*
G01X5165Y9938D01*
G01X5164Y9933D01*
G01X5163Y9929D01*
G01X5162Y9924D01*
G01X5161Y9919D01*
G01X5160Y9914D01*
G01X5160Y9909D01*
G01X5160Y9904D01*
G01X5160Y9900D01*
G01X5160Y8679D01*
G01X5151Y8682D01*
G01X5132Y8686D01*
G01X5114Y8689D01*
G01X5095Y8689D01*
G01X5076Y8688D01*
G01X5057Y8684D01*
G01X5039Y8679D01*
G01X5022Y8672D01*
G01X5005Y8664D01*
G01X4989Y8653D01*
G01X4974Y8642D01*
G01X4961Y8628D01*
G01X4948Y8614D01*
G01X4938Y8598D01*
G01X4929Y8582D01*
G01X4921Y8564D01*
G01X4916Y8546D01*
G01X4912Y8528D01*
G01X4910Y8509D01*
G01X4910Y8490D01*
G01X4912Y8471D01*
G01X4916Y8453D01*
G01X4921Y8435D01*
G01X4929Y8417D01*
G01X4938Y8401D01*
G01X4948Y8385D01*
G01X4961Y8371D01*
G01X4974Y8357D01*
G01X4989Y8346D01*
G01X5005Y8335D01*
G01X5022Y8327D01*
G01X5039Y8320D01*
G01X5057Y8315D01*
G01X5076Y8311D01*
G01X5095Y8310D01*
G01X5114Y8310D01*
G01X5132Y8313D01*
G01X5151Y8317D01*
G01X5169Y8323D01*
G01X5186Y8331D01*
G01X5202Y8340D01*
G01X5218Y8351D01*
G01X5227Y8359D01*
G01X5300Y8359D01*
G01X5300Y7500D01*
G01X5300Y7495D01*
G01X5300Y7491D01*
G01X5300Y7487D01*
G01X5301Y7483D01*
G01X5302Y7479D01*
G01X5303Y7475D01*
G01X5304Y7471D01*
G01X5305Y7467D01*
G01X5306Y7463D01*
G01X5308Y7459D01*
G01X5310Y7456D01*
G01X5312Y7452D01*
G01X5314Y7448D01*
G01X5316Y7445D01*
G01X5318Y7441D01*
G01X5321Y7438D01*
G01X5323Y7435D01*
G01X5326Y7432D01*
G01X5329Y7429D01*
G01X5332Y7426D01*
G01X5335Y7423D01*
G01X5338Y7421D01*
G01X5341Y7418D01*
G01X5345Y7416D01*
G01X5348Y7414D01*
G01X5352Y7412D01*
G01X5356Y7410D01*
G01X5359Y7408D01*
G01X5363Y7406D01*
G01X5367Y7405D01*
G01X5371Y7404D01*
G01X5375Y7403D01*
G01X5379Y7402D01*
G01X5383Y7401D01*
G01X5387Y7400D01*
G01X5391Y7400D01*
G01X5395Y7400D01*
G37*
G36*
G01X1697Y875D02*
G01X1697Y748D01*
G01X1903Y748D01*
G01X1902Y753D01*
G01X1901Y758D01*
G01X1899Y769D01*
G01X1898Y774D01*
G01X1896Y784D01*
G01X1895Y789D01*
G01X1892Y799D01*
G01X1890Y804D01*
G01X1887Y814D01*
G01X1885Y819D01*
G01X1881Y829D01*
G01X1879Y834D01*
G01X1875Y844D01*
G01X1873Y848D01*
G01X1868Y858D01*
G01X1865Y862D01*
G01X1860Y871D01*
G01X1858Y875D01*
G01X1900Y875D01*
G01X1900Y879D01*
G01X1899Y884D01*
G01X1899Y895D01*
G01X1898Y899D01*
G01X1897Y910D01*
G01X1896Y915D01*
G01X1894Y926D01*
G01X1893Y931D01*
G01X1891Y941D01*
G01X1890Y946D01*
G01X1887Y956D01*
G01X1885Y961D01*
G01X1882Y971D01*
G01X1880Y976D01*
G01X1876Y986D01*
G01X1874Y991D01*
G01X1870Y1001D01*
G01X1868Y1005D01*
G01X1863Y1015D01*
G01X1860Y1019D01*
G01X1855Y1028D01*
G01X1852Y1033D01*
G01X1846Y1042D01*
G01X1844Y1046D01*
G01X1837Y1055D01*
G01X1834Y1059D01*
G01X1828Y1067D01*
G01X1824Y1071D01*
G01X1817Y1079D01*
G01X1814Y1083D01*
G01X1806Y1090D01*
G01X1803Y1094D01*
G01X1795Y1101D01*
G01X1791Y1104D01*
G01X1783Y1111D01*
G01X1779Y1115D01*
G01X1770Y1121D01*
G01X1766Y1124D01*
G01X1757Y1130D01*
G01X1753Y1133D01*
G01X1744Y1138D01*
G01X1740Y1141D01*
G01X1730Y1146D01*
G01X1726Y1148D01*
G01X1716Y1153D01*
G01X1711Y1155D01*
G01X1701Y1159D01*
G01X1697Y1161D01*
G01X1692Y1163D01*
G01X1692Y875D01*
G01X1697Y875D01*
G37*
G36*
G01X1275Y753D02*
G01X1274Y748D01*
G01X1480Y748D01*
G01X1480Y1006D01*
G01X1475Y1004D01*
G01X1475Y1163D01*
G01X1470Y1161D01*
G01X1466Y1159D01*
G01X1456Y1155D01*
G01X1451Y1153D01*
G01X1441Y1148D01*
G01X1437Y1146D01*
G01X1427Y1141D01*
G01X1423Y1138D01*
G01X1414Y1133D01*
G01X1410Y1130D01*
G01X1401Y1124D01*
G01X1397Y1121D01*
G01X1388Y1115D01*
G01X1384Y1111D01*
G01X1376Y1104D01*
G01X1372Y1101D01*
G01X1364Y1094D01*
G01X1361Y1090D01*
G01X1353Y1083D01*
G01X1350Y1079D01*
G01X1343Y1071D01*
G01X1339Y1067D01*
G01X1333Y1059D01*
G01X1330Y1055D01*
G01X1323Y1046D01*
G01X1321Y1042D01*
G01X1315Y1033D01*
G01X1312Y1028D01*
G01X1307Y1019D01*
G01X1304Y1015D01*
G01X1299Y1005D01*
G01X1297Y1001D01*
G01X1293Y991D01*
G01X1291Y986D01*
G01X1287Y976D01*
G01X1285Y971D01*
G01X1282Y961D01*
G01X1280Y956D01*
G01X1277Y946D01*
G01X1276Y941D01*
G01X1274Y931D01*
G01X1273Y926D01*
G01X1271Y915D01*
G01X1270Y910D01*
G01X1269Y899D01*
G01X1268Y895D01*
G01X1268Y884D01*
G01X1267Y879D01*
G01X1267Y875D01*
G01X1319Y875D01*
G01X1317Y871D01*
G01X1312Y862D01*
G01X1309Y858D01*
G01X1304Y848D01*
G01X1302Y844D01*
G01X1298Y834D01*
G01X1296Y829D01*
G01X1292Y819D01*
G01X1290Y814D01*
G01X1287Y804D01*
G01X1285Y799D01*
G01X1282Y789D01*
G01X1281Y784D01*
G01X1279Y774D01*
G01X1278Y769D01*
G01X1276Y758D01*
G01X1275Y753D01*
G37*
G36*
G01X6323Y1163D02*
G01X6323Y748D01*
G01X6529Y748D01*
G01X6528Y753D01*
G01X6527Y758D01*
G01X6525Y769D01*
G01X6524Y774D01*
G01X6522Y784D01*
G01X6521Y789D01*
G01X6518Y799D01*
G01X6516Y804D01*
G01X6513Y814D01*
G01X6511Y819D01*
G01X6507Y829D01*
G01X6505Y834D01*
G01X6501Y844D01*
G01X6499Y848D01*
G01X6494Y858D01*
G01X6491Y862D01*
G01X6486Y871D01*
G01X6484Y875D01*
G01X6531Y875D01*
G01X6531Y879D01*
G01X6530Y884D01*
G01X6530Y895D01*
G01X6529Y899D01*
G01X6528Y910D01*
G01X6527Y915D01*
G01X6525Y926D01*
G01X6524Y931D01*
G01X6522Y941D01*
G01X6521Y946D01*
G01X6518Y956D01*
G01X6516Y961D01*
G01X6513Y971D01*
G01X6511Y976D01*
G01X6507Y986D01*
G01X6505Y991D01*
G01X6501Y1001D01*
G01X6499Y1005D01*
G01X6494Y1015D01*
G01X6491Y1019D01*
G01X6486Y1028D01*
G01X6483Y1033D01*
G01X6477Y1042D01*
G01X6475Y1046D01*
G01X6468Y1055D01*
G01X6465Y1059D01*
G01X6459Y1067D01*
G01X6455Y1071D01*
G01X6448Y1079D01*
G01X6445Y1083D01*
G01X6437Y1090D01*
G01X6434Y1094D01*
G01X6426Y1101D01*
G01X6422Y1104D01*
G01X6414Y1111D01*
G01X6410Y1115D01*
G01X6401Y1121D01*
G01X6397Y1124D01*
G01X6388Y1130D01*
G01X6384Y1133D01*
G01X6375Y1138D01*
G01X6371Y1141D01*
G01X6361Y1146D01*
G01X6357Y1148D01*
G01X6347Y1153D01*
G01X6342Y1155D01*
G01X6332Y1159D01*
G01X6328Y1161D01*
G01X6323Y1163D01*
G37*
G36*
G01X5901Y753D02*
G01X5900Y748D01*
G01X6106Y748D01*
G01X6106Y1163D01*
G01X6101Y1161D01*
G01X6097Y1159D01*
G01X6087Y1155D01*
G01X6082Y1153D01*
G01X6072Y1148D01*
G01X6068Y1146D01*
G01X6058Y1141D01*
G01X6054Y1138D01*
G01X6045Y1133D01*
G01X6041Y1130D01*
G01X6032Y1124D01*
G01X6028Y1121D01*
G01X6019Y1115D01*
G01X6015Y1111D01*
G01X6007Y1104D01*
G01X6003Y1101D01*
G01X5995Y1094D01*
G01X5992Y1090D01*
G01X5984Y1083D01*
G01X5981Y1079D01*
G01X5974Y1071D01*
G01X5970Y1067D01*
G01X5964Y1059D01*
G01X5961Y1055D01*
G01X5954Y1046D01*
G01X5952Y1042D01*
G01X5946Y1033D01*
G01X5943Y1028D01*
G01X5938Y1019D01*
G01X5935Y1015D01*
G01X5930Y1005D01*
G01X5928Y1001D01*
G01X5924Y991D01*
G01X5922Y986D01*
G01X5918Y976D01*
G01X5916Y971D01*
G01X5913Y961D01*
G01X5911Y956D01*
G01X5908Y946D01*
G01X5907Y941D01*
G01X5905Y931D01*
G01X5904Y926D01*
G01X5902Y915D01*
G01X5901Y910D01*
G01X5900Y899D01*
G01X5899Y895D01*
G01X5899Y884D01*
G01X5898Y879D01*
G01X5898Y875D01*
G01X5945Y875D01*
G01X5943Y871D01*
G01X5938Y862D01*
G01X5935Y858D01*
G01X5930Y848D01*
G01X5928Y844D01*
G01X5924Y834D01*
G01X5922Y829D01*
G01X5918Y819D01*
G01X5916Y814D01*
G01X5913Y804D01*
G01X5911Y799D01*
G01X5908Y789D01*
G01X5907Y784D01*
G01X5905Y774D01*
G01X5904Y769D01*
G01X5902Y758D01*
G01X5901Y753D01*
G37*
G36*
G01X1176Y6811D02*
G01X1195Y6810D01*
G01X1214Y6810D01*
G01X1232Y6813D01*
G01X1251Y6817D01*
G01X1269Y6823D01*
G01X1286Y6831D01*
G01X1302Y6840D01*
G01X1318Y6851D01*
G01X1332Y6864D01*
G01X1345Y6878D01*
G01X1356Y6893D01*
G01X1366Y6909D01*
G01X1374Y6926D01*
G01X1381Y6944D01*
G01X1385Y6962D01*
G01X1388Y6981D01*
G01X1389Y6991D01*
G01X1598Y7201D01*
G01X1602Y7204D01*
G01X1605Y7208D01*
G01X1609Y7212D01*
G01X1612Y7216D01*
G01X1615Y7220D01*
G01X1617Y7224D01*
G01X1620Y7228D01*
G01X1622Y7232D01*
G01X1625Y7237D01*
G01X1627Y7241D01*
G01X1629Y7246D01*
G01X1631Y7251D01*
G01X1632Y7255D01*
G01X1634Y7260D01*
G01X1635Y7265D01*
G01X1636Y7270D01*
G01X1637Y7275D01*
G01X1638Y7280D01*
G01X1639Y7285D01*
G01X1639Y7290D01*
G01X1639Y7294D01*
G01X1640Y7300D01*
G01X1640Y7942D01*
G01X1757Y8059D01*
G01X3442Y8059D01*
G01X3710Y7791D01*
G01X3710Y7790D01*
G01X3712Y7771D01*
G01X3716Y7753D01*
G01X3721Y7735D01*
G01X3729Y7717D01*
G01X3738Y7701D01*
G01X3748Y7685D01*
G01X3761Y7671D01*
G01X3774Y7657D01*
G01X3789Y7646D01*
G01X3805Y7635D01*
G01X3822Y7627D01*
G01X3839Y7620D01*
G01X3857Y7615D01*
G01X3876Y7611D01*
G01X3895Y7610D01*
G01X3914Y7610D01*
G01X3932Y7613D01*
G01X3951Y7617D01*
G01X3969Y7623D01*
G01X3986Y7631D01*
G01X4002Y7640D01*
G01X4018Y7651D01*
G01X4032Y7664D01*
G01X4045Y7678D01*
G01X4056Y7693D01*
G01X4066Y7709D01*
G01X4074Y7726D01*
G01X4081Y7744D01*
G01X4085Y7762D01*
G01X4088Y7781D01*
G01X4089Y7800D01*
G01X4088Y7818D01*
G01X4085Y7837D01*
G01X4081Y7855D01*
G01X4074Y7873D01*
G01X4066Y7890D01*
G01X4056Y7906D01*
G01X4045Y7921D01*
G01X4032Y7935D01*
G01X4018Y7948D01*
G01X4002Y7959D01*
G01X3986Y7968D01*
G01X3969Y7976D01*
G01X3951Y7982D01*
G01X3932Y7986D01*
G01X3914Y7989D01*
G01X3908Y7989D01*
G01X3598Y8298D01*
G01X3595Y8302D01*
G01X3591Y8305D01*
G01X3587Y8309D01*
G01X3583Y8312D01*
G01X3579Y8315D01*
G01X3575Y8317D01*
G01X3571Y8320D01*
G01X3567Y8322D01*
G01X3562Y8325D01*
G01X3558Y8327D01*
G01X3553Y8329D01*
G01X3548Y8331D01*
G01X3544Y8332D01*
G01X3539Y8334D01*
G01X3534Y8335D01*
G01X3529Y8336D01*
G01X3524Y8337D01*
G01X3519Y8338D01*
G01X3514Y8339D01*
G01X3509Y8339D01*
G01X3505Y8339D01*
G01X3500Y8340D01*
G01X1700Y8340D01*
G01X1694Y8339D01*
G01X1690Y8339D01*
G01X1685Y8339D01*
G01X1680Y8338D01*
G01X1675Y8337D01*
G01X1670Y8336D01*
G01X1665Y8335D01*
G01X1660Y8334D01*
G01X1655Y8332D01*
G01X1651Y8331D01*
G01X1646Y8329D01*
G01X1641Y8327D01*
G01X1637Y8325D01*
G01X1632Y8322D01*
G01X1628Y8320D01*
G01X1624Y8317D01*
G01X1620Y8315D01*
G01X1616Y8312D01*
G01X1612Y8309D01*
G01X1608Y8305D01*
G01X1604Y8302D01*
G01X1601Y8298D01*
G01X1401Y8098D01*
G01X1397Y8095D01*
G01X1394Y8091D01*
G01X1390Y8087D01*
G01X1387Y8083D01*
G01X1384Y8079D01*
G01X1382Y8075D01*
G01X1379Y8071D01*
G01X1377Y8067D01*
G01X1374Y8062D01*
G01X1372Y8058D01*
G01X1370Y8053D01*
G01X1368Y8048D01*
G01X1367Y8044D01*
G01X1365Y8039D01*
G01X1364Y8034D01*
G01X1363Y8029D01*
G01X1362Y8024D01*
G01X1361Y8019D01*
G01X1360Y8014D01*
G01X1360Y8009D01*
G01X1360Y8005D01*
G01X1359Y8000D01*
G01X1359Y7357D01*
G01X1274Y7272D01*
G01X1274Y7273D01*
G01X1266Y7290D01*
G01X1256Y7306D01*
G01X1245Y7321D01*
G01X1240Y7327D01*
G01X1240Y7942D01*
G01X1657Y8359D01*
G01X3400Y8359D01*
G01X3405Y8360D01*
G01X3409Y8360D01*
G01X3414Y8360D01*
G01X3419Y8361D01*
G01X3424Y8362D01*
G01X3429Y8363D01*
G01X3434Y8364D01*
G01X3439Y8365D01*
G01X3444Y8367D01*
G01X3448Y8368D01*
G01X3453Y8370D01*
G01X3458Y8372D01*
G01X3462Y8374D01*
G01X3467Y8377D01*
G01X3471Y8379D01*
G01X3475Y8382D01*
G01X3479Y8384D01*
G01X3483Y8387D01*
G01X3487Y8390D01*
G01X3491Y8394D01*
G01X3495Y8397D01*
G01X3498Y8401D01*
G01X4876Y9778D01*
G01X4894Y9777D01*
G01X4916Y9777D01*
G01X4938Y9780D01*
G01X4960Y9785D01*
G01X4981Y9792D01*
G01X5001Y9801D01*
G01X5020Y9812D01*
G01X5039Y9825D01*
G01X5055Y9840D01*
G01X5070Y9856D01*
G01X5084Y9874D01*
G01X5095Y9893D01*
G01X5105Y9913D01*
G01X5113Y9934D01*
G01X5118Y9955D01*
G01X5121Y9977D01*
G01X5122Y10000D01*
G01X5121Y10022D01*
G01X5118Y10044D01*
G01X5113Y10065D01*
G01X5105Y10086D01*
G01X5095Y10106D01*
G01X5084Y10125D01*
G01X5070Y10143D01*
G01X5055Y10159D01*
G01X5039Y10174D01*
G01X5020Y10187D01*
G01X5001Y10198D01*
G01X4981Y10207D01*
G01X4960Y10214D01*
G01X4938Y10219D01*
G01X4916Y10222D01*
G01X4894Y10222D01*
G01X4872Y10221D01*
G01X4850Y10217D01*
G01X4828Y10211D01*
G01X4808Y10203D01*
G01X4788Y10193D01*
G01X4769Y10181D01*
G01X4752Y10167D01*
G01X4736Y10151D01*
G01X4722Y10134D01*
G01X4709Y10116D01*
G01X4699Y10096D01*
G01X4690Y10076D01*
G01X4683Y10055D01*
G01X4679Y10033D01*
G01X4677Y10011D01*
G01X4677Y9988D01*
G01X4678Y9976D01*
G01X3342Y8640D01*
G01X1600Y8640D01*
G01X1594Y8639D01*
G01X1590Y8639D01*
G01X1585Y8639D01*
G01X1580Y8638D01*
G01X1575Y8637D01*
G01X1570Y8636D01*
G01X1565Y8635D01*
G01X1560Y8634D01*
G01X1555Y8632D01*
G01X1551Y8631D01*
G01X1546Y8629D01*
G01X1541Y8627D01*
G01X1537Y8625D01*
G01X1532Y8622D01*
G01X1528Y8620D01*
G01X1524Y8617D01*
G01X1520Y8615D01*
G01X1516Y8612D01*
G01X1512Y8609D01*
G01X1508Y8605D01*
G01X1504Y8602D01*
G01X1501Y8598D01*
G01X1001Y8098D01*
G01X997Y8095D01*
G01X994Y8091D01*
G01X990Y8087D01*
G01X987Y8083D01*
G01X984Y8079D01*
G01X982Y8075D01*
G01X979Y8071D01*
G01X977Y8067D01*
G01X974Y8062D01*
G01X972Y8058D01*
G01X970Y8053D01*
G01X968Y8048D01*
G01X967Y8044D01*
G01X965Y8039D01*
G01X964Y8034D01*
G01X963Y8029D01*
G01X962Y8024D01*
G01X961Y8019D01*
G01X960Y8014D01*
G01X960Y8009D01*
G01X960Y8005D01*
G01X959Y8000D01*
G01X959Y7327D01*
G01X948Y7314D01*
G01X938Y7298D01*
G01X929Y7282D01*
G01X921Y7264D01*
G01X916Y7246D01*
G01X912Y7228D01*
G01X910Y7209D01*
G01X910Y7190D01*
G01X912Y7171D01*
G01X916Y7153D01*
G01X921Y7135D01*
G01X929Y7117D01*
G01X938Y7101D01*
G01X948Y7085D01*
G01X961Y7071D01*
G01X974Y7057D01*
G01X989Y7046D01*
G01X1005Y7035D01*
G01X1013Y7031D01*
G01X1012Y7028D01*
G01X1010Y7009D01*
G01X1010Y6990D01*
G01X1012Y6971D01*
G01X1016Y6953D01*
G01X1021Y6935D01*
G01X1029Y6917D01*
G01X1038Y6901D01*
G01X1048Y6885D01*
G01X1061Y6871D01*
G01X1074Y6857D01*
G01X1089Y6846D01*
G01X1105Y6835D01*
G01X1122Y6827D01*
G01X1139Y6820D01*
G01X1157Y6815D01*
G01X1176Y6811D01*
G37*
G36*
G01X648Y3792D02*
G01X689Y3789D01*
G01X730Y3790D01*
G01X771Y3795D01*
G01X811Y3804D01*
G01X850Y3817D01*
G01X887Y3834D01*
G01X922Y3854D01*
G01X956Y3878D01*
G01X986Y3905D01*
G01X1014Y3935D01*
G01X1039Y3968D01*
G01X1060Y4003D01*
G01X1078Y4040D01*
G01X1092Y4078D01*
G01X1102Y4118D01*
G01X1108Y4159D01*
G01X1111Y4200D01*
G01X1108Y4240D01*
G01X1102Y4281D01*
G01X1092Y4321D01*
G01X1078Y4359D01*
G01X1060Y4396D01*
G01X1039Y4431D01*
G01X1035Y4437D01*
G01X1198Y4601D01*
G01X1202Y4604D01*
G01X1205Y4608D01*
G01X1209Y4612D01*
G01X1212Y4616D01*
G01X1215Y4620D01*
G01X1217Y4624D01*
G01X1220Y4628D01*
G01X1222Y4632D01*
G01X1225Y4637D01*
G01X1227Y4641D01*
G01X1229Y4646D01*
G01X1231Y4651D01*
G01X1232Y4655D01*
G01X1234Y4660D01*
G01X1235Y4665D01*
G01X1236Y4670D01*
G01X1237Y4675D01*
G01X1238Y4680D01*
G01X1239Y4685D01*
G01X1239Y4690D01*
G01X1239Y4694D01*
G01X1240Y4700D01*
G01X1240Y5942D01*
G01X1957Y6659D01*
G01X2700Y6659D01*
G01X2705Y6660D01*
G01X2709Y6660D01*
G01X2714Y6660D01*
G01X2719Y6661D01*
G01X2724Y6662D01*
G01X2729Y6663D01*
G01X2734Y6664D01*
G01X2739Y6665D01*
G01X2744Y6667D01*
G01X2748Y6668D01*
G01X2753Y6670D01*
G01X2758Y6672D01*
G01X2762Y6674D01*
G01X2767Y6677D01*
G01X2771Y6679D01*
G01X2775Y6682D01*
G01X2779Y6684D01*
G01X2783Y6687D01*
G01X2787Y6690D01*
G01X2791Y6694D01*
G01X2795Y6697D01*
G01X2798Y6701D01*
G01X2998Y6901D01*
G01X3002Y6904D01*
G01X3005Y6908D01*
G01X3009Y6912D01*
G01X3012Y6916D01*
G01X3015Y6920D01*
G01X3017Y6924D01*
G01X3020Y6928D01*
G01X3022Y6932D01*
G01X3025Y6937D01*
G01X3027Y6941D01*
G01X3029Y6946D01*
G01X3031Y6951D01*
G01X3032Y6955D01*
G01X3034Y6960D01*
G01X3035Y6965D01*
G01X3036Y6970D01*
G01X3037Y6975D01*
G01X3038Y6980D01*
G01X3039Y6985D01*
G01X3039Y6990D01*
G01X3039Y6994D01*
G01X3040Y7000D01*
G01X3040Y7372D01*
G01X3045Y7378D01*
G01X3056Y7393D01*
G01X3066Y7409D01*
G01X3074Y7426D01*
G01X3081Y7444D01*
G01X3085Y7462D01*
G01X3088Y7481D01*
G01X3089Y7500D01*
G01X3088Y7518D01*
G01X3085Y7537D01*
G01X3081Y7555D01*
G01X3074Y7573D01*
G01X3066Y7590D01*
G01X3056Y7606D01*
G01X3045Y7621D01*
G01X3032Y7635D01*
G01X3018Y7648D01*
G01X3002Y7659D01*
G01X2986Y7668D01*
G01X2969Y7676D01*
G01X2951Y7682D01*
G01X2932Y7686D01*
G01X2914Y7689D01*
G01X2895Y7689D01*
G01X2876Y7688D01*
G01X2857Y7684D01*
G01X2839Y7679D01*
G01X2822Y7672D01*
G01X2805Y7664D01*
G01X2789Y7653D01*
G01X2774Y7642D01*
G01X2761Y7628D01*
G01X2748Y7614D01*
G01X2738Y7598D01*
G01X2729Y7582D01*
G01X2721Y7564D01*
G01X2716Y7546D01*
G01X2712Y7528D01*
G01X2710Y7509D01*
G01X2710Y7490D01*
G01X2712Y7471D01*
G01X2716Y7453D01*
G01X2721Y7435D01*
G01X2729Y7417D01*
G01X2738Y7401D01*
G01X2748Y7385D01*
G01X2751Y7382D01*
G01X2751Y7382D01*
G01X2732Y7386D01*
G01X2714Y7389D01*
G01X2695Y7389D01*
G01X2676Y7388D01*
G01X2657Y7384D01*
G01X2639Y7379D01*
G01X2622Y7372D01*
G01X2605Y7364D01*
G01X2589Y7353D01*
G01X2574Y7342D01*
G01X2572Y7340D01*
G01X1900Y7340D01*
G01X1894Y7339D01*
G01X1890Y7339D01*
G01X1885Y7339D01*
G01X1880Y7338D01*
G01X1875Y7337D01*
G01X1870Y7336D01*
G01X1865Y7335D01*
G01X1860Y7334D01*
G01X1855Y7332D01*
G01X1851Y7331D01*
G01X1846Y7329D01*
G01X1841Y7327D01*
G01X1837Y7325D01*
G01X1832Y7322D01*
G01X1828Y7320D01*
G01X1824Y7317D01*
G01X1820Y7315D01*
G01X1816Y7312D01*
G01X1812Y7309D01*
G01X1808Y7305D01*
G01X1804Y7302D01*
G01X1801Y7298D01*
G01X601Y6098D01*
G01X597Y6095D01*
G01X594Y6091D01*
G01X590Y6087D01*
G01X587Y6083D01*
G01X584Y6079D01*
G01X582Y6075D01*
G01X579Y6071D01*
G01X577Y6067D01*
G01X574Y6062D01*
G01X572Y6058D01*
G01X570Y6053D01*
G01X568Y6048D01*
G01X567Y6044D01*
G01X565Y6039D01*
G01X564Y6034D01*
G01X563Y6029D01*
G01X562Y6024D01*
G01X561Y6019D01*
G01X560Y6014D01*
G01X560Y6009D01*
G01X560Y6005D01*
G01X559Y6000D01*
G01X559Y5609D01*
G01X390Y5609D01*
G01X385Y5609D01*
G01X381Y5609D01*
G01X377Y5609D01*
G01X373Y5608D01*
G01X369Y5607D01*
G01X365Y5606D01*
G01X361Y5605D01*
G01X357Y5604D01*
G01X353Y5603D01*
G01X349Y5601D01*
G01X346Y5599D01*
G01X342Y5597D01*
G01X338Y5595D01*
G01X335Y5593D01*
G01X331Y5591D01*
G01X328Y5588D01*
G01X325Y5586D01*
G01X322Y5583D01*
G01X319Y5580D01*
G01X316Y5577D01*
G01X313Y5574D01*
G01X311Y5571D01*
G01X308Y5568D01*
G01X306Y5564D01*
G01X304Y5561D01*
G01X302Y5557D01*
G01X300Y5553D01*
G01X298Y5550D01*
G01X296Y5546D01*
G01X295Y5542D01*
G01X294Y5538D01*
G01X293Y5534D01*
G01X292Y5530D01*
G01X291Y5526D01*
G01X290Y5522D01*
G01X290Y5518D01*
G01X290Y5514D01*
G01X290Y5509D01*
G01X290Y4890D01*
G01X290Y4885D01*
G01X290Y4881D01*
G01X290Y4877D01*
G01X291Y4873D01*
G01X292Y4869D01*
G01X293Y4865D01*
G01X294Y4861D01*
G01X295Y4857D01*
G01X296Y4853D01*
G01X298Y4849D01*
G01X300Y4846D01*
G01X302Y4842D01*
G01X304Y4838D01*
G01X306Y4835D01*
G01X308Y4831D01*
G01X311Y4828D01*
G01X313Y4825D01*
G01X316Y4822D01*
G01X319Y4819D01*
G01X322Y4816D01*
G01X325Y4813D01*
G01X328Y4811D01*
G01X331Y4808D01*
G01X335Y4806D01*
G01X338Y4804D01*
G01X342Y4802D01*
G01X346Y4800D01*
G01X349Y4798D01*
G01X353Y4796D01*
G01X357Y4795D01*
G01X361Y4794D01*
G01X365Y4793D01*
G01X369Y4792D01*
G01X373Y4791D01*
G01X377Y4790D01*
G01X381Y4790D01*
G01X385Y4790D01*
G01X390Y4790D01*
G01X959Y4790D01*
G01X959Y4757D01*
G01X800Y4598D01*
G01X771Y4604D01*
G01X730Y4609D01*
G01X689Y4610D01*
G01X648Y4607D01*
G01X608Y4600D01*
G01X569Y4589D01*
G01X530Y4574D01*
G01X494Y4555D01*
G01X460Y4533D01*
G01X428Y4508D01*
G01X398Y4479D01*
G01X372Y4448D01*
G01X349Y4414D01*
G01X329Y4378D01*
G01X313Y4340D01*
G01X301Y4301D01*
G01X293Y4261D01*
G01X289Y4220D01*
G01X289Y4179D01*
G01X293Y4138D01*
G01X301Y4098D01*
G01X313Y4059D01*
G01X329Y4021D01*
G01X349Y3985D01*
G01X372Y3951D01*
G01X398Y3920D01*
G01X428Y3891D01*
G01X460Y3866D01*
G01X494Y3844D01*
G01X530Y3825D01*
G01X569Y3810D01*
G01X608Y3799D01*
G01X648Y3792D01*
G37*
G36*
G01X329Y3378D02*
G01X319Y3355D01*
G01X544Y3355D01*
G01X544Y3580D01*
G01X530Y3574D01*
G01X494Y3555D01*
G01X460Y3533D01*
G01X428Y3508D01*
G01X398Y3479D01*
G01X372Y3448D01*
G01X349Y3414D01*
G01X329Y3378D01*
G37*
G36*
G01X855Y3580D02*
G01X855Y3355D01*
G01X1080Y3355D01*
G01X1078Y3359D01*
G01X1060Y3396D01*
G01X1039Y3431D01*
G01X1014Y3464D01*
G01X986Y3494D01*
G01X956Y3521D01*
G01X922Y3545D01*
G01X887Y3565D01*
G01X855Y3580D01*
G37*
G36*
G01X6245Y3100D02*
G01X6250Y3100D01*
G01X6950Y3100D01*
G01X6954Y3100D01*
G01X6958Y3100D01*
G01X6962Y3100D01*
G01X6966Y3101D01*
G01X6970Y3102D01*
G01X6974Y3103D01*
G01X6978Y3104D01*
G01X6982Y3105D01*
G01X6986Y3106D01*
G01X6990Y3108D01*
G01X6993Y3110D01*
G01X6997Y3112D01*
G01X7001Y3114D01*
G01X7004Y3116D01*
G01X7008Y3118D01*
G01X7011Y3121D01*
G01X7014Y3123D01*
G01X7017Y3126D01*
G01X7020Y3129D01*
G01X7023Y3132D01*
G01X7026Y3135D01*
G01X7028Y3138D01*
G01X7031Y3141D01*
G01X7033Y3145D01*
G01X7035Y3148D01*
G01X7037Y3152D01*
G01X7039Y3156D01*
G01X7041Y3159D01*
G01X7043Y3163D01*
G01X7044Y3167D01*
G01X7045Y3171D01*
G01X7046Y3175D01*
G01X7047Y3179D01*
G01X7048Y3183D01*
G01X7049Y3187D01*
G01X7049Y3191D01*
G01X7049Y3195D01*
G01X7050Y3200D01*
G01X7050Y5317D01*
G01X7051Y5317D01*
G01X7069Y5323D01*
G01X7086Y5331D01*
G01X7102Y5340D01*
G01X7118Y5351D01*
G01X7132Y5364D01*
G01X7145Y5378D01*
G01X7156Y5393D01*
G01X7166Y5409D01*
G01X7174Y5426D01*
G01X7181Y5444D01*
G01X7185Y5462D01*
G01X7188Y5481D01*
G01X7189Y5491D01*
G01X7798Y6101D01*
G01X7802Y6104D01*
G01X7805Y6108D01*
G01X7809Y6112D01*
G01X7812Y6116D01*
G01X7814Y6120D01*
G01X7817Y6124D01*
G01X7820Y6128D01*
G01X7822Y6132D01*
G01X7825Y6137D01*
G01X7827Y6141D01*
G01X7829Y6146D01*
G01X7831Y6151D01*
G01X7832Y6155D01*
G01X7834Y6160D01*
G01X7835Y6165D01*
G01X7836Y6170D01*
G01X7837Y6175D01*
G01X7838Y6180D01*
G01X7839Y6185D01*
G01X7839Y6190D01*
G01X7839Y6194D01*
G01X7839Y6200D01*
G01X7839Y10500D01*
G01X7839Y10505D01*
G01X7839Y10509D01*
G01X7839Y10514D01*
G01X7838Y10519D01*
G01X7837Y10524D01*
G01X7836Y10529D01*
G01X7835Y10534D01*
G01X7834Y10539D01*
G01X7832Y10544D01*
G01X7831Y10548D01*
G01X7829Y10553D01*
G01X7827Y10558D01*
G01X7825Y10562D01*
G01X7822Y10567D01*
G01X7820Y10571D01*
G01X7817Y10575D01*
G01X7814Y10579D01*
G01X7812Y10583D01*
G01X7809Y10587D01*
G01X7805Y10591D01*
G01X7802Y10595D01*
G01X7798Y10598D01*
G01X7598Y10798D01*
G01X7595Y10802D01*
G01X7591Y10805D01*
G01X7587Y10809D01*
G01X7583Y10812D01*
G01X7579Y10815D01*
G01X7575Y10817D01*
G01X7571Y10820D01*
G01X7567Y10822D01*
G01X7562Y10825D01*
G01X7558Y10827D01*
G01X7553Y10829D01*
G01X7548Y10831D01*
G01X7544Y10832D01*
G01X7539Y10834D01*
G01X7534Y10835D01*
G01X7529Y10836D01*
G01X7524Y10837D01*
G01X7519Y10838D01*
G01X7514Y10839D01*
G01X7509Y10839D01*
G01X7505Y10839D01*
G01X7500Y10840D01*
G01X2173Y10840D01*
G01X2170Y10843D01*
G01X2155Y10859D01*
G01X2139Y10874D01*
G01X2120Y10887D01*
G01X2101Y10898D01*
G01X2081Y10907D01*
G01X2060Y10914D01*
G01X2038Y10919D01*
G01X2016Y10922D01*
G01X1994Y10922D01*
G01X1972Y10921D01*
G01X1950Y10917D01*
G01X1928Y10911D01*
G01X1908Y10903D01*
G01X1888Y10893D01*
G01X1869Y10881D01*
G01X1852Y10867D01*
G01X1836Y10851D01*
G01X1822Y10834D01*
G01X1809Y10816D01*
G01X1799Y10796D01*
G01X1790Y10776D01*
G01X1783Y10755D01*
G01X1779Y10733D01*
G01X1777Y10711D01*
G01X1777Y10688D01*
G01X1779Y10666D01*
G01X1783Y10644D01*
G01X1790Y10623D01*
G01X1799Y10603D01*
G01X1809Y10583D01*
G01X1822Y10565D01*
G01X1836Y10548D01*
G01X1852Y10532D01*
G01X1869Y10518D01*
G01X1888Y10506D01*
G01X1908Y10496D01*
G01X1928Y10488D01*
G01X1950Y10482D01*
G01X1972Y10478D01*
G01X1994Y10477D01*
G01X2016Y10477D01*
G01X2038Y10480D01*
G01X2060Y10485D01*
G01X2081Y10492D01*
G01X2101Y10501D01*
G01X2120Y10512D01*
G01X2139Y10525D01*
G01X2155Y10540D01*
G01X2170Y10556D01*
G01X2173Y10559D01*
G01X7442Y10559D01*
G01X7560Y10442D01*
G01X7560Y6257D01*
G01X7050Y5747D01*
G01X7050Y5800D01*
G01X7049Y5804D01*
G01X7049Y5808D01*
G01X7049Y5812D01*
G01X7048Y5816D01*
G01X7047Y5820D01*
G01X7046Y5824D01*
G01X7045Y5828D01*
G01X7044Y5832D01*
G01X7043Y5836D01*
G01X7041Y5840D01*
G01X7039Y5843D01*
G01X7037Y5847D01*
G01X7035Y5851D01*
G01X7033Y5854D01*
G01X7031Y5858D01*
G01X7028Y5861D01*
G01X7026Y5864D01*
G01X7023Y5867D01*
G01X7020Y5870D01*
G01X7017Y5873D01*
G01X7014Y5876D01*
G01X7011Y5878D01*
G01X7008Y5881D01*
G01X7004Y5883D01*
G01X7001Y5885D01*
G01X6997Y5887D01*
G01X6993Y5889D01*
G01X6990Y5891D01*
G01X6986Y5893D01*
G01X6982Y5894D01*
G01X6978Y5895D01*
G01X6974Y5896D01*
G01X6970Y5897D01*
G01X6966Y5898D01*
G01X6962Y5899D01*
G01X6958Y5899D01*
G01X6954Y5899D01*
G01X6950Y5900D01*
G01X4850Y5900D01*
G01X4845Y5899D01*
G01X4841Y5899D01*
G01X4837Y5899D01*
G01X4833Y5898D01*
G01X4829Y5897D01*
G01X4825Y5896D01*
G01X4821Y5895D01*
G01X4817Y5894D01*
G01X4813Y5893D01*
G01X4809Y5891D01*
G01X4806Y5889D01*
G01X4802Y5887D01*
G01X4798Y5885D01*
G01X4795Y5883D01*
G01X4791Y5881D01*
G01X4788Y5878D01*
G01X4785Y5876D01*
G01X4782Y5873D01*
G01X4779Y5870D01*
G01X4776Y5867D01*
G01X4773Y5864D01*
G01X4771Y5861D01*
G01X4768Y5858D01*
G01X4766Y5854D01*
G01X4764Y5851D01*
G01X4762Y5847D01*
G01X4760Y5843D01*
G01X4758Y5840D01*
G01X4756Y5836D01*
G01X4755Y5832D01*
G01X4754Y5828D01*
G01X4753Y5824D01*
G01X4752Y5820D01*
G01X4751Y5816D01*
G01X4750Y5812D01*
G01X4750Y5808D01*
G01X4750Y5804D01*
G01X4750Y5800D01*
G01X4750Y4100D01*
G01X4750Y4095D01*
G01X4750Y4091D01*
G01X4750Y4087D01*
G01X4751Y4083D01*
G01X4752Y4078D01*
G01X4753Y4074D01*
G01X4754Y4070D01*
G01X4755Y4066D01*
G01X4757Y4062D01*
G01X4758Y4058D01*
G01X4760Y4054D01*
G01X4762Y4051D01*
G01X4764Y4047D01*
G01X4767Y4043D01*
G01X4769Y4040D01*
G01X4772Y4037D01*
G01X4775Y4033D01*
G01X4777Y4030D01*
G01X4780Y4027D01*
G01X4784Y4024D01*
G01X4787Y4022D01*
G01X4790Y4019D01*
G01X4794Y4017D01*
G01X4797Y4014D01*
G01X4801Y4012D01*
G01X4805Y4010D01*
G01X4808Y4008D01*
G01X4812Y4007D01*
G01X5788Y3616D01*
G01X6171Y3137D01*
G01X6174Y3134D01*
G01X6177Y3131D01*
G01X6180Y3128D01*
G01X6183Y3125D01*
G01X6186Y3122D01*
G01X6190Y3119D01*
G01X6193Y3117D01*
G01X6197Y3114D01*
G01X6201Y3112D01*
G01X6204Y3110D01*
G01X6208Y3108D01*
G01X6212Y3107D01*
G01X6216Y3105D01*
G01X6220Y3104D01*
G01X6224Y3103D01*
G01X6228Y3102D01*
G01X6233Y3101D01*
G01X6237Y3100D01*
G01X6241Y3100D01*
G01X6245Y3100D01*
G37*
G36*
G01X6937Y1402D02*
G01X6987Y1399D01*
G01X7037Y1400D01*
G01X7086Y1406D01*
G01X7135Y1417D01*
G01X7183Y1433D01*
G01X7228Y1454D01*
G01X7271Y1479D01*
G01X7312Y1508D01*
G01X7349Y1541D01*
G01X7383Y1577D01*
G01X7413Y1617D01*
G01X7439Y1660D01*
G01X7461Y1705D01*
G01X7478Y1752D01*
G01X7491Y1800D01*
G01X7498Y1850D01*
G01X7501Y1900D01*
G01X7498Y1949D01*
G01X7491Y1999D01*
G01X7478Y2047D01*
G01X7461Y2094D01*
G01X7439Y2139D01*
G01X7413Y2182D01*
G01X7383Y2222D01*
G01X7349Y2258D01*
G01X7312Y2291D01*
G01X7271Y2320D01*
G01X7228Y2345D01*
G01X7183Y2366D01*
G01X7135Y2382D01*
G01X7086Y2393D01*
G01X7037Y2399D01*
G01X6987Y2400D01*
G01X6937Y2397D01*
G01X6888Y2388D01*
G01X6840Y2374D01*
G01X6793Y2356D01*
G01X6749Y2333D01*
G01X6707Y2306D01*
G01X6668Y2275D01*
G01X6632Y2240D01*
G01X6600Y2202D01*
G01X6572Y2161D01*
G01X6548Y2117D01*
G01X6529Y2071D01*
G01X6514Y2023D01*
G01X6504Y1974D01*
G01X6499Y1924D01*
G01X6499Y1875D01*
G01X6504Y1825D01*
G01X6514Y1776D01*
G01X6529Y1728D01*
G01X6548Y1682D01*
G01X6572Y1638D01*
G01X6600Y1597D01*
G01X6632Y1559D01*
G01X6668Y1524D01*
G01X6707Y1493D01*
G01X6749Y1466D01*
G01X6793Y1443D01*
G01X6840Y1425D01*
G01X6888Y1411D01*
G01X6937Y1402D01*
G37*
G36*
G01X637Y1402D02*
G01X687Y1399D01*
G01X737Y1400D01*
G01X786Y1406D01*
G01X835Y1417D01*
G01X883Y1433D01*
G01X928Y1454D01*
G01X971Y1479D01*
G01X1012Y1508D01*
G01X1049Y1541D01*
G01X1083Y1577D01*
G01X1113Y1617D01*
G01X1139Y1660D01*
G01X1161Y1705D01*
G01X1178Y1752D01*
G01X1191Y1800D01*
G01X1198Y1850D01*
G01X1201Y1900D01*
G01X1198Y1949D01*
G01X1191Y1999D01*
G01X1178Y2047D01*
G01X1161Y2094D01*
G01X1139Y2139D01*
G01X1113Y2182D01*
G01X1083Y2222D01*
G01X1049Y2258D01*
G01X1012Y2291D01*
G01X971Y2320D01*
G01X928Y2345D01*
G01X883Y2366D01*
G01X835Y2382D01*
G01X786Y2393D01*
G01X737Y2399D01*
G01X687Y2400D01*
G01X637Y2397D01*
G01X588Y2388D01*
G01X540Y2374D01*
G01X493Y2356D01*
G01X449Y2333D01*
G01X407Y2306D01*
G01X368Y2275D01*
G01X332Y2240D01*
G01X300Y2202D01*
G01X272Y2161D01*
G01X248Y2117D01*
G01X229Y2071D01*
G01X214Y2023D01*
G01X204Y1974D01*
G01X199Y1924D01*
G01X199Y1875D01*
G01X204Y1825D01*
G01X214Y1776D01*
G01X229Y1728D01*
G01X248Y1682D01*
G01X272Y1638D01*
G01X300Y1597D01*
G01X332Y1559D01*
G01X368Y1524D01*
G01X407Y1493D01*
G01X449Y1466D01*
G01X493Y1443D01*
G01X540Y1425D01*
G01X588Y1411D01*
G01X637Y1402D01*
G37*
G36*
G01X5270Y2938D02*
G01X5270Y2933D01*
G01X5482Y2933D01*
G01X5482Y3188D01*
G01X5480Y3187D01*
G01X5475Y3186D01*
G01X5465Y3181D01*
G01X5460Y3179D01*
G01X5449Y3174D01*
G01X5445Y3172D01*
G01X5435Y3166D01*
G01X5430Y3163D01*
G01X5420Y3157D01*
G01X5416Y3155D01*
G01X5406Y3148D01*
G01X5402Y3145D01*
G01X5393Y3138D01*
G01X5389Y3135D01*
G01X5380Y3127D01*
G01X5376Y3124D01*
G01X5368Y3116D01*
G01X5364Y3112D01*
G01X5356Y3104D01*
G01X5352Y3100D01*
G01X5345Y3091D01*
G01X5341Y3088D01*
G01X5334Y3078D01*
G01X5331Y3075D01*
G01X5324Y3065D01*
G01X5321Y3061D01*
G01X5315Y3051D01*
G01X5312Y3047D01*
G01X5306Y3036D01*
G01X5304Y3032D01*
G01X5299Y3022D01*
G01X5297Y3017D01*
G01X5292Y3006D01*
G01X5290Y3002D01*
G01X5285Y2991D01*
G01X5284Y2986D01*
G01X5280Y2975D01*
G01X5279Y2970D01*
G01X5275Y2959D01*
G01X5274Y2954D01*
G01X5271Y2943D01*
G01X5270Y2938D01*
G37*
G36*
G01X5719Y3188D02*
G01X5719Y2933D01*
G01X5931Y2933D01*
G01X5931Y2938D01*
G01X5930Y2943D01*
G01X5927Y2954D01*
G01X5926Y2959D01*
G01X5922Y2970D01*
G01X5921Y2975D01*
G01X5917Y2986D01*
G01X5916Y2991D01*
G01X5911Y3002D01*
G01X5909Y3006D01*
G01X5904Y3017D01*
G01X5902Y3022D01*
G01X5897Y3032D01*
G01X5895Y3036D01*
G01X5889Y3047D01*
G01X5886Y3051D01*
G01X5880Y3061D01*
G01X5877Y3065D01*
G01X5870Y3075D01*
G01X5867Y3078D01*
G01X5860Y3088D01*
G01X5856Y3091D01*
G01X5849Y3100D01*
G01X5845Y3104D01*
G01X5837Y3112D01*
G01X5833Y3116D01*
G01X5825Y3124D01*
G01X5821Y3127D01*
G01X5812Y3135D01*
G01X5808Y3138D01*
G01X5799Y3145D01*
G01X5795Y3148D01*
G01X5785Y3155D01*
G01X5781Y3157D01*
G01X5771Y3163D01*
G01X5766Y3166D01*
G01X5756Y3172D01*
G01X5752Y3174D01*
G01X5741Y3179D01*
G01X5736Y3181D01*
G01X5726Y3186D01*
G01X5721Y3187D01*
G01X5719Y3188D01*
G37*
G36*
G01X5640Y2509D02*
G01X5640Y2307D01*
G01X5641Y2307D01*
G01X5646Y2308D01*
G01X5656Y2310D01*
G01X5661Y2311D01*
G01X5671Y2314D01*
G01X5676Y2316D01*
G01X5686Y2319D01*
G01X5691Y2321D01*
G01X5701Y2325D01*
G01X5706Y2327D01*
G01X5716Y2331D01*
G01X5719Y2333D01*
G01X5719Y2323D01*
G01X5721Y2324D01*
G01X5726Y2325D01*
G01X5736Y2330D01*
G01X5741Y2332D01*
G01X5752Y2337D01*
G01X5756Y2339D01*
G01X5766Y2345D01*
G01X5771Y2348D01*
G01X5781Y2354D01*
G01X5785Y2356D01*
G01X5795Y2363D01*
G01X5799Y2366D01*
G01X5808Y2373D01*
G01X5812Y2376D01*
G01X5821Y2384D01*
G01X5825Y2387D01*
G01X5833Y2395D01*
G01X5837Y2399D01*
G01X5845Y2407D01*
G01X5849Y2411D01*
G01X5856Y2420D01*
G01X5860Y2423D01*
G01X5867Y2433D01*
G01X5870Y2436D01*
G01X5877Y2446D01*
G01X5880Y2450D01*
G01X5886Y2460D01*
G01X5889Y2464D01*
G01X5895Y2475D01*
G01X5897Y2479D01*
G01X5902Y2489D01*
G01X5904Y2494D01*
G01X5909Y2505D01*
G01X5911Y2509D01*
G01X5916Y2520D01*
G01X5917Y2525D01*
G01X5921Y2536D01*
G01X5922Y2541D01*
G01X5926Y2552D01*
G01X5927Y2557D01*
G01X5930Y2568D01*
G01X5931Y2573D01*
G01X5931Y2578D01*
G01X5719Y2578D01*
G01X5719Y2509D01*
G01X5640Y2509D01*
G37*
G36*
G01X5324Y2307D02*
G01X5325Y2307D01*
G01X5325Y2445D01*
G01X5331Y2436D01*
G01X5334Y2433D01*
G01X5341Y2423D01*
G01X5345Y2420D01*
G01X5352Y2411D01*
G01X5356Y2407D01*
G01X5364Y2399D01*
G01X5368Y2395D01*
G01X5376Y2387D01*
G01X5380Y2384D01*
G01X5389Y2376D01*
G01X5393Y2373D01*
G01X5402Y2366D01*
G01X5406Y2363D01*
G01X5416Y2356D01*
G01X5420Y2354D01*
G01X5430Y2348D01*
G01X5435Y2345D01*
G01X5445Y2339D01*
G01X5449Y2337D01*
G01X5460Y2332D01*
G01X5465Y2330D01*
G01X5475Y2325D01*
G01X5480Y2324D01*
G01X5482Y2323D01*
G01X5482Y2578D01*
G01X5270Y2578D01*
G01X5270Y2573D01*
G01X5271Y2568D01*
G01X5274Y2557D01*
G01X5275Y2552D01*
G01X5279Y2541D01*
G01X5280Y2536D01*
G01X5284Y2525D01*
G01X5285Y2520D01*
G01X5290Y2509D01*
G01X5087Y2509D01*
G01X5089Y2504D01*
G01X5091Y2500D01*
G01X5095Y2490D01*
G01X5097Y2485D01*
G01X5102Y2475D01*
G01X5104Y2471D01*
G01X5109Y2461D01*
G01X5112Y2457D01*
G01X5117Y2448D01*
G01X5120Y2444D01*
G01X5126Y2435D01*
G01X5129Y2431D01*
G01X5135Y2422D01*
G01X5139Y2418D01*
G01X5146Y2410D01*
G01X5149Y2406D01*
G01X5156Y2398D01*
G01X5160Y2395D01*
G01X5167Y2387D01*
G01X5171Y2384D01*
G01X5179Y2377D01*
G01X5183Y2373D01*
G01X5191Y2367D01*
G01X5195Y2364D01*
G01X5204Y2357D01*
G01X5208Y2355D01*
G01X5217Y2349D01*
G01X5222Y2346D01*
G01X5231Y2341D01*
G01X5235Y2338D01*
G01X5245Y2333D01*
G01X5249Y2331D01*
G01X5259Y2327D01*
G01X5264Y2325D01*
G01X5274Y2321D01*
G01X5279Y2319D01*
G01X5289Y2316D01*
G01X5294Y2314D01*
G01X5304Y2311D01*
G01X5309Y2310D01*
G01X5319Y2308D01*
G01X5324Y2307D01*
G37*
G36*
G01X2474Y2445D02*
G01X2474Y2309D01*
G01X2475Y2309D01*
G01X2480Y2310D01*
G01X2490Y2312D01*
G01X2495Y2313D01*
G01X2505Y2316D01*
G01X2510Y2318D01*
G01X2520Y2321D01*
G01X2525Y2323D01*
G01X2535Y2327D01*
G01X2540Y2329D01*
G01X2550Y2333D01*
G01X2554Y2335D01*
G01X2564Y2340D01*
G01X2568Y2343D01*
G01X2577Y2348D01*
G01X2582Y2351D01*
G01X2591Y2357D01*
G01X2595Y2359D01*
G01X2604Y2366D01*
G01X2608Y2369D01*
G01X2616Y2375D01*
G01X2620Y2379D01*
G01X2628Y2386D01*
G01X2632Y2389D01*
G01X2639Y2397D01*
G01X2643Y2400D01*
G01X2650Y2408D01*
G01X2653Y2412D01*
G01X2660Y2420D01*
G01X2664Y2424D01*
G01X2670Y2433D01*
G01X2673Y2437D01*
G01X2679Y2446D01*
G01X2682Y2450D01*
G01X2687Y2459D01*
G01X2690Y2463D01*
G01X2695Y2473D01*
G01X2697Y2477D01*
G01X2702Y2487D01*
G01X2704Y2492D01*
G01X2708Y2502D01*
G01X2710Y2506D01*
G01X2712Y2511D01*
G01X2510Y2511D01*
G01X2514Y2520D01*
G01X2515Y2525D01*
G01X2519Y2536D01*
G01X2520Y2541D01*
G01X2524Y2552D01*
G01X2525Y2557D01*
G01X2528Y2568D01*
G01X2529Y2573D01*
G01X2529Y2578D01*
G01X2317Y2578D01*
G01X2317Y2323D01*
G01X2319Y2324D01*
G01X2324Y2325D01*
G01X2334Y2330D01*
G01X2339Y2332D01*
G01X2350Y2337D01*
G01X2354Y2339D01*
G01X2364Y2345D01*
G01X2369Y2348D01*
G01X2379Y2354D01*
G01X2383Y2356D01*
G01X2393Y2363D01*
G01X2397Y2366D01*
G01X2406Y2373D01*
G01X2410Y2376D01*
G01X2419Y2384D01*
G01X2423Y2387D01*
G01X2431Y2395D01*
G01X2435Y2399D01*
G01X2443Y2407D01*
G01X2447Y2411D01*
G01X2454Y2420D01*
G01X2458Y2423D01*
G01X2465Y2433D01*
G01X2468Y2436D01*
G01X2474Y2445D01*
G37*
G36*
G01X2158Y2309D02*
G01X2159Y2309D01*
G01X2159Y2511D01*
G01X2080Y2511D01*
G01X2080Y2578D01*
G01X1868Y2578D01*
G01X1868Y2573D01*
G01X1869Y2568D01*
G01X1872Y2557D01*
G01X1873Y2552D01*
G01X1877Y2541D01*
G01X1878Y2536D01*
G01X1882Y2525D01*
G01X1883Y2520D01*
G01X1888Y2509D01*
G01X1890Y2505D01*
G01X1895Y2494D01*
G01X1897Y2489D01*
G01X1902Y2479D01*
G01X1904Y2475D01*
G01X1910Y2464D01*
G01X1913Y2460D01*
G01X1919Y2450D01*
G01X1922Y2446D01*
G01X1929Y2436D01*
G01X1932Y2433D01*
G01X1939Y2423D01*
G01X1943Y2420D01*
G01X1950Y2411D01*
G01X1954Y2407D01*
G01X1962Y2399D01*
G01X1966Y2395D01*
G01X1974Y2387D01*
G01X1978Y2384D01*
G01X1987Y2376D01*
G01X1991Y2373D01*
G01X2000Y2366D01*
G01X2004Y2363D01*
G01X2014Y2356D01*
G01X2018Y2354D01*
G01X2028Y2348D01*
G01X2033Y2345D01*
G01X2043Y2339D01*
G01X2047Y2337D01*
G01X2058Y2332D01*
G01X2063Y2330D01*
G01X2073Y2325D01*
G01X2078Y2324D01*
G01X2080Y2323D01*
G01X2080Y2335D01*
G01X2083Y2333D01*
G01X2093Y2329D01*
G01X2098Y2327D01*
G01X2108Y2323D01*
G01X2113Y2321D01*
G01X2123Y2318D01*
G01X2128Y2316D01*
G01X2138Y2313D01*
G01X2143Y2312D01*
G01X2153Y2310D01*
G01X2158Y2309D01*
G37*
G36*
G01X1868Y2938D02*
G01X1868Y2933D01*
G01X2080Y2933D01*
G01X2080Y3188D01*
G01X2078Y3187D01*
G01X2073Y3186D01*
G01X2063Y3181D01*
G01X2058Y3179D01*
G01X2047Y3174D01*
G01X2043Y3172D01*
G01X2033Y3166D01*
G01X2028Y3163D01*
G01X2018Y3157D01*
G01X2014Y3155D01*
G01X2004Y3148D01*
G01X2000Y3145D01*
G01X1991Y3138D01*
G01X1987Y3135D01*
G01X1978Y3127D01*
G01X1974Y3124D01*
G01X1966Y3116D01*
G01X1962Y3112D01*
G01X1954Y3104D01*
G01X1950Y3100D01*
G01X1943Y3091D01*
G01X1939Y3088D01*
G01X1932Y3078D01*
G01X1929Y3075D01*
G01X1922Y3065D01*
G01X1919Y3061D01*
G01X1913Y3051D01*
G01X1910Y3047D01*
G01X1904Y3036D01*
G01X1902Y3032D01*
G01X1897Y3022D01*
G01X1895Y3017D01*
G01X1890Y3006D01*
G01X1888Y3002D01*
G01X1883Y2991D01*
G01X1882Y2986D01*
G01X1878Y2975D01*
G01X1877Y2970D01*
G01X1873Y2959D01*
G01X1872Y2954D01*
G01X1869Y2943D01*
G01X1868Y2938D01*
G37*
G36*
G01X2317Y3188D02*
G01X2317Y2933D01*
G01X2529Y2933D01*
G01X2529Y2938D01*
G01X2528Y2943D01*
G01X2525Y2954D01*
G01X2524Y2959D01*
G01X2520Y2970D01*
G01X2519Y2975D01*
G01X2515Y2986D01*
G01X2514Y2991D01*
G01X2509Y3002D01*
G01X2507Y3006D01*
G01X2502Y3017D01*
G01X2500Y3022D01*
G01X2495Y3032D01*
G01X2493Y3036D01*
G01X2487Y3047D01*
G01X2484Y3051D01*
G01X2478Y3061D01*
G01X2475Y3065D01*
G01X2468Y3075D01*
G01X2465Y3078D01*
G01X2458Y3088D01*
G01X2454Y3091D01*
G01X2447Y3100D01*
G01X2443Y3104D01*
G01X2435Y3112D01*
G01X2431Y3116D01*
G01X2423Y3124D01*
G01X2419Y3127D01*
G01X2410Y3135D01*
G01X2406Y3138D01*
G01X2397Y3145D01*
G01X2393Y3148D01*
G01X2383Y3155D01*
G01X2379Y3157D01*
G01X2369Y3163D01*
G01X2364Y3166D01*
G01X2354Y3172D01*
G01X2350Y3174D01*
G01X2339Y3179D01*
G01X2334Y3181D01*
G01X2324Y3186D01*
G01X2319Y3187D01*
G01X2317Y3188D01*
G37*
G36*
G01X530Y2825D02*
G01X544Y2819D01*
G01X544Y3044D01*
G01X319Y3044D01*
G01X329Y3021D01*
G01X349Y2985D01*
G01X372Y2951D01*
G01X398Y2920D01*
G01X428Y2891D01*
G01X460Y2866D01*
G01X494Y2844D01*
G01X530Y2825D01*
G37*
G36*
G01X855Y3044D02*
G01X855Y2819D01*
G01X887Y2834D01*
G01X922Y2854D01*
G01X956Y2878D01*
G01X986Y2905D01*
G01X1014Y2935D01*
G01X1039Y2968D01*
G01X1060Y3003D01*
G01X1078Y3040D01*
G01X1080Y3044D01*
G01X855Y3044D01*
G37*
G36*
G01X4387Y2450D02*
G01X4400Y2450D01*
G01X4418Y2450D01*
G01X4425Y2450D01*
G01X4431Y2450D01*
G01X4438Y2450D01*
G01X4444Y2451D01*
G01X4451Y2452D01*
G01X4457Y2452D01*
G01X4463Y2454D01*
G01X4470Y2455D01*
G01X4476Y2456D01*
G01X4482Y2458D01*
G01X4488Y2459D01*
G01X4494Y2461D01*
G01X4501Y2463D01*
G01X4507Y2466D01*
G01X4513Y2468D01*
G01X4519Y2470D01*
G01X4524Y2473D01*
G01X4530Y2476D01*
G01X4536Y2479D01*
G01X4542Y2482D01*
G01X4547Y2485D01*
G01X4553Y2489D01*
G01X4558Y2492D01*
G01X4563Y2496D01*
G01X4568Y2500D01*
G01X4574Y2503D01*
G01X4579Y2508D01*
G01X4583Y2512D01*
G01X4588Y2516D01*
G01X4593Y2520D01*
G01X4597Y2525D01*
G01X4602Y2530D01*
G01X4606Y2534D01*
G01X4610Y2539D01*
G01X4614Y2544D01*
G01X4618Y2549D01*
G01X4622Y2555D01*
G01X4626Y2560D01*
G01X4629Y2565D01*
G01X4633Y2571D01*
G01X4636Y2576D01*
G01X4639Y2582D01*
G01X4642Y2588D01*
G01X4645Y2594D01*
G01X4647Y2599D01*
G01X4650Y2605D01*
G01X4652Y2611D01*
G01X4655Y2617D01*
G01X4657Y2623D01*
G01X4658Y2630D01*
G01X4660Y2636D01*
G01X4662Y2642D01*
G01X4663Y2648D01*
G01X4664Y2655D01*
G01X4665Y2661D01*
G01X4666Y2667D01*
G01X4667Y2674D01*
G01X4668Y2680D01*
G01X4668Y2687D01*
G01X4668Y2693D01*
G01X4668Y2700D01*
G01X4668Y3277D01*
G01X4670Y3279D01*
G01X4673Y3282D01*
G01X4676Y3285D01*
G01X4678Y3288D01*
G01X4681Y3291D01*
G01X4683Y3295D01*
G01X4685Y3298D01*
G01X4687Y3302D01*
G01X4689Y3306D01*
G01X4691Y3309D01*
G01X4693Y3313D01*
G01X4694Y3317D01*
G01X4695Y3321D01*
G01X4696Y3325D01*
G01X4697Y3329D01*
G01X4698Y3333D01*
G01X4699Y3337D01*
G01X4699Y3341D01*
G01X4699Y3345D01*
G01X4700Y3350D01*
G01X4700Y3800D01*
G01X4699Y3804D01*
G01X4699Y3809D01*
G01X4699Y3813D01*
G01X4698Y3818D01*
G01X4697Y3823D01*
G01X4696Y3827D01*
G01X4694Y3831D01*
G01X4693Y3836D01*
G01X4691Y3840D01*
G01X4500Y4271D01*
G01X4500Y5100D01*
G01X4499Y5104D01*
G01X4499Y5108D01*
G01X4499Y5112D01*
G01X4498Y5116D01*
G01X4497Y5120D01*
G01X4496Y5124D01*
G01X4495Y5128D01*
G01X4494Y5132D01*
G01X4493Y5136D01*
G01X4491Y5140D01*
G01X4489Y5143D01*
G01X4487Y5147D01*
G01X4485Y5151D01*
G01X4483Y5154D01*
G01X4481Y5158D01*
G01X4478Y5161D01*
G01X4476Y5164D01*
G01X4473Y5167D01*
G01X4470Y5170D01*
G01X4467Y5173D01*
G01X4464Y5176D01*
G01X4461Y5178D01*
G01X4458Y5181D01*
G01X4454Y5183D01*
G01X4451Y5185D01*
G01X4447Y5187D01*
G01X4443Y5189D01*
G01X4440Y5191D01*
G01X4436Y5193D01*
G01X4432Y5194D01*
G01X4428Y5195D01*
G01X4424Y5196D01*
G01X4420Y5197D01*
G01X4416Y5198D01*
G01X4412Y5199D01*
G01X4408Y5199D01*
G01X4404Y5199D01*
G01X4400Y5200D01*
G01X3000Y5200D01*
G01X2998Y5199D01*
G01X2698Y5498D01*
G01X2695Y5502D01*
G01X2691Y5505D01*
G01X2687Y5509D01*
G01X2683Y5512D01*
G01X2679Y5515D01*
G01X2675Y5517D01*
G01X2671Y5520D01*
G01X2667Y5522D01*
G01X2662Y5525D01*
G01X2658Y5527D01*
G01X2653Y5529D01*
G01X2648Y5531D01*
G01X2644Y5532D01*
G01X2639Y5534D01*
G01X2634Y5535D01*
G01X2629Y5536D01*
G01X2624Y5537D01*
G01X2619Y5538D01*
G01X2614Y5539D01*
G01X2609Y5539D01*
G01X2605Y5539D01*
G01X2600Y5540D01*
G01X2227Y5540D01*
G01X2218Y5548D01*
G01X2202Y5559D01*
G01X2186Y5568D01*
G01X2169Y5576D01*
G01X2151Y5582D01*
G01X2132Y5586D01*
G01X2114Y5589D01*
G01X2095Y5589D01*
G01X2076Y5588D01*
G01X2057Y5584D01*
G01X2039Y5579D01*
G01X2022Y5572D01*
G01X2005Y5564D01*
G01X1989Y5553D01*
G01X1974Y5542D01*
G01X1961Y5528D01*
G01X1948Y5514D01*
G01X1938Y5498D01*
G01X1929Y5482D01*
G01X1921Y5464D01*
G01X1916Y5446D01*
G01X1912Y5428D01*
G01X1910Y5409D01*
G01X1910Y5390D01*
G01X1912Y5371D01*
G01X1916Y5353D01*
G01X1920Y5340D01*
G01X1727Y5340D01*
G01X1718Y5348D01*
G01X1702Y5359D01*
G01X1686Y5368D01*
G01X1669Y5376D01*
G01X1651Y5382D01*
G01X1632Y5386D01*
G01X1614Y5389D01*
G01X1595Y5389D01*
G01X1576Y5388D01*
G01X1557Y5384D01*
G01X1539Y5379D01*
G01X1522Y5372D01*
G01X1505Y5364D01*
G01X1489Y5353D01*
G01X1474Y5342D01*
G01X1461Y5328D01*
G01X1448Y5314D01*
G01X1438Y5298D01*
G01X1429Y5282D01*
G01X1421Y5264D01*
G01X1416Y5246D01*
G01X1412Y5228D01*
G01X1410Y5209D01*
G01X1410Y5190D01*
G01X1412Y5171D01*
G01X1416Y5153D01*
G01X1421Y5135D01*
G01X1429Y5117D01*
G01X1438Y5101D01*
G01X1448Y5085D01*
G01X1461Y5071D01*
G01X1474Y5057D01*
G01X1489Y5046D01*
G01X1505Y5035D01*
G01X1522Y5027D01*
G01X1539Y5020D01*
G01X1557Y5015D01*
G01X1576Y5011D01*
G01X1595Y5010D01*
G01X1614Y5010D01*
G01X1632Y5013D01*
G01X1651Y5017D01*
G01X1669Y5023D01*
G01X1686Y5031D01*
G01X1702Y5040D01*
G01X1718Y5051D01*
G01X1727Y5059D01*
G01X2542Y5059D01*
G01X2900Y4702D01*
G01X2900Y4250D01*
G01X2900Y4238D01*
G01X2912Y4129D01*
G01X2912Y4128D01*
G01X2910Y4109D01*
G01X2910Y4090D01*
G01X2912Y4071D01*
G01X2916Y4053D01*
G01X2921Y4035D01*
G01X2923Y4030D01*
G01X2938Y3899D01*
G01X2938Y3898D01*
G01X2929Y3882D01*
G01X2921Y3864D01*
G01X2916Y3846D01*
G01X2912Y3828D01*
G01X2910Y3809D01*
G01X2910Y3790D01*
G01X2912Y3771D01*
G01X2916Y3753D01*
G01X2921Y3735D01*
G01X2929Y3717D01*
G01X2938Y3701D01*
G01X2948Y3685D01*
G01X2961Y3671D01*
G01X2964Y3668D01*
G01X3000Y3338D01*
G01X3001Y3334D01*
G01X3001Y3330D01*
G01X3002Y3326D01*
G01X3003Y3322D01*
G01X3005Y3318D01*
G01X3006Y3314D01*
G01X3007Y3310D01*
G01X3009Y3307D01*
G01X3011Y3303D01*
G01X3013Y3299D01*
G01X3015Y3296D01*
G01X3018Y3292D01*
G01X3020Y3289D01*
G01X3023Y3285D01*
G01X3025Y3282D01*
G01X3028Y3279D01*
G01X3031Y3276D01*
G01X3034Y3274D01*
G01X3038Y3271D01*
G01X3041Y3268D01*
G01X3044Y3266D01*
G01X3048Y3264D01*
G01X3051Y3262D01*
G01X3055Y3260D01*
G01X3059Y3258D01*
G01X3063Y3256D01*
G01X3067Y3255D01*
G01X3071Y3254D01*
G01X3075Y3253D01*
G01X3079Y3252D01*
G01X3083Y3251D01*
G01X3087Y3250D01*
G01X3091Y3250D01*
G01X3095Y3250D01*
G01X3100Y3250D01*
G01X3150Y3250D01*
G01X3150Y2700D01*
G01X3150Y2687D01*
G01X3151Y2675D01*
G01X3152Y2662D01*
G01X3154Y2650D01*
G01X3157Y2638D01*
G01X3161Y2626D01*
G01X3165Y2614D01*
G01X3169Y2602D01*
G01X3174Y2591D01*
G01X3180Y2580D01*
G01X3186Y2569D01*
G01X3193Y2559D01*
G01X3200Y2549D01*
G01X3208Y2539D01*
G01X3216Y2529D01*
G01X3225Y2521D01*
G01X3234Y2512D01*
G01X3244Y2504D01*
G01X3254Y2497D01*
G01X3264Y2489D01*
G01X3275Y2483D01*
G01X3285Y2477D01*
G01X3297Y2472D01*
G01X3308Y2467D01*
G01X3320Y2463D01*
G01X3332Y2459D01*
G01X3344Y2456D01*
G01X3356Y2453D01*
G01X3368Y2451D01*
G01X3381Y2450D01*
G01X3393Y2450D01*
G01X3406Y2450D01*
G01X3418Y2450D01*
G01X3431Y2451D01*
G01X3443Y2453D01*
G01X3455Y2456D01*
G01X3467Y2459D01*
G01X3479Y2463D01*
G01X3491Y2467D01*
G01X3502Y2472D01*
G01X3514Y2477D01*
G01X3525Y2483D01*
G01X3535Y2489D01*
G01X3545Y2497D01*
G01X3555Y2504D01*
G01X3565Y2512D01*
G01X3574Y2521D01*
G01X3583Y2529D01*
G01X3591Y2539D01*
G01X3594Y2542D01*
G01X3605Y2535D01*
G01X3622Y2527D01*
G01X3639Y2520D01*
G01X3657Y2515D01*
G01X3676Y2511D01*
G01X3695Y2510D01*
G01X3714Y2510D01*
G01X3732Y2513D01*
G01X3751Y2517D01*
G01X3769Y2523D01*
G01X3786Y2531D01*
G01X3802Y2540D01*
G01X3818Y2551D01*
G01X3827Y2559D01*
G01X3896Y2559D01*
G01X3901Y2551D01*
G01X3911Y2535D01*
G01X3924Y2521D01*
G01X3937Y2507D01*
G01X3952Y2496D01*
G01X3968Y2485D01*
G01X3985Y2477D01*
G01X4002Y2470D01*
G01X4020Y2465D01*
G01X4039Y2461D01*
G01X4058Y2460D01*
G01X4077Y2460D01*
G01X4096Y2463D01*
G01X4114Y2467D01*
G01X4132Y2473D01*
G01X4149Y2481D01*
G01X4165Y2490D01*
G01X4181Y2501D01*
G01X4195Y2514D01*
G01X4208Y2528D01*
G01X4212Y2534D01*
G01X4221Y2525D01*
G01X4229Y2516D01*
G01X4239Y2508D01*
G01X4249Y2500D01*
G01X4259Y2493D01*
G01X4269Y2486D01*
G01X4280Y2480D01*
G01X4291Y2474D01*
G01X4302Y2469D01*
G01X4314Y2465D01*
G01X4326Y2461D01*
G01X4338Y2457D01*
G01X4350Y2454D01*
G01X4362Y2452D01*
G01X4375Y2451D01*
G01X4387Y2450D01*
G37*
G36*
G01X1923Y2733D02*
G01X1921Y2728D01*
G01X2159Y2728D01*
G01X2159Y2930D01*
G01X2158Y2930D01*
G01X2153Y2929D01*
G01X2143Y2927D01*
G01X2138Y2926D01*
G01X2128Y2923D01*
G01X2123Y2921D01*
G01X2113Y2918D01*
G01X2108Y2916D01*
G01X2098Y2912D01*
G01X2093Y2910D01*
G01X2083Y2906D01*
G01X2079Y2904D01*
G01X2069Y2899D01*
G01X2065Y2896D01*
G01X2056Y2891D01*
G01X2051Y2888D01*
G01X2042Y2882D01*
G01X2038Y2880D01*
G01X2029Y2873D01*
G01X2025Y2870D01*
G01X2017Y2864D01*
G01X2013Y2860D01*
G01X2005Y2853D01*
G01X2001Y2850D01*
G01X1994Y2842D01*
G01X1990Y2839D01*
G01X1983Y2831D01*
G01X1980Y2827D01*
G01X1973Y2819D01*
G01X1969Y2815D01*
G01X1963Y2806D01*
G01X1960Y2802D01*
G01X1954Y2793D01*
G01X1951Y2789D01*
G01X1946Y2780D01*
G01X1943Y2776D01*
G01X1938Y2766D01*
G01X1936Y2762D01*
G01X1931Y2752D01*
G01X1929Y2747D01*
G01X1925Y2737D01*
G01X1923Y2733D01*
G37*
G36*
G01X5089Y2731D02*
G01X5087Y2726D01*
G01X5325Y2726D01*
G01X5325Y2928D01*
G01X5324Y2928D01*
G01X5319Y2927D01*
G01X5309Y2925D01*
G01X5304Y2924D01*
G01X5294Y2921D01*
G01X5289Y2919D01*
G01X5279Y2916D01*
G01X5274Y2914D01*
G01X5264Y2910D01*
G01X5259Y2908D01*
G01X5249Y2904D01*
G01X5245Y2902D01*
G01X5235Y2897D01*
G01X5231Y2894D01*
G01X5222Y2889D01*
G01X5217Y2886D01*
G01X5208Y2880D01*
G01X5204Y2878D01*
G01X5195Y2871D01*
G01X5191Y2868D01*
G01X5183Y2862D01*
G01X5179Y2858D01*
G01X5171Y2851D01*
G01X5167Y2848D01*
G01X5160Y2840D01*
G01X5156Y2837D01*
G01X5149Y2829D01*
G01X5146Y2825D01*
G01X5139Y2817D01*
G01X5135Y2813D01*
G01X5129Y2804D01*
G01X5126Y2800D01*
G01X5120Y2791D01*
G01X5117Y2787D01*
G01X5112Y2778D01*
G01X5109Y2774D01*
G01X5104Y2764D01*
G01X5102Y2760D01*
G01X5097Y2750D01*
G01X5095Y2745D01*
G01X5091Y2735D01*
G01X5089Y2731D01*
G37*
G36*
G01X5640Y2928D02*
G01X5640Y2726D01*
G01X5878Y2726D01*
G01X5876Y2731D01*
G01X5874Y2735D01*
G01X5870Y2745D01*
G01X5868Y2750D01*
G01X5863Y2760D01*
G01X5861Y2764D01*
G01X5856Y2774D01*
G01X5853Y2778D01*
G01X5848Y2787D01*
G01X5845Y2791D01*
G01X5839Y2800D01*
G01X5836Y2804D01*
G01X5830Y2813D01*
G01X5826Y2817D01*
G01X5819Y2825D01*
G01X5816Y2829D01*
G01X5809Y2837D01*
G01X5805Y2840D01*
G01X5798Y2848D01*
G01X5794Y2851D01*
G01X5786Y2858D01*
G01X5782Y2862D01*
G01X5774Y2868D01*
G01X5770Y2871D01*
G01X5761Y2878D01*
G01X5757Y2880D01*
G01X5748Y2886D01*
G01X5743Y2889D01*
G01X5734Y2894D01*
G01X5730Y2897D01*
G01X5720Y2902D01*
G01X5716Y2904D01*
G01X5706Y2908D01*
G01X5701Y2910D01*
G01X5691Y2914D01*
G01X5686Y2916D01*
G01X5676Y2919D01*
G01X5671Y2921D01*
G01X5661Y2924D01*
G01X5656Y2925D01*
G01X5646Y2927D01*
G01X5641Y2928D01*
G01X5640Y2928D01*
G37*
G36*
G01X2474Y2930D02*
G01X2474Y2728D01*
G01X2712Y2728D01*
G01X2710Y2733D01*
G01X2708Y2737D01*
G01X2704Y2747D01*
G01X2702Y2752D01*
G01X2697Y2762D01*
G01X2695Y2766D01*
G01X2690Y2776D01*
G01X2687Y2780D01*
G01X2682Y2789D01*
G01X2679Y2793D01*
G01X2673Y2802D01*
G01X2670Y2806D01*
G01X2664Y2815D01*
G01X2660Y2819D01*
G01X2653Y2827D01*
G01X2650Y2831D01*
G01X2643Y2839D01*
G01X2639Y2842D01*
G01X2632Y2850D01*
G01X2628Y2853D01*
G01X2620Y2860D01*
G01X2616Y2864D01*
G01X2608Y2870D01*
G01X2604Y2873D01*
G01X2595Y2880D01*
G01X2591Y2882D01*
G01X2582Y2888D01*
G01X2577Y2891D01*
G01X2568Y2896D01*
G01X2564Y2899D01*
G01X2554Y2904D01*
G01X2550Y2906D01*
G01X2540Y2910D01*
G01X2535Y2912D01*
G01X2525Y2916D01*
G01X2520Y2918D01*
G01X2510Y2921D01*
G01X2505Y2923D01*
G01X2495Y2926D01*
G01X2490Y2927D01*
G01X2480Y2929D01*
G01X2475Y2930D01*
G01X2474Y2930D01*
G37*

%LPD*%
G36*
G01X6900Y7500D02*
G01X5400Y7500D01*
G01X5400Y8402D01*
G01X5400Y8402D01*
G01X5404Y8406D01*
G01X5407Y8410D01*
G01X5410Y8413D01*
G01X5413Y8417D01*
G01X5416Y8421D01*
G01X5418Y8425D01*
G01X5421Y8430D01*
G01X5423Y8434D01*
G01X5425Y8438D01*
G01X5427Y8443D01*
G01X5429Y8447D01*
G01X5431Y8452D01*
G01X5433Y8456D01*
G01X5434Y8461D01*
G01X5435Y8466D01*
G01X5436Y8470D01*
G01X5437Y8475D01*
G01X5438Y8480D01*
G01X5439Y8485D01*
G01X5439Y8490D01*
G01X5439Y8495D01*
G01X5439Y8500D01*
G01X5439Y9700D01*
G01X6900Y9700D01*
G01X6900Y7500D01*
G37*

%LPC*%

%LPD*%
G36*
G01X6950Y3200D02*
G01X6250Y3200D01*
G01X5850Y3700D01*
G01X4850Y4100D01*
G01X4850Y5800D01*
G01X6950Y5800D01*
G01X6950Y3200D01*
G37*

%LPC*%

%LPD*%
G36*
G01X7500Y11450D02*
G01X3900Y11450D01*
G01X3900Y12314D01*
G01X3900Y12313D01*
G01X3903Y12311D01*
G01X3907Y12308D01*
G01X3910Y12306D01*
G01X3914Y12304D01*
G01X3917Y12302D01*
G01X3921Y12300D01*
G01X3925Y12298D01*
G01X3928Y12296D01*
G01X3932Y12295D01*
G01X3936Y12294D01*
G01X3940Y12293D01*
G01X3944Y12292D01*
G01X3948Y12291D01*
G01X3952Y12290D01*
G01X3957Y12290D01*
G01X3961Y12290D01*
G01X3965Y12290D01*
G01X4132Y12290D01*
G01X4132Y12544D01*
G01X3900Y12544D01*
G01X3900Y12855D01*
G01X4132Y12855D01*
G01X4132Y13109D01*
G01X3965Y13109D01*
G01X3961Y13109D01*
G01X3957Y13109D01*
G01X3952Y13109D01*
G01X3948Y13108D01*
G01X3944Y13107D01*
G01X3940Y13106D01*
G01X3936Y13105D01*
G01X3932Y13104D01*
G01X3928Y13103D01*
G01X3925Y13101D01*
G01X3921Y13099D01*
G01X3917Y13097D01*
G01X3914Y13095D01*
G01X3910Y13093D01*
G01X3907Y13091D01*
G01X3903Y13088D01*
G01X3900Y13086D01*
G01X3900Y13085D01*
G01X3900Y13200D01*
G01X7500Y13200D01*
G01X7500Y11450D01*
G37*

%LPC*%
G36*
G01X4467Y12544D02*
G01X4467Y12290D01*
G01X4634Y12290D01*
G01X4638Y12290D01*
G01X4642Y12290D01*
G01X4647Y12290D01*
G01X4651Y12291D01*
G01X4655Y12292D01*
G01X4659Y12293D01*
G01X4663Y12294D01*
G01X4667Y12295D01*
G01X4670Y12296D01*
G01X4674Y12298D01*
G01X4678Y12300D01*
G01X4682Y12302D01*
G01X4685Y12304D01*
G01X4689Y12306D01*
G01X4692Y12308D01*
G01X4696Y12311D01*
G01X4699Y12313D01*
G01X4702Y12316D01*
G01X4705Y12319D01*
G01X4708Y12322D01*
G01X4710Y12325D01*
G01X4713Y12328D01*
G01X4716Y12331D01*
G01X4718Y12335D01*
G01X4720Y12338D01*
G01X4722Y12342D01*
G01X4724Y12346D01*
G01X4726Y12349D01*
G01X4727Y12353D01*
G01X4729Y12357D01*
G01X4730Y12361D01*
G01X4731Y12365D01*
G01X4732Y12369D01*
G01X4733Y12373D01*
G01X4733Y12377D01*
G01X4734Y12381D01*
G01X4734Y12385D01*
G01X4734Y12390D01*
G01X4734Y12544D01*
G01X4467Y12544D01*
G37*
G36*
G01X4467Y13109D02*
G01X4467Y12855D01*
G01X4734Y12855D01*
G01X4734Y13009D01*
G01X4734Y13014D01*
G01X4734Y13018D01*
G01X4733Y13022D01*
G01X4733Y13026D01*
G01X4732Y13030D01*
G01X4731Y13034D01*
G01X4730Y13038D01*
G01X4729Y13042D01*
G01X4727Y13046D01*
G01X4726Y13050D01*
G01X4724Y13053D01*
G01X4722Y13057D01*
G01X4720Y13061D01*
G01X4718Y13064D01*
G01X4716Y13068D01*
G01X4713Y13071D01*
G01X4710Y13074D01*
G01X4708Y13077D01*
G01X4705Y13080D01*
G01X4702Y13083D01*
G01X4699Y13086D01*
G01X4696Y13088D01*
G01X4692Y13091D01*
G01X4689Y13093D01*
G01X4685Y13095D01*
G01X4682Y13097D01*
G01X4678Y13099D01*
G01X4674Y13101D01*
G01X4670Y13103D01*
G01X4667Y13104D01*
G01X4663Y13105D01*
G01X4659Y13106D01*
G01X4655Y13107D01*
G01X4651Y13108D01*
G01X4647Y13109D01*
G01X4642Y13109D01*
G01X4638Y13109D01*
G01X4634Y13109D01*
G01X4467Y13109D01*
G37*

%LPD*%
G36*
G01X4600Y3350D02*
G01X4253Y3350D01*
G01X4239Y3903D01*
G01X4239Y3908D01*
G01X4239Y3913D01*
G01X4238Y3918D01*
G01X4238Y3923D01*
G01X4237Y3928D01*
G01X4235Y3933D01*
G01X4234Y3938D01*
G01X4233Y3943D01*
G01X4231Y3948D01*
G01X4229Y3952D01*
G01X4227Y3957D01*
G01X4225Y3962D01*
G01X4223Y3966D01*
G01X4220Y3970D01*
G01X4218Y3975D01*
G01X4215Y3979D01*
G01X4212Y3983D01*
G01X4209Y3987D01*
G01X4205Y3991D01*
G01X4202Y3995D01*
G01X4198Y3998D01*
G01X3097Y5100D01*
G01X4400Y5100D01*
G01X4400Y4250D01*
G01X4600Y3800D01*
G01X4600Y3350D01*
G37*

%LPC*%
G36*
G01X4161Y4714D02*
G01X4161Y4561D01*
G01X4314Y4561D01*
G01X4313Y4565D01*
G01X4305Y4586D01*
G01X4295Y4606D01*
G01X4284Y4625D01*
G01X4270Y4643D01*
G01X4255Y4659D01*
G01X4239Y4674D01*
G01X4220Y4687D01*
G01X4201Y4698D01*
G01X4181Y4707D01*
G01X4161Y4714D01*
G37*
G36*
G01X3890Y4576D02*
G01X3885Y4561D01*
G01X4038Y4561D01*
G01X4038Y4714D01*
G01X4028Y4711D01*
G01X4008Y4703D01*
G01X3988Y4693D01*
G01X3969Y4681D01*
G01X3952Y4667D01*
G01X3936Y4651D01*
G01X3922Y4634D01*
G01X3909Y4616D01*
G01X3899Y4596D01*
G01X3890Y4576D01*
G37*
G36*
G01X4161Y4438D02*
G01X4161Y4285D01*
G01X4181Y4292D01*
G01X4201Y4301D01*
G01X4220Y4312D01*
G01X4239Y4325D01*
G01X4255Y4340D01*
G01X4270Y4356D01*
G01X4284Y4374D01*
G01X4295Y4393D01*
G01X4305Y4413D01*
G01X4313Y4434D01*
G01X4314Y4438D01*
G01X4161Y4438D01*
G37*
G36*
G01X4028Y4288D02*
G01X4038Y4285D01*
G01X4038Y4438D01*
G01X3885Y4438D01*
G01X3890Y4423D01*
G01X3899Y4403D01*
G01X3909Y4383D01*
G01X3922Y4365D01*
G01X3936Y4348D01*
G01X3952Y4332D01*
G01X3969Y4318D01*
G01X3988Y4306D01*
G01X4008Y4296D01*
G01X4028Y4288D01*
G37*

%LPD*%
G36*
G01X3759Y3350D02*
G01X3100Y3350D01*
G01X3001Y4238D01*
G01X3005Y4235D01*
G01X3022Y4227D01*
G01X3039Y4220D01*
G01X3055Y4215D01*
G01X3055Y4355D01*
G01X3000Y4355D01*
G01X3000Y4444D01*
G01X3055Y4444D01*
G01X3055Y4546D01*
G01X3144Y4457D01*
G01X3144Y4444D01*
G01X3157Y4444D01*
G01X3246Y4355D01*
G01X3144Y4355D01*
G01X3144Y4215D01*
G01X3151Y4217D01*
G01X3169Y4223D01*
G01X3186Y4231D01*
G01X3202Y4240D01*
G01X3218Y4251D01*
G01X3232Y4264D01*
G01X3245Y4278D01*
G01X3256Y4293D01*
G01X3266Y4309D01*
G01X3274Y4326D01*
G01X3274Y4327D01*
G01X3759Y3842D01*
G01X3759Y3350D01*
G37*

%LPC*%

%LPD*%
G54D39*
G01X3400Y3500D02*
G01X3400Y2700D01*
G54D17*
G01X5100Y8500D02*
G01X5300Y8500D01*
G01X5300Y9900D01*
G01X7000Y9900D01*
G01X1200Y7000D02*
G01X1500Y7300D01*
G01X1500Y8000D01*
G01X1700Y8200D01*
G01X3500Y8200D01*
G01X3900Y7800D01*
G01X1600Y5200D02*
G01X2600Y5200D01*
G01X3900Y3900D01*
G01X3900Y2700D01*
G01X3700Y2700D01*
G01X2100Y5400D02*
G01X2600Y5400D01*
G01X4100Y3900D01*
G01X4130Y2666D01*
G01X4130Y2667D01*
G01X1100Y7200D02*
G01X1100Y8000D01*
G01X1600Y8500D01*
G01X3400Y8500D01*
G01X4900Y10000D01*
G01X2700Y7200D02*
G01X1900Y7200D01*
G01X700Y6000D01*
G01X700Y5200D01*
G01X700Y4200D02*
G01X700Y4300D01*
G01X1100Y4700D01*
G01X1100Y6000D01*
G01X1200Y6100D01*
G01X1900Y6800D01*
G01X2700Y6800D01*
G01X2800Y6900D01*
G01X2900Y7000D01*
G01X2900Y7500D01*
G54D39*
G01X4400Y2700D02*
G01X4418Y2700D01*
G01X4418Y3466D01*
G54D17*
G01X2000Y10700D02*
G01X7500Y10700D01*
G01X7700Y10500D01*
G01X7700Y6200D01*
G01X7000Y5500D01*
G01X2900Y7800D02*
G01X3200Y7500D01*
G01X3200Y7000D01*
G01X2800Y6600D01*
G01X2500Y6600D01*
G01X2300Y6400D01*
G01X4063Y2650D02*
G01X4076Y2650D01*
G01X4119Y2692D01*
G01X4119Y2692D02*
G01X4119Y2692D01*
G54D33*
G01X700Y3200D03*
G01X700Y4200D03*
G54D34*
G01X700Y5200D03*
G54D35*
G01X4300Y12700D03*
G54D36*
G01X3300Y12700D03*
G54D22*
G01X3100Y4400D03*
G54D23*
G01X4100Y4500D03*
G54D13*
G01X3418Y2666D03*
G01X4400Y2700D03*
G54D22*
G01X4418Y3466D03*
G01X3418Y3466D03*
G01X4063Y2650D03*
G01X3700Y2700D03*
G01X1600Y5200D03*
G01X2100Y5400D03*
G01X5100Y8500D03*
G01X7000Y9900D03*
G01X1200Y7000D03*
G01X2900Y7500D03*
G01X2700Y7200D03*
G01X3900Y7800D03*
G01X1100Y7200D03*
G54D23*
G01X4900Y10000D03*
G54D22*
G01X4100Y5000D03*
G01X3500Y5000D03*
G01X4400Y3700D03*
G01X3200Y3500D03*
G01X3500Y4000D03*
G01X3100Y4100D03*
G01X4400Y3900D03*
G54D23*
G01X2000Y10700D03*
G54D22*
G01X7000Y5500D03*
G54D23*
G01X1800Y7600D03*
G01X2100Y8000D03*
G01X2100Y7600D03*
G01X1100Y8700D03*
G01X2900Y7800D03*
G01X500Y6200D03*
G01X7900Y11600D03*
G01X7900Y12100D03*
G01X7900Y11100D03*
G01X5000Y11100D03*
G01X5000Y10400D03*
G01X6600Y12800D03*
G01X3500Y12800D03*
G01X3500Y12400D03*
G01X3500Y12000D03*
G01X3500Y11600D03*
G01X3500Y11200D03*
G01X3100Y11200D03*
G01X2700Y11200D03*
G01X2300Y11200D03*
G01X1900Y11200D03*
G01X1600Y11000D03*
G01X1500Y10700D03*
G01X1100Y10700D03*
G01X500Y10700D03*
G01X200Y12800D03*
G01X600Y12800D03*
G01X1000Y12800D03*
G01X1400Y12800D03*
G01X1800Y12800D03*
G01X2200Y12800D03*
G01X2600Y12800D03*
G01X3000Y12800D03*
G01X200Y12400D03*
G01X200Y12000D03*
G01X200Y11600D03*
G01X200Y11200D03*
G01X200Y10800D03*
G01X3100Y10400D03*
G01X3600Y10400D03*
G01X3600Y9900D03*
G01X3100Y9900D03*
G01X3100Y9500D03*
G01X3600Y9500D03*
G01X3600Y9100D03*
G01X3100Y9100D03*
G01X2300Y6400D03*
G01X2300Y6000D03*
G01X2300Y5700D03*
G01X4700Y6400D03*
G01X4700Y6000D03*
G54D22*
G01X5700Y4900D03*
G01X6000Y4900D03*
G01X6300Y4900D03*
G01X6600Y4900D03*
G01X5700Y4600D03*
G01X5700Y4300D03*
G01X5700Y4000D03*
G01X6000Y3800D03*
G01X6200Y3500D03*
G01X6300Y3700D03*
G01X6300Y4000D03*
G01X6300Y4300D03*
G01X6300Y4600D03*
G54D23*
G01X5600Y8800D03*
G01X6700Y8800D03*
G01X5600Y8400D03*
G01X6700Y8400D03*
G01X7100Y12800D03*
G01X5000Y12800D03*
G01X5400Y12800D03*
G01X5800Y12800D03*
G01X6200Y12800D03*
G01X6600Y12400D03*
G01X7100Y12400D03*
G01X5000Y12400D03*
G01X5400Y12400D03*
G01X5800Y12400D03*
G01X6200Y12400D03*
G01X4100Y12000D03*
G01X4600Y12000D03*
G01X5000Y12000D03*
G01X5400Y12000D03*
G01X4600Y11600D03*
G01X5000Y11600D03*
G01X5400Y11600D03*
G01X7200Y8600D03*
G01X7200Y6100D03*
G01X7200Y6700D03*
G01X7900Y10600D03*
G01X7900Y10100D03*
G01X7900Y9600D03*
G01X7900Y9100D03*
G01X7900Y8600D03*
G01X7900Y8100D03*
G01X7900Y7600D03*
G01X7900Y7000D03*
G01X7900Y6400D03*
G01X7900Y5900D03*
G01X7900Y5300D03*
G01X7900Y4700D03*
G01X7900Y4200D03*
G01X7900Y3600D03*
G01X7900Y3000D03*
G01X7900Y2500D03*
G01X7900Y1900D03*
G01X7900Y1300D03*
G01X7900Y700D03*
G01X7900Y200D03*
G01X7900Y200D03*
G01X7400Y200D03*
G01X6900Y200D03*
G01X6200Y2800D03*
G01X6600Y2800D03*
G01X7000Y2800D03*
G01X7500Y2800D03*
G01X2600Y3800D03*
G01X2100Y3800D03*
G01X1500Y3800D03*
G01X1500Y3300D03*
G01X1500Y2800D03*
G01X1500Y2400D03*
G01X1500Y1900D03*
G01X1500Y1400D03*
G01X1100Y1100D03*
G01X600Y1100D03*
G01X200Y700D03*
G01X200Y200D03*
G01X600Y200D03*
G01X1000Y200D03*
G54D22*
G01X3600Y3500D03*
G01X3600Y3800D03*
G01X3100Y3800D03*
G54D23*
G01X6300Y8400D03*
G01X6000Y8400D03*
G01X6000Y8800D03*
G01X6300Y8800D03*
G54D37*
G01X5601Y2873D02*
G01X5601Y2638D01*
G01X2198Y2873D02*
G01X2198Y2638D01*
G54D38*
G01X6214Y471D02*
G01X6214Y865D01*
G01X6214Y709D02*
G01X6214Y432D01*
G01X1584Y471D02*
G01X1584Y865D01*
G01X1588Y709D02*
G01X1588Y432D01*
G01X5385Y2617D02*
G01X5581Y2617D01*
G01X2219Y2619D02*
G01X2415Y2619D01*
M00*
M02*
