;PTH Drill file created by EasyEDA 
M48
INCH,LZ,00.0000
;Holesize 1 = 0.008 INCH
T01C0.008
;Holesize 2 = 0.012 INCH
T02C0.012
;Holesize 3 = 0.028 INCH
T03C0.028
;Holesize 4 = 0.035 INCH
T04C0.035
;Holesize 5 = 0.043 INCH
T05C0.043
%
G05
G90
T01
X+003100Y+004400
X+003418Y+002666
X+004400Y+002700
X+004418Y+003466
X+003418Y+003466
X+004063Y+002650
X+003700Y+002700
X+001600Y+005200
X+002100Y+005400
X+005100Y+008500
X+007000Y+009900
X+001200Y+007000
X+002900Y+007500
X+002700Y+007200
X+003900Y+007800
X+001100Y+007200
X+004100Y+005000
X+003500Y+005000
X+004400Y+003700
X+003200Y+003500
X+003500Y+004000
X+003100Y+004100
X+004400Y+003900
X+007000Y+005500
X+005700Y+004900
X+006000Y+004900
X+006300Y+004900
X+006600Y+004900
X+005700Y+004600
X+005700Y+004300
X+005700Y+004000
X+006000Y+003800
X+006200Y+003500
X+006300Y+003700
X+006300Y+004000
X+006300Y+004300
X+006300Y+004600
X+003600Y+003500
X+003600Y+003800
X+003100Y+003800
T02
X+004100Y+004500
X+004900Y+010000
X+002000Y+010700
X+001800Y+007600
X+002100Y+008000
X+002100Y+007600
X+001100Y+008700
X+002900Y+007800
X+000500Y+006200
X+007900Y+011600
X+007900Y+012100
X+007900Y+011100
X+005000Y+011100
X+005000Y+010400
X+006600Y+012800
X+003500Y+012800
X+003500Y+012400
X+003500Y+012000
X+003500Y+011600
X+003500Y+011200
X+003100Y+011200
X+002700Y+011200
X+002300Y+011200
X+001900Y+011200
X+001600Y+011000
X+001500Y+010700
X+001100Y+010700
X+000500Y+010700
X+000200Y+012800
X+000600Y+012800
X+001000Y+012800
X+001400Y+012800
X+001800Y+012800
X+002200Y+012800
X+002600Y+012800
X+003000Y+012800
X+000200Y+012400
X+000200Y+012000
X+000200Y+011600
X+000200Y+011200
X+000200Y+010800
X+003100Y+010400
X+003600Y+010400
X+003600Y+009900
X+003100Y+009900
X+003100Y+009500
X+003600Y+009500
X+003600Y+009100
X+003100Y+009100
X+002300Y+006400
X+002300Y+006000
X+002300Y+005700
X+004700Y+006400
X+004700Y+006000
X+005600Y+008800
X+006700Y+008800
X+005600Y+008400
X+006700Y+008400
X+007100Y+012800
X+005000Y+012800
X+005400Y+012800
X+005800Y+012800
X+006200Y+012800
X+006600Y+012400
X+007100Y+012400
X+005000Y+012400
X+005400Y+012400
X+005800Y+012400
X+006200Y+012400
X+004100Y+012000
X+004600Y+012000
X+005000Y+012000
X+005400Y+012000
X+004600Y+011600
X+005000Y+011600
X+005400Y+011600
X+007200Y+008600
X+007200Y+006100
X+007200Y+006700
X+007900Y+010600
X+007900Y+010100
X+007900Y+009600
X+007900Y+009100
X+007900Y+008600
X+007900Y+008100
X+007900Y+007600
X+007900Y+007000
X+007900Y+006400
X+007900Y+005900
X+007900Y+005300
X+007900Y+004700
X+007900Y+004200
X+007900Y+003600
X+007900Y+003000
X+007900Y+002500
X+007900Y+001900
X+007900Y+001300
X+007900Y+000700
X+007900Y+000200
X+007900Y+000200
X+007400Y+000200
X+006900Y+000200
X+006200Y+002800
X+006600Y+002800
X+007000Y+002800
X+007500Y+002800
X+002600Y+003800
X+002100Y+003800
X+001500Y+003800
X+001500Y+003300
X+001500Y+002800
X+001500Y+002400
X+001500Y+001900
X+001500Y+001400
X+001100Y+001100
X+000600Y+001100
X+000200Y+000700
X+000200Y+000200
X+000600Y+000200
X+001000Y+000200
X+006300Y+008400
X+006000Y+008400
X+006000Y+008800
X+006300Y+008800
T03
X+005601Y+002638G85X+005601Y+002873
X+002198Y+002638G85X+002198Y+002873
X+006214Y+000453G85X+006214Y+000688
X+001588Y+000453G85X+001588Y+000688
X+005601Y+002617G85X+005364Y+002617
X+002434Y+002619G85X+002198Y+002619
T04
X+000700Y+003200
X+000700Y+004200
X+000700Y+005200
T05
X+004300Y+012700
X+003300Y+012700
M30
